<svg width="139" height="20" viewBox="0 0 139 20" fill="none" xmlns="http://www.w3.org/2000/svg">
<g clip-path="url(#clip0)">
<path d="M8.64071 19.9209C8.08071 18.8409 8.08071 17.5209 8.68071 16.5209L15.0007 5.16094L15.4007 4.40094L13.4007 0.800937C13.2807 0.560937 13.0807 0.320938 12.8807 0.200938C12.4407 -0.119062 11.9207 -0.119062 11.4407 0.200938C11.2407 0.360938 11.0807 0.560937 10.9207 0.800937L1.88071 17.2809C1.20071 18.3609 1.88071 19.9609 2.92071 19.9609L8.64071 19.9209C8.68071 19.9609 8.68071 19.9209 8.64071 19.9209Z" fill="#FF7D2F"/>
<path d="M30.7201 17.28L21.5601 0.84C21.4401 0.6 21.2401 0.36 21.0401 0.24C20.6001 -0.08 20.0801 -0.08 19.6001 0.24C19.4001 0.4 19.2401 0.6 19.0801 0.84L17.0801 4.44L17.4801 5.2L23.8001 16.56C24.4001 17.56 24.4401 18.88 23.8401 19.96C23.8401 19.96 23.8401 19.96 23.8401 20H29.6001C30.7201 19.96 31.3601 18.36 30.7201 17.28Z" fill="#418CCF"/>
<path d="M19.0415 18.8009L16.3215 13.8809L13.5615 18.8009C13.2815 19.2409 13.5615 19.9609 14.0015 19.9609H18.5615C19.0415 19.9609 19.3215 19.2809 19.0415 18.8009Z" fill="#FF7D2F"/>
<path d="M69.4402 6.04094C70.8402 6.04094 72.0802 6.48094 73.1202 7.28094C73.4402 7.52094 73.6802 7.48094 73.8402 7.12094L73.8802 6.96094C74.0802 6.48094 74.4402 5.96094 74.9202 5.96094H75.8402C76.4002 5.96094 76.7602 6.60094 76.7602 7.16094V19.0409C76.7602 19.6009 76.4402 19.9609 75.8402 19.9609H75.0802C74.6002 19.9609 74.2402 19.7609 74.0402 19.2809L73.9202 19.0409C73.7602 18.7209 73.5202 18.3609 73.2402 18.6409C72.2802 19.4409 71.0402 19.9209 69.5602 19.9209C65.1202 19.9209 62.2402 17.0409 62.2402 12.9209C62.2402 9.00094 65.2002 6.04094 69.4402 6.04094ZM69.7202 16.4809C70.8402 16.4809 71.9202 15.8809 72.4802 15.0409C72.6002 14.8409 72.6402 14.6409 72.6402 14.4409V11.6409C72.6402 11.4009 72.6002 11.2009 72.4402 11.0009C71.8802 10.1609 70.8002 9.60094 69.7202 9.60094C67.8802 9.60094 66.4802 11.0809 66.4802 13.0009C66.4802 14.8809 67.8002 16.4809 69.7202 16.4809Z" fill="#1B2C49"/>
<path d="M84.1209 6.92V19.08C84.1209 19.64 83.8009 20 83.2009 20H80.8809C80.3209 20 79.9609 19.68 79.9609 19.08V6.92C79.9609 6.36 80.2809 6 80.8809 6H83.2009C83.8009 6.04 84.1209 6.36 84.1209 6.92Z" fill="#1B2C49"/>
<path d="M87.4004 19.08V7.2C87.4004 6.64 87.7204 6.28 88.3204 6.28H89.4004C89.9204 6.28 90.2404 6.52 90.4404 6.96L90.4804 7.12C90.6404 7.52 90.9604 7.64 91.3604 7.4C92.8404 6.48 94.2804 6 96.2404 6C99.2404 6 101 8.04 101 11.6V19.04C101 19.6 100.68 19.96 100.08 19.96H97.7604C97.2004 19.96 96.8404 19.64 96.8404 19.04V11.84C96.8404 10.56 96.1604 9.64 94.8404 9.64C93.8804 9.64 92.8404 10.12 91.9204 10.68C91.6404 10.88 91.5204 11.12 91.5204 11.44V19.04C91.5204 19.6 91.2004 19.96 90.6004 19.96H88.3204C87.7204 20 87.4004 19.68 87.4004 19.08Z" fill="#1B2C49"/>
<path d="M103 8.92094V7.24094C103 6.68094 103.32 6.04094 103.92 6.04094H104.76C104.96 6.04094 105.08 5.92094 105.08 5.72094V5.32094C105.08 2.08094 106.88 -0.0390625 109.96 -0.0390625C110.8 -0.0390625 111.68 0.120938 112.36 0.320938C112.88 0.440938 113.08 0.880938 113.04 1.36094L112.84 3.00094C112.76 3.64094 112.4 3.84094 111.8 3.68094C111.44 3.56094 111.08 3.52094 110.76 3.52094C109.8 3.52094 109.2 4.28094 109.2 5.24094V5.64094C109.2 5.84094 109.32 5.96094 109.52 5.96094H111.8C112.36 5.96094 112.72 6.60094 112.72 7.16094V8.84094C112.72 9.40094 112.4 9.76094 111.8 9.76094H109.52C109.32 9.76094 109.2 9.88094 109.2 10.0809V19.0809C109.2 19.6409 108.88 20.0009 108.28 20.0009H105.96C105.4 20.0009 105.04 19.6809 105.04 19.0809V10.1209C105.04 9.92094 104.92 9.80094 104.72 9.80094H103.88C103.36 9.80094 103 9.48094 103 8.92094ZM119.96 6.92094V18.8009C119.96 19.3609 119.64 19.9609 119.04 19.9609H116.72C116.16 19.9609 115.8 19.3609 115.8 18.8009V6.92094C115.8 6.36094 116.12 6.00094 116.72 6.00094H119.04C119.64 6.04094 119.96 6.36094 119.96 6.92094Z" fill="#1B2C49"/>
<path d="M123.201 19.08V6.92C123.201 6.36 123.521 6 124.121 6H125.201C125.721 6 126.041 6.24 126.241 6.68L126.281 6.84C126.441 7.24 126.761 7.64 127.161 7.4C128.641 6.48 130.081 6 132.041 6C135.041 6 136.801 8.04 136.801 11.6V19.04C136.801 19.6 136.481 19.96 135.881 19.96H133.561C133.001 19.96 132.641 19.64 132.641 19.04V11.84C132.641 10.56 131.961 9.64 130.641 9.64C129.681 9.64 128.641 10.12 127.721 10.68C127.441 10.88 127.321 11.12 127.321 11.44V19.04C127.321 19.6 127.001 19.96 126.401 19.96H124.121C123.561 20 123.201 19.68 123.201 19.08Z" fill="#1B2C49"/>
<path d="M35.6406 19.081V7.20102C35.6406 6.60102 36.0006 6.28102 36.5606 6.28102H37.5206C38.0406 6.28102 38.4006 6.48102 38.6006 6.96102L38.7206 7.20102C38.9206 7.60102 39.2406 7.72102 39.6006 7.48102C41.1206 6.56102 42.6006 6.04102 44.6406 6.04102C46.1606 6.04102 47.3606 6.56102 48.2006 7.52102C48.4806 7.84102 48.7606 7.88102 49.1206 7.68102C50.7606 6.64102 52.3206 6.04102 54.4406 6.04102C57.5206 6.04102 59.3206 8.12102 59.3206 11.761V19.121C59.3206 19.721 58.9606 20.041 58.4006 20.041H56.0406C55.4406 20.041 55.1206 19.681 55.1206 19.121V12.001C55.1206 10.681 54.4406 9.68102 53.0406 9.68102C52.0006 9.68102 50.8806 10.241 49.9606 10.841C49.6406 11.041 49.5206 11.201 49.5206 11.441V11.721V19.081C49.5206 19.681 49.1606 20.001 48.6006 20.001H46.2406C45.6406 20.001 45.3206 19.641 45.3206 19.081V12.001C45.3206 10.641 44.5606 9.72102 43.2406 9.72102C42.2806 9.72102 41.1606 10.241 40.2406 10.841C39.9606 11.041 39.8006 11.281 39.8006 11.641V19.121C39.8006 19.721 39.4406 20.041 38.8806 20.041H36.5206C35.9606 20.001 35.6406 19.641 35.6406 19.081Z" fill="#1B2C49"/>
</g>
<defs>
<clipPath id="clip0">
<rect width="138.4" height="20" fill="white"/>
</clipPath>
</defs>
</svg>
