<svg xmlns="http://www.w3.org/2000/svg" width="600" height="415" fill="none"><mask id="A" mask-type="alpha" maskUnits="userSpaceOnUse" x="0" y="0" width="600" height="415"><path d="M.5.5H597a2.5 2.5 0 0 1 2.5 2.5v409a2.5 2.5 0 0 1-2.5 2.5H.5V.5z" fill="#000" stroke="#eceef2"/></mask><g mask="url(#A)"><path d="M0 0h597a3 3 0 0 1 3 3v409a3 3 0 0 1-3 3H0V0z" fill="#bbd4ea"/><path d="M0 402.5l601-202V419H0v-16.5z" fill="#ffd8bf"/><path stroke="#fff" stroke-width="2" d="M541.7 213.046l35-11m-1 12l19.738-6.203m-328.4 136.111l-35 11m1-12l-19.738 6.203"/><path d="M47.516 117.012h6.221c2.835 0 4.89.405 6.166 1.217 1.285.802 1.928 2.082 1.928 3.841 0 1.194-.283 2.174-.848 2.94-.556.765-1.299 1.226-2.228 1.381v.136c1.267.283 2.178.812 2.734 1.586.565.775.848 1.805.848 3.09 0 1.823-.661 3.245-1.982 4.266-1.312 1.021-3.099 1.531-5.359 1.531h-7.479v-19.988zm4.238 7.916h2.461c1.149 0 1.978-.178 2.488-.533.52-.356.779-.944.779-1.764 0-.766-.282-1.313-.848-1.641-.556-.337-1.44-.506-2.652-.506h-2.228v4.444zm0 3.363v5.209h2.762c1.167 0 2.028-.223 2.584-.67s.834-1.13.834-2.051c0-1.659-1.185-2.488-3.555-2.488h-2.625zm17.568 1.039c0 1.513.246 2.657.738 3.432.501.774 1.313 1.162 2.434 1.162 1.112 0 1.909-.383 2.393-1.149.492-.774.738-1.923.738-3.445 0-1.513-.246-2.648-.738-3.404s-1.299-1.135-2.42-1.135c-1.112 0-1.914.378-2.406 1.135-.492.747-.738 1.882-.738 3.404zm10.568 0c0 2.488-.656 4.434-1.969 5.838s-3.14 2.105-5.482 2.105c-1.468 0-2.762-.319-3.883-.957-1.121-.647-1.982-1.572-2.584-2.775s-.902-2.607-.902-4.211c0-2.497.652-4.439 1.955-5.824s3.135-2.078 5.496-2.078c1.467 0 2.762.319 3.883.957s1.982 1.554 2.584 2.748.902 2.593.902 4.197zm9.652 7.943c-4.758 0-7.137-2.611-7.137-7.834 0-2.597.647-4.58 1.942-5.947 1.294-1.376 3.149-2.064 5.564-2.064 1.768 0 3.354.346 4.758 1.039l-1.23 3.226c-.656-.264-1.267-.478-1.832-.642-.565-.173-1.13-.26-1.695-.26-2.169 0-3.254 1.54-3.254 4.621 0 2.99 1.085 4.484 3.254 4.484.802 0 1.545-.104 2.229-.314.684-.219 1.367-.556 2.051-1.012v3.569c-.674.428-1.358.724-2.051.888-.684.164-1.55.246-2.598.246zm22.094-15.558V137h-4.184v-12.154h-5.537V137h-4.17v-15.285h13.891zm7.697 7.615c0 1.513.246 2.657.738 3.432.502.774 1.313 1.162 2.434 1.162 1.112 0 1.909-.383 2.392-1.149.493-.774.739-1.923.739-3.445 0-1.513-.246-2.648-.739-3.404s-1.298-1.135-2.419-1.135c-1.112 0-1.915.378-2.407 1.135-.492.747-.738 1.882-.738 3.404zm10.568 0c0 2.488-.656 4.434-1.968 5.838s-3.14 2.105-5.483 2.105c-1.467 0-2.762-.319-3.883-.957-1.121-.647-1.982-1.572-2.584-2.775s-.902-2.607-.902-4.211c0-2.497.652-4.439 1.955-5.824s3.136-2.078 5.496-2.078c1.468 0 2.762.319 3.883.957s1.982 1.554 2.584 2.748.902 2.593.902 4.197zm17.131 7.67h-4.17v-12.154h-3.842c-.291 3.418-.647 5.97-1.066 7.656-.419 1.677-.98 2.894-1.682 3.65-.692.748-1.604 1.121-2.734 1.121-.966 0-1.759-.145-2.379-.437V133.5c.447.182.893.273 1.34.273.52 0 .952-.373 1.299-1.121.355-.747.67-1.991.943-3.732.283-1.75.524-4.152.725-7.205h11.566V137zm8.559-9.379h2.939c2.352 0 4.093.374 5.223 1.121s1.695 1.878 1.695 3.391c0 3.245-2.251 4.867-6.754 4.867h-7.273v-15.285h4.17v5.906zm5.687 4.567c0-.593-.237-1.021-.711-1.286s-1.18-.396-2.119-.396h-2.857v3.609h2.912c1.85 0 2.775-.642 2.775-1.927zm11.143-4.594c1.577 0 2.693-.128 3.349-.383.666-.255.999-.661.999-1.217 0-.492-.242-.861-.725-1.107s-1.281-.369-2.393-.369c-.701 0-1.499.086-2.392.259-.884.174-1.691.411-2.42.711l-1.231-2.912c1.085-.41 2.138-.702 3.159-.875 1.02-.182 2.16-.273 3.418-.273 1.904 0 3.431.364 4.58 1.093s1.722 1.719 1.722 2.967c0 1.723-1.016 2.844-3.049 3.364v.136c1.249.31 2.138.752 2.666 1.326.538.566.807 1.308.807 2.229a3.75 3.75 0 0 1-.902 2.475c-.602.72-1.472 1.276-2.612 1.668s-2.479.587-4.019.587c-2.552 0-4.512-.314-5.879-.943v-3.445c.784.364 1.641.651 2.57.861.939.21 1.846.315 2.721.315 1.358 0 2.374-.151 3.049-.452.674-.31 1.012-.747 1.012-1.312 0-.62-.356-1.076-1.067-1.367-.711-.301-1.805-.451-3.281-.451h-1.613v-2.885h1.531zm9.57-5.879h4.567l2.884 8.599c.246.748.415 1.632.506 2.653h.082c.101-.939.296-1.823.588-2.653l2.83-8.599h4.471l-6.467 17.24c-.592 1.595-1.44 2.789-2.543 3.582-1.094.793-2.374 1.19-3.842 1.19-.72 0-1.426-.078-2.119-.233v-3.308a7.16 7.16 0 0 0 1.641.177c.738 0 1.381-.228 1.928-.683.556-.447.989-1.126 1.298-2.037l.246-.752-6.07-15.176zm22.162 0v6.043c0 .638-.105 2.196-.314 4.676l7.055-10.719h5.017V137h-4.033v-6.098c0-1.084.091-2.616.273-4.593L205.125 137h-5.004v-15.285h4.033zm10.528-6.576c-.174 1.704-.816 2.948-1.928 3.732-1.112.775-2.716 1.162-4.813 1.162-2.16 0-3.759-.373-4.798-1.121-1.03-.747-1.609-2.005-1.737-3.773h3.733c.063.938.296 1.599.697 1.982.41.374 1.139.561 2.187.561.921 0 1.605-.205 2.051-.616.456-.419.734-1.061.834-1.927h3.774zm18.265 6.576v3.131h-5.004V137h-4.17v-12.154h-5.017v-3.131h14.191zm9.188 2.68c-.884 0-1.577.282-2.078.847-.502.556-.789 1.349-.862 2.379h5.852c-.018-1.03-.287-1.823-.807-2.379-.519-.565-1.221-.847-2.105-.847zm.588 12.878c-2.461 0-4.384-.679-5.77-2.037s-2.078-3.281-2.078-5.769c0-2.561.638-4.539 1.914-5.934 1.285-1.403 3.058-2.105 5.318-2.105 2.161 0 3.842.615 5.045 1.845s1.805 2.931 1.805 5.1v2.023H239.1c.045 1.185.396 2.111 1.052 2.776s1.577.998 2.762.998a11.48 11.48 0 0 0 2.611-.287c.821-.192 1.677-.497 2.571-.916v3.226c-.729.365-1.509.634-2.338.807-.83.182-1.841.273-3.035.273zm15.832 0c-4.758 0-7.137-2.611-7.137-7.834 0-2.597.647-4.58 1.941-5.947 1.295-1.376 3.149-2.064 5.565-2.064 1.768 0 3.354.346 4.758 1.039l-1.231 3.226c-.656-.264-1.267-.478-1.832-.642-.565-.173-1.13-.26-1.695-.26-2.169 0-3.254 1.54-3.254 4.621 0 2.99 1.085 4.484 3.254 4.484.802 0 1.545-.104 2.228-.314.684-.219 1.368-.556 2.051-1.012v3.569c-.674.428-1.358.724-2.051.888-.683.164-1.549.246-2.597.246zm12.373-9.652h2.939c2.352 0 4.093.374 5.223 1.121s1.695 1.878 1.695 3.391c0 3.245-2.251 4.867-6.754 4.867h-7.273v-15.285h4.17v5.906zm5.687 4.567c0-.593-.237-1.021-.711-1.286s-1.18-.396-2.119-.396h-2.857v3.609h2.912c1.85 0 2.775-.642 2.775-1.927zM46.12 167.16l5.068-6.216 2.996 1.624-3.808 4.76 3.808 4.76-2.996 1.624-5.068-6.188v-.364zm6.916 0l5.068-6.216 2.996 1.624-3.808 4.76 3.808 4.76-2.996 1.624-5.068-6.188v-.364zm25.515-7.472c0 1.285-.456 2.347-1.367 3.185s-2.147 1.372-3.705 1.6v.082c1.832.182 3.236.688 4.211 1.517.984.83 1.477 1.91 1.477 3.24 0 1.842-.747 3.295-2.242 4.362-1.486 1.066-3.546 1.599-6.18 1.599-2.935 0-5.291-.36-7.068-1.08v-3.554c.857.41 1.859.733 3.008.97 1.157.228 2.238.342 3.24.342 3.363 0 5.045-.98 5.045-2.939 0-.884-.542-1.563-1.627-2.037-1.076-.474-2.671-.711-4.785-.711h-1.873v-3.309h1.682c2.115 0 3.655-.2 4.621-.601s1.449-1.067 1.449-1.997c0-.683-.305-1.225-.916-1.627-.601-.41-1.508-.615-2.721-.615-1.878 0-3.691.543-5.441 1.627l-1.846-2.83c1.139-.756 2.347-1.308 3.623-1.654 1.276-.356 2.693-.533 4.252-.533 2.178 0 3.915.455 5.209 1.367 1.303.911 1.955 2.11 1.955 3.596zM92.277 175l-.807-2.078h-.109c-.702.884-1.426 1.499-2.174 1.846-.738.337-1.704.505-2.898.505-1.468 0-2.625-.419-3.473-1.257-.838-.839-1.258-2.033-1.258-3.582 0-1.623.565-2.817 1.695-3.582 1.139-.775 2.853-1.204 5.141-1.286l2.652-.082v-.67c0-1.549-.793-2.324-2.379-2.324-1.221 0-2.657.369-4.307 1.108l-1.381-2.817c1.759-.92 3.71-1.381 5.851-1.381 2.051 0 3.623.447 4.717 1.34s1.641 2.252 1.641 4.074V175h-2.912zm-1.23-7.082l-1.613.055c-1.212.036-2.115.255-2.707.656s-.889 1.012-.889 1.832c0 1.176.674 1.764 2.023 1.764.966 0 1.736-.278 2.311-.834.583-.556.875-1.295.875-2.215v-1.258zM101.82 175h-4.511l4.115-6.043c-.985-.41-1.732-1.003-2.242-1.777-.501-.775-.752-1.687-.752-2.735 0-1.476.551-2.634 1.654-3.472 1.112-.839 2.625-1.258 4.539-1.258h7.109V175h-4.17v-5.688h-2.296L101.82 175zm.698-10.527c0 .638.25 1.139.752 1.504.501.355 1.157.533 1.968.533h2.324v-3.856h-2.857c-.684 0-1.221.169-1.613.506-.383.328-.574.766-.574 1.313zm27.685-.752c0 .82-.26 1.522-.779 2.105-.511.574-1.267.944-2.27 1.108v.109c1.085.128 1.942.501 2.571 1.121.638.611.957 1.367.957 2.27 0 1.485-.584 2.62-1.75 3.404-1.167.775-2.835 1.162-5.004 1.162h-7.834v-15.285h7.834c2.096 0 3.664.342 4.703 1.025 1.048.675 1.572 1.668 1.572 2.981zm-3.842 6.494c0-.602-.232-1.035-.697-1.299-.465-.273-1.162-.41-2.092-.41h-3.308v3.609h3.39c.884 0 1.554-.164 2.01-.492.465-.337.697-.807.697-1.408zm-.382-6.166c0-.93-.739-1.395-2.215-1.395h-3.5v3.022h3.021c.884 0 1.554-.128 2.01-.383s.684-.67.684-1.244zm18.046-4.334h4.594l-6.057 7.328 6.59 7.957h-4.73l-6.248-7.752V175h-4.17v-15.285h4.17v7.424l5.851-7.424zm10.637 7.615c0 1.513.246 2.657.738 3.432.502.774 1.313 1.162 2.434 1.162 1.112 0 1.909-.383 2.393-1.149.492-.774.738-1.923.738-3.445 0-1.513-.246-2.648-.738-3.404s-1.299-1.135-2.42-1.135c-1.112 0-1.914.378-2.407 1.135-.492.747-.738 1.882-.738 3.404zm10.568 0c0 2.488-.656 4.434-1.968 5.838s-3.14 2.105-5.483 2.105c-1.467 0-2.761-.319-3.883-.957-1.121-.647-1.982-1.572-2.584-2.775s-.902-2.607-.902-4.211c0-2.497.652-4.439 1.955-5.824s3.136-2.078 5.496-2.078c1.468 0 2.762.319 3.883.957s1.983 1.554 2.584 2.748.902 2.593.902 4.197zm7.479-7.615v6.043c0 .638-.105 2.196-.314 4.676l7.054-10.719h5.018V175h-4.033v-6.098c0-1.084.091-2.616.273-4.593L173.68 175h-5.004v-15.285h4.033zm10.527-6.576c-.173 1.704-.815 2.948-1.927 3.732-1.112.775-2.717 1.162-4.813 1.162-2.16 0-3.76-.373-4.799-1.121-1.03-.747-1.608-2.005-1.736-3.773h3.732c.064.938.297 1.599.698 1.982.41.374 1.139.561 2.187.561.921 0 1.604-.205 2.051-.616.456-.419.734-1.061.834-1.927h3.773zm27.002 10.582c0 .82-.259 1.522-.779 2.105-.51.574-1.267.944-2.27 1.108v.109c1.085.128 1.942.501 2.571 1.121.638.611.957 1.367.957 2.27 0 1.485-.584 2.62-1.75 3.404-1.167.775-2.835 1.162-5.004 1.162h-7.834v-15.285h7.834c2.096 0 3.664.342 4.703 1.025 1.048.675 1.572 1.668 1.572 2.981zm-3.842 6.494c0-.602-.232-1.035-.697-1.299-.465-.273-1.162-.41-2.092-.41h-3.308v3.609h3.39c.885 0 1.554-.164 2.01-.492.465-.337.697-.807.697-1.408zm-.382-6.166c0-.93-.739-1.395-2.215-1.395h-3.5v3.022h3.021c.884 0 1.554-.128 2.01-.383s.684-.67.684-1.244zm11.347 3.281c0 1.513.246 2.657.739 3.432.501.774 1.312 1.162 2.433 1.162 1.112 0 1.91-.383 2.393-1.149.492-.774.738-1.923.738-3.445 0-1.513-.246-2.648-.738-3.404s-1.299-1.135-2.42-1.135c-1.112 0-1.914.378-2.406 1.135-.493.747-.739 1.882-.739 3.404zm10.569 0c0 2.488-.657 4.434-1.969 5.838s-3.14 2.105-5.482 2.105c-1.468 0-2.762-.319-3.883-.957-1.121-.647-1.983-1.572-2.584-2.775s-.903-2.607-.903-4.211c0-2.497.652-4.439 1.955-5.824s3.136-2.078 5.497-2.078c1.467 0 2.761.319 3.882.957s1.983 1.554 2.584 2.748.903 2.593.903 4.197zm24.828-3.609c0 .82-.26 1.522-.779 2.105-.511.574-1.267.944-2.27 1.108v.109c1.085.128 1.941.501 2.57 1.121.638.611.957 1.367.957 2.27 0 1.485-.583 2.62-1.75 3.404-1.166.775-2.834 1.162-5.004 1.162h-7.834v-15.285h7.834c2.097 0 3.664.342 4.704 1.025 1.048.675 1.572 1.668 1.572 2.981zm-3.842 6.494c0-.602-.232-1.035-.697-1.299-.465-.273-1.162-.41-2.092-.41h-3.309v3.609h3.391c.884 0 1.554-.164 2.01-.492.465-.337.697-.807.697-1.408zm-.383-6.166c0-.93-.738-1.395-2.215-1.395h-3.5v3.022h3.022c.884 0 1.554-.128 2.01-.383s.683-.67.683-1.244zm14.233 11.224c-4.758 0-7.137-2.611-7.137-7.834 0-2.597.647-4.58 1.941-5.947 1.295-1.376 3.149-2.064 5.565-2.064 1.768 0 3.354.346 4.758 1.039l-1.231 3.226c-.656-.264-1.267-.478-1.832-.642-.565-.173-1.13-.26-1.695-.26-2.17 0-3.254 1.54-3.254 4.621 0 2.99 1.084 4.484 3.254 4.484.802 0 1.545-.104 2.228-.314.684-.219 1.367-.556 2.051-1.012v3.569c-.674.428-1.358.724-2.051.888-.683.164-1.549.246-2.597.246zm14.533-12.878c-.884 0-1.577.282-2.078.847-.502.556-.789 1.349-.862 2.379h5.852c-.018-1.03-.287-1.823-.807-2.379-.519-.565-1.221-.847-2.105-.847zm.588 12.878c-2.461 0-4.384-.679-5.77-2.037s-2.078-3.281-2.078-5.769c0-2.561.638-4.539 1.914-5.934 1.285-1.403 3.058-2.105 5.318-2.105 2.161 0 3.842.615 5.045 1.845s1.805 2.931 1.805 5.1v2.023h-9.857c.045 1.185.396 2.111 1.052 2.776s1.577.998 2.762.998a11.48 11.48 0 0 0 2.611-.287c.821-.192 1.678-.497 2.571-.916v3.226c-.729.365-1.509.634-2.338.807-.83.182-1.841.273-3.035.273zM46.258 203.84c0-3.509.665-6.171 1.996-7.985 1.34-1.822 3.427-2.975 6.262-3.459 1.376-.236 3.432-.537 6.166-.902l.479 3.637c-1.185.137-3.286.428-6.303.875-1.148.182-2.005.456-2.57.82s-.989.884-1.272 1.559c-.273.674-.442 1.572-.506 2.693h.205c.483-.747 1.121-1.321 1.914-1.723s1.645-.601 2.557-.601c1.887 0 3.354.579 4.402 1.736 1.048 1.149 1.572 2.798 1.572 4.949 0 2.48-.665 4.407-1.996 5.784-1.322 1.367-3.149 2.05-5.482 2.05s-4.156-.834-5.469-2.502c-1.303-1.677-1.955-3.987-1.955-6.931zm7.67 6.056c1.978 0 2.967-1.362 2.967-4.087 0-2.653-.893-3.979-2.68-3.979-.492 0-.984.114-1.476.342a5.43 5.43 0 0 0-1.34.902c-.401.365-.697.734-.889 1.108 0 1.85.296 3.267.889 4.252.593.975 1.436 1.462 2.529 1.462zM74.313 213l-.807-2.078h-.109c-.702.884-1.426 1.499-2.174 1.846-.738.337-1.705.505-2.898.505-1.467 0-2.625-.419-3.473-1.257-.839-.839-1.258-2.033-1.258-3.582 0-1.623.565-2.817 1.695-3.582 1.139-.775 2.853-1.204 5.141-1.286l2.652-.082v-.67c0-1.549-.793-2.324-2.379-2.324-1.221 0-2.657.369-4.307 1.108l-1.381-2.817c1.759-.92 3.71-1.381 5.852-1.381 2.051 0 3.623.447 4.717 1.34s1.641 2.252 1.641 4.074V213h-2.912zm-1.231-7.082l-1.613.055c-1.212.036-2.115.255-2.707.656s-.889 1.012-.889 1.832c0 1.176.674 1.764 2.023 1.764.966 0 1.736-.278 2.31-.834.583-.556.875-1.295.875-2.215v-1.258zm12.619-8.203v5.879h5.824v-5.879h4.17V213h-4.17v-6.303h-5.824V213h-4.17v-15.285h4.17zm24.391 0h4.594l-6.057 7.328 6.59 7.957h-4.731l-6.248-7.752V213h-4.17v-15.285h4.17v7.424l5.852-7.424zm11.347 0v6.043c0 .638-.104 2.196-.314 4.676l7.055-10.719h5.017V213h-4.033v-6.098c0-1.084.091-2.616.274-4.593L122.41 213h-5.004v-15.285h4.033zm30.059 7.809l-5.068 6.188-2.996-1.624 3.808-4.76-3.808-4.76 2.996-1.624 5.068 6.216v.364zm-6.916 0l-5.068 6.188-2.996-1.624 3.808-4.76-3.808-4.76 2.996-1.624 5.068 6.216v.364zm21.537-7.809v6.043c0 .638-.105 2.196-.314 4.676l7.054-10.719h5.018V213h-4.033v-6.098c0-1.084.091-2.616.273-4.593L167.09 213h-5.004v-15.285h4.033zm37.311 0V213h-4.184v-12.154h-5.537V213h-4.17v-15.285h13.891zm7.697 7.615c0 1.513.246 2.657.738 3.432.502.774 1.313 1.162 2.434 1.162 1.112 0 1.909-.383 2.392-1.149.493-.774.739-1.923.739-3.445 0-1.513-.246-2.648-.739-3.404s-1.298-1.135-2.42-1.135c-1.111 0-1.914.378-2.406 1.135-.492.747-.738 1.882-.738 3.404zm10.568 0c0 2.488-.656 4.434-1.968 5.838s-3.14 2.105-5.483 2.105c-1.467 0-2.762-.319-3.883-.957-1.121-.647-1.982-1.572-2.584-2.775s-.902-2.607-.902-4.211c0-2.497.652-4.439 1.955-5.824s3.135-2.078 5.496-2.078c1.468 0 2.762.319 3.883.957s1.982 1.554 2.584 2.748.902 2.593.902 4.197zm17.131 7.67h-4.17v-12.154h-3.842c-.291 3.418-.647 5.97-1.066 7.656-.419 1.677-.98 2.894-1.682 3.65-.692.748-1.604 1.121-2.734 1.121-.966 0-1.759-.145-2.379-.437V209.5c.447.182.893.273 1.34.273.519 0 .952-.373 1.299-1.121.355-.747.67-1.991.943-3.732.283-1.75.524-4.152.725-7.205h11.566V213zm2.201-15.285h4.567l2.885 8.599c.246.748.414 1.632.505 2.653h.082c.101-.939.297-1.823.588-2.653l2.83-8.599h4.471l-6.467 17.24c-.592 1.595-1.44 2.789-2.543 3.582-1.093.793-2.374 1.19-3.841 1.19a9.68 9.68 0 0 1-2.12-.233v-3.308c.502.118 1.049.177 1.641.177.738 0 1.381-.228 1.928-.683.556-.447.989-1.126 1.299-2.037l.246-.752-6.071-15.176zm21.793 0v5.592c0 1.33.616 1.996 1.846 1.996.802 0 1.545-.091 2.229-.274.692-.182 1.39-.419 2.091-.711v-6.603h4.17V213h-4.17v-6.07c-.966.51-1.864.87-2.693 1.08s-1.632.314-2.406.314c-1.668 0-2.958-.424-3.869-1.271-.912-.857-1.368-2.074-1.368-3.651v-5.687h4.17zm18.744 0v6.043c0 .638-.104 2.196-.314 4.676l7.055-10.719h5.017V213h-4.033v-6.098c0-1.084.091-2.616.273-4.593L282.535 213h-5.004v-15.285h4.033zm28.793 0v3.131h-5.003V213h-4.17v-12.154h-5.018v-3.131h14.191zm9.188 2.68c-.884 0-1.577.282-2.078.847-.502.556-.789 1.349-.862 2.379h5.852c-.018-1.03-.287-1.823-.807-2.379-.519-.565-1.221-.847-2.105-.847zm.588 12.878c-2.461 0-4.384-.679-5.77-2.037s-2.078-3.281-2.078-5.769c0-2.561.638-4.539 1.914-5.934 1.285-1.403 3.058-2.105 5.319-2.105 2.16 0 3.841.615 5.044 1.845s1.805 2.931 1.805 5.1v2.023h-9.857c.045 1.185.396 2.111 1.052 2.776s1.577.998 2.762.998c.921 0 1.791-.096 2.612-.287s1.677-.497 2.57-.916v3.226c-.729.365-1.509.634-2.338.807-.829.182-1.841.273-3.035.273zM57.209 235.715h4.594l-6.057 7.328 6.59 7.957h-4.73l-6.248-7.752V251h-4.17v-15.285h4.17v7.424l5.852-7.424zm15.709 15.558c-1.796 0-3.204-.651-4.225-1.955h-.219l.219 2.215v6.194h-4.17v-22.012h3.391l.588 1.982h.191c.975-1.513 2.42-2.269 4.334-2.269 1.805 0 3.218.697 4.238 2.092s1.531 3.331 1.531 5.81c0 1.632-.242 3.049-.725 4.252-.474 1.203-1.153 2.119-2.037 2.748s-1.923.943-3.117.943zm-1.231-12.509c-1.03 0-1.782.319-2.256.957-.474.629-.72 1.672-.738 3.131v.451c0 1.64.242 2.816.725 3.527.492.711 1.267 1.066 2.324 1.066 1.868 0 2.803-1.54 2.803-4.621 0-1.504-.232-2.629-.697-3.377-.456-.756-1.176-1.134-2.16-1.134zm16.885-.369c-.884 0-1.577.282-2.078.847-.501.556-.788 1.349-.861 2.379h5.852c-.018-1.03-.287-1.823-.807-2.379-.52-.565-1.221-.847-2.105-.847zm.588 12.878c-2.461 0-4.384-.679-5.77-2.037s-2.078-3.281-2.078-5.769c0-2.561.638-4.539 1.914-5.934 1.285-1.403 3.058-2.105 5.318-2.105 2.16 0 3.842.615 5.045 1.845s1.805 2.931 1.805 5.1v2.023h-9.857c.046 1.185.397 2.111 1.053 2.776s1.577.998 2.762.998c.92 0 1.791-.096 2.611-.287s1.677-.497 2.57-.916v3.226a9.56 9.56 0 0 1-2.338.807c-.829.182-1.841.273-3.035.273zm19.195-3.322v-9.105h-3.13a39.73 39.73 0 0 1-.944 4.826c-.392 1.522-.939 2.948-1.64 4.279h5.714zm6.413 8.531h-3.747V251H100.74v5.482h-3.746v-8.531h1.285c.875-1.358 1.609-3.071 2.201-5.14s1.008-4.435 1.245-7.096h10.8v12.236h2.243v8.531zm6.644-20.767v6.043c0 .638-.105 2.196-.314 4.676l7.054-10.719h5.018V251h-4.033v-6.098c0-1.084.091-2.616.273-4.593L122.383 251h-5.004v-15.285h4.033zm28.793 0v3.131h-5.004V251h-4.17v-12.154h-5.017v-3.131h14.191zm14.301 0v5.879h5.824v-5.879h4.17V251h-4.17v-6.303h-5.824V251h-4.17v-15.285h4.17zM188.582 251l-.807-2.078h-.109c-.702.884-1.426 1.499-2.174 1.846-.738.337-1.704.505-2.898.505-1.468 0-2.625-.419-3.473-1.257-.838-.839-1.258-2.033-1.258-3.582 0-1.623.565-2.817 1.696-3.582 1.139-.775 2.852-1.204 5.14-1.286l2.653-.082v-.67c0-1.549-.793-2.324-2.379-2.324-1.222 0-2.657.369-4.307 1.108l-1.381-2.817c1.759-.92 3.71-1.381 5.852-1.381 2.051 0 3.623.447 4.717 1.34s1.64 2.252 1.64 4.074V251h-2.912zm-1.23-7.082l-1.614.055c-1.212.036-2.114.255-2.707.656s-.888 1.012-.888 1.832c0 1.176.674 1.764 2.023 1.764.966 0 1.736-.278 2.311-.834.583-.556.875-1.295.875-2.215v-1.258zm21.929 7.355c-4.758 0-7.136-2.611-7.136-7.834 0-2.597.647-4.58 1.941-5.947 1.294-1.376 3.149-2.064 5.564-2.064 1.769 0 3.355.346 4.758 1.039l-1.23 3.226c-.657-.264-1.267-.478-1.832-.642a5.77 5.77 0 0 0-1.696-.26c-2.169 0-3.254 1.54-3.254 4.621 0 2.99 1.085 4.484 3.254 4.484.802 0 1.545-.104 2.229-.314.683-.219 1.367-.556 2.051-1.012v3.569c-.675.428-1.358.724-2.051.888-.684.164-1.55.246-2.598.246zm22.313-11.552c0 .82-.26 1.522-.78 2.105-.51.574-1.266.944-2.269 1.108v.109c1.085.128 1.941.501 2.57 1.121.638.611.957 1.367.957 2.27 0 1.485-.583 2.62-1.75 3.404-1.166.775-2.834 1.162-5.004 1.162h-7.834v-15.285h7.834c2.097 0 3.664.342 4.703 1.025 1.049.675 1.573 1.668 1.573 2.981zm-3.842 6.494c0-.602-.232-1.035-.697-1.299-.465-.273-1.162-.41-2.092-.41h-3.309v3.609h3.391c.884 0 1.554-.164 2.01-.492.465-.337.697-.807.697-1.408zm-.383-6.166c0-.93-.738-1.395-2.215-1.395h-3.5v3.022h3.022c.884 0 1.554-.128 2.01-.383s.683-.67.683-1.244zm11.348 3.281c0 1.513.246 2.657.738 3.432.501.774 1.313 1.162 2.434 1.162 1.112 0 1.909-.383 2.392-1.149.492-.774.739-1.923.739-3.445 0-1.513-.247-2.648-.739-3.404s-1.299-1.135-2.42-1.135c-1.112 0-1.914.378-2.406 1.135-.492.747-.738 1.882-.738 3.404zm10.568 0c0 2.488-.656 4.434-1.969 5.838s-3.14 2.105-5.482 2.105c-1.467 0-2.762-.319-3.883-.957-1.121-.647-1.982-1.572-2.584-2.775s-.902-2.607-.902-4.211c0-2.497.652-4.439 1.955-5.824s3.135-2.078 5.496-2.078c1.467 0 2.762.319 3.883.957s1.982 1.554 2.584 2.748.902 2.593.902 4.197zm7.479-7.615v6.043c0 .638-.105 2.196-.315 4.676l7.055-10.719h5.017V251h-4.033v-6.098c0-1.084.091-2.616.274-4.593L257.734 251h-5.004v-15.285h4.034zm19.277 7.478l-4.922-7.478h4.731l2.966 4.867 2.995-4.867h4.73l-4.977 7.478 5.209 7.807h-4.744l-3.213-5.236L275.59 251h-4.731l5.182-7.807zM45 273.715h4.566l2.885 8.599c.246.748.415 1.632.506 2.653h.082c.1-.939.296-1.823.588-2.653l2.83-8.599h4.471l-6.467 17.24c-.592 1.595-1.44 2.789-2.543 3.582-1.094.793-2.374 1.19-3.842 1.19-.72 0-1.426-.078-2.119-.233v-3.308c.501.118 1.048.177 1.641.177a2.92 2.92 0 0 0 1.928-.683c.556-.447.989-1.126 1.299-2.037l.246-.752L45 273.715zm24.336 15.558c-4.758 0-7.137-2.611-7.137-7.834 0-2.597.647-4.58 1.941-5.947 1.294-1.376 3.149-2.064 5.564-2.064 1.768 0 3.354.346 4.758 1.039l-1.231 3.226c-.656-.264-1.267-.478-1.832-.642-.565-.173-1.13-.26-1.695-.26-2.169 0-3.254 1.54-3.254 4.621 0 2.99 1.085 4.484 3.254 4.484.802 0 1.545-.104 2.228-.314.684-.219 1.367-.556 2.051-1.012v3.569c-.674.428-1.358.724-2.051.888-.684.164-1.549.246-2.598.246zM91.225 289h-4.17v-12.154h-3.842c-.292 3.418-.647 5.97-1.066 7.656-.419 1.677-.98 2.894-1.682 3.65-.693.748-1.604 1.121-2.734 1.121-.966 0-1.759-.145-2.379-.437V285.5c.447.182.893.273 1.34.273.519 0 .953-.373 1.299-1.121.355-.747.67-1.991.943-3.732.282-1.75.524-4.152.725-7.205h11.566V289zm7.711-7.67c0 1.513.246 2.657.738 3.432.501.774 1.312 1.162 2.433 1.162 1.112 0 1.91-.383 2.393-1.149.492-.774.738-1.923.738-3.445 0-1.513-.246-2.648-.738-3.404s-1.299-1.135-2.42-1.135c-1.112 0-1.914.378-2.406 1.135-.492.747-.738 1.882-.738 3.404zm10.569 0c0 2.488-.656 4.434-1.969 5.838s-3.14 2.105-5.482 2.105c-1.468 0-2.762-.319-3.883-.957-1.121-.647-1.982-1.572-2.584-2.775s-.902-2.607-.902-4.211c0-2.497.652-4.439 1.955-5.824s3.135-2.078 5.496-2.078c1.467 0 2.761.319 3.883.957s1.982 1.554 2.584 2.748.902 2.593.902 4.197zm17.555-3.609c0 .82-.26 1.522-.78 2.105-.51.574-1.267.944-2.269 1.108v.109c1.084.128 1.941.501 2.57 1.121.638.611.957 1.367.957 2.27 0 1.485-.583 2.62-1.75 3.404-1.167.775-2.835 1.162-5.004 1.162h-7.834v-15.285h7.834c2.097 0 3.664.342 4.703 1.025 1.049.675 1.573 1.668 1.573 2.981zm-3.842 6.494c0-.602-.233-1.035-.697-1.299-.465-.273-1.163-.41-2.092-.41h-3.309v3.609h3.391c.884 0 1.554-.164 2.01-.492.464-.337.697-.807.697-1.408zm-.383-6.166c0-.93-.738-1.395-2.215-1.395h-3.5v3.022h3.022c.884 0 1.554-.128 2.009-.383s.684-.67.684-1.244zm12.059-4.334v6.043c0 .638-.105 2.196-.315 4.676l7.055-10.719h5.017V289h-4.033v-6.098c0-1.084.091-2.616.274-4.593L135.863 289h-5.004v-15.285h4.034zM153.363 289h-4.511l4.115-6.043c-.985-.41-1.732-1.003-2.242-1.777-.502-.775-.752-1.687-.752-2.735 0-1.476.551-2.634 1.654-3.472 1.112-.839 2.625-1.258 4.539-1.258h7.109V289h-4.17v-5.688h-2.296L153.363 289zm.698-10.527c0 .638.25 1.139.751 1.504.502.355 1.158.533 1.969.533h2.324v-3.856h-2.857c-.684 0-1.221.169-1.613.506-.383.328-.574.766-.574 1.313zm16.707 2.72l-4.922-7.478h4.73l2.967 4.867 2.994-4.867h4.731l-4.977 7.478L181.5 289h-4.744l-3.213-5.236-3.227 5.236h-4.73l5.182-7.807z" fill="#fff"/><path d="M53.622 86.898c-.686-1.347-.686-2.994.049-4.241l7.747-14.17.49-.948-2.452-4.491c-.147-.299-.392-.599-.638-.748-.539-.399-1.177-.399-1.765 0-.245.2-.441.449-.637.748L45.335 83.605c-.834 1.347 0 3.343 1.275 3.343l7.012-.05c.049.05.049 0 0 0z" fill="#ff7d2f"/><path d="M80.689 83.606L69.461 63.099c-.147-.299-.392-.599-.637-.748-.539-.399-1.177-.399-1.765 0-.245.2-.441.449-.638.748l-2.452 4.491.49.948 7.747 14.17a4.35 4.35 0 0 1 .049 4.241v.05h7.061c1.373-.05 2.157-2.046 1.373-3.393z" fill="#418ccf"/><path d="M66.371 85.504l-3.334-6.137-3.383 6.137c-.343.549 0 1.447.539 1.447h5.59c.588 0 .932-.848.588-1.447z" fill="#ff7d2f"/><path d="M507.789 212.617s-19.248 38.455-38.801 65.001c-7.778 10.565-15.608 19.243-22.288 22.862-6.541 3.541-12.077 9.043-16.657 15.139-11.865 15.787-17.341 35.551-17.341 35.551l-49.997-75.54s1.706-73.841 7.709-86.192c8.749-18 12.976-54.368 16.337-61.609 2.494-5.371 9.614-33.116 10.297-35.155.297-.878 2.666-2.224 5.743-2.222 2.469 0 6.662 2.384 7.719 7.281 5.347 24.757-1.089 41.087-1.016 41.812 1.886 19.027-3.784 33.151.192 36.891.148.137.423.073.812-.175 6.892-4.419 49.671-66.705 54.941-68.05 5.564-1.417 42.35 104.406 42.35 104.406z" fill="#fab68a"/><path d="M427.743 336.22l-2.63 78.78H299l53.889-113.063s71.808 2.19 74.854 34.283z" fill="#f48647"/><path d="M551.504 82.47l-30.676 44.914c-.926 1.114-2.001 1.503-3.16 1.39-3.644-.345-8.155-5.595-11.671-8.502l-.357-.294c-4.634-3.829-5.29-10.751-1.455-15.377l30.107-36.35c3.836-4.628 10.765-5.283 15.397-1.453l.359.294a10.95 10.95 0 0 1 1.456 15.379z" fill="#ffb27d"/><path d="M536.022 105.136l-15.194 22.245c-.925 1.117-2 1.506-3.16 1.393l9.738-52.208c.021.293 1.676 23.718 8.616 28.57z" fill="#efa26f"/><path d="M468.986 277.616c-7.777 10.565-15.607 19.243-22.288 22.862-6.54 3.541-12.076 9.043-16.656 15.139l-17.148-8.181c-7.15-3.47-7.424-13.607-.421-17.366a4.89 4.89 0 0 0 .201-.111c6.562-3.748 13.285-16.99 13.285-16.99l43.027 4.647z" fill="#e9a984"/><path d="M396.701 93.821l-4.051 16.334s3.542 1.448 5.816.323 4.13-15.777-1.765-16.657z" fill="#ffc197"/><path d="M513.199 285.338h-87.11c-8.569 0-15.579-7.002-15.579-15.559V78.561c0-8.558 7.01-15.559 15.579-15.559h87.11c8.568 0 15.578 7.001 15.578 15.559v191.218c0 8.557-7.01 15.559-15.578 15.559z" fill="#1b2c49"/><path d="M522.918 80.026v186.79c0 6.336-5.154 11.52-11.45 11.52h-83.644c-6.296 0-11.449-5.184-11.449-11.52V80.026c0-6.337 5.153-11.519 11.449-11.519h83.644c6.296 0 11.45 5.183 11.45 11.519z" fill="#f4f4f4"/><path d="M511.468 68.507l-82.609 209.829h-1.035c-6.296 0-11.449-5.184-11.449-11.52V80.026c0-6.337 5.153-11.519 11.449-11.519h83.644z" fill="#fff"/><rect x="428" y="210" width="82" height="23" rx="3" fill="#ff7d2f"/><path d="M448.309 225h-.83v-6.401h-3.667V225h-.831v-7.139h5.328V225zm6.464-2.681c0 .873-.219 1.555-.659 2.046s-1.046.733-1.821.733c-.479 0-.903-.113-1.274-.337s-.658-.547-.86-.967-.303-.912-.303-1.475c0-.872.219-1.551.655-2.036s1.041-.732 1.816-.732c.749 0 1.343.249 1.782.747s.664 1.172.664 2.021zm-4.077 0c0 .684.137 1.205.41 1.563s.676.537 1.206.537.933-.177 1.207-.532.415-.881.415-1.568c0-.68-.139-1.196-.415-1.548s-.679-.532-1.216-.532c-.531 0-.931.174-1.201.523s-.406.867-.406 1.557zm10.152 4.532h-.786V225h-3.741v1.851h-.781v-2.549h.42c.436-.593.778-1.288 1.025-2.085s.376-1.654.386-2.569h2.71v4.654h.767v2.549zm-1.548-2.549v-4.014h-1.201a8.95 8.95 0 0 1-.42 2.197c-.235.739-.528 1.345-.879 1.817h2.5zm7.241-1.983c0 .873-.22 1.555-.659 2.046s-1.047.733-1.821.733c-.479 0-.904-.113-1.275-.337s-.657-.547-.859-.967-.303-.912-.303-1.475c0-.872.218-1.551.654-2.036s1.042-.732 1.817-.732c.748 0 1.343.249 1.782.747s.664 1.172.664 2.021zm-4.077 0c0 .684.137 1.205.41 1.563s.675.537 1.206.537.933-.177 1.206-.532.415-.881.415-1.568c0-.68-.138-1.196-.415-1.548s-.679-.532-1.216-.532c-.53 0-.931.174-1.201.523s-.405.867-.405 1.557zm5.224-.527c0-1.172.173-2.085.518-2.739s.892-1.068 1.641-1.231l2.461-.483.151.713-2.422.449c-.472.107-.827.361-1.064.762s-.363.945-.386 1.635h.059c.201-.273.462-.488.781-.644a2.25 2.25 0 0 1 1.001-.234c.657 0 1.17.213 1.538.639s.552 1.017.552 1.773c0 .836-.214 1.491-.64 1.963s-1.021.703-1.782.703c-.752 0-1.341-.288-1.768-.865s-.64-1.39-.64-2.441zm2.481 2.627c.993 0 1.489-.633 1.489-1.899 0-1.208-.451-1.812-1.352-1.812a1.73 1.73 0 0 0-.718.156 2.43 2.43 0 0 0-.63.406c-.189.169-.335.343-.439.522 0 .856.135 1.509.405 1.958s.685.669 1.245.669zm6.255.679a2.36 2.36 0 0 1-.957-.191c-.287-.13-.528-.329-.723-.595h-.058a7.17 7.17 0 0 1 .058.888v2.202h-.81v-7.754h.659l.112.733h.039c.208-.293.451-.505.728-.635s.594-.195.952-.195c.709 0 1.256.242 1.64.727s.582 1.166.582 2.041-.197 1.563-.591 2.051-.935.728-1.631.728zm-.117-4.859c-.547 0-.943.152-1.187.454s-.369.785-.376 1.446v.18c0 .752.125 1.291.376 1.617s.653.483 1.206.483c.462 0 .824-.187 1.084-.562s.396-.89.396-1.547c0-.668-.132-1.179-.396-1.534s-.628-.537-1.103-.537zm7.05 4.761l-.161-.762h-.039c-.267.336-.534.563-.801.684s-.594.176-.991.176c-.53 0-.947-.137-1.25-.41s-.449-.663-.449-1.167c0-1.081.864-1.648 2.593-1.7l.908-.029v-.332c0-.42-.091-.729-.273-.928s-.468-.303-.865-.303c-.446 0-.95.137-1.513.411l-.249-.62c.263-.144.551-.256.864-.337a3.75 3.75 0 0 1 .947-.122c.638 0 1.11.141 1.416.424s.464.738.464 1.363V225h-.601zm-1.831-.571c.505 0 .9-.139 1.187-.415s.434-.664.434-1.162v-.484l-.81.034c-.645.023-1.11.124-1.397.303s-.424.451-.424.825c0 .293.088.516.263.669s.428.23.747.23zm7.715-4.087h-1.738V225h-.811v-4.658h-1.718v-.694h4.267v.694zm1.87 1.518h1.651c1.367 0 2.05.503 2.05 1.509 0 .527-.179.931-.537 1.211s-.875.42-1.562.42h-2.412v-5.352h.81v2.212zm0 .699v1.762h1.563c.43 0 .758-.075.986-.224s.342-.376.342-.679c0-.296-.106-.513-.317-.649s-.554-.21-1.036-.21h-1.538z" fill="#fff"/><path d="M436.736 150h-1.508v-5.879h-2.627V150h-1.514v-7.139h5.649V150zm3.946-4.502c-.316 0-.564.101-.743.303s-.281.482-.307.849h2.09c-.007-.367-.103-.651-.288-.849s-.437-.303-.752-.303zm.21 4.6c-.879 0-1.566-.243-2.061-.728s-.742-1.172-.742-2.06c0-.915.228-1.622.683-2.12s1.093-.752 1.9-.752c.771 0 1.372.22 1.802.66s.644 1.046.644 1.821v.723h-3.52c.016.423.141.753.376.991s.563.356.986.356c.329 0 .64-.034.933-.102s.599-.178.918-.327v1.152a3.45 3.45 0 0 1-.835.288 5.15 5.15 0 0 1-1.084.098zm6.435 0c-.641 0-1.144-.233-1.509-.699h-.078l.078.791v2.212h-1.489v-7.861h1.211l.21.708h.068c.349-.54.865-.811 1.548-.811a1.77 1.77 0 0 1 1.514.748c.364.498.547 1.189.547 2.075 0 .582-.087 1.089-.259 1.518s-.412.757-.728.982a1.87 1.87 0 0 1-1.113.337zm-.439-4.468c-.368 0-.637.114-.806.342s-.257.597-.264 1.118v.161c0 .586.087 1.006.259 1.26s.453.381.83.381c.668 0 1.001-.551 1.001-1.651 0-.537-.083-.939-.249-1.206s-.42-.405-.771-.405zm5.986 4.468c-1.699 0-2.549-.933-2.549-2.798 0-.928.231-1.636.694-2.124s1.124-.738 1.987-.738c.631 0 1.198.124 1.699.372l-.439 1.152-.655-.23c-.201-.061-.403-.092-.605-.092-.775 0-1.162.55-1.162 1.65 0 1.068.387 1.602 1.162 1.602a2.7 2.7 0 0 0 .796-.113c.244-.078.488-.198.732-.361v1.274a2.41 2.41 0 0 1-.732.318c-.244.058-.554.088-.928.088zm4.116-2.837c0 .54.088.949.264 1.225s.469.415.869.415.682-.136.855-.41.263-.687.263-1.23-.088-.946-.263-1.216-.464-.405-.865-.405-.683.135-.859.405-.264.672-.264 1.216zm3.775 0c0 .888-.235 1.583-.703 2.085s-1.122.752-1.958.752c-.525 0-.987-.114-1.387-.342s-.708-.562-.923-.991-.322-.931-.322-1.504c0-.892.232-1.586.698-2.08s1.12-.743 1.963-.743c.524 0 .986.114 1.387.342s.708.555.922.982.323.926.323 1.499zm2.719-2.72v2.1h2.08v-2.1h1.49V150h-1.49v-2.251h-2.08V150h-1.489v-5.459h1.489zm8.599 5.459l-.288-.742h-.039c-.251.316-.51.535-.777.659s-.608.181-1.035.181c-.524 0-.937-.15-1.24-.45s-.449-.725-.449-1.279c0-.579.202-1.006.605-1.279s1.019-.43 1.836-.459l.948-.029v-.24c0-.553-.284-.83-.85-.83-.436 0-.949.132-1.538.396l-.493-1.006c.628-.329 1.325-.493 2.09-.493.732 0 1.293.159 1.684.478s.586.804.586 1.455V150h-1.04zm-.439-2.529l-.577.019c-.433.013-.755.091-.966.235s-.318.361-.318.654c0 .42.241.63.723.63.345 0 .62-.099.825-.298s.313-.462.313-.791v-.449zm7.905 2.529h-1.489v-4.341h-1.372c-.105 1.221-.232 2.132-.381 2.735s-.35 1.033-.601 1.303-.573.401-.977.401c-.345 0-.628-.052-.849-.157v-1.191c.159.065.319.098.478.098.186 0 .341-.134.464-.401s.24-.711.337-1.333.187-1.482.259-2.573h4.131V150zm3.056-3.35h1.05c.84 0 1.462.134 1.866.401s.605.67.605 1.211c0 1.159-.804 1.738-2.412 1.738h-2.598v-5.459h1.489v2.109zm2.032 1.631c0-.211-.085-.364-.254-.459s-.422-.141-.757-.141h-1.021v1.289h1.041c.66 0 .991-.23.991-.689zm4.111-3.74v2.1h2.08v-2.1h1.489V150h-1.489v-2.251h-2.08V150h-1.489v-5.459h1.489zm6.621 2.109h.718c.833 0 1.45.134 1.851.401s.6.67.6 1.211c0 .576-.2 1.01-.6 1.303s-1 .435-1.797.435h-2.261v-5.459h1.489v2.109zm1.68 1.631c0-.211-.085-.364-.254-.459s-.422-.141-.757-.141h-.669v1.289h.689c.66 0 .991-.23.991-.689zm3.769 1.719h-1.489v-5.459h1.489V150zm3.008-5.459v2.158c0 .228-.037.785-.112 1.67l2.519-3.828h1.792V150h-1.44v-2.178c0-.387.033-.934.098-1.64l-2.51 3.818h-1.787v-5.459h1.44zm3.76-2.349c-.062.609-.291 1.053-.689 1.333s-.97.415-1.718.415c-.772 0-1.343-.133-1.714-.4s-.575-.716-.62-1.348h1.333c.023.336.106.572.249.708s.407.201.781.201c.329 0 .573-.074.732-.22s.262-.379.298-.689h1.348zm-74.619 16.349V164h-1.494v-4.341h-1.978V164h-1.489v-5.459h4.961zm2.749 2.72c0 .54.088.949.263 1.225s.469.415.87.415.682-.136.854-.41.264-.687.264-1.23-.088-.946-.264-1.216-.464-.405-.864-.405-.684.135-.86.405-.263.672-.263 1.216zm3.774 0c0 .888-.234 1.583-.703 2.085s-1.121.752-1.958.752c-.524 0-.986-.114-1.387-.342s-.708-.562-.922-.991-.323-.931-.323-1.504c0-.892.233-1.586.699-2.08s1.119-.743 1.962-.743c.524 0 .987.114 1.387.342s.708.555.923.982.322.926.322 1.499zm4.649 1.65v-3.252h-1.118a14.34 14.34 0 0 1-.337 1.724 7.05 7.05 0 0 1-.586 1.528h2.041zm2.29 3.047h-1.338V164h-3.672v1.958h-1.338v-3.047h.459c.313-.485.575-1.097.786-1.836s.36-1.583.445-2.534h3.857v4.37h.801v3.047zm.6-5.229c0-1.254.238-2.204.713-2.852s1.224-1.063 2.237-1.235l2.202-.323.171 1.299-2.251.313c-.411.065-.717.162-.918.293s-.354.315-.454.556-.158.562-.181.962h.073c.173-.267.4-.472.684-.615s.587-.215.913-.215c.674 0 1.198.207 1.572.62s.562 1 .562 1.768c0 .885-.238 1.574-.713 2.065s-1.125.733-1.958.733-1.485-.298-1.953-.894-.699-1.424-.699-2.475zm2.74 2.163c.706 0 1.059-.487 1.059-1.46 0-.948-.319-1.421-.957-1.421-.176 0-.351.04-.527.122s-.332.189-.479.322a1.41 1.41 0 0 0-.317.396c0 .66.106 1.167.317 1.518s.513.523.904.523zm5-1.631c0 .54.087.949.263 1.225s.469.415.869.415.682-.136.855-.41.264-.687.264-1.23-.088-.946-.264-1.216-.464-.405-.864-.405-.684.135-.86.405-.263.672-.263 1.216zm3.774 0c0 .888-.234 1.583-.703 2.085s-1.122.752-1.958.752c-.524 0-.986-.114-1.387-.342a2.31 2.31 0 0 1-.923-.991c-.215-.43-.322-.931-.322-1.504 0-.892.233-1.586.698-2.08s1.12-.743 1.963-.743c.524 0 .986.114 1.387.342s.708.555.923.982.322.926.322 1.499zm4.228 2.837c-.641 0-1.144-.233-1.508-.699h-.078l.078.791v2.212h-1.49v-7.861h1.211l.21.708h.069c.348-.54.864-.811 1.548-.811.644 0 1.149.25 1.513.748s.547 1.189.547 2.075c0 .582-.086 1.089-.259 1.518s-.411.757-.727.982-.687.337-1.114.337zm-.439-4.468c-.368 0-.636.114-.806.342s-.257.597-.263 1.118v.161c0 .586.086 1.006.258 1.26s.453.381.831.381c.667 0 1.001-.551 1.001-1.651 0-.537-.083-.939-.249-1.206s-.42-.405-.772-.405zm9.946-1.089h1.641l-2.163 2.617 2.353 2.842h-1.689l-2.232-2.769V164h-1.489v-5.459h1.489v2.651l2.09-2.651zm5.611 5.557c-.642 0-1.145-.233-1.509-.699h-.078l.078.791v2.212h-1.489v-7.861h1.211l.21.708h.068c.348-.54.864-.811 1.548-.811.644 0 1.149.25 1.513.748s.547 1.189.547 2.075c0 .582-.086 1.089-.259 1.518s-.411.757-.727.982-.687.337-1.113.337zm-.44-4.468c-.368 0-.636.114-.805.342s-.258.597-.264 1.118v.161c0 .586.086 1.006.259 1.26s.452.381.83.381c.667 0 1.001-.551 1.001-1.651 0-.537-.083-.939-.249-1.206s-.42-.405-.772-.405zm6.03-.132c-.315 0-.563.101-.742.303s-.281.482-.307.849h2.09c-.007-.367-.103-.651-.289-.849s-.436-.303-.752-.303zm.21 4.6c-.878 0-1.565-.243-2.06-.728s-.742-1.172-.742-2.06c0-.915.228-1.622.683-2.12s1.092-.752 1.9-.752c.771 0 1.372.22 1.801.66s.645 1.046.645 1.821v.723h-3.52c.016.423.141.753.375.991s.564.356.987.356a4.11 4.11 0 0 0 .932-.102c.293-.069.599-.178.918-.327v1.152a3.42 3.42 0 0 1-.835.288c-.296.065-.657.098-1.084.098zm6.856-1.187v-3.252h-1.118a14.34 14.34 0 0 1-.337 1.724 7 7 0 0 1-.586 1.528h2.041zm2.29 3.047h-1.338V164h-3.672v1.958h-1.338v-3.047h.459c.313-.485.575-1.097.786-1.836s.36-1.583.445-2.534h3.857v4.37h.801v3.047zm2.373-7.417v2.158c0 .228-.037.785-.112 1.67l2.519-3.828h1.792V164h-1.44v-2.178c0-.387.032-.934.097-1.64L495.555 164h-1.787v-5.459h1.44zm10.283 0v1.118h-1.787V164h-1.489v-4.341h-1.792v-1.118h5.068zm4.488 5.459l-.289-.742h-.039c-.25.316-.509.535-.776.659s-.609.181-1.035.181c-.524 0-.938-.15-1.24-.45s-.45-.725-.45-1.279c0-.579.202-1.006.606-1.279s1.019-.43 1.836-.459l.947-.029v-.24c0-.553-.283-.83-.85-.83-.436 0-.948.132-1.538.396l-.493-1.006c.628-.329 1.325-.493 2.09-.493.732 0 1.294.159 1.685.478s.586.804.586 1.455V164h-1.04zm-.44-2.529l-.576.019c-.433.013-.755.091-.967.235s-.317.361-.317.654c0 .42.241.63.722.63.345 0 .62-.099.826-.298s.312-.462.312-.791v-.449z" fill="#1b2c49"/><path d="M464.832 125.955c-.305-.593-.305-1.317.022-1.866l3.443-6.235.218-.417-1.089-1.976c-.066-.132-.175-.263-.284-.329-.239-.176-.523-.176-.784 0-.109.088-.196.197-.284.329l-4.925 9.045c-.371.593 0 1.471.567 1.471l3.116-.022c.022.022.022 0 0 0z" fill="#ff7d2f"/><path d="M476.861 124.507l-4.99-9.023c-.066-.131-.175-.263-.284-.329-.239-.175-.523-.175-.784 0-.109.088-.196.198-.284.329l-1.089 1.976.218.417 3.443 6.235c.327.549.349 1.274.022 1.866V126h3.138c.61-.022.959-.9.61-1.493z" fill="#418ccf"/><path d="M470.5 125.339l-1.482-2.7-1.504 2.7c-.152.241 0 .637.24.637h2.485c.261 0 .414-.374.261-.637z" fill="#ff7d2f"/><path d="M440.32 182h-.664v-5.121h-2.933V182h-.664v-5.711h4.261V182zm5.172-2.145c0 .698-.176 1.244-.527 1.637s-.837.586-1.457.586c-.383 0-.723-.09-1.02-.269s-.526-.438-.687-.774-.242-.729-.242-1.18c0-.697.174-1.24.523-1.628s.833-.586 1.453-.586c.599 0 1.074.199 1.426.597s.531.938.531 1.617zm-3.262 0c0 .547.11.964.329 1.25s.54.43.964.43.747-.142.965-.426.332-.704.332-1.254c0-.544-.11-.957-.332-1.238s-.543-.426-.972-.426-.745.14-.961.418-.325.694-.325 1.246zm7.594 2.145h-.656v-3.727h-1.285c-.071.928-.168 1.663-.293 2.207s-.288.943-.488 1.196-.451.379-.758.379c-.141 0-.253-.016-.336-.047v-.481c.057.016.122.024.195.024.3 0 .538-.317.715-.949s.311-1.594.402-2.883h2.504V182zm.699-4.281h.696l.937 2.441.383 1.207h.031c.034-.133.104-.359.211-.679l1.063-2.969h.695l-1.84 4.875c-.182.482-.396.823-.64 1.023s-.541.305-.895.305a2.57 2.57 0 0 1-.586-.067v-.519a2.28 2.28 0 0 0 .481.047c.445 0 .763-.25.953-.75l.238-.61-1.727-4.304zm5.282 0v1.562c0 .5.285.75.855.75a2.11 2.11 0 0 0 .68-.109c.216-.073.461-.197.734-.371v-1.832h.649V182h-.649v-1.938c-.273.188-.527.321-.762.399a2.55 2.55 0 0 1-.789.113c-.427 0-.761-.112-1.003-.336s-.364-.527-.364-.91v-1.609h.649zm4.906 0v2.715l-.027.711-.012.222 2.316-3.648h.809V182h-.606v-2.617l.012-.516.02-.508L460.91 182h-.808v-4.281h.609zm7.348.554h-1.391V182h-.648v-3.727h-1.375v-.554h3.414v.554zm2.656 3.805c-.633 0-1.133-.193-1.5-.578s-.547-.921-.547-1.605c0-.691.169-1.239.508-1.645s.798-.609 1.371-.609c.536 0 .961.177 1.273.531s.469.816.469 1.394v.411h-2.949c.013.502.139.884.379 1.144s.582.391 1.019.391c.461 0 .917-.097 1.367-.289v.578c-.229.099-.446.169-.652.211a3.54 3.54 0 0 1-.738.066zm-.176-3.894c-.344 0-.618.112-.824.336s-.323.533-.36.929h2.239c0-.409-.091-.721-.274-.937s-.442-.328-.781-.328zm7.434-.465h.711l-1.848 2.066 2 2.215h-.758l-1.953-2.168V182h-.648v-4.281h.648v2.082l1.848-2.082zm3.652 4.359c-.279 0-.534-.051-.766-.152s-.421-.263-.578-.477h-.047a5.6 5.6 0 0 1 .047.711v1.762h-.648v-6.203h.527l.09.586h.031c.167-.235.361-.404.582-.508s.476-.156.762-.156c.568 0 1.005.194 1.313.582s.464.932.464 1.632-.157 1.25-.472 1.641-.748.582-1.305.582zm-.094-3.887c-.437 0-.754.121-.949.364s-.296.627-.301 1.156v.144c0 .602.101 1.033.301 1.293s.522.387.965.387c.37 0 .659-.15.867-.449s.316-.712.316-1.238c0-.534-.105-.943-.316-1.227s-.503-.43-.883-.43zm4.817 3.887c-.633 0-1.133-.193-1.5-.578s-.547-.921-.547-1.605c0-.691.169-1.239.508-1.645s.798-.609 1.371-.609c.536 0 .961.177 1.273.531s.469.816.469 1.394v.411h-2.949c.013.502.139.884.379 1.144s.582.391 1.019.391c.461 0 .917-.097 1.367-.289v.578c-.229.099-.446.169-.652.211a3.54 3.54 0 0 1-.738.066zm-.176-3.894c-.344 0-.619.112-.824.336s-.323.533-.36.929h2.239c0-.409-.092-.721-.274-.937s-.443-.328-.781-.328zm6.578 5.296h-.629V182h-2.992v1.48h-.625v-2.039h.336c.349-.474.622-1.03.82-1.668s.301-1.322.309-2.054h2.168v3.722h.613v2.039zm-1.238-2.039v-3.211h-.961c-.034.579-.146 1.165-.336 1.758s-.422 1.076-.703 1.453h2zm2.707-3.722v2.715l-.028.711-.011.222 2.316-3.648h.809V182h-.606v-2.617l.012-.516.019-.508-2.312 3.641h-.809v-4.281h.61zm7.347.554h-1.39V182h-.649v-3.727h-1.375v-.554h3.414v.554zm-67.562 11.446v1.793h2.398v-1.793h.649V194h-.649v-1.93h-2.398V194h-.649v-4.281h.649zm7.055 4.281l-.129-.609h-.032c-.213.268-.427.45-.64.547s-.475.14-.793.14c-.425 0-.758-.109-1-.328s-.36-.53-.36-.934c0-.864.692-1.317 2.075-1.359l.726-.023v-.266c0-.336-.073-.583-.218-.742s-.374-.242-.692-.242c-.357 0-.76.109-1.211.328l-.199-.496a3.03 3.03 0 0 1 .691-.27 3.04 3.04 0 0 1 .758-.098c.511 0 .888.114 1.133.34s.371.59.371 1.09V194h-.48zm-1.465-.457c.403 0 .72-.111.949-.332s.348-.531.348-.93v-.386l-.649.027c-.515.018-.888.099-1.117.242s-.34.361-.34.66c0 .235.07.413.211.535s.343.184.598.184zm7.074.535c-.62 0-1.1-.19-1.441-.57s-.508-.923-.508-1.621c0-.716.172-1.27.515-1.66s.839-.586 1.477-.586a2.94 2.94 0 0 1 .617.066c.206.044.367.096.484.156l-.199.551a2.99 2.99 0 0 0-.468-.141c-.17-.039-.319-.058-.45-.058-.869 0-1.304.555-1.304 1.664 0 .526.105.93.316 1.211s.529.422.945.422a2.88 2.88 0 0 0 1.098-.231v.574c-.286.149-.647.223-1.082.223zm5.574-3.285c0 .279-.081.491-.242.637s-.383.239-.672.289v.035c.365.049.63.156.797.32s.254.391.254.68c0 .398-.147.706-.441.922s-.719.324-1.282.324h-1.886v-4.281h1.878c1.063 0 1.594.358 1.594 1.074zm-.512 1.918c0-.232-.088-.4-.265-.504s-.465-.16-.871-.16h-1.176v1.41h1.191c.748 0 1.121-.249 1.121-.746zm-.121-1.856c0-.208-.08-.355-.242-.441s-.401-.133-.726-.133h-1.223v1.207h1.098c.401 0 .683-.049.847-.148s.246-.261.246-.485zm5.411 1c0 .698-.176 1.244-.528 1.637s-.837.586-1.457.586a1.93 1.93 0 0 1-1.019-.269c-.297-.18-.526-.438-.688-.774s-.242-.729-.242-1.18c0-.697.174-1.24.523-1.628s.834-.586 1.453-.586c.599 0 1.075.199 1.426.597s.532.938.532 1.617zm-3.262 0c0 .547.109.964.328 1.25s.54.43.965.43.746-.142.965-.426.332-.704.332-1.254c0-.544-.111-.957-.332-1.238s-.543-.426-.973-.426-.745.14-.961.418-.324.694-.324 1.246zm5.012-2.136v2.715l-.028.711-.012.222 2.317-3.648h.808V194h-.605v-2.617l.012-.516.019-.508-2.312 3.641h-.809v-4.281h.61zm5.492 2.09l-1.489-2.09h.739l1.129 1.64 1.125-1.64h.73l-1.488 2.09 1.566 2.191h-.734l-1.199-1.734L463.43 194h-.735l1.567-2.191zm4.562-2.09h.696l.937 2.441.383 1.207h.031c.034-.133.104-.359.211-.679l1.063-2.969h.695l-1.84 4.875c-.182.482-.396.823-.641 1.023s-.54.305-.894.305a2.57 2.57 0 0 1-.586-.067v-.519a2.27 2.27 0 0 0 .48.047c.446 0 .763-.25.953-.75l.239-.61-1.727-4.304zm6.422 4.359c-.62 0-1.1-.19-1.441-.57s-.508-.923-.508-1.621c0-.716.172-1.27.515-1.66s.839-.586 1.477-.586c.206 0 .412.022.617.066s.367.096.485.156l-.2.551a2.99 2.99 0 0 0-.468-.141c-.17-.039-.319-.058-.45-.058-.869 0-1.304.555-1.304 1.664 0 .526.105.93.316 1.211s.529.422.945.422a2.88 2.88 0 0 0 1.098-.231v.574c-.286.149-.647.223-1.082.223zm5.293-.078h-.656v-3.727h-1.285c-.071.928-.168 1.663-.293 2.207s-.288.943-.489 1.196-.45.379-.757.379c-.141 0-.253-.016-.336-.047v-.481c.057.016.122.024.195.024.299 0 .538-.317.715-.949s.311-1.594.402-2.883h2.504V194zm5.074-2.145c0 .698-.175 1.244-.527 1.637s-.837.586-1.457.586c-.383 0-.723-.09-1.02-.269s-.526-.438-.687-.774-.242-.729-.242-1.18c0-.697.174-1.24.523-1.628s.833-.586 1.453-.586c.599 0 1.074.199 1.426.597s.531.938.531 1.617zm-3.261 0c0 .547.109.964.328 1.25s.54.43.965.43.746-.142.964-.426.332-.704.332-1.254c0-.544-.11-.957-.332-1.238s-.543-.426-.972-.426-.745.14-.961.418-.324.694-.324 1.246zm7.875-1.062c0 .279-.081.491-.243.637s-.382.239-.672.289v.035c.365.049.631.156.797.32s.254.391.254.68c0 .398-.147.706-.441.922s-.719.324-1.281.324h-1.887v-4.281h1.879c1.062 0 1.594.358 1.594 1.074zm-.512 1.918c0-.232-.089-.4-.266-.504s-.465-.16-.871-.16h-1.176v1.41h1.192c.747 0 1.121-.249 1.121-.746zm-.121-1.856c0-.208-.081-.355-.242-.441s-.401-.133-.727-.133h-1.223v1.207h1.098c.401 0 .684-.049.848-.148s.246-.261.246-.485zm2.324-1.136v2.715l-.027.711-.012.222 2.316-3.648h.809V194h-.606v-2.617l.012-.516.02-.508-2.313 3.641h-.808v-4.281h.609zm4.676 4.281h-.758l1.23-1.809c-.33-.073-.584-.213-.761-.421s-.262-.476-.262-.793c0-.391.131-.698.395-.922s.63-.336 1.101-.336h1.906V194h-.648v-1.711h-1.082L496.594 194zm.082-3.016c0 .495.359.743 1.078.743h1.043v-1.446h-1.176c-.63 0-.945.235-.945.703zm5.179.825l-1.488-2.09h.738l1.129 1.64 1.125-1.64h.731l-1.488 2.09 1.566 2.191h-.734l-1.2-1.734-1.211 1.734h-.734l1.566-2.191zM487.124 75.457h-34.959a5.19 5.19 0 0 1-5.177-5.17v-.813a5.19 5.19 0 0 1 5.177-5.17h34.959a5.19 5.19 0 0 1 5.177 5.17v.813a5.19 5.19 0 0 1-5.177 5.17z" fill="#1b2c49"/><path d="M543.796 168.072l-17.836 6.767c-.363.139-.731.256-1.1.348a10.61 10.61 0 0 1-12.539-6.469l-.229-.595c-2.064-5.43.692-11.561 6.129-13.623l17.834-6.769c5.437-2.063 11.575.691 13.641 6.121l.227.595c2.066 5.43-.69 11.561-6.127 13.625z" fill="#ffb27d"/><path d="M531.187 168.423c-2.591.981-7.283 2.721-9.791 3.081-.709.103-2.019-.283-3.238-1.619-.734-.799-1.433-1.938-1.952-3.516-.245-.743-.447-1.482-.532-2.245a9.45 9.45 0 0 1 .085-2.671c.141-.795.687-1.522 1.482-1.903 2.68-1.28 6.275-2.83 9.426-3.694 2.181-.602 4.386.359 5.076 2.265l.325.89 1.668 4.558c.689 1.893-.433 4.057-2.549 4.854z" fill="#ffd3b6"/><path d="M531.187 168.423c-2.591.981-7.282 2.721-9.791 3.081-.709.103-2.019-.283-3.238-1.619-.131-.303-.25-.624-.363-.965-.245-.743-.447-1.484-.532-2.247-.095-.892-.071-1.784.085-2.668.143-.797.687-1.522 1.481-1.906 2.681-1.277 6.276-2.828 9.429-3.692 1.397-.385 2.802-.131 3.81.604l1.668 4.558c.689 1.893-.433 4.057-2.549 4.854z" fill="#ffc197"/><path d="M536.75 189.872l-11.972 3.256a6.88 6.88 0 0 1-8.416-4.809l-.37-1.352a6.87 6.87 0 0 1 4.814-8.405l11.974-3.256a6.88 6.88 0 0 1 8.414 4.808l.37 1.354c.991 3.634-1.176 7.415-4.814 8.404z" fill="#ffb27d"/><path d="M530.275 189.284c-2.199.585-6.175 1.621-8.259 1.734-.758.042-2.276-.598-3.266-2.588-.245-.483-.451-1.04-.613-1.686-.145-.587-.256-1.168-.266-1.758a6.79 6.79 0 0 1 .266-2.047c.172-.603.676-1.124 1.355-1.366 2.292-.81 5.356-1.77 8.008-2.233 1.831-.321 3.567.559 3.996 2.067l.309 1.076.922 3.234c.426 1.498-.655 3.09-2.452 3.567z" fill="#ffd3b6"/><path d="M530.277 189.284c-2.199.585-6.175 1.621-8.259 1.734-.758.042-2.276-.598-3.266-2.588-.134-.547-.231-1.094-.241-1.649a6.82 6.82 0 0 1 .267-2.047c.172-.602.675-1.125 1.352-1.367 2.294-.809 5.358-1.77 8.01-2.23 1.516-.267 2.967.292 3.667 1.346l.921 3.234c.427 1.498-.654 3.09-2.451 3.567z" fill="#ffc197"/><path d="M340.611 327.406s24.645 23.573 41.258 32.675l12.579-8.91v13.143s24.737 4.37 32.541 0V328.47l-69.483-34.785-16.895 33.721z" fill="#ed7d2b"/><path d="M362.706 272.972s-15.65 23.382-31.204 48.382c0 0 32.779 22.519 50.551 29.126l23.31-26.663-3.327 32.095s20.63 7.509 30.2 5.549l-.598-48.193s-56.71-15.874-68.932-40.296z" fill="#f3f8ff"/><path d="M366.555 332.309a3.88 3.88 0 1 1 7.76.072c-.02 2.14-1.773 3.858-3.916 3.838s-3.864-1.771-3.844-3.91z" fill="#f99746"/><path d="M543.419 145.154l-.259.089-15.697 4.024c-6.902 1.77-14.04-1.959-15.862-8.289l-.933-3.242c-1.752-6.075 2.011-12.43 8.425-14.492l15.699-4.024c6.9-1.772 14.038 1.959 15.859 8.287l.934 3.244c1.727 5.993-1.912 12.254-8.166 14.403z" fill="#ffb27d"/><path d="M536.225 140.778l-7.626 3.432c-.01.004-.024.006-.048.012a8.29 8.29 0 0 1-.922.19l-.386.048c-.055.006-.107.006-.162.002-.84-.028-1.414-.918-1.053-1.712.722-1.566.918-3.381.433-5.163l-.182-.664c0-.006-.004-.014-.006-.02l-.59-2.162a8.12 8.12 0 0 0-2.765-4.209l-.481-.359c-1.508-1.044-1.124-3.406.64-3.894l.049-.016 8.368-1.264c2.069-.561 4.062 1.03 4.626 3.097l2.104 7.713c.562 2.069.071 4.408-1.999 4.969z" fill="#ffd3b6"/><path d="M536.224 140.779l-7.626 3.432c-.01.004-.025.006-.049.012l-1.469.24c-.841-.028-1.415-.919-1.053-1.712a7.56 7.56 0 0 0 .432-5.163l-.182-.664c0-.006-.004-.015-.006-.021l-.59-2.161a8.11 8.11 0 0 0-2.765-4.209 2.13 2.13 0 0 1 1.201-.854l.048-.014 8.37-1.264c1.742-.472 3.428.582 4.257 2.158l1.431 5.25c.562 2.069.07 4.409-1.999 4.97z" fill="#ffc197"/><path d="M410.511 226.693s-3.424-29.852-6.584-35.673-5.833-17.481-.972-26.143 6.54-25.333 6.54-25.333c1.886 19.027-3.784 33.151.192 36.892.148.137.423.072.812-.176l.012 50.433z" fill="#e9a984"/></g></svg>