<svg width="60" height="60" fill="none" xmlns="http://www.w3.org/2000/svg"><path d="M50 0H12.5c-2.758 0-5 2.242-5 5v5H6.25a1.25 1.25 0 1 0 0 2.5H7.5v10H6.25a1.25 1.25 0 1 0 0 2.5H7.5v10H6.25a1.25 1.25 0 1 0 0 2.5H7.5v10H6.25a1.25 1.25 0 1 0 0 2.5H7.5v5c0 2.758 2.242 5 5 5H50c2.758 0 5-2.242 5-5V5c0-2.758-2.242-5-5-5zm2.5 55c0 1.378-1.122 2.5-2.5 2.5H12.5A2.503 2.503 0 0 1 10 55v-5h1.25a1.25 1.25 0 1 0 0-2.5H10v-10h1.25a1.25 1.25 0 1 0 0-2.5H10V25h1.25a1.25 1.25 0 1 0 0-2.5H10v-10h1.25a1.25 1.25 0 1 0 0-2.5H10V5c0-1.378 1.122-2.5 2.5-2.5H50c1.378 0 2.5 1.122 2.5 2.5v50z" fill="#1B2C49"/><path d="M31.25 30a6.257 6.257 0 0 0 6.25-6.25 6.257 6.257 0 0 0-6.25-6.25A6.257 6.257 0 0 0 25 23.75 6.257 6.257 0 0 0 31.25 30zm0-10A3.754 3.754 0 0 1 35 23.75a3.754 3.754 0 0 1-3.75 3.75 3.754 3.754 0 0 1-3.75-3.75A3.754 3.754 0 0 1 31.25 20zM39.8 33.83c-1.996-1.177-5.1-2.58-8.55-2.58-3.45 0-6.554 1.403-8.55 2.58-1.666.982-2.7 2.89-2.7 4.979v.8c0 1.595 1.201 2.891 2.678 2.891h17.144c1.477 0 2.678-1.296 2.678-2.89v-.801c0-2.089-1.034-3.997-2.7-4.98zm.2 5.78c0 .26-.148.39-.178.39H22.678c-.03 0-.178-.13-.178-.39v-.801c0-1.19.577-2.299 1.47-2.826 1.727-1.018 4.393-2.233 7.28-2.233 2.887 0 5.553 1.215 7.28 2.233.893.527 1.47 1.635 1.47 2.826v.8z" fill="#1B2C49"/></svg>