<svg width="60" height="60" fill="none" xmlns="http://www.w3.org/2000/svg"><path d="M30 47.5c-1.38 0-2.5 1.122-2.5 2.5s1.12 2.5 2.5 2.5 2.5-1.122 2.5-2.5-1.12-2.5-2.5-2.5z" fill="#1B2C49"/><path d="M50 0H10C7.244 0 5 2.242 5 5v37.5c0 2.758 2.244 5 5 5h5v8.75A3.754 3.754 0 0 0 18.75 60h22.5A3.754 3.754 0 0 0 45 56.25V47.5h5c2.756 0 5-2.242 5-5V5c0-2.758-2.244-5-5-5zM18.75 57.5c-.689 0-1.25-.56-1.25-1.25v-3.624a6.267 6.267 0 0 1 4.874 4.874H18.75zm23.75-1.25c0 .69-.562 1.25-1.25 1.25h-3.624a6.267 6.267 0 0 1 4.874-4.873v3.623zm0-6.124a8.718 8.718 0 0 0-7.374 7.374H24.874a8.718 8.718 0 0 0-7.374-7.374V37.5h2.623c.6 4.525 4.393 7.5 9.877 7.5 5.484 0 9.277-2.975 9.877-7.5H42.5v12.626zM22.642 37.5h14.717c-.675 3.646-4.239 5-7.359 5s-6.684-1.354-7.358-5zm29.858 5c0 1.378-1.12 2.5-2.5 2.5h-5v-5h1.25c.691 0 1.25-.56 1.25-1.25v-2.5c0-.691-.559-1.25-1.25-1.25h-32.5c-.691 0-1.25.559-1.25 1.25v2.5c0 .69.559 1.25 1.25 1.25H15v5h-5c-1.38 0-2.5-1.122-2.5-2.5V5c0-1.378 1.12-2.5 2.5-2.5h40c1.38 0 2.5 1.122 2.5 2.5v37.5z" fill="#1B2C49"/><path d="M46.25 7.5h-32.5c-.691 0-1.25.56-1.25 1.25v15c0 .691.559 1.25 1.25 1.25h32.5c.69 0 1.25-.559 1.25-1.25v-15c0-.69-.559-1.25-1.25-1.25zM45 22.5H15V10h30v12.5zM30 27.5c-1.38 0-2.5 1.122-2.5 2.5s1.12 2.5 2.5 2.5 2.5-1.122 2.5-2.5-1.12-2.5-2.5-2.5zM40 27.5c-1.38 0-2.5 1.122-2.5 2.5s1.12 2.5 2.5 2.5 2.5-1.122 2.5-2.5-1.12-2.5-2.5-2.5zM20 27.5c-1.38 0-2.5 1.122-2.5 2.5s1.12 2.5 2.5 2.5 2.5-1.122 2.5-2.5-1.12-2.5-2.5-2.5z" fill="#1B2C49"/></svg>