<svg width="60" height="60" fill="none" xmlns="http://www.w3.org/2000/svg"><g clip-path="url(#a)" fill="#1B2C49"><path d="M37.641 32.517a1.37 1.37 0 0 0 1.437.316 1.37 1.37 0 0 1 .467-.106c.753 0 1.364.612 1.364 1.364 0 .125-.033.274-.105.467-.184.5-.061 1.06.316 1.437l.986.987c.771.774 1.8 1.2 2.894 1.2a4.057 4.057 0 0 0 2.892-1.199L58.8 26.076c.774-.771 1.2-1.8 1.2-2.894a4.057 4.057 0 0 0-1.199-2.892l-.988-.989a1.36 1.36 0 0 0-1.437-.315 1.371 1.371 0 0 1-.467.105 1.365 1.365 0 0 1-1.364-1.364c0-.125.034-.274.106-.467.183-.5.06-1.06-.316-1.437L44.177 5.665a1.36 1.36 0 0 0-1.437-.316 1.372 1.372 0 0 1-.467.106 1.365 1.365 0 0 1-1.364-1.364c0-.125.033-.274.105-.467.184-.5.062-1.06-.315-1.437l-.987-.987A4.115 4.115 0 0 0 36.818 0a4.114 4.114 0 0 0-2.892 1.199L23.018 12.106c-.774.771-1.2 1.8-1.2 2.894 0 1.095.426 2.123 1.199 2.892l.988.989c.374.375.933.494 1.437.315a1.37 1.37 0 0 1 .467-.105c.753 0 1.364.611 1.364 1.364 0 .125-.033.274-.105.467-.184.5-.062 1.06.315 1.437l2.15 2.15c-10.56 9.15-24.132 22.277-28.035 26.18A5.417 5.417 0 0 0 0 54.545 5.46 5.46 0 0 0 5.455 60a5.418 5.418 0 0 0 3.856-1.598C14.01 53.704 26.817 40.44 35.524 30.4l2.117 2.117zm18.793-10.739.44.441c.258.256.399.598.399.963s-.141.707-.4.964l-10.91 10.91c-.511.515-1.413.516-1.927 0l-.44-.44c.027-.177.04-.352.04-.525 0-.628-.147-1.224-.401-1.761l10.911-10.912a3.88 3.88 0 0 0 2.288.36zm-31.05-5.374-.44-.441a1.348 1.348 0 0 1-.399-.963c0-.365.141-.707.4-.964l10.91-10.91c.512-.515 1.413-.516 1.927 0l.44.44c-.027.177-.04.352-.04.525 0 .628.147 1.225.4 1.761L27.67 16.767a3.948 3.948 0 0 0-2.285-.363zm4.215 2.288L40.51 7.782c.683.328 1.46.484 2.288.36l9.06 9.06c-.026.178-.04.352-.04.525 0 .628.147 1.225.402 1.761L41.308 30.401a3.886 3.886 0 0 0-2.287-.36l-9.061-9.062c.027-.177.04-.351.04-.524 0-.63-.146-1.226-.4-1.763zM7.383 56.474c-.516.515-1.2.799-1.928.799a2.73 2.73 0 0 1-2.728-2.728c0-.728.284-1.412.8-1.928 3.902-3.902 17.52-17.072 28.04-26.174l2.023 2.023c-8.657 9.998-21.507 23.307-26.207 28.008z"/><path d="M51.818 46.364h-19.09c-4.512 0-8.183 3.67-8.183 8.182A5.46 5.46 0 0 0 30 60h24.546A5.46 5.46 0 0 0 60 54.546c0-4.512-3.67-8.182-8.182-8.182zm2.728 10.909H30a2.73 2.73 0 0 1-2.727-2.727 5.46 5.46 0 0 1 5.454-5.455h19.091a5.46 5.46 0 0 1 5.455 5.455 2.73 2.73 0 0 1-2.727 2.727z"/></g><defs><clipPath id="a"><path fill="#fff" d="M0 0h60v60H0z"/></clipPath></defs></svg>