<svg width="60" height="60" fill="none" xmlns="http://www.w3.org/2000/svg"><g clip-path="url(#a)"><path d="m59.914 39.12.015-.005-7.72-23.161a4.085 4.085 0 0 0 2.336-3.68 4.095 4.095 0 0 0-4.09-4.091H35.13c.197-.427.324-.88.324-1.364C35.455 4.852 33.28.001 30 .001s-5.454 4.851-5.454 6.818c0 .483.127.937.323 1.364H9.546a4.095 4.095 0 0 0-4.091 4.09c0 1.626.96 3.021 2.336 3.68L.071 39.116l.015.005a1.34 1.34 0 0 0-.086.426c0 5.263 4.283 9.546 9.546 9.546 5.262 0 9.545-4.283 9.545-9.546 0-.151-.04-.29-.086-.426l.015-.005-7.72-23.16c.513-.25.972-.605 1.34-1.049 4.4 2.251 9.218 3.573 14.135 3.994-.865 15.436-2.641 29.095-3.333 32.92h-1.624a5.46 5.46 0 0 0-5.454 5.454v1.363c0 .754.61 1.364 1.363 1.364h24.546c.753 0 1.363-.61 1.363-1.364v-1.363a5.46 5.46 0 0 0-5.454-5.455h-1.624c-.692-3.825-2.468-17.483-3.333-32.92 4.917-.42 9.735-1.742 14.135-3.993a4.05 4.05 0 0 0 1.34 1.05l-7.72 23.159.015.005a1.341 1.341 0 0 0-.086.426c0 5.263 4.283 9.546 9.546 9.546 5.263 0 9.545-4.283 9.545-9.546 0-.15-.04-.29-.086-.426zM30 2.728c1.181 0 2.727 2.996 2.727 4.091 0 .557-1.062 1.364-2.727 1.364-1.664 0-2.727-.807-2.727-1.364 0-1.095 1.546-4.09 2.727-4.09zM9.546 46.365c-3.294 0-6.048-2.347-6.681-5.455h13.362c-.634 3.108-3.388 5.455-6.681 5.455zm6.29-8.182H3.256l6.29-18.87 6.29 18.87zm22.346 16.363a2.73 2.73 0 0 1 2.727 2.728H19.091a2.73 2.73 0 0 1 2.727-2.728h16.364zm-4.395-2.727h-7.574c.852-4.977 2.49-18.587 3.287-32.757.167.002.332.03.5.03.168 0 .333-.028.5-.03.797 14.17 2.435 27.78 3.287 32.757zM48.395 11.81a1.37 1.37 0 0 0-1.17.076c-10.507 5.86-23.943 5.86-34.45 0a1.368 1.368 0 0 0-1.17-.076c-.38.152-.673.466-.796.858-.185.588-.68.97-1.263.97a1.364 1.364 0 0 1 0-2.728h40.909a1.365 1.365 0 0 1 0 2.727c-.584 0-1.08-.38-1.264-.97a1.362 1.362 0 0 0-.797-.857zm2.06 7.503 6.29 18.87h-12.58l6.29-18.87zm0 27.052c-3.294 0-6.047-2.347-6.681-5.455h13.362c-.634 3.108-3.388 5.455-6.681 5.455z" fill="#1B2C49"/></g><defs><clipPath id="a"><path fill="#fff" d="M0 0h60v60H0z"/></clipPath></defs></svg>