<svg width="60" height="60" fill="none" xmlns="http://www.w3.org/2000/svg"><g clip-path="url(#a)"><path d="m59.914 36.392.017-.005-7.77-23.31a4.094 4.094 0 0 0 1.916-4.012 4.076 4.076 0 0 0-4.595-3.52L35.377 7.41c.037-.195.078-.388.078-.59C35.455 4.85 33.28 0 30 0s-5.454 4.851-5.454 6.818c0 .71.25 1.36.656 1.935l-16.274 2.15a4.1 4.1 0 0 0-3.521 4.592c.192 1.453 1.138 2.616 2.384 3.18L.07 41.84l.017.006a1.337 1.337 0 0 0-.086.426c0 5.263 4.283 9.545 9.546 9.545 5.262 0 9.545-4.282 9.545-9.545 0-.151-.04-.29-.086-.426l.017-.006-7.749-23.245c.65-.33 1.21-.811 1.602-1.432a38.216 38.216 0 0 0 12.784 2.203c.364 0 .729-.026 1.093-.036-.876 15.264-2.626 28.703-3.31 32.487h-1.624a5.46 5.46 0 0 0-5.454 5.455v1.363c0 .754.61 1.364 1.363 1.364h24.546c.753 0 1.363-.61 1.363-1.364v-1.363a5.46 5.46 0 0 0-5.454-5.455h-1.624c-.696-3.854-2.494-17.687-3.356-33.275 5.04-1.025 9.858-3.003 14.094-5.927.388.359.846.624 1.337.808l-7.655 22.963.017.005a1.335 1.335 0 0 0-.086.426c0 5.263 4.283 9.546 9.546 9.546 5.263 0 9.545-4.283 9.545-9.546 0-.15-.04-.29-.086-.426zM30 2.727c1.18 0 2.727 2.996 2.727 4.091 0 .364-.517.834-1.33 1.117l-1.642.217c-1.492-.082-2.482-.82-2.482-1.334 0-1.094 1.547-4.09 2.727-4.09zM9.546 49.091c-3.292 0-6.049-2.346-6.683-5.455h13.365c-.634 3.108-3.39 5.455-6.683 5.455zm6.289-8.182H3.256l6.29-18.87 6.289 18.87zm22.347 13.636a2.73 2.73 0 0 1 2.727 2.728H19.091a2.73 2.73 0 0 1 2.727-2.728h16.364zm-4.387-2.727h-7.588c.813-4.754 2.445-17.717 3.287-32.666.335-.035.671-.057 1.006-.1.83 14.752 2.482 27.961 3.295 32.766zM47.914 9.411a1.35 1.35 0 0 0-1.148.23 35.454 35.454 0 0 1-16.489 6.695 35.487 35.487 0 0 1-17.663-2.183 1.374 1.374 0 0 0-1.17.077 1.363 1.363 0 0 0-.676.957c-.107.607-.549 1.049-1.127 1.125a1.351 1.351 0 0 1-1.528-1.174 1.365 1.365 0 0 1 1.171-1.53l40.555-5.36a1.365 1.365 0 0 1 .36 2.705c-.573.073-1.122-.234-1.383-.795a1.36 1.36 0 0 0-.902-.747zm2.54 7.174 6.29 18.87H44.165l6.29-18.87zm0 27.051c-3.291 0-6.048-2.346-6.682-5.454h13.365c-.634 3.108-3.39 5.454-6.682 5.454z" fill="#1B2C49"/></g><defs><clipPath id="a"><path fill="#fff" d="M0 0h60v60H0z"/></clipPath></defs></svg>