<svg width="60" height="60" fill="none" xmlns="http://www.w3.org/2000/svg"><g clip-path="url(#a)"><circle cx="29.5" cy="13.5" r="4.5" fill="#FF7D2F"/><path d="M29.997 8.179a5.463 5.463 0 0 0-5.457 5.457 5.463 5.463 0 0 0 5.457 5.457 5.463 5.463 0 0 0 5.458-5.457 5.463 5.463 0 0 0-5.458-5.457zm0 8.187a2.734 2.734 0 0 1-2.73-2.73 2.734 2.734 0 0 1 2.73-2.73 2.734 2.734 0 0 1 2.73 2.73 2.734 2.734 0 0 1-2.73 2.73z" fill="#1B2C49"/><path d="M58.636 24.545A1.36 1.36 0 0 0 60 23.185v-5.453c0-.481-.253-.927-.667-1.172L32.658.719l-.036-.022c-1.658-.919-3.528-.946-5.281.019L.667 16.56A1.361 1.361 0 0 0 0 17.732v5.454c0 .753.61 1.36 1.364 1.36h4.09v24.546A5.46 5.46 0 0 0 0 54.546v4.09C0 59.39.61 60 1.364 60h57.272C59.39 60 60 59.39 60 58.636v-4.09a5.46 5.46 0 0 0-5.455-5.454V24.545h4.091zm-1.363 30v2.728H2.727v-2.728a2.73 2.73 0 0 1 2.727-2.727H54.545a2.73 2.73 0 0 1 2.728 2.727zM8.182 49.091V24.545h5.454v24.546H8.182zm8.182 0V24.545h8.181v24.546h-8.181zm10.909 0V24.545h5.454v24.546h-5.454zm8.182 0V24.545h8.181v24.546h-8.181zm10.909 0V24.545h5.454v24.546h-5.454zM2.727 21.818v-3.314L28.694 3.077c.85-.467 1.752-.466 2.591-.009l25.988 15.436v3.314H2.727z" fill="#1B2C49"/></g><defs><clipPath id="a"><path fill="#fff" d="M0 0h60v60H0z"/></clipPath></defs></svg>