<svg width="60" height="60" fill="none" xmlns="http://www.w3.org/2000/svg"><path d="M30 0C13.457 0 0 13.458 0 30s13.457 30 30 30 30-13.458 30-30S46.543 0 30 0zm0 57.5C14.836 57.5 2.5 45.164 2.5 30S14.836 2.5 30 2.5 57.5 14.836 57.5 30 45.164 57.5 30 57.5z" fill="#1B2C49"/><path d="M30 7.5C17.593 7.5 7.5 17.594 7.5 30S17.593 52.5 30 52.5 52.5 42.406 52.5 30 42.407 7.5 30 7.5zM30 50c-11.028 0-20-8.972-20-20s8.972-20 20-20 20 8.972 20 20-8.972 20-20 20z" fill="#1B2C49"/><path d="M34.692 29.507a5.605 5.605 0 0 0 1.558-3.882 5.622 5.622 0 0 0-2.5-4.672V18.75a1.25 1.25 0 1 0-2.5 0v1.313c-.208-.023-.41-.063-.625-.063H28.75v-1.25a1.25 1.25 0 1 0-2.5 0V20h-2.5a1.25 1.25 0 1 0 0 2.5H25v15h-1.25a1.25 1.25 0 1 0 0 2.5h2.5v1.25a1.25 1.25 0 1 0 2.5 0V40h2.5v1.25a1.25 1.25 0 1 0 2.5 0v-1.596c2.177-.776 3.75-2.838 3.75-5.279a5.63 5.63 0 0 0-2.808-4.868zM27.5 22.5h3.125a3.128 3.128 0 0 1 3.125 3.125 3.128 3.128 0 0 1-3.125 3.125H27.5V22.5zm4.375 15H27.5v-6.25h4.375A3.128 3.128 0 0 1 35 34.375a3.128 3.128 0 0 1-3.125 3.125z" fill="#1B2C49"/></svg>