<svg width="60" height="60" fill="none" xmlns="http://www.w3.org/2000/svg"><g clip-path="url(#a)"><path d="M52.5 36.25c-2.44 0-7.5 1.36-10.065 2.096-.34-3.587-4.936-4.857-9.686-5.821-2.168-.44-3.782-1.217-5.342-1.97-1.924-.928-3.74-1.805-6.157-1.805-2.768 0-5.29.566-6.713.958a3.741 3.741 0 0 0-2.862-2.647l-10.18-2.036a1.255 1.255 0 0 0-1.038.258A1.255 1.255 0 0 0 0 26.25v20c0 .691.56 1.25 1.25 1.25h7.832c1.544 0 2.86-.982 3.425-2.36 2.8 1.335 15.745 7.36 21.243 7.36 4.849 0 14.832-4.907 21.436-8.154 1.72-.846 3.144-1.547 4.067-1.95.454-.2.747-.65.747-1.146 0-2.944-3.083-5-7.5-5zm-40.322-5.335L10.32 43.927A1.257 1.257 0 0 1 9.082 45H2.5V27.775l8.687 1.737c.649.13 1.086.746.99 1.402zm41.904 11.187C48.074 45.056 38.018 50 33.75 50c-4.546 0-16.487-5.323-20.703-7.374l-.015-.004 1.471-10.3c.91-.286 3.694-1.072 6.747-1.072 1.846 0 3.269.688 5.073 1.557 1.619.78 3.455 1.666 5.928 2.169 5.432 1.1 7.749 2.23 7.749 3.774 0 .305-.093.493-.33.67-.796.595-3.899 1.593-15.564-1.869a1.25 1.25 0 1 0-.713 2.398c5.76 1.706 10.161 2.557 13.282 2.557 2.033 0 3.525-.361 4.49-1.083.082-.062.143-.137.219-.204.078-.009.156 0 .235-.024 2.21-.68 8.471-2.445 10.881-2.445 2.039 0 4.184.62 4.814 1.782-.871.41-1.972.953-3.232 1.57zM43 0C34.73 0 28 6.729 28 15c0 8.272 6.729 15 15 15 8.272 0 15-6.728 15-15C58 6.73 51.273 0 43 0zm0 27.5c-6.892 0-12.5-5.608-12.5-12.5S36.108 2.5 43 2.5c6.893 0 12.5 5.608 12.5 12.5S49.893 27.5 43 27.5z" fill="#1B2C49"/><path d="M44.57 7h-3.824a.969.969 0 0 0-.947.769v.04c-.02.098-.039.196-.039.315v6.427h-1.774a.976.976 0 0 0-.986.985c0 .552.434.986.986.986h1.774V18.158h-1.774a.976.976 0 0 0-.986.986c0 .552.434.986.986.986h1.774v2.444c0 .552.434.986.986.986a.976.976 0 0 0 .985-.986V20.11h4.475a.976.976 0 0 0 .986-.986.976.976 0 0 0-.985-.985h-4.495v-1.637h2.858a4.754 4.754 0 0 0 4.751-4.75A4.754 4.754 0 0 0 44.571 7zm0 7.53h-2.858V8.972h2.858a2.776 2.776 0 0 1 2.78 2.78 2.777 2.777 0 0 1-2.78 2.78z" fill="#FF7D2F"/></g><defs><clipPath id="a"><path fill="#fff" d="M0 0h60v60H0z"/></clipPath></defs></svg>