<svg width="60" height="60" fill="none" xmlns="http://www.w3.org/2000/svg"><g clip-path="url(#a)"><path d="M55 12.5H42.5V10c0-2.758-2.242-5-5-5h-15c-2.758 0-5 2.242-5 5v2.5H5c-2.758 0-5 2.242-5 5V50c0 2.758 2.242 5 5 5h50c2.758 0 5-2.242 5-5V17.5c0-2.758-2.242-5-5-5zM20 10c0-1.378 1.122-2.5 2.5-2.5h15c1.378 0 2.5 1.122 2.5 2.5v2.5H20V10zm37.5 40c0 1.378-1.122 2.5-2.5 2.5H5A2.503 2.503 0 0 1 2.5 50V23.388l24.909 16.01a5.79 5.79 0 0 0 2.587.602 5.79 5.79 0 0 0 2.503-.561 1.23 1.23 0 0 0 .207-.108L57.5 23.388V50zm0-29.583L31.437 37.175c-.872.428-2.151.36-2.792.054L2.5 20.417V17.5C2.5 16.122 3.622 15 5 15h50c1.378 0 2.5 1.122 2.5 2.5v2.917z" fill="#1B2C49"/><path d="M30 27.498a2.503 2.503 0 0 0-2.5 2.5c0 1.378 1.122 2.5 2.5 2.5s2.5-1.122 2.5-2.5c0-1.379-1.122-2.5-2.5-2.5z" fill="#FF7D2F"/></g><defs><clipPath id="a"><path fill="#fff" d="M0 0h60v60H0z"/></clipPath></defs></svg>