<svg width="60" height="60" fill="none" xmlns="http://www.w3.org/2000/svg"><g clip-path="url(#a)" fill="#1B2C49"><path d="M55 12.5H42.5V10c0-2.758-2.244-5-5-5h-15c-2.756 0-5 2.242-5 5v2.5H5c-2.756 0-5 2.242-5 5V50c0 2.758 2.244 5 5 5h50c2.756 0 5-2.242 5-5V17.5c0-2.758-2.244-5-5-5zM20 10c0-1.378 1.12-2.5 2.5-2.5h15c1.38 0 2.5 1.122 2.5 2.5v2.5H20V10zM2.5 17.5C2.5 16.122 3.62 15 5 15h4.874A8.718 8.718 0 0 1 2.5 22.374V17.5zm2.5 35c-1.38 0-2.5-1.122-2.5-2.5v-4.874A8.719 8.719 0 0 1 9.874 52.5H5zM57.5 50c0 1.378-1.12 2.5-2.5 2.5h-4.874a8.718 8.718 0 0 1 7.374-7.374V50zm0-7.374a11.192 11.192 0 0 0-9.874 9.874H12.374A11.192 11.192 0 0 0 2.5 42.626V24.874A11.192 11.192 0 0 0 12.374 15h35.252a11.192 11.192 0 0 0 9.874 9.874v17.752zm0-20.252A8.718 8.718 0 0 1 50.126 15H55c1.38 0 2.5 1.122 2.5 2.5v4.874z"/><path d="M29.375 30h4.375a1.25 1.25 0 1 0 0-2.5h-2.5v-1.25a1.25 1.25 0 1 0-2.5 0v1.313c-2.115.307-3.75 2.114-3.75 4.312a4.38 4.38 0 0 0 4.375 4.375h1.25c1.033 0 1.875.841 1.875 1.875A1.878 1.878 0 0 1 30.625 40H26.25a1.25 1.25 0 1 0 0 2.5h2.5v1.25a1.25 1.25 0 1 0 2.5 0v-1.313c2.115-.306 3.75-2.114 3.75-4.312a4.38 4.38 0 0 0-4.375-4.375h-1.25a1.878 1.878 0 0 1-1.875-1.875c0-1.034.842-1.875 1.875-1.875z"/></g><defs><clipPath id="a"><path fill="#fff" d="M0 0h60v60H0z"/></clipPath></defs></svg>