<svg width="60" height="60" fill="none" xmlns="http://www.w3.org/2000/svg"><g clip-path="url(#a)" fill="#1B2C49"><path d="M55 20.002h-.694L45.718 5.005a4.931 4.931 0 0 0-3.023-2.334 4.977 4.977 0 0 0-1.446-.168c-.807.027-1.6.255-2.318.672L2.478 24.396a5.009 5.009 0 0 0-1.814 6.819L7.5 43.153V52.5c0 2.758 2.244 5 5 5H55c2.757 0 5-2.242 5-5V25.002c0-2.758-2.243-5-5-5zM7.5 25v13.123l-4.668-8.152a2.514 2.514 0 0 1 .906-3.416l3.83-2.23c-.03.223-.068.444-.068.675zM40.19 5.336a2.404 2.404 0 0 1 1.858-.25c.638.17 1.17.583 1.502 1.162l7.876 13.754H14.998L40.19 5.336zM57.5 52.5c0 1.378-1.12 2.5-2.5 2.5H12.5c-1.38 0-2.5-1.122-2.5-2.5V25c0-1.378 1.12-2.5 2.5-2.5H55c1.38 0 2.5 1.122 2.5 2.5v27.5z"/><path d="M53.75 42.5h-15a1.25 1.25 0 1 0 0 2.5h15a1.25 1.25 0 1 0 0-2.5zM53.75 35h-20a1.25 1.25 0 1 0 0 2.5h20a1.25 1.25 0 1 0 0-2.5zM22.5 40c2.756 0 5-2.242 5-5s-2.244-5-5-5-5 2.242-5 5 2.244 5 5 5zm0-7.5c1.38 0 2.5 1.122 2.5 2.5s-1.12 2.5-2.5 2.5S20 36.378 20 35s1.12-2.5 2.5-2.5zM29.968 43.092c-1.748-.84-4.46-1.842-7.468-1.842s-5.72 1.002-7.468 1.842c-1.563.752-2.532 2.252-2.532 3.915v.571C12.5 48.914 13.62 50 15 50h15c1.38 0 2.5-1.086 2.5-2.422v-.571c0-1.663-.97-3.163-2.532-3.915zM30 47.5l-15 .078v-.571c0-.694.427-1.33 1.116-1.661 1.513-.728 3.847-1.596 6.384-1.596 2.537 0 4.87.868 6.384 1.596.689.33 1.116.967 1.116 1.66v.494z"/></g><defs><clipPath id="a"><path fill="#fff" d="M0 0h60v60H0z"/></clipPath></defs></svg>