<svg width="60" height="60" fill="none" xmlns="http://www.w3.org/2000/svg"><path d="M47.5 0h-35c-2.756 0-5 2.242-5 5v50c0 2.758 2.244 5 5 5h35c2.756 0 5-2.242 5-5V5c0-2.758-2.244-5-5-5zM50 55c0 1.378-1.12 2.5-2.5 2.5h-35c-1.38 0-2.5-1.122-2.5-2.5V5c0-1.378 1.12-2.5 2.5-2.5h35C48.88 2.5 50 3.622 50 5v50z" fill="#1B2C49"/><path d="M46.25 5h-32.5c-.691 0-1.25.56-1.25 1.25v22.5c0 .691.559 1.25 1.25 1.25h32.5c.69 0 1.25-.559 1.25-1.25V6.25c0-.69-.56-1.25-1.25-1.25zM45 27.5H15v-20h30v20zM33.75 32.5h-7.5c-.69 0-1.25.56-1.25 1.25v7.5c0 .691.56 1.25 1.25 1.25h7.5c.691 0 1.25-.559 1.25-1.25v-7.5c0-.69-.559-1.25-1.25-1.25zM32.5 40h-5v-5h5v5zM21.25 32.5h-7.5c-.691 0-1.25.56-1.25 1.25v7.5c0 .691.559 1.25 1.25 1.25h7.5c.69 0 1.25-.559 1.25-1.25v-7.5c0-.69-.56-1.25-1.25-1.25zM20 40h-5v-5h5v5zM46.25 32.5h-7.5c-.69 0-1.25.56-1.25 1.25v7.5c0 .691.56 1.25 1.25 1.25h7.5c.691 0 1.25-.559 1.25-1.25v-7.5c0-.69-.559-1.25-1.25-1.25zM45 40h-5v-5h5v5zM33.75 45h-7.5c-.69 0-1.25.56-1.25 1.25v7.5c0 .691.56 1.25 1.25 1.25h7.5c.691 0 1.25-.559 1.25-1.25v-7.5c0-.69-.559-1.25-1.25-1.25zm-1.25 7.5h-5v-5h5v5zM21.25 45h-7.5c-.691 0-1.25.56-1.25 1.25v7.5c0 .691.559 1.25 1.25 1.25h7.5c.69 0 1.25-.559 1.25-1.25v-7.5c0-.69-.56-1.25-1.25-1.25zM20 52.5h-5v-5h5v5zM46.25 45h-7.5c-.69 0-1.25.56-1.25 1.25v7.5c0 .691.56 1.25 1.25 1.25h7.5c.691 0 1.25-.559 1.25-1.25v-7.5c0-.69-.559-1.25-1.25-1.25zM45 52.5h-5v-5h5v5z" fill="#1B2C49"/><path d="M36.25 25h2.5a3.754 3.754 0 0 0 3.75-3.75v-7.5A3.754 3.754 0 0 0 38.75 10h-2.5a3.754 3.754 0 0 0-3.75 3.75v7.5A3.754 3.754 0 0 0 36.25 25zM40 21.25c0 .69-.562 1.25-1.25 1.25h-2.5c-.536 0-.986-.343-1.163-.82L40 16.768v4.482zm-5-7.5c0-.69.562-1.25 1.25-1.25h2.5c.536 0 .986.343 1.163.82L35 18.232V13.75z" fill="#1B2C49"/></svg>