<svg width="60" height="60" fill="none" xmlns="http://www.w3.org/2000/svg"><rect x="1" y="2" width="28" height="26" rx="3" fill="#FF7D2F"/><path d="M57.273 31.127V5.455A5.46 5.46 0 0 0 51.818 0H5.455A5.46 5.46 0 0 0 0 5.455v46.363a5.46 5.46 0 0 0 5.455 5.455h25.672A18.945 18.945 0 0 0 40.909 60C51.435 60 60 51.436 60 40.91c0-3.579-1.008-6.918-2.727-9.783zM30 2.727h21.818a2.73 2.73 0 0 1 2.727 2.727v22.12c-3.468-3.546-8.296-5.756-13.636-5.756A18.968 18.968 0 0 0 30 25.265V2.727zM2.727 5.455a2.73 2.73 0 0 1 2.727-2.728h21.819v24.546H2.727V5.455zm2.728 49.09a2.73 2.73 0 0 1-2.728-2.727V30h22.538a18.968 18.968 0 0 0-3.447 10.91c0 5.339 2.21 10.167 5.756 13.636H5.454zm35.454 2.728c-9.023 0-16.363-7.34-16.363-16.364 0-9.023 7.34-16.363 16.363-16.363s16.364 7.34 16.364 16.363-7.34 16.364-16.364 16.364z" fill="#1B2C49"/><path d="M20.454 13.636h-4.09v-4.09a1.363 1.363 0 1 0-2.728 0v4.09h-4.09a1.363 1.363 0 1 0 0 2.727h4.09v4.091a1.363 1.363 0 1 0 2.728 0v-4.09h4.09a1.363 1.363 0 1 0 0-2.728zM49.091 15c0-.754-.61-1.364-1.364-1.364H36.818a1.363 1.363 0 1 0 0 2.728h10.91c.753 0 1.363-.61 1.363-1.364zM20.055 37.218a1.363 1.363 0 0 0-1.928 0L15 40.345l-3.127-3.127a1.363 1.363 0 1 0-1.928 1.928l3.127 3.127L9.945 45.4a1.363 1.363 0 1 0 1.928 1.928L15 44.2l3.127 3.127a1.36 1.36 0 0 0 1.928 0 1.363 1.363 0 0 0 0-1.928l-3.126-3.127 3.126-3.127a1.363 1.363 0 0 0 0-1.928zM47.727 35.455H34.091a1.363 1.363 0 1 0 0 2.727h13.636a1.363 1.363 0 1 0 0-2.727zM47.727 43.636H34.091a1.363 1.363 0 1 0 0 2.728h13.636a1.363 1.363 0 1 0 0-2.728z" fill="#1B2C49"/></svg>