<svg width="60" height="60" fill="none" xmlns="http://www.w3.org/2000/svg"><g clip-path="url(#a)"><path d="M54.545 27.273h-8.363c-.536-3.594-2.047-12.338-4.309-14.6-2.088-2.088-8.384-3.971-15.785-6.04-1.55-.435-2.9-.812-3.86-1.114-4.027-1.273-9.066-5.19-9.116-5.23a1.358 1.358 0 0 0-1.326-.198C11.668.136 0 4.752 0 17.728c0 .486.259.936.68 1.18 4.328 2.508 6.072 5.382 7.755 8.163.856 1.41 1.695 2.755 2.798 3.943-.193.557-.323 1.126-.323 1.713v21.819A5.46 5.46 0 0 0 16.364 60h38.182A5.46 5.46 0 0 0 60 54.545V32.727a5.461 5.461 0 0 0-5.455-5.454zm-43.777-1.616c-1.606-2.65-3.587-5.917-8.024-8.691.364-8.967 7.143-12.965 9.348-14.03 1.58 1.165 5.691 4.039 9.316 5.183.98.31 2.363.696 3.945 1.14 4.802 1.343 12.84 3.591 14.592 5.342 1.283 1.284 2.706 7.716 3.475 12.672h-5.68l-2.384-5.96c-.157-.4-.495-.7-.91-.811-.786-.212-3.005-.851-3.836-1.267-.6-.3-1.26-.21-1.649.35-.111.09-.522.27-.82.4-1.036.456-2.458 1.077-3.366 2.44a1.365 1.365 0 0 0-.125 1.28c1.53 3.688 7.707 6.515 10.293 7.56 2.152.869 6.126 4.316 6.56 6.452.099.49-.035.705-.194.865-1.955 1.95-6.126.579-9.17-1.523-3.428-2.364-7.428-4.062-10.19-4.325a24.637 24.637 0 0 0-1.233-.08c-1.782-.082-3.19-.147-6.278-2.393-1.571-1.142-2.543-2.747-3.67-4.604zm24.036 1.616h-2c-2.193-1.145-4.255-2.53-5.228-3.895.48-.378 1.098-.649 1.66-.896.349-.152.674-.295.964-.46.937.36 2.133.718 2.876.93l1.728 4.321zm19.741 30H16.364a2.73 2.73 0 0 1-2.727-2.728h43.636a2.73 2.73 0 0 1-2.728 2.728zm2.728-5.455H13.637v-2.727h43.636v2.727zm0-5.454H13.637V33.012c3.234 2.167 5.131 2.282 6.95 2.367.358.017.72.033 1.1.07 2.3.219 5.876 1.768 8.902 3.856 2.346 1.618 5.382 2.955 8.133 2.955 1.686 0 3.266-.502 4.515-1.75.879-.879 1.204-2.032.937-3.336-.528-2.601-3.482-5.471-5.98-7.174h16.351a2.73 2.73 0 0 1 2.727 2.727v13.637z" fill="#1B2C49"/></g><defs><clipPath id="a"><path fill="#fff" d="M0 0h60v60H0z"/></clipPath></defs></svg>