<svg width="60" height="60" fill="none" xmlns="http://www.w3.org/2000/svg"><g clip-path="url(#a)" fill="#1B2C49"><path d="M59.71 46.887c-.04-.05-3.955-5.088-5.228-9.115-.301-.96-.68-2.31-1.113-3.857-2.07-7.403-3.953-13.701-6.04-15.788-2.263-2.263-11.009-3.773-14.601-4.31V5.455A5.46 5.46 0 0 0 27.273 0H5.455A5.46 5.46 0 0 0 0 5.455v38.181a5.46 5.46 0 0 0 5.455 5.455h21.818c.588 0 1.157-.131 1.715-.323 1.188 1.102 2.532 1.94 3.942 2.795 2.778 1.686 5.654 3.429 8.163 7.758.245.42.693.68 1.18.68C55.25 60 59.864 48.333 59.91 48.214c.17-.446.096-.951-.2-1.328zM32.728 25.195l4.322 1.73c.21.74.57 1.94.93 2.874-.165.291-.31.616-.46.963-.249.564-.518 1.182-.896 1.662-1.365-.974-2.751-3.036-3.896-5.229v-2zM27.273 2.727A2.73 2.73 0 0 1 30 5.454v2.59a6.837 6.837 0 0 1-5.316-5.317h2.59zM2.728 5.455a2.73 2.73 0 0 1 2.727-2.728h2.59a6.836 6.836 0 0 1-5.317 5.317v-2.59zm2.727 40.909a2.73 2.73 0 0 1-2.727-2.727v-2.59a6.837 6.837 0 0 1 5.316 5.317h-2.59zm5.316 0a9.51 9.51 0 0 0-8.043-8.044V10.77a9.51 9.51 0 0 0 8.043-8.044h11.185A9.51 9.51 0 0 0 30 10.771v11.033c-1.702-2.497-4.571-5.45-7.172-5.978-1.262-.264-2.387.049-3.256.873a16.43 16.43 0 0 0-3.208-.336c-6.525 0-10.909 3.288-10.909 8.182s4.384 8.182 10.91 8.182c2.098 0 4.036-.386 5.707-1.093 1.365 2.431 2.313 4.926 2.48 6.677.037.38.053.742.069 1.099.023.51.05 1.025.119 1.572-1.504 1.472-2.465 3.342-2.767 5.382H10.772zm9.85-17.072c-1.247.462-2.69.708-4.257.708-4.072 0-8.182-1.687-8.182-5.454 0-4.318 5.47-5.873 9.895-5.353-.97 3.16.539 7.146 2.544 10.1zm4.08 17.072c.17-.815.517-1.575.975-2.277.319.681.748 1.435 1.312 2.277h-2.287zm18.334 10.893c-2.775-4.439-6.04-6.419-8.69-8.026-1.86-1.127-3.463-2.1-4.606-3.669-2.248-3.09-2.311-4.496-2.394-6.277-.019-.401-.037-.806-.077-1.232-.264-2.76-1.96-6.76-4.326-10.19-2.104-3.05-3.475-7.22-1.523-9.171.162-.159.37-.287.866-.195 2.136.436 5.582 4.41 6.45 6.559 1.044 2.586 3.87 8.762 7.562 10.295.42.173.9.126 1.278-.125 1.364-.909 1.987-2.33 2.442-3.368.13-.299.312-.707.306-.737a1.365 1.365 0 0 0 .443-1.73c-.416-.83-1.055-3.052-1.268-3.837a1.361 1.361 0 0 0-.81-.911l-5.96-2.384V16.58c4.956.767 11.387 2.19 12.672 3.474 1.752 1.753 4 9.79 5.343 14.594.442 1.582.83 2.963 1.14 3.943 1.142 3.622 4.01 7.73 5.177 9.311-1.073 2.179-5.135 8.984-14.025 9.354z"/><path d="M16.364 35.455a2.73 2.73 0 0 0-2.727 2.727 2.73 2.73 0 0 0 2.727 2.727 2.73 2.73 0 0 0 2.727-2.727 2.73 2.73 0 0 0-2.727-2.727zM16.364 13.637a2.73 2.73 0 0 0 2.727-2.728 2.73 2.73 0 0 0-2.727-2.727 2.73 2.73 0 0 0-2.727 2.727 2.73 2.73 0 0 0 2.727 2.728z"/></g><defs><clipPath id="a"><path fill="#fff" d="M0 0h60v60H0z"/></clipPath></defs></svg>