<svg width="60" height="60" fill="none" xmlns="http://www.w3.org/2000/svg"><path fill-rule="evenodd" clip-rule="evenodd" d="m25 4 3-2h3.5l2.8 2H40a1 1 0 0 1 1 1v5a1 1 0 0 1-1 1H21a1 1 0 0 1-1-1V5a1 1 0 0 1 1-1h4z" fill="#FF7D2F"/><path d="M47.5 5h-5.23c-.518-1.452-1.893-2.5-3.52-2.5h-3.777A6.256 6.256 0 0 0 30 0a6.257 6.257 0 0 0-4.973 2.5H21.25c-1.628 0-3.002 1.048-3.52 2.5H12.5c-2.756 0-5 2.242-5 5v45c0 2.758 2.244 5 5 5h35c2.756 0 5-2.242 5-5V10c0-2.758-2.244-5-5-5zM20 6.25c0-.69.562-1.25 1.25-1.25h4.444c.444 0 .857-.237 1.079-.621C27.459 3.202 28.665 2.5 30 2.5c1.336 0 2.542.702 3.228 1.879.222.384.634.62 1.079.62h4.443C39.44 5 40 5.56 40 6.25V7.5c0 1.378-1.12 2.5-2.5 2.5h-15C21.12 10 20 8.878 20 7.5V6.25zM50 55c0 1.378-1.12 2.5-2.5 2.5h-35c-1.38 0-2.5-1.122-2.5-2.5V10c0-1.378 1.12-2.5 2.5-2.5h5c0 2.758 2.244 5 5 5h15c2.757 0 5-2.242 5-5h5c1.38 0 2.5 1.122 2.5 2.5v45z" fill="#1B2C49"/><path d="M18.75 20A3.754 3.754 0 0 0 15 23.75a3.754 3.754 0 0 0 3.75 3.75 3.754 3.754 0 0 0 3.75-3.75A3.754 3.754 0 0 0 18.75 20zm0 5c-.689 0-1.25-.56-1.25-1.25s.561-1.25 1.25-1.25 1.25.56 1.25 1.25S19.439 25 18.75 25zM18.75 32.5A3.754 3.754 0 0 0 15 36.25 3.754 3.754 0 0 0 18.75 40a3.754 3.754 0 0 0 3.75-3.75 3.754 3.754 0 0 0-3.75-3.75zm0 5c-.689 0-1.25-.56-1.25-1.25S18.061 35 18.75 35s1.25.56 1.25 1.25-.561 1.25-1.25 1.25zM18.75 45A3.754 3.754 0 0 0 15 48.75a3.754 3.754 0 0 0 3.75 3.75 3.754 3.754 0 0 0 3.75-3.75A3.754 3.754 0 0 0 18.75 45zm0 5c-.689 0-1.25-.56-1.25-1.25s.561-1.25 1.25-1.25 1.25.56 1.25 1.25S19.439 50 18.75 50zM43.75 22.5h-15a1.25 1.25 0 1 0 0 2.5h15a1.25 1.25 0 1 0 0-2.5zM43.75 35h-15a1.25 1.25 0 1 0 0 2.5h15a1.25 1.25 0 1 0 0-2.5zM43.75 47.5h-15a1.25 1.25 0 1 0 0 2.5h15a1.25 1.25 0 1 0 0-2.5z" fill="#1B2C49"/></svg>