<svg width="60" height="60" fill="none" xmlns="http://www.w3.org/2000/svg"><g clip-path="url(#a)"><path d="M35.455 11.396V6.725C35.455-2.242 0-2.242 0 6.725v27.32c0 3.525 5.518 5.723 12.156 6.504-2.428 1.089-3.974 2.56-3.974 4.424v8.197c0 4.483 8.918 6.83 17.727 6.83 8.81 0 17.727-2.347 17.727-6.83v-4.121C51.98 48.819 60 46.493 60 42.24V17.653c0-5.66-14.126-7.744-24.545-6.257zm-17.728-8.67c9.706 0 15 2.703 15 4.092 0 1.389-5.294 4.09-15 4.09-9.705 0-15-2.701-15-4.09 0-1.39 5.295-4.091 15-4.091zm-15 7.886c3.31 1.992 9.17 3.024 15 3.024s11.691-1.032 15-3.024v1.355c-4.739 1.051-8.181 2.97-8.181 5.76v.807a43.261 43.261 0 0 1-6.819.556c-9.705 0-15-2.701-15-4.09v-4.388zm24.546 27.273c.26.156.53.308.819.452a52.879 52.879 0 0 0-.82-.03v-.422zM2.727 18.795c3.31 1.99 9.17 3.023 15 3.023 2.36 0 4.655-.212 6.818-.535v6.796a43.261 43.261 0 0 1-6.818.557c-9.705 0-15-2.702-15-4.091v-5.75zm0 15.295v-5.75c3.31 1.991 9.17 3.023 15 3.023 2.36 0 4.655-.212 6.818-.535v6.797a43.25 43.25 0 0 1-6.818.556c-9.705 0-15-2.702-15-4.09zM40.91 53.181c0 1.39-5.295 4.091-15 4.091s-15-2.702-15-4.09v-4.388c3.309 1.992 9.17 3.024 15 3.024 5.58 0 11.197-.944 14.57-2.77.142.005.288.005.43.01v4.123zm-15-4.09c-9.705 0-15-2.702-15-4.091 0-1.39 5.295-4.091 15-4.091s15 2.702 15 4.09c0 1.39-5.295 4.091-15 4.091zm31.364-6.819c0 1.32-4.832 3.798-13.637 4.044V45c0-1.704-1.289-3.081-3.369-4.136.667.027 1.336.045 2.006.045 5.83 0 11.69-1.032 15-3.024v4.387zm0-8.181c0 1.389-5.295 4.09-15 4.09s-15-2.701-15-4.09v-4.388c3.309 1.992 9.17 3.024 15 3.024s11.691-1.032 15-3.024v4.387zm0-8.182c0 1.389-5.295 4.09-15 4.09s-15-2.701-15-4.09V21.52c3.309 1.992 9.17 3.024 15 3.024s11.691-1.032 15-3.024v4.388zm-15-4.091c-9.706 0-15-2.702-15-4.091 0-1.39 5.295-4.091 15-4.091s15 2.702 15 4.09c0 1.39-5.295 4.092-15 4.092z" fill="#1B2C49"/></g><defs><clipPath id="a"><path fill="#fff" d="M0 0h60v60H0z"/></clipPath></defs></svg>