<svg width="60" height="60" fill="none" xmlns="http://www.w3.org/2000/svg"><g clip-path="url(#a)"><path d="M40 15.17v-1.503c0-8.223-32.5-8.223-32.5 0v16.285c0 1.171.67 2.218 1.926 3.12C4.123 33.914 0 35.793 0 38.72v7.516C0 50.348 8.175 52.5 16.25 52.5s16.25-2.152 16.25-6.263v-5.394c2.95 1.033 6.973 1.636 11.25 1.636 8.075 0 16.25-2.152 16.25-6.264V21.183c0-4.75-10.84-6.75-20-6.012zM23.75 10c8.897 0 13.75 2.477 13.75 3.75 0 1.273-4.854 3.75-13.75 3.75S10 15.023 10 13.75C10 12.477 14.854 10 23.75 10zM10 17.228C13.033 19.054 18.406 20 23.75 20c1.384 0 2.767-.068 4.115-.193a3.04 3.04 0 0 0-.365 1.443v3.565c-1.24.111-2.492.185-3.75.185C14.853 25 10 22.523 10 21.25v-4.022zm0 7.5c3.033 1.826 8.406 2.772 13.75 2.772 1.256 0 2.508-.071 3.75-.177v6.84c-3.521-1.203-8.423-1.71-13.119-1.526l.009-.03C11.17 31.695 10 30.548 10 30v-5.272zM30 46.25C30 47.523 25.146 50 16.25 50S2.5 47.523 2.5 46.25v-4.022C5.533 44.054 10.906 45 16.25 45c5.344 0 10.717-.946 13.75-2.772v4.022zM16.25 42.5c-8.896 0-13.75-2.477-13.75-3.75C2.5 37.477 7.354 35 16.25 35S30 37.477 30 38.75c0 1.273-4.854 3.75-13.75 3.75zm41.25-6.285c0 1.276-4.853 3.758-13.75 3.758-4.505 0-8.649-.685-11.323-1.84-.226-1.133-1.1-2.092-2.427-2.88v-3.068c3.033 1.83 8.406 2.777 13.75 2.777 5.344 0 10.717-.948 13.75-2.777v4.03zm0-7.516c0 1.276-4.853 3.758-13.75 3.758-8.896 0-13.75-2.482-13.75-3.758v-4.03c3.033 1.83 8.406 2.778 13.75 2.778 5.344 0 10.717-.948 13.75-2.778v4.03zm-13.75-3.758c-8.897 0-13.75-2.482-13.75-3.758 0-1.276 4.854-3.758 13.75-3.758s13.75 2.482 13.75 3.758c0 1.276-4.853 3.758-13.75 3.758z" fill="#1B2C49"/></g><defs><clipPath id="a"><path fill="#fff" d="M0 0h60v60H0z"/></clipPath></defs></svg>