<svg width="60" height="60" fill="none" xmlns="http://www.w3.org/2000/svg"><path d="m52.134 12.866-12.5-12.5A1.25 1.25 0 0 0 38.75 0H12.5c-2.756 0-5 2.242-5 5v50c0 2.758 2.244 5 5 5h35c2.756 0 5-2.242 5-5V13.75c0-.332-.132-.65-.366-.884zM40 4.268l8.232 8.232H42.5c-1.38 0-2.5-1.122-2.5-2.5V4.268zM50 55c0 1.378-1.12 2.5-2.5 2.5h-35c-1.38 0-2.5-1.122-2.5-2.5V5c0-1.378 1.12-2.5 2.5-2.5h25V10c0 2.758 2.244 5 5 5H50v40z" fill="#1B2C49"/><path d="M43.75 35h-17.5a1.25 1.25 0 1 0 0 2.5h17.5a1.25 1.25 0 1 0 0-2.5zM16.25 15h15a1.25 1.25 0 1 0 0-2.5h-15a1.25 1.25 0 1 0 0 2.5zM43.75 27.5h-27.5a1.25 1.25 0 1 0 0 2.5h27.5a1.25 1.25 0 1 0 0-2.5zM15 21.25c0 .691.56 1.25 1.25 1.25h27.5a1.25 1.25 0 1 0 0-2.5h-27.5c-.69 0-1.25.56-1.25 1.25zM32.874 45.359c-1.839 1.81-4.156 3.848-5.074 4.468-.217-.492-.464-1.315-.613-1.814C26.68 46.329 26.282 45 25 45c-1.096 0-1.59 1.002-2.337 2.518-.366.742-1.125 2.288-1.4 2.482-.272-.028-.736-.344-1.246-.82 1.377-1.779 2.483-3.838 2.483-5.43 0-2.732-2.3-3.75-3.75-3.75-1.475 0-3.75 2.147-3.75 5 0 1.265.7 2.827 1.694 4.198A11.51 11.51 0 0 1 15.5 50.25a1.251 1.251 0 0 0 .75 2.25c.261 0 .525-.082.75-.25.432-.324.895-.73 1.362-1.194.979.872 2.019 1.444 2.888 1.444 1.69 0 2.693-1.922 3.564-3.691.577 1.909 1.133 3.691 2.686 3.691.418 0 1.685 0 7.127-5.359a1.25 1.25 0 1 0-1.753-1.782zm-14.505 1.858c-.508-.774-.869-1.577-.869-2.217 0-1.525 1.118-2.417 1.25-2.5.207 0 1.25.06 1.25 1.25 0 .797-.674 2.142-1.63 3.467z" fill="#1B2C49"/></svg>