<svg width="60" height="60" fill="none" xmlns="http://www.w3.org/2000/svg"><g clip-path="url(#a)"><path d="M39.522 1.445a1 1 0 0 1 1.398.287l4.726 7.308a1 1 0 0 1-.84 1.543h-6.104a1 1 0 0 1-.388-.079l-5.83-2.453a1 1 0 0 1-.17-1.75l7.208-4.856z" fill="#FF7D2F"/><path d="M57.272 30.252v-8.433c0-2.86-2.218-5.185-5.02-5.41l-7.831-13.68a5.389 5.389 0 0 0-3.3-2.544 5.359 5.359 0 0 0-4.104.55L10.17 16.365H5.455A5.46 5.46 0 0 0 0 21.818v32.726A5.46 5.46 0 0 0 5.455 60h46.363a5.46 5.46 0 0 0 5.454-5.455v-8.432c1.584-.565 2.728-2.065 2.728-3.84v-8.182c0-1.775-1.144-3.275-2.728-3.84zM38.39 3.092a2.638 2.638 0 0 1 2.026-.273 2.673 2.673 0 0 1 1.638 1.266l2.657 4.641a9.362 9.362 0 0 1-3.801.82c-2.929 0-5.612-1.329-7.414-3.605l4.895-2.85zM31.127 7.32c2.313 3.118 5.874 4.954 9.782 4.954 1.77 0 3.523-.418 5.153-1.186l3.021 5.276H15.59L31.127 7.32zm23.418 47.225a2.73 2.73 0 0 1-2.727 2.728H5.455a2.73 2.73 0 0 1-2.727-2.728V21.82a2.73 2.73 0 0 1 2.727-2.727h46.363a2.73 2.73 0 0 1 2.727 2.727V30h-8.182c-4.511 0-8.181 3.67-8.181 8.182 0 4.512 3.67 8.182 8.181 8.182h8.182v8.181zm2.727-12.272c0 .752-.61 1.364-1.363 1.364h-9.546a5.46 5.46 0 0 1-5.454-5.455 5.46 5.46 0 0 1 5.454-5.454h9.546c.752 0 1.363.61 1.363 1.363v8.182z" fill="#1B2C49"/><path d="M46.363 35.455a2.73 2.73 0 0 0-2.727 2.727 2.73 2.73 0 0 0 2.727 2.727 2.73 2.73 0 0 0 2.728-2.727 2.73 2.73 0 0 0-2.728-2.727z" fill="#1B2C49"/></g><defs><clipPath id="a"><path fill="#fff" d="M0 0h60v60H0z"/></clipPath></defs></svg>