<svg width="60" height="60" fill="none" xmlns="http://www.w3.org/2000/svg">
    <g clip-path="url(#clip0)">
        <path fill="#FF7D2F" d="M58 7v5H13V7z"/>
        <path d="M13.113 59.711c.05-.04 5.088-3.956 9.115-5.23.96-.302 2.31-.679 3.855-1.111 7.405-2.071 13.702-3.954 15.79-6.042 2.263-2.263 3.772-11.007 4.31-14.6h8.362A5.46 5.46 0 0060 27.272V5.455A5.46 5.46 0 0054.545 0H16.364a5.46 5.46 0 00-5.455 5.455v21.818c0 .589.13 1.158.323 1.714-1.102 1.188-1.94 2.533-2.794 3.943-1.686 2.779-3.43 5.654-7.759 8.163-.42.243-.679.694-.679 1.18 0 12.975 11.667 17.591 11.785 17.636.446.172.951.096 1.328-.198zm.523-54.256a2.73 2.73 0 012.728-2.728h38.181a2.73 2.73 0 012.728 2.728H13.636zm21.168 27.272l-1.73 4.322c-.74.211-1.938.57-2.873.929a10.882 10.882 0 00-.964-.46c-.565-.247-1.181-.517-1.66-.896.972-1.364 3.034-2.75 5.225-3.895h2.002zM13.636 10.91V8.182h43.637v2.727H13.636zm0 2.727h43.637v13.637A2.73 2.73 0 0154.545 30h-16.35c2.497-1.702 5.45-4.571 5.98-7.172.271-1.305-.058-2.459-.938-3.337-3.284-3.285-8.865-1.404-12.647 1.205-3.027 2.088-6.604 3.636-8.9 3.856-.383.036-.745.052-1.102.07-1.821.084-3.717.2-6.952 2.366V13.636zM2.743 43.034c4.439-2.773 6.419-6.04 8.026-8.69 1.127-1.86 2.1-3.464 3.67-4.605 3.087-2.245 4.493-2.31 6.275-2.393.401-.019.807-.039 1.233-.08 2.762-.262 6.763-1.96 10.19-4.325 3.049-2.103 7.218-3.475 9.172-1.522.16.158.29.37.194.864-.435 2.137-4.41 5.585-6.558 6.452-2.585 1.044-8.763 3.87-10.296 7.56-.17.42-.126.9.126 1.28.908 1.363 2.329 1.985 3.366 2.44.298.132.709.31.738.307a1.364 1.364 0 001.731.443c.83-.415 3.05-1.054 3.835-1.266.414-.112.753-.412.912-.811l2.385-5.96h5.677c-.767 4.955-2.19 11.386-3.474 12.671-1.752 1.753-9.792 4-14.595 5.344-1.582.442-2.963.829-3.942 1.139-3.622 1.143-7.729 4.011-9.31 5.179-2.18-1.075-8.984-5.135-9.355-14.027z"
              fill="#1B2C49"/>
    </g>
    <defs>
        <clipPath id="clip0">
            <path fill="#fff" transform="rotate(90 30 30)" d="M0 0h60v60H0z"/>
        </clipPath>
    </defs>
</svg>