<svg width="60" height="60" fill="none" xmlns="http://www.w3.org/2000/svg"><g clip-path="url(#a)"><ellipse cx="45" cy="45" rx="6" ry="4" fill="#FF7D2F"/><path d="M55 20h-.694L45.719 5.002a4.94 4.94 0 0 0-3.025-2.333 4.922 4.922 0 0 0-3.762.504L2.479 24.395a5.01 5.01 0 0 0-1.816 6.817L7.5 43.155V52.5c0 2.758 2.242 5 5 5H55c2.758 0 5-2.242 5-5V25c0-2.757-2.242-5-5-5zM7.5 38.121l-.955-1.668.955-.555v2.223zm0-5.116-2.197 1.279-1.234-2.156L7.5 30.131v2.874zM7.5 25v2.238l-4.67 2.72a2.511 2.511 0 0 1 .907-3.403l3.831-2.23c-.03.223-.068.444-.068.675zm43.924-5h-16.62l12.465-7.257L51.424 20zm-5.397-9.426L29.837 20H24.9L44.793 8.418l1.234 2.156zm-5.836-5.24a2.412 2.412 0 0 1 1.856-.25c.639.17 1.171.583 1.502 1.16l.002.005L19.931 20h-4.934L40.19 5.334zM57.5 52.5c0 1.379-1.123 2.5-2.5 2.5H12.5a2.503 2.503 0 0 1-2.5-2.5V25c0-1.378 1.121-2.5 2.5-2.5H55c1.377 0 2.5 1.122 2.5 2.5v27.5z" fill="#1B2C49"/><path d="M47.344 40c-.82 0-1.618.19-2.344.557a5.188 5.188 0 0 0-2.344-.556c-2.843 0-5.156 2.242-5.156 5 0 2.757 2.313 5 5.156 5 .82 0 1.618-.19 2.344-.557a5.189 5.189 0 0 0 2.344.557c2.843 0 5.156-2.243 5.156-5 0-2.758-2.313-5-5.156-5zm0 7.5a2.732 2.732 0 0 1-1.61-.528 1.247 1.247 0 0 0-1.468 0 2.73 2.73 0 0 1-1.61.529C41.191 47.5 40 46.379 40 45c0-1.379 1.191-2.5 2.656-2.5a2.73 2.73 0 0 1 1.61.528 1.25 1.25 0 0 0 1.468 0 2.73 2.73 0 0 1 1.61-.528C48.809 42.5 50 43.622 50 45c0 1.378-1.191 2.5-2.656 2.5zM16.25 42.5h12.5a1.25 1.25 0 1 0 0-2.5h-12.5a1.25 1.25 0 1 0 0 2.5zM33.75 47.5h-17.5a1.25 1.25 0 1 0 0 2.5h17.5a1.25 1.25 0 1 0 0-2.5z" fill="#1B2C49"/></g><defs><clipPath id="a"><path fill="#fff" d="M0 0h60v60H0z"/></clipPath></defs></svg>