<svg width="60" height="60" fill="none" xmlns="http://www.w3.org/2000/svg"><path fill="#FF7D2F" d="M7 2h5v45H7z"/><path d="M59.711 46.887c-.04-.05-3.956-5.088-5.23-9.115-.302-.96-.679-2.31-1.111-3.855-2.071-7.405-3.954-13.702-6.042-15.79-2.263-2.262-11.007-3.772-14.6-4.31V5.455A5.46 5.46 0 0 0 27.272 0H5.455A5.46 5.46 0 0 0 0 5.455v38.181a5.46 5.46 0 0 0 5.455 5.455h21.818c.589 0 1.158-.13 1.714-.323 1.188 1.102 2.533 1.94 3.943 2.794 2.779 1.686 5.654 3.43 8.163 7.759.243.42.694.679 1.18.679 12.975 0 17.591-11.667 17.636-11.785.172-.446.096-.951-.198-1.328zm-54.256-.523a2.73 2.73 0 0 1-2.728-2.728V5.455a2.73 2.73 0 0 1 2.728-2.728v43.637zm27.272-21.168 4.322 1.73c.211.74.57 1.938.929 2.873-.165.293-.308.618-.46.964-.247.565-.517 1.181-.896 1.66-1.364-.972-2.75-3.034-3.895-5.225v-2.002zM10.91 46.364H8.182V2.727h2.727v43.637zm2.727 0V2.727h13.637A2.73 2.73 0 0 1 30 5.455v16.35c-1.702-2.497-4.571-5.45-7.172-5.98-1.305-.271-2.459.058-3.337.938-3.285 3.284-1.404 8.865 1.205 12.647 2.088 3.027 3.636 6.604 3.856 8.9.036.383.052.745.07 1.102.084 1.821.2 3.717 2.366 6.952H13.636zm29.398 10.893c-2.773-4.439-6.04-6.419-8.69-8.026-1.86-1.127-3.464-2.1-4.605-3.67-2.245-3.087-2.31-4.493-2.393-6.275a24.33 24.33 0 0 0-.08-1.233c-.262-2.762-1.96-6.763-4.325-10.19-2.103-3.049-3.475-7.218-1.522-9.172.158-.16.37-.29.864-.194 2.137.435 5.585 4.41 6.452 6.558 1.044 2.585 3.87 8.763 7.56 10.295.42.17.9.127 1.28-.125 1.363-.908 1.985-2.329 2.44-3.366.132-.298.31-.709.307-.738a1.364 1.364 0 0 0 .443-1.731c-.415-.83-1.054-3.05-1.266-3.835a1.365 1.365 0 0 0-.811-.912l-5.96-2.384V16.58c4.955.767 11.386 2.19 12.671 3.474 1.753 1.753 4 9.792 5.344 14.595.442 1.582.829 2.963 1.139 3.942 1.143 3.622 4.011 7.729 5.179 9.31-1.075 2.18-5.135 8.984-14.027 9.355z" fill="#1B2C49"/></svg>