<svg width="60" height="60" fill="none" xmlns="http://www.w3.org/2000/svg"><path fill-rule="evenodd" clip-rule="evenodd" d="M41.5 41.8C40.4 43.148 38.792 44 37 44c-3.314 0-6-2.91-6-6.5s2.686-6.5 6-6.5c1.792 0 3.4.851 4.5 2.2 1.1-1.349 2.708-2.2 4.5-2.2 3.314 0 6 2.91 6 6.5S49.314 44 46 44c-1.792 0-3.4-.851-4.5-2.2z" fill="#FF7D2F"/><path d="M55 7.5H5c-2.756 0-5 2.242-5 5v35c0 2.758 2.244 5 5 5h50c2.756 0 5-2.242 5-5v-35c0-2.758-2.244-5-5-5zm2.5 40c0 1.378-1.12 2.5-2.5 2.5H5c-1.38 0-2.5-1.122-2.5-2.5V25h55v22.5zm0-25h-55v-5h55v5zm0-7.5h-55v-2.5C2.5 11.122 3.62 10 5 10h50c1.38 0 2.5 1.122 2.5 2.5V15z" fill="#1B2C49"/><path d="M37.5 45a7.366 7.366 0 0 0 3.75-1.027A7.366 7.366 0 0 0 45 45c4.136 0 7.5-3.364 7.5-7.5S49.136 30 45 30a7.366 7.366 0 0 0-3.75 1.027A7.366 7.366 0 0 0 37.5 30c-4.136 0-7.5 3.364-7.5 7.5s3.364 7.5 7.5 7.5zm0-12.5c1.072 0 2.11.355 2.996 1.025.449.337 1.06.337 1.508 0A4.944 4.944 0 0 1 45 32.5c2.757 0 5 2.242 5 5s-2.244 5-5 5a4.944 4.944 0 0 1-2.996-1.025 1.252 1.252 0 0 0-1.509 0A4.944 4.944 0 0 1 37.5 42.5c-2.757 0-5-2.242-5-5s2.244-5 5-5z" fill="#1B2C49"/></svg>