<svg width="60" height="60" fill="none" xmlns="http://www.w3.org/2000/svg"><path d="M59.467 12.726a1.24 1.24 0 0 0-1.144-.15l-10.19 3.706a4.963 4.963 0 0 0-2.833 2.605c-.105.229-.174.466-.244.704-1.75-.498-5.002-1.537-8.233-3.202-4.884-2.516-8.615-1.273-11.815 1.168-1.621.032-3.856.223-6.053.417-1.401.123-2.725.237-3.8.303a4.997 4.997 0 0 0-.455-1.89 4.962 4.962 0 0 0-2.832-2.605l-10.19-3.706A1.248 1.248 0 0 0 0 11.25v25c0 .691.56 1.25 1.25 1.25h3.651a5.027 5.027 0 0 0 3.932-1.915c.497.378 1.086.821 1.704 1.285 1.459 1.098 3.056 2.295 3.756 2.882 4.655 3.897 10.25 8.104 11.365 8.837C26.699 49.273 28.574 50 30 50c.558 0 1.963 0 2.95-.834 1.016.4 2.112.38 3.132-.07 1.016-.447 1.84-1.292 2.318-2.319.976.2 2.098.054 3.115-.456.953-.477 1.655-1.2 2.031-2.045.903.083 1.868-.211 2.73-.872 1.234-.942 1.798-2.334 1.639-3.707l3.17-1.754C52.014 39.2 53.49 40 55.1 40h3.65c.692 0 1.25-.56 1.25-1.25v-25c.001-.408-.198-.79-.532-1.024zM7.242 33.378A2.512 2.512 0 0 1 4.902 35H2.5V13.035l8.513 3.096c.633.23 1.136.693 1.416 1.303.282.61.307 1.294.07 1.923l-5.257 14.02zm37.518 8.04c-.424.325-1.017.506-1.281.242-.014-.013-.034-.012-.048-.025-.024-.022-.036-.052-.062-.072-.893-.706-4.897-4.803-7.372-7.383a1.246 1.246 0 0 0-1.766-.038 1.247 1.247 0 0 0-.038 1.766c.581.606 5.243 5.462 7.11 7.16-.14.55-.649.888-.907 1.018-.801.401-1.636.334-1.949.044-.009-.009-.023-.009-.032-.017-.016-.014-.022-.033-.039-.045-1.499-1.198-5.26-5.195-6.11-6.12a1.25 1.25 0 0 0-1.841 1.692c.04.044 3.727 4.02 5.797 5.867-.204.585-.618 1.069-1.15 1.303-.393.175-1.006.264-1.708-.254-1.795-1.522-5.397-5.357-6.106-6.115a1.249 1.249 0 1 0-1.826 1.706c.84.9 3.323 3.531 5.21 5.313-.21.026-.432.04-.642.04-.828 0-2.25-.528-2.969-1-.876-.577-6.38-4.683-11.131-8.663-.72-.603-2.36-1.837-3.861-2.965a249.543 249.543 0 0 1-2.093-1.581l4.68-12.483c1.215-.053 2.835-.193 4.549-.344.97-.086 1.94-.169 2.867-.241-1.425 1.463-3.545 4.084-3.265 6.54.128 1.119.74 2.05 1.771 2.695 2.042 1.278 5.823.206 7.644-2.034 1.176-.17 1.97-.47 2.837-.9 1.465 1.378 3.429 2.996 5.492 4.697 3.591 2.959 7.662 6.313 8.739 8.194.6 1.047-.232 1.799-.5 2.004zm2.144-4.02c-1.666-2.227-5.276-5.208-8.794-8.107-2.345-1.933-4.559-3.758-5.976-5.175a1.256 1.256 0 0 0-1.474-.218c-1.273.682-1.846.964-3.285 1.108a1.25 1.25 0 0 0-.932.578c-.98 1.555-3.705 2.294-4.57 1.755-.49-.308-.585-.62-.612-.858-.12-1.064.956-2.904 2.742-4.691 4.422-4.423 7.584-5.288 11.675-3.18 3.886 2.005 7.722 3.138 9.332 3.566.046.187.08.376.149.56l4.853 12.943-3.108 1.72zM57.5 37.5h-2.401a2.512 2.512 0 0 1-2.341-1.622L47.5 21.858a2.483 2.483 0 0 1 .07-1.924c.282-.61.785-1.073 1.417-1.304l8.513-3.095V37.5z" fill="#1B2C49"/></svg>