<svg width="60" height="60" fill="none" xmlns="http://www.w3.org/2000/svg"><path d="M52.5 36.25c-2.44 0-7.5 1.36-10.065 2.096-.34-3.587-4.936-4.857-9.686-5.821-2.168-.44-3.782-1.217-5.342-1.97-1.924-.928-3.74-1.805-6.157-1.805-2.768 0-5.29.566-6.713.958a3.741 3.741 0 0 0-2.862-2.647l-10.18-2.036a1.255 1.255 0 0 0-1.038.258A1.255 1.255 0 0 0 0 26.25v20c0 .691.56 1.25 1.25 1.25h7.832c1.544 0 2.86-.982 3.425-2.36 2.8 1.335 15.745 7.36 21.243 7.36 4.849 0 14.832-4.907 21.436-8.154 1.72-.846 3.144-1.547 4.067-1.95.454-.2.747-.65.747-1.146 0-2.944-3.083-5-7.5-5zm-40.322-5.335L10.32 43.927A1.257 1.257 0 0 1 9.082 45H2.5V27.775l8.687 1.737c.649.13 1.086.746.99 1.402zm41.904 11.187C48.074 45.056 38.018 50 33.75 50c-4.546 0-16.487-5.323-20.703-7.374l-.015-.004 1.471-10.3c.91-.286 3.694-1.072 6.747-1.072 1.846 0 3.269.688 5.073 1.557 1.619.78 3.455 1.666 5.928 2.169 5.432 1.1 7.749 2.23 7.749 3.774 0 .305-.093.493-.33.67-.796.595-3.899 1.593-15.564-1.869a1.25 1.25 0 1 0-.713 2.398c5.76 1.706 10.161 2.557 13.282 2.557 2.033 0 3.525-.361 4.49-1.083.082-.062.143-.137.219-.204.078-.009.156 0 .235-.024 2.21-.68 8.471-2.445 10.881-2.445 2.039 0 4.184.62 4.814 1.782-.871.41-1.972.953-3.232 1.57zM39.16 29.675a1.246 1.246 0 0 0 1.68 0l13.75-12.5a1.248 1.248 0 0 0 .044-1.809l-7.5-7.5a1.249 1.249 0 0 0-.884-.366h-12.5c-.332 0-.65.132-.884.366l-7.5 7.5a1.252 1.252 0 0 0 .044 1.81l13.75 12.5zM29.483 17.5h4.672l2.67 6.674-7.342-6.674zM40 25.387 36.845 17.5h6.31L40 25.387zm3.176-1.213 2.67-6.674h4.67l-7.34 6.674zM45.732 10l5 5h-4.83l-1.667-5h1.497zm-7.33 0h3.196l1.667 5h-6.53l1.667-5zm-4.134 0h1.497l-1.667 5h-4.83l5-5z" fill="#1B2C49"/></svg>