<svg width="60" height="60" fill="none" xmlns="http://www.w3.org/2000/svg"><g clip-path="url(#a)"><path d="m59.634 22.866-15-15a1.25 1.25 0 0 0-.884-.366h-27.5c-.332 0-.65.132-.884.366l-15 15a1.26 1.26 0 0 0-.366.897c.005.337.144.658.386.89l28.75 27.5a1.251 1.251 0 0 0 1.728 0l28.75-27.5c.242-.232.38-.553.386-.89a1.26 1.26 0 0 0-.366-.897zM42.032 10 38.516 20.87 32.176 10h9.856zm-5.458 12.5H23.426L30 11.23l6.574 11.27zM27.824 10l-6.34 10.869L17.968 10h9.856zM15.69 11.078 19.385 22.5H4.268L15.69 11.078zM4.364 25h15.83l7.093 21.926L4.364 25zM30 47.19 22.82 25h14.36L30 47.19zm2.712-.264L39.806 25h15.83L32.712 46.926zM40.615 22.5l3.695-11.422L55.732 22.5H40.615z" fill="#1B2C49"/></g><defs><clipPath id="a"><path fill="#fff" d="M0 0h60v60H0z"/></clipPath></defs></svg>