<svg width="60" height="60" fill="none" xmlns="http://www.w3.org/2000/svg"><g clip-path="url(#a)" fill="#1B2C49"><path d="M54.545 0H5.455A5.46 5.46 0 0 0 0 5.455v27.272a5.46 5.46 0 0 0 5.455 5.455h19.09v16.363c0 3.748 7.775 5.455 15 5.455 7.226 0 15-1.707 15-5.455V38.182A5.46 5.46 0 0 0 60 32.727V5.455A5.46 5.46 0 0 0 54.545 0zM2.727 5.455a2.73 2.73 0 0 1 2.727-2.728h5.317a9.511 9.511 0 0 1-8.044 8.044V5.455zm2.728 30a2.73 2.73 0 0 1-2.728-2.728v-5.316a9.511 9.511 0 0 1 8.044 8.044H5.455zm34.09 21.818c-7.979 0-12.067-1.991-12.272-2.728v-4.87c2.901 1.455 7.694 2.143 12.272 2.143 4.58 0 9.373-.688 12.274-2.144l.002 4.852c-.208.756-4.296 2.747-12.276 2.747zm0-8.182c-7.979 0-12.067-1.99-12.272-2.727v-4.872c2.901 1.456 7.694 2.145 12.272 2.145 4.58 0 9.373-.689 12.274-2.145l.002 4.852c-.208.756-4.296 2.747-12.276 2.747zM27.273 38.205v-.007c.217-.758 4.303-2.743 12.272-2.743 7.908 0 11.994 1.956 12.268 2.727-.274.77-4.36 2.727-12.268 2.727-7.969 0-12.055-1.985-12.272-2.704zm30-5.478a2.73 2.73 0 0 1-2.728 2.728h-1.743c-.842-.58-1.941-1.066-3.225-1.456a9.457 9.457 0 0 1 7.696-6.605v5.333zm0-8.06c-4.9.547-8.955 3.96-10.34 8.7-2.298-.428-4.872-.64-7.387-.64-5.15 0-10.563.873-13.257 2.728H13.5A12.21 12.21 0 0 0 2.727 24.683V13.5A12.21 12.21 0 0 0 13.5 2.726H46.5a12.21 12.21 0 0 0 10.772 10.771v11.17zm0-13.896a9.511 9.511 0 0 1-8.044-8.044h5.316a2.73 2.73 0 0 1 2.728 2.727v5.317z"/><path d="M29.318 13.636h4.773a1.363 1.363 0 1 0 0-2.727h-2.727V9.545a1.363 1.363 0 1 0-2.728 0v1.433c-2.307.334-4.09 2.306-4.09 4.704a4.779 4.779 0 0 0 4.772 4.772h1.364c1.127 0 2.045.918 2.045 2.046a2.049 2.049 0 0 1-2.045 2.045h-4.773a1.363 1.363 0 1 0 0 2.728h2.727v1.363a1.363 1.363 0 1 0 2.728 0v-1.432c2.307-.335 4.09-2.306 4.09-4.704a4.779 4.779 0 0 0-4.772-4.773h-1.364a2.048 2.048 0 0 1-2.045-2.045c0-1.128.919-2.046 2.045-2.046zM13.636 16.364a2.73 2.73 0 0 0-2.727 2.727 2.73 2.73 0 0 0 2.727 2.727 2.73 2.73 0 0 0 2.728-2.727 2.73 2.73 0 0 0-2.728-2.727zm0 2.727v-.003l1.364.003h-1.364zM46.364 16.364a2.73 2.73 0 0 0-2.727 2.727 2.73 2.73 0 0 0 2.727 2.727 2.73 2.73 0 0 0 2.727-2.727 2.73 2.73 0 0 0-2.727-2.727zm0 2.727v-.003l1.363.003h-1.363z"/></g><defs><clipPath id="a"><path fill="#fff" d="M0 0h60v60H0z"/></clipPath></defs></svg>