<svg width="60" height="60" fill="none" xmlns="http://www.w3.org/2000/svg"><g clip-path="url(#a)" fill="#1B2C49"><path d="M55 17.501H24.212c-.85-2.673-2.266-4.578-3.569-6.304C18.956 8.964 17.5 7.035 17.5 3.752a1.252 1.252 0 0 0-1.978-1.016C12.286 5.05 9.79 8.247 8.671 11.508c-.712 2.075-1.01 4.072-1.119 5.678a1.82 1.82 0 0 1-.31-.257c-.85-.867-1.004-2.565-.992-3.146a1.255 1.255 0 0 0-1.779-1.163C4.298 12.7.22 14.683.016 21.787 0 22.025 0 22.262 0 22.5V52.5c0 2.758 2.242 5 5 5h50c2.758 0 5-2.243 5-5v-30c0-2.757-2.242-4.999-5-4.999zm-52.487 4.4c.081-2.83.849-4.59 1.589-5.641.244.82.654 1.698 1.342 2.406C6.293 19.538 7.436 20 8.75 20c.69 0 1.25-.56 1.25-1.25 0-1.558.18-3.94 1.036-6.433.746-2.176 2.234-4.334 4.2-6.137.554 2.737 2.002 4.655 3.413 6.522 1.787 2.367 3.475 4.604 3.787 8.673l.024.33c.02.258.04.516.04.795 0 5.514-4.486 10-10 10s-10-4.486-10-10c0-.186-.001-.371.013-.6zM5 55a2.503 2.503 0 0 1-2.5-2.5v-4.874A8.719 8.719 0 0 1 9.874 55H5zm52.5-2.5c0 1.378-1.122 2.5-2.5 2.5h-4.874a8.718 8.718 0 0 1 7.374-7.374V52.5zm0-7.374A11.192 11.192 0 0 0 47.626 55H12.374A11.192 11.192 0 0 0 2.5 45.126V29.923C4.78 32.986 8.397 35 12.5 35 19.392 35 25 29.392 25 22.5c0-.343-.023-.663-.046-.982l-.024-.318c-.032-.422-.093-.809-.15-1.2h22.846a11.192 11.192 0 0 0 9.874 9.873v15.253zm0-17.752A8.718 8.718 0 0 1 50.126 20H55c1.378 0 2.5 1.122 2.5 2.5v4.874z"/><path d="M29.375 32.5h4.375a1.25 1.25 0 1 0 0-2.5h-2.5v-1.25a1.25 1.25 0 1 0-2.5 0v1.313c-2.115.306-3.75 2.113-3.75 4.312a4.38 4.38 0 0 0 4.375 4.374h1.25c1.034 0 1.875.842 1.875 1.875a1.877 1.877 0 0 1-1.875 1.875H26.25a1.25 1.25 0 1 0 0 2.5h2.5v1.25a1.25 1.25 0 1 0 2.5 0v-1.313c2.115-.306 3.75-2.113 3.75-4.311a4.38 4.38 0 0 0-4.375-4.375h-1.25a1.877 1.877 0 0 1-1.875-1.875c0-1.034.841-1.875 1.875-1.875zM15 40a2.5 2.5 0 1 0 0-5 2.5 2.5 0 0 0 0 5zM45 40a2.5 2.5 0 1 0 0-5 2.5 2.5 0 0 0 0 5z"/></g><defs><clipPath id="a"><path fill="#fff" d="M0 0h60v60H0z"/></clipPath></defs></svg>