<svg width="60" height="60" fill="none" xmlns="http://www.w3.org/2000/svg"><path d="M26.25 37.5C36.59 37.5 45 29.09 45 18.75S36.59 0 26.25 0 7.5 8.41 7.5 18.75 15.91 37.5 26.25 37.5zm0-35c8.96 0 16.25 7.29 16.25 16.25S35.21 35 26.25 35 10 27.71 10 18.75 17.29 2.5 26.25 2.5z" fill="#1B2C49"/><path d="M26.875 23.75H22.5a1.25 1.25 0 1 0 0 2.5H25v1.25a1.25 1.25 0 1 0 2.5 0v-1.313c2.115-.306 3.75-2.114 3.75-4.312a4.38 4.38 0 0 0-4.375-4.375h-1.25a1.877 1.877 0 0 1-1.875-1.875c0-1.034.841-1.875 1.875-1.875H30a1.25 1.25 0 1 0 0-2.5h-2.5V10a1.25 1.25 0 1 0-2.5 0v1.313c-2.115.307-3.75 2.114-3.75 4.312A4.38 4.38 0 0 0 25.625 20h1.25c1.034 0 1.875.841 1.875 1.875a1.877 1.877 0 0 1-1.875 1.875zM51.25 35h-10a1.25 1.25 0 1 0 0 2.5h6.982L32.5 53.233l-9.116-9.117a1.25 1.25 0 0 0-1.768 0l-13.75 13.75a1.25 1.25 0 1 0 1.768 1.768L22.5 46.767l9.116 9.117a1.25 1.25 0 0 0 1.768 0L50 39.267v6.983a1.25 1.25 0 1 0 2.5 0v-10c0-.69-.56-1.25-1.25-1.25z" fill="#1B2C49"/></svg>