<svg width="60" height="60" fill="none" xmlns="http://www.w3.org/2000/svg"><g clip-path="url(#a)" fill="#1B2C49"><path d="M54.545 2.727H5.455A5.46 5.46 0 0 0 0 8.182v27.272a5.46 5.46 0 0 0 5.455 5.455h49.09A5.46 5.46 0 0 0 60 35.454V8.182a5.46 5.46 0 0 0-5.455-5.455zM2.727 8.182a2.73 2.73 0 0 1 2.727-2.728h5.317a9.511 9.511 0 0 1-8.044 8.044V8.182zm2.728 30a2.73 2.73 0 0 1-2.728-2.727v-5.317a9.511 9.511 0 0 1 8.044 8.044H5.455zm51.818-2.728a2.73 2.73 0 0 1-2.728 2.728H49.23a9.511 9.511 0 0 1 8.044-8.044v5.316zm0-8.044A12.21 12.21 0 0 0 46.5 38.182H13.5A12.21 12.21 0 0 0 2.727 27.41V16.226A12.21 12.21 0 0 0 13.5 5.454H46.5a12.21 12.21 0 0 0 10.772 10.771V27.41zm0-13.912a9.511 9.511 0 0 1-8.044-8.044h5.316a2.73 2.73 0 0 1 2.728 2.728v5.316zM58.636 42.273c-.753 0-1.363.61-1.363 1.363a2.73 2.73 0 0 1-2.728 2.727H5.455a2.73 2.73 0 0 1-2.728-2.727 1.363 1.363 0 1 0-2.727 0 5.46 5.46 0 0 0 5.455 5.455h49.09A5.46 5.46 0 0 0 60 43.636c0-.754-.61-1.364-1.364-1.364zM58.636 50.455c-.753 0-1.363.61-1.363 1.363a2.73 2.73 0 0 1-2.728 2.727H5.455a2.73 2.73 0 0 1-2.728-2.727 1.363 1.363 0 1 0-2.727 0 5.46 5.46 0 0 0 5.455 5.455h49.09A5.46 5.46 0 0 0 60 51.818c0-.753-.61-1.363-1.364-1.363z"/><path d="M29.318 16.363h4.773a1.363 1.363 0 1 0 0-2.727h-2.727v-1.364a1.363 1.363 0 1 0-2.728 0v1.433c-2.307.334-4.09 2.306-4.09 4.704a4.778 4.778 0 0 0 4.772 4.772h1.364c1.128 0 2.045.918 2.045 2.046a2.048 2.048 0 0 1-2.045 2.045h-4.773a1.363 1.363 0 1 0 0 2.728h2.727v1.363a1.363 1.363 0 1 0 2.728 0v-1.432c2.307-.335 4.09-2.306 4.09-4.704a4.779 4.779 0 0 0-4.772-4.773h-1.364a2.048 2.048 0 0 1-2.045-2.045c0-1.128.917-2.046 2.045-2.046zM13.636 19.09a2.73 2.73 0 0 0-2.727 2.728 2.73 2.73 0 0 0 2.727 2.727 2.73 2.73 0 0 0 2.728-2.727 2.731 2.731 0 0 0-2.728-2.727zM46.364 19.09a2.73 2.73 0 0 0-2.727 2.728 2.73 2.73 0 0 0 2.727 2.727 2.73 2.73 0 0 0 2.727-2.727 2.731 2.731 0 0 0-2.727-2.727z"/></g><defs><clipPath id="a"><path fill="#fff" d="M0 0h60v60H0z"/></clipPath></defs></svg>