<svg width="60" height="60" fill="none" xmlns="http://www.w3.org/2000/svg"><path d="M53.75 0H6.25A6.257 6.257 0 000 6.25v47.5A6.258 6.258 0 006.25 60h47.5A6.257 6.257 0 0060 53.75V6.25A6.257 6.257 0 0053.75 0zm3.75 53.75a3.75 3.75 0 01-3.75 3.75H6.25a3.75 3.75 0 01-3.75-3.75V6.25A3.75 3.75 0 016.25 2.5h47.5a3.75 3.75 0 013.75 3.75v47.5z" fill="#1E2C47"/><path d="M55 10H5v2.5h50V10zM8.75 5h-2.5v2.5h2.5V5zM13.75 5h-2.5v2.5h2.5V5zM53.75 5h-2.5v2.5h2.5V5zM25.365 26.616l-12.5 12.5 1.768 1.768 12.5-12.5-1.768-1.768zM34.634 26.617l-1.768 1.768 12.5 12.5 1.768-1.768-12.5-12.5z" fill="#1E2C47"/><path d="M46.25 17.5h-32.5a2.5 2.5 0 00-2.5 2.5v20a2.5 2.5 0 002.5 2.5h7.5V40h-7.5V20h32.5v20h-7.5v2.5h7.5a2.5 2.5 0 002.5-2.5V20a2.5 2.5 0 00-2.5-2.5z" fill="#1E2C47"/><path d="M45.657 18.9L30 27.33 14.342 18.9l-1.185 2.2 16.25 8.75a1.25 1.25 0 001.185 0l16.25-8.75-1.185-2.2z" fill="#1E2C47"/><path d="M37.315 45.587l-6.25-10a1.3 1.3 0 00-2.125 0l-6.25 10a1.249 1.249 0 001.06 1.913h2.5v6.25h2.5v-7.5c0-.69-.56-1.25-1.25-1.25h-1.494L30 38.609l4 6.39h-1.5c-.69 0-1.25.56-1.25 1.25v7.5h2.5V47.5h2.5a1.25 1.25 0 001.065-1.912z" fill="#FF7D2F"/></svg>