<svg width="60" height="60" fill="none" xmlns="http://www.w3.org/2000/svg"><g clip-path="url(#a)" fill="#1B2C49"><path d="M35 33.75h2.5a1.25 1.25 0 1 0 0-2.5H35a6.257 6.257 0 0 0-6.25 6.25 1.25 1.25 0 1 0 0 2.5A6.257 6.257 0 0 0 35 46.25h2.5a1.25 1.25 0 1 0 0-2.5H35A3.754 3.754 0 0 1 31.25 40H35a1.25 1.25 0 1 0 0-2.5h-3.75A3.754 3.754 0 0 1 35 33.75z"/><path d="M55 20.002h-.694L45.718 5.004a4.935 4.935 0 0 0-3.023-2.333 4.97 4.97 0 0 0-1.446-.168c-.807.026-1.6.255-2.318.672L2.478 24.396a5.01 5.01 0 0 0-1.814 6.817L7.5 43.153V52.5c0 2.758 2.244 5 5 5H55c2.757 0 5-2.242 5-5V25.002c0-2.758-2.243-5-5-5zM7.5 25v13.123l-4.668-8.154a2.512 2.512 0 0 1 .906-3.414l3.83-2.23c-.03.223-.068.444-.068.675zM40.19 5.336a2.422 2.422 0 0 1 1.858-.25c.638.17 1.17.583 1.502 1.16l2.435 4.253a8.58 8.58 0 0 1-3.485.753c-2.685 0-5.144-1.218-6.797-3.304l4.488-2.612zm-6.657 3.873c2.12 2.86 5.384 4.54 8.967 4.54 1.621 0 3.23-.382 4.725-1.086L51.426 20H14.998L33.533 9.21zM10 25c0-1.377 1.12-2.5 2.5-2.5h4.874A8.719 8.719 0 0 1 10 29.875V25zM12.5 55c-1.38 0-2.5-1.122-2.5-2.5v-4.874A8.718 8.718 0 0 1 17.374 55H12.5zm45-2.5c0 1.378-1.12 2.5-2.5 2.5h-4.873a8.718 8.718 0 0 1 7.373-7.374V52.5zm0-7.374A11.192 11.192 0 0 0 47.627 55H19.873A11.192 11.192 0 0 0 10 45.126V32.374a11.192 11.192 0 0 0 9.874-9.874h27.753a11.192 11.192 0 0 0 9.873 9.873v12.753zm0-15.252a8.719 8.719 0 0 1-7.373-7.374H55c1.38 0 2.5 1.122 2.5 2.5v4.874z"/><path d="M17.5 36.25c-1.38 0-2.5 1.122-2.5 2.5s1.12 2.5 2.5 2.5 2.5-1.122 2.5-2.5-1.12-2.5-2.5-2.5zM47.5 38.75c0 1.378 1.12 2.5 2.5 2.5s2.5-1.122 2.5-2.5-1.12-2.5-2.5-2.5-2.5 1.122-2.5 2.5z"/></g><defs><clipPath id="a"><path fill="#fff" d="M0 0h60v60H0z"/></clipPath></defs></svg>