<svg width="60" height="60" fill="none" xmlns="http://www.w3.org/2000/svg"><path d="M21.25 20a6.257 6.257 0 0 0 6.25 6.25H30a1.25 1.25 0 1 0 0-2.5h-2.5A3.754 3.754 0 0 1 23.75 20h3.75a1.25 1.25 0 1 0 0-2.5h-3.75a3.754 3.754 0 0 1 3.75-3.75H30a1.25 1.25 0 1 0 0-2.5h-2.5a6.257 6.257 0 0 0-6.25 6.25 1.25 1.25 0 1 0 0 2.5z" fill="#1B2C49"/><path d="M26.25 37.5C36.59 37.5 45 29.09 45 18.75S36.59 0 26.25 0C15.911 0 7.5 8.41 7.5 18.75S15.911 37.5 26.25 37.5zm0-35c8.96 0 16.25 7.29 16.25 16.25S35.21 35 26.25 35 10 27.71 10 18.75 17.29 2.5 26.25 2.5zM51.25 35h-10a1.25 1.25 0 1 0 0 2.5h6.983L32.5 53.233l-9.116-9.117a1.25 1.25 0 0 0-1.768 0l-13.75 13.75a1.25 1.25 0 1 0 1.768 1.768L22.5 46.767l9.116 9.117a1.25 1.25 0 0 0 1.768 0L50 39.267v6.983a1.25 1.25 0 1 0 2.5 0v-10c0-.69-.559-1.25-1.25-1.25z" fill="#1B2C49"/></svg>