<svg width="60" height="60" fill="none" xmlns="http://www.w3.org/2000/svg"><g clip-path="url(#a)" fill="#1B2C49"><path d="M54.545 2.727H5.455A5.46 5.46 0 0 0 0 8.182v27.272a5.46 5.46 0 0 0 5.455 5.455h49.09A5.46 5.46 0 0 0 60 35.454V8.182a5.46 5.46 0 0 0-5.455-5.455zM2.727 8.182a2.73 2.73 0 0 1 2.727-2.728h5.317a9.511 9.511 0 0 1-8.044 8.044V8.182zm2.728 30a2.73 2.73 0 0 1-2.728-2.727v-5.317a9.511 9.511 0 0 1 8.044 8.044H5.455zm51.818-2.728a2.73 2.73 0 0 1-2.728 2.728H49.23a9.511 9.511 0 0 1 8.044-8.044v5.316zm0-8.044A12.21 12.21 0 0 0 46.5 38.182H13.5A12.21 12.21 0 0 0 2.727 27.41V16.226A12.21 12.21 0 0 0 13.5 5.454H46.5a12.21 12.21 0 0 0 10.772 10.771V27.41zm0-13.912a9.511 9.511 0 0 1-8.044-8.044h5.316a2.73 2.73 0 0 1 2.728 2.728v5.316zM58.636 42.273c-.753 0-1.363.61-1.363 1.363a2.73 2.73 0 0 1-2.728 2.727H5.455a2.73 2.73 0 0 1-2.728-2.727 1.363 1.363 0 1 0-2.727 0 5.46 5.46 0 0 0 5.455 5.455h49.09A5.46 5.46 0 0 0 60 43.636c0-.754-.61-1.364-1.364-1.364zM58.636 50.455c-.753 0-1.363.61-1.363 1.363a2.73 2.73 0 0 1-2.728 2.727H5.455a2.73 2.73 0 0 1-2.728-2.727 1.363 1.363 0 1 0-2.727 0 5.46 5.46 0 0 0 5.455 5.455h49.09A5.46 5.46 0 0 0 60 51.818c0-.753-.61-1.363-1.364-1.363z"/><path d="M13.636 24.545a2.727 2.727 0 1 0 0-5.454 2.727 2.727 0 0 0 0 5.454zM46.364 24.545a2.727 2.727 0 1 0 0-5.454 2.727 2.727 0 0 0 0 5.454zM31.364 16.364h2.727a1.363 1.363 0 1 0 0-2.728h-2.727a6.826 6.826 0 0 0-6.819 6.819 1.363 1.363 0 1 0 0 2.727A6.826 6.826 0 0 0 31.364 30h2.727a1.363 1.363 0 1 0 0-2.727h-2.727a4.095 4.095 0 0 1-4.091-4.091h4.09a1.363 1.363 0 1 0 0-2.727h-4.09a4.095 4.095 0 0 1 4.09-4.091z"/></g><defs><clipPath id="a"><path fill="#fff" d="M0 0h60v60H0z"/></clipPath></defs></svg>