<svg width="60" height="60" fill="none" xmlns="http://www.w3.org/2000/svg"><path d="M55 10H5c-2.758 0-5 2.242-5 5v30c0 2.758 2.242 5 5 5h50c2.758 0 5-2.242 5-5V15c0-2.758-2.242-5-5-5zM2.5 15c0-1.378 1.122-2.5 2.5-2.5h4.874A8.719 8.719 0 0 1 2.5 19.874V15zM5 47.5A2.503 2.503 0 0 1 2.5 45v-4.874A8.719 8.719 0 0 1 9.874 47.5H5zM57.5 45c0 1.378-1.122 2.5-2.5 2.5h-4.874a8.718 8.718 0 0 1 7.374-7.374V45zm0-7.374a11.192 11.192 0 0 0-9.874 9.874H12.374A11.192 11.192 0 0 0 2.5 37.626V22.374a11.192 11.192 0 0 0 9.874-9.874h35.252a11.192 11.192 0 0 0 9.874 9.874v15.252zm0-17.752a8.719 8.719 0 0 1-7.374-7.374H55c1.378 0 2.5 1.122 2.5 2.5v4.874z" fill="#1B2C49"/><path d="M15 32.5a2.5 2.5 0 1 0 0-5 2.5 2.5 0 0 0 0 5zM45 32.5a2.5 2.5 0 1 0 0-5 2.5 2.5 0 0 0 0 5zM31.25 25h2.5a1.25 1.25 0 1 0 0-2.5h-2.5A6.257 6.257 0 0 0 25 28.75a1.25 1.25 0 1 0 0 2.5 6.257 6.257 0 0 0 6.25 6.25h2.5a1.25 1.25 0 1 0 0-2.5h-2.5a3.754 3.754 0 0 1-3.75-3.75h3.75a1.25 1.25 0 1 0 0-2.5H27.5A3.754 3.754 0 0 1 31.25 25z" fill="#1B2C49"/></svg>