<svg width="60" height="60" fill="none" xmlns="http://www.w3.org/2000/svg"><g clip-path="url(#a)" fill="#1B2C49"><path d="M38.182 16.364c-.946 0-1.872.08-2.787.198C34.791 7.332 27.108 0 17.727 0 7.953 0 0 7.953 0 17.727c0 9.382 7.331 17.064 16.562 17.668a21.82 21.82 0 0 0-.198 2.787C16.364 50.212 26.15 60 38.182 60 50.212 60 60 50.212 60 38.182c0-12.03-9.788-21.818-21.818-21.818zM2.727 17.727c0-8.27 6.73-15 15-15 8.018 0 14.57 6.33 14.955 14.366a21.825 21.825 0 0 0-11.009 6.865 1.355 1.355 0 0 0-1.219-.776h-2.727a4.095 4.095 0 0 1-4.09-4.091h4.09a1.363 1.363 0 1 0 0-2.727h-4.09a4.095 4.095 0 0 1 4.09-4.091h2.728a1.363 1.363 0 1 0 0-2.728h-2.728a6.825 6.825 0 0 0-6.818 6.818 1.363 1.363 0 1 0 0 2.728 6.825 6.825 0 0 0 6.818 6.818h2.43a21.714 21.714 0 0 0-3.067 6.786c-7.973-.338-14.363-6.912-14.363-14.968zm35.455 39.546c-10.526 0-19.091-8.564-19.091-19.091 0-10.527 8.565-19.091 19.09-19.091 10.526 0 19.092 8.564 19.092 19.09 0 10.528-8.566 19.092-19.091 19.092z"/><path d="M37.5 32.727h4.773a1.363 1.363 0 1 0 0-2.727h-2.728v-1.364a1.363 1.363 0 1 0-2.727 0v1.433c-2.307.334-4.09 2.305-4.09 4.704a4.778 4.778 0 0 0 4.772 4.772h1.364c1.126 0 2.045.918 2.045 2.046a2.049 2.049 0 0 1-2.045 2.045H34.09a1.363 1.363 0 1 0 0 2.727h2.727v1.364a1.363 1.363 0 1 0 2.728 0v-1.432c2.307-.335 4.09-2.306 4.09-4.704a4.779 4.779 0 0 0-4.772-4.773H37.5a2.049 2.049 0 0 1-2.045-2.045c0-1.128.918-2.046 2.045-2.046zM42.267 2.727c5.98.02 10.097 4.592 11.681 9.768l-2.884-1.442a1.37 1.37 0 0 0-1.83.61 1.365 1.365 0 0 0 .61 1.83L55.3 16.22a1.365 1.365 0 0 0 1.83-.61l2.727-5.455a1.365 1.365 0 0 0-.61-1.83 1.369 1.369 0 0 0-1.83.61L56.36 11.05C54.314 5.128 49.364.022 42.278 0h-.005a1.364 1.364 0 0 0-.006 2.727zM17.748 57.263c-5.979-.019-10.096-4.592-11.68-9.767l2.883 1.442a1.365 1.365 0 0 0 1.22-2.44l-5.454-2.727a1.37 1.37 0 0 0-1.83.61L.16 49.835a1.365 1.365 0 0 0 2.44 1.22l1.056-2.113c2.046 5.921 6.996 11.027 14.082 11.049h.005a1.364 1.364 0 0 0 .006-2.728z"/></g><defs><clipPath id="a"><path fill="#fff" d="M0 0h60v60H0z"/></clipPath></defs></svg>