<svg width="60" height="60" fill="none" xmlns="http://www.w3.org/2000/svg"><g clip-path="url(#a)" fill="#1B2C49"><path d="M43.438 24.605c.117-.915.198-1.84.198-2.787C43.636 9.788 33.85 0 21.818 0 9.788 0 0 9.788 0 21.818c0 12.03 9.788 21.818 21.818 21.818.946 0 1.872-.08 2.787-.198C25.209 52.67 32.892 60 42.273 60 52.047 60 60 52.047 60 42.273c0-9.381-7.331-17.064-16.562-17.669zm-21.62 16.304c-10.525 0-19.09-8.564-19.09-19.09 0-10.528 8.565-19.092 19.09-19.092 10.526 0 19.091 8.564 19.091 19.091 0 10.527-8.565 19.091-19.09 19.091zm20.455 16.364c-8.018 0-14.57-6.331-14.955-14.366a21.8 21.8 0 0 0 9.758-5.52 4.704 4.704 0 0 0-.258 1.477 4.779 4.779 0 0 0 4.773 4.772h1.364c1.126 0 2.045.918 2.045 2.046a2.049 2.049 0 0 1-2.045 2.045h-4.773a1.363 1.363 0 1 0 0 2.728h2.727v1.363a1.363 1.363 0 1 0 2.727 0v-1.432c2.307-.335 4.091-2.306 4.091-4.704a4.779 4.779 0 0 0-4.772-4.773H41.59a2.048 2.048 0 0 1-2.046-2.045c0-1.128.92-2.046 2.046-2.046h4.773a1.363 1.363 0 1 0 0-2.727h-2.728v-1.364a1.363 1.363 0 1 0-2.727 0v1.433a4.698 4.698 0 0 0-1.466.465 21.712 21.712 0 0 0 3.467-7.32c7.973.338 14.363 6.912 14.363 14.968 0 8.27-6.73 15-15 15z"/><path d="M21.818 16.364h2.727a1.363 1.363 0 1 0 0-2.728h-2.727A6.825 6.825 0 0 0 15 20.454a1.363 1.363 0 1 0 0 2.728A6.825 6.825 0 0 0 21.818 30h2.727a1.363 1.363 0 1 0 0-2.727h-2.727a4.095 4.095 0 0 1-4.09-4.091h4.09a1.363 1.363 0 1 0 0-2.727h-4.09a4.095 4.095 0 0 1 4.09-4.091zM42.267 2.727c5.98.02 10.097 4.592 11.681 9.768l-2.884-1.442a1.37 1.37 0 0 0-1.83.61 1.365 1.365 0 0 0 .61 1.83L55.3 16.22a1.365 1.365 0 0 0 1.83-.61l2.727-5.455a1.365 1.365 0 0 0-.61-1.83 1.369 1.369 0 0 0-1.83.61L56.36 11.05C54.314 5.128 49.364.022 42.278 0h-.005a1.364 1.364 0 0 0-.006 2.727zM17.749 57.263c-5.98-.019-10.097-4.592-11.681-9.767l2.884 1.442a1.365 1.365 0 0 0 1.22-2.44l-5.455-2.727a1.37 1.37 0 0 0-1.83.61L.16 49.835a1.365 1.365 0 0 0 2.44 1.22l1.056-2.113c2.046 5.921 6.996 11.027 14.082 11.049h.006a1.364 1.364 0 0 0 .005-2.728z"/></g><defs><clipPath id="a"><path fill="#fff" d="M0 0h60v60H0z"/></clipPath></defs></svg>