<svg width="60" height="60" fill="none" xmlns="http://www.w3.org/2000/svg"><path d="M40.843 19.157C40.168 8.483 31.295 0 20.454 0 9.175 0 0 9.175 0 20.454c0 10.841 8.483 19.714 19.157 20.39C19.83 51.516 28.704 60 39.545 60 50.825 60 60 50.824 60 39.545c0-10.841-8.483-19.714-19.157-20.388zM2.727 20.454c0-9.774 7.953-17.727 17.727-17.727 9.339 0 16.996 7.264 17.662 16.436a20.315 20.315 0 0 0-10.922 4.116c.042-.255.079-.512.079-.78 0-1.705-.9-3.206-2.251-4.049a4.75 4.75 0 0 0 .887-2.768c0-2.398-1.784-4.37-4.09-4.704V9.545a1.363 1.363 0 1 0-2.728 0v1.364h-2.728a1.363 1.363 0 1 0 0 2.727v10.91a1.363 1.363 0 1 0 0 2.727h2.728v1.363a1.363 1.363 0 1 0 2.727 0v-1.363h.682c.267 0 .524-.037.78-.08a20.315 20.315 0 0 0-4.117 10.923C9.991 37.45 2.727 29.793 2.727 20.454zm19.773 0c1.128 0 2.045.918 2.045 2.046a2.048 2.048 0 0 1-2.045 2.045h-3.41v-4.09h3.41zm-3.41-2.727v-4.09h2.046c1.128 0 2.046.917 2.046 2.045a2.048 2.048 0 0 1-2.046 2.045h-2.045zm20.455 39.545c-9.774 0-17.727-7.952-17.727-17.727 0-9.774 7.953-17.727 17.727-17.727 9.775 0 17.727 7.953 17.727 17.727 0 9.774-7.952 17.727-17.727 17.727z" fill="#1B2C49"/><path d="M38.863 34.09h4.773a1.363 1.363 0 1 0 0-2.726h-2.727V30a1.363 1.363 0 1 0-2.728 0v1.433c-2.307.334-4.09 2.305-4.09 4.703a4.779 4.779 0 0 0 4.772 4.773h1.364c1.128 0 2.045.917 2.045 2.045A2.048 2.048 0 0 1 40.227 45h-4.773a1.363 1.363 0 1 0 0 2.727h2.727v1.364a1.363 1.363 0 1 0 2.728 0v-1.433c2.307-.334 4.09-2.306 4.09-4.704a4.778 4.778 0 0 0-4.772-4.772h-1.364a2.048 2.048 0 0 1-2.045-2.046c0-1.128.917-2.045 2.045-2.045zM42.268 2.727c5.978.02 10.096 4.593 11.68 9.768l-2.884-1.442a1.364 1.364 0 1 0-1.22 2.44L55.3 16.22a1.365 1.365 0 0 0 1.83-.61l2.727-5.455a1.364 1.364 0 1 0-2.44-1.22l-1.058 2.115C54.313 5.13 49.364.022 42.276 0h-.004a1.364 1.364 0 0 0-.004 2.727zM17.748 57.263c-5.977-.02-10.095-4.592-11.68-9.768l2.885 1.442a1.364 1.364 0 1 0 1.22-2.44L4.717 43.77a1.367 1.367 0 0 0-1.83.61L.161 49.835a1.364 1.364 0 1 0 2.44 1.22l1.057-2.115c2.045 5.922 6.994 11.028 14.082 11.05h.004a1.364 1.364 0 0 0 .004-2.727z" fill="#1B2C49"/></svg>