<svg width="60" height="60" fill="none" xmlns="http://www.w3.org/2000/svg"><path d="M59.94 29.618C55.687 16.388 43.654 7.5 30 7.5 16.345 7.5 4.313 16.388.06 29.618c-.08.248-.08.516 0 .764C4.314 43.612 16.345 52.501 30 52.501c13.655 0 25.687-8.889 29.94-22.119a1.24 1.24 0 0 0 0-.764zM30 50C17.566 50 6.591 41.98 2.565 30c4.026-11.98 15-20 27.435-20 12.434 0 23.409 8.02 27.435 20-4.026 11.98-15 20-27.435 20z" fill="#1B2C49"/><path d="M30 15c-8.272 0-15 6.729-15 15 0 8.272 6.728 15 15 15s15-6.728 15-15c0-8.271-6.728-15-15-15zm0 27.5c-6.892 0-12.5-5.608-12.5-12.5S23.108 17.5 30 17.5 42.5 23.108 42.5 30 36.892 42.5 30 42.5z" fill="#1B2C49"/><path d="M29.375 25h4.375a1.25 1.25 0 1 0 0-2.5h-2.5v-1.25a1.25 1.25 0 1 0-2.5 0v1.313c-2.115.306-3.75 2.113-3.75 4.312a4.38 4.38 0 0 0 4.375 4.375h1.25c1.033 0 1.875.84 1.875 1.875A1.878 1.878 0 0 1 30.625 35H26.25a1.25 1.25 0 1 0 0 2.5h2.5v1.25a1.25 1.25 0 1 0 2.5 0v-1.313c2.115-.307 3.75-2.114 3.75-4.312a4.38 4.38 0 0 0-4.375-4.375h-1.25a1.878 1.878 0 0 1-1.875-1.875c0-1.034.842-1.875 1.875-1.875z" fill="#1B2C49"/></svg>