<svg width="60" height="60" fill="none" xmlns="http://www.w3.org/2000/svg"><path d="M52.5 36.25c-2.44 0-7.5 1.36-10.065 2.096-.34-3.587-4.936-4.857-9.686-5.821-2.168-.44-3.78-1.217-5.34-1.97-1.924-.928-3.742-1.805-6.159-1.805-2.768 0-5.29.566-6.713.958a3.743 3.743 0 0 0-2.86-2.647L1.494 25.025A1.252 1.252 0 0 0 0 26.25v20c0 .69.56 1.25 1.25 1.25h7.832c1.543 0 2.857-.983 3.423-2.362C15.303 46.473 28.25 52.5 33.75 52.5c4.849 0 14.828-4.906 21.43-8.152 1.724-.847 3.149-1.547 4.073-1.953.454-.2.747-.65.747-1.145 0-2.944-3.083-5-7.5-5zm-40.322-5.335-1.86 13.012A1.255 1.255 0 0 1 9.083 45H2.5V27.775l8.685 1.737c.65.13 1.087.746.993 1.402zm41.9 11.19C48.07 45.058 38.017 50 33.75 50c-4.547 0-16.487-5.323-20.703-7.374l-.016-.004 1.472-10.3c.909-.285 3.693-1.072 6.747-1.072 1.846 0 3.27.688 5.073 1.557 1.619.78 3.455 1.666 5.928 2.169 5.432 1.1 7.749 2.23 7.749 3.774 0 .305-.093.493-.33.67-.792.592-3.895 1.592-15.565-1.869a1.25 1.25 0 0 0-.71 2.397c5.757 1.707 10.16 2.558 13.28 2.558 2.035 0 3.524-.361 4.49-1.083.083-.062.144-.138.22-.205.078-.009.155 0 .233-.023 2.21-.68 8.472-2.445 10.882-2.445 2.039 0 4.183.62 4.816 1.782-.873.41-1.978.954-3.239 1.573zM46.25 30c6.204 0 11.25-5.046 11.25-11.25S52.454 7.5 46.25 7.5C40.047 7.5 35 12.546 35 18.75S40.046 30 46.25 30zm0-20c4.824 0 8.75 3.926 8.75 8.75s-3.926 8.75-8.75 8.75-8.75-3.926-8.75-8.75S41.426 10 46.25 10z" fill="#1B2C49"/><path d="m44.31 16.118.69-.345v7.977a1.25 1.25 0 1 0 2.5 0v-10a1.25 1.25 0 0 0-1.809-1.118l-2.5 1.25a1.25 1.25 0 1 0 1.118 2.236z" fill="#1B2C49"/></svg>