<svg width="60" height="60" fill="none" xmlns="http://www.w3.org/2000/svg"><circle cx="46" cy="16" r="7" fill="#FF7D2F"/><circle cx="38" cy="21" r="7" fill="#FF7D2F"/><path d="M52.5 36.25c-2.44 0-7.5 1.36-10.065 2.096-.34-3.587-4.936-4.857-9.686-5.821-2.168-.44-3.782-1.217-5.342-1.97-1.924-.928-3.74-1.805-6.157-1.805-2.768 0-5.29.566-6.713.958a3.741 3.741 0 0 0-2.862-2.647l-10.18-2.036a1.257 1.257 0 0 0-1.038.258A1.255 1.255 0 0 0 0 26.25v20c0 .691.56 1.25 1.25 1.25h7.832c1.544 0 2.86-.982 3.425-2.36 2.8 1.335 15.745 7.36 21.243 7.36 4.849 0 14.832-4.907 21.436-8.154 1.72-.846 3.144-1.547 4.067-1.95.454-.2.747-.65.747-1.146 0-2.944-3.083-5-7.5-5zm-40.322-5.335L10.32 43.927A1.257 1.257 0 0 1 9.082 45H2.5V27.775l8.687 1.737c.649.13 1.086.746.99 1.402zm41.904 11.187C48.074 45.056 38.018 50 33.75 50c-4.546 0-16.487-5.323-20.703-7.374l-.015-.004 1.471-10.3c.91-.286 3.694-1.072 6.747-1.072 1.846 0 3.269.688 5.073 1.557 1.619.78 3.455 1.666 5.928 2.169 5.432 1.1 7.749 2.23 7.749 3.774 0 .305-.093.493-.33.67-.793.595-3.899 1.593-15.564-1.869a1.25 1.25 0 0 0-.713 2.397c5.76 1.707 10.162 2.558 13.282 2.558 2.033 0 3.525-.361 4.49-1.083.082-.062.143-.137.219-.204.078-.009.156 0 .235-.024 2.21-.68 8.471-2.445 10.881-2.445 2.039 0 4.184.62 4.814 1.782-.871.41-1.972.953-3.232 1.57zM38.75 30c3.391 0 6.432-1.998 7.865-5.037C51.267 24.767 55 20.95 55 16.25c0-4.824-3.926-8.75-8.75-8.75-3.493 0-6.492 2.072-7.894 5.04-4.638.21-8.356 4.02-8.356 8.71 0 4.824 3.926 8.75 8.75 8.75zm7.5-20a6.256 6.256 0 0 1 6.25 6.25 6.257 6.257 0 0 1-6.25 6.25A6.257 6.257 0 0 1 40 16.25 6.257 6.257 0 0 1 46.25 10zm-8.637 5.131c-.048.37-.113.736-.113 1.119 0 .637.077 1.254.206 1.852-.119.192-.206.405-.206.648v5a1.25 1.25 0 1 0 2.5 0v-1.395a8.731 8.731 0 0 0 3.939 2.296c-1.134 1.741-3.065 2.85-5.189 2.85a6.256 6.256 0 0 1-6.25-6.25c0-3.037 2.18-5.567 5.113-6.12z" fill="#1B2C49"/><path d="M46.25 20c.691 0 1.25-.559 1.25-1.25v-5a1.25 1.25 0 1 0-2.5 0v5c0 .691.56 1.25 1.25 1.25z" fill="#1B2C49"/></svg>