<svg width="60" height="60" fill="none" xmlns="http://www.w3.org/2000/svg"><path d="M26.332 33.355a1.249 1.249 0 0 0-1.186-.855H18.75a1.25 1.25 0 1 0 0 2.5h5.496l2.39 7.17a1.25 1.25 0 1 0 2.37-.79l-2.674-8.026z" fill="#1B2C49"/><path d="m58.75 39.799-2.675-8.025a6.242 6.242 0 0 0-5.929-4.274H47.5v-.001c0-2.622-.42-5.212-1.25-7.7l-2.675-8.025A6.241 6.241 0 0 0 37.647 7.5H22.354a6.242 6.242 0 0 0-5.93 4.274l-2.674 8.025A24.283 24.283 0 0 0 12.5 27.5H9.853a6.242 6.242 0 0 0-5.929 4.274L1.25 39.799A24.285 24.285 0 0 0 0 47.5c0 2.758 2.242 5 5 5h50c2.758 0 5-2.244 5-5.001 0-2.622-.42-5.213-1.25-7.7zm-42.63-19.21 2.675-8.024A3.748 3.748 0 0 1 22.354 10h15.293a3.748 3.748 0 0 1 3.558 2.565l2.675 8.025A21.826 21.826 0 0 1 45 27.5H34.854A6.23 6.23 0 0 0 30 29.833a6.23 6.23 0 0 0-4.853-2.333H15v-.001c-.001-2.353.376-4.678 1.12-6.91zM30 50H5a2.503 2.503 0 0 1-2.5-2.501c0-2.352.377-4.678 1.12-6.91l2.675-8.024A3.747 3.747 0 0 1 9.853 30h15.293a3.748 3.748 0 0 1 3.559 2.565l2.674 8.025A21.824 21.824 0 0 1 32.5 47.5c0 1.378-1.122 2.5-2.5 2.5zm25 0H34.304c.431-.739.696-1.586.696-2.501 0-2.622-.42-5.213-1.25-7.7l-2.428-7.286A3.742 3.742 0 0 1 34.854 30h15.293a3.748 3.748 0 0 1 3.558 2.565l2.675 8.025a21.827 21.827 0 0 1 1.12 6.91c0 1.378-1.122 2.5-2.5 2.5z" fill="#1B2C49"/><path d="M51.332 33.355a1.249 1.249 0 0 0-1.186-.855H43.75a1.25 1.25 0 1 0 0 2.5h5.495l2.39 7.17a1.25 1.25 0 1 0 2.371-.79l-2.674-8.026zM31.25 15h5.496l2.39 7.17a1.25 1.25 0 1 0 2.37-.79l-2.674-8.025a1.249 1.249 0 0 0-1.185-.855H31.25a1.25 1.25 0 1 0 0 2.5z" fill="#1B2C49"/></svg>