<svg width="30" height="30" fill="none" xmlns="http://www.w3.org/2000/svg"><path d="M25.49 25.438c-.751-.72-1.951-.69-2.672.06-.93.99-3.691 1.05-6.063-.36-1.92-.99-3.571-1.2-5.042-1.02.63-1.831.93-3.782.81-5.733h3.332c1.05 0 1.891-.84 1.891-1.89 0-1.051-.84-1.892-1.89-1.892h-4.143c-.36-1.02-.81-2.04-1.41-2.971-.03-.06-.09-.06-.12-.12s-.03-.12-.06-.15a5.08 5.08 0 0 1 .51-5.763 5.049 5.049 0 0 1 5.582-1.5 5.023 5.023 0 0 1 3.302 4.712c0 1.05.84 1.89 1.89 1.89 1.051 0 1.891-.84 1.891-1.89A8.859 8.859 0 0 0 17.506.527c-3.482-1.26-7.413-.21-9.784 2.611a8.833 8.833 0 0 0-.87 10.085c.03.06.12.09.15.15.03.09.06.18.12.27.18.3.33.63.48.93H5.89c-1.05 0-1.891.84-1.891 1.891 0 1.05.84 1.89 1.89 1.89h2.822c.27 3.002-.66 6.064-2.821 8.285-.72.75-.69 1.95.06 2.67.36.36.84.54 1.32.54.3 0 .6-.09.87-.24.15-.03.3-.06.421-.15 2.791-1.68 4.082-2.19 6.333-1.05C16.635 29.46 18.616 30 20.447 30c2.011 0 3.872-.63 5.072-1.89.75-.751.72-1.952-.03-2.672z" fill="#1B2C49"/></svg>