<svg width="31" height="30" fill="none" xmlns="http://www.w3.org/2000/svg"><path d="M23.721 13.98c-.21-.36-.54-.6-.93-.69l-.72-.21a8.333 8.333 0 0 0 1.56-4.8c0-2.22-.87-4.29-2.43-5.85A8.214 8.214 0 0 0 15.351 0c-1.5 0-3 .42-4.29 1.2s-2.34 1.92-3.06 3.24c-.39.75-.09 1.68.66 2.04.75.39 1.65.09 2.04-.63.45-.87 1.11-1.56 1.92-2.07.81-.48 1.74-.75 2.7-.75 1.41 0 2.7.54 3.69 1.53.99.99 1.53 2.28 1.53 3.69 0 1.38-.54 2.7-1.53 3.69-.09.09-.18.18-.27.24l-9-2.43c-.81-.21-1.65.27-1.86 1.08-.21.81.27 1.65 1.08 1.86l4.08 1.11c-.6.18-1.17.42-1.71.72l-2.64-.72c-.39-.12-.81-.06-1.14.15-.36.21-.6.54-.69.93-.12.39-.06.81.15 1.14.21.36.54.6.93.69l.72.21a8.122 8.122 0 0 0-1.56 4.8c0 2.22.87 4.29 2.43 5.85a8.214 8.214 0 0 0 9.96 1.32 8.303 8.303 0 0 0 3.03-3c.21-.36.27-.75.15-1.14a1.53 1.53 0 0 0-.72-.93c-.72-.42-1.65-.18-2.07.54-.45.81-1.11 1.47-1.92 1.92-.78.45-1.68.69-2.61.69-1.38 0-2.7-.54-3.69-1.53a5.199 5.199 0 0 1-1.53-3.69c0-1.38.54-2.7 1.53-3.69.09-.09.18-.18.27-.24l9 2.43c.39.12.81.06 1.14-.15.36-.21.6-.54.69-.93.12-.39.06-.81-.15-1.14-.21-.36-.54-.6-.93-.69l-4.05-1.14c.6-.18 1.17-.42 1.71-.72l2.67.72c.81.21 1.65-.27 1.86-1.08.09-.39.06-.78-.15-1.14z" fill="#1B2C49"/></svg>