<svg width="31" height="30" fill="none" xmlns="http://www.w3.org/2000/svg"><path d="M18.514 0h-6.928c-.822 0-1.536.571-1.715 1.393V1.464a2.775 2.775 0 0 0-.07.572v11.643H6.585c-1 0-1.786.785-1.786 1.785 0 1 .786 1.786 1.786 1.786H9.8v2.964H6.586c-1 0-1.786.786-1.786 1.786s.786 1.786 1.786 1.786H9.8v4.428c0 1 .786 1.786 1.786 1.786s1.785-.786 1.785-1.786V23.75h8.108c1 0 1.785-.786 1.785-1.786s-.785-1.785-1.785-1.785h-8.143v-2.965H18.514c4.75 0 8.608-3.857 8.608-8.607 0-4.75-3.858-8.607-8.608-8.607zm0 13.643H13.336V3.57H18.514a5.03 5.03 0 0 1 5.036 5.036 5.03 5.03 0 0 1-5.036 5.036z" fill="#1B2C49"/></svg>