<svg width="31" height="30" fill="none" xmlns="http://www.w3.org/2000/svg"><path d="M26.14 18.33c-.93 0-1.68.75-1.68 1.68 0 3.69-3 6.66-6.66 6.66s-6.66-3-6.66-6.66h6.66c.93 0 1.68-.75 1.68-1.68 0-.93-.75-1.68-1.68-1.68h-6.66v-3.33h6.66c.93 0 1.68-.75 1.68-1.68 0-.93-.75-1.68-1.68-1.68h-6.66c0-3.69 3-6.66 6.66-6.66s6.66 3 6.66 6.66c0 .93.75 1.68 1.68 1.68.93 0 1.68-.75 1.68-1.68C27.82 4.5 23.32 0 17.8 0c-5.49 0-9.99 4.5-9.99 9.99H4.48c-.93 0-1.68.75-1.68 1.68 0 .93.75 1.68 1.68 1.68h3.33v3.33H4.48c-.93 0-1.68.75-1.68 1.68 0 .93.75 1.68 1.68 1.68h3.33c0 5.46 4.5 9.96 9.99 9.96 5.52 0 9.99-4.5 9.99-9.99.03-.93-.72-1.68-1.65-1.68z" fill="#1B2C49"/></svg>