<svg width="31" height="30" fill="none" xmlns="http://www.w3.org/2000/svg"><path d="M22.972 0c-.691 0-1.322.39-1.653.992l-5.14 9.74-5.14-9.74A1.899 1.899 0 0 0 9.385 0C7.972 0 7.071 1.503 7.732 2.766l4.509 8.507H8.664A1.854 1.854 0 0 0 6.8 13.136C6.8 14.188 7.642 15 8.664 15h5.651v3.758H8.664A1.854 1.854 0 0 0 6.8 20.62c0 1.052.842 1.864 1.864 1.864h5.651v5.651c0 1.052.842 1.864 1.864 1.864a1.854 1.854 0 0 0 1.864-1.864v-5.59h5.65a1.854 1.854 0 0 0 1.865-1.865 1.854 1.854 0 0 0-1.864-1.863h-5.621V15.03h5.62a1.854 1.854 0 0 0 1.865-1.864 1.854 1.854 0 0 0-1.864-1.863h-3.547l4.509-8.507C25.317 1.503 24.386 0 22.972 0z" fill="#1B2C49"/></svg>