<svg width="31" height="30" fill="none" xmlns="http://www.w3.org/2000/svg"><path d="m17.42 26.823.12-.03c3.357-.779 5.695-3.536 5.695-6.683 0-3.806-3.387-6.893-7.522-6.893-2.248 0-4.076-1.529-4.076-3.417s1.798-3.416 4.045-3.416c2.248 0 4.076 1.528 4.076 3.416a1.74 1.74 0 0 0 3.477 0c0-3.147-2.338-5.904-5.694-6.683l-.12-.03V1.738a1.74 1.74 0 0 0-3.476 0v1.379l-.12.03c-3.357.78-5.695 3.536-5.695 6.683 0 3.806 3.387 6.893 7.522 6.893 2.248 0 4.077 1.529 4.077 3.417s-1.829 3.416-4.076 3.416c-2.248 0-4.076-1.528-4.076-3.416a1.74 1.74 0 0 0-3.477 0c0 3.147 2.338 5.904 5.694 6.683l.12.03v1.409a1.74 1.74 0 0 0 3.477 0v-1.439h.03z" fill="#1B2C49"/></svg>