<svg width="60" height="60" fill="none" xmlns="http://www.w3.org/2000/svg"><path d="M18.75 32.5A6.256 6.256 0 0 0 25 26.25 6.256 6.256 0 0 0 18.75 20a6.257 6.257 0 0 0-6.25 6.25 6.256 6.256 0 0 0 6.25 6.25zm0-10a3.754 3.754 0 0 1 3.75 3.75A3.754 3.754 0 0 1 18.75 30 3.754 3.754 0 0 1 15 26.25a3.754 3.754 0 0 1 3.75-3.75zM27.3 36.33c-1.997-1.177-5.103-2.58-8.55-2.58-3.447 0-6.553 1.403-8.55 2.58-1.665.982-2.7 2.89-2.7 4.979v.8C7.5 43.704 8.701 45 10.178 45h17.144C28.799 45 30 43.704 30 42.11v-.801c0-2.089-1.035-3.997-2.7-4.98zm.2 5.78c0 .26-.149.39-.178.39H10.178c-.03 0-.178-.13-.178-.39v-.801c0-1.19.576-2.299 1.47-2.826 1.728-1.018 4.394-2.233 7.28-2.233s5.552 1.215 7.28 2.233c.894.527 1.47 1.635 1.47 2.826v.8zM51.25 37.5h-15a1.25 1.25 0 1 0 0 2.5h15a1.25 1.25 0 1 0 0-2.5zM51.25 30h-20a1.25 1.25 0 1 0 0 2.5h20a1.25 1.25 0 1 0 0-2.5z" fill="#1B2C49"/><path d="M55 12.5H35c0-2.758-2.244-5-5-5s-5 2.242-5 5H5c-2.756 0-5 2.242-5 5v30c0 2.758 2.244 5 5 5h50c2.756 0 5-2.242 5-5v-30c0-2.758-2.244-5-5-5zm-27.5 0c0-1.378 1.12-2.5 2.5-2.5s2.5 1.122 2.5 2.5v5h-5v-5zm30 35c0 1.378-1.12 2.5-2.5 2.5H5c-1.38 0-2.5-1.122-2.5-2.5v-30C2.5 16.122 3.62 15 5 15h20v3.75c0 .69.56 1.25 1.25 1.25h7.5c.691 0 1.25-.56 1.25-1.25V15h20c1.38 0 2.5 1.122 2.5 2.5v30z" fill="#1B2C49"/></svg>