<svg width="60" height="60" fill="none" xmlns="http://www.w3.org/2000/svg"><path d="M30 0C18.972 0 10 8.972 10 20c0 7.53 3.396 11.73 5.643 14.51.996 1.231 1.857 2.296 1.857 2.99V40c0 1.843 1.013 3.438 2.5 4.305v7.892a5.03 5.03 0 0 0 1.465 3.535L23.9 58.17A6.211 6.211 0 0 0 28.321 60h3.357c1.67 0 3.24-.65 4.42-1.831l2.437-2.437A5.031 5.031 0 0 0 40 52.197v-7.892c1.487-.868 2.5-2.462 2.5-4.305v-2.5c0-.695.86-1.759 1.857-2.99C46.604 31.73 50 27.53 50 20 50 8.972 41.028 0 30 0zm4.331 56.401a3.73 3.73 0 0 1-2.653 1.099h-3.357a3.73 3.73 0 0 1-2.652-1.099l-1.401-1.4h11.464l-1.401 1.4zm3.169-4.204c0 .104-.048.2-.06.303H22.56c-.012-.103-.06-.199-.06-.303V50h15v2.197zm0-4.697h-15V45h15v2.5zm4.912-14.562C41.065 34.604 40 35.922 40 37.5V40c0 1.378-1.122 2.5-2.5 2.5h-15A2.503 2.503 0 0 1 20 40v-2.5c0-1.578-1.064-2.895-2.412-4.562C15.44 30.282 12.5 26.644 12.5 20c0-9.65 7.85-17.5 17.5-17.5S47.5 10.35 47.5 20c0 6.644-2.94 10.282-5.088 12.938z" fill="#1B2C49"/><path d="M30 17.5h2.5a1.25 1.25 0 1 0 0-2.5h-1.25a1.25 1.25 0 1 0-2.5 0v.23c-1.452.518-2.5 1.893-2.5 3.52A3.754 3.754 0 0 0 30 22.5a1.25 1.25 0 0 1 0 2.5h-2.5a1.25 1.25 0 1 0 0 2.5h1.25a1.25 1.25 0 1 0 2.5 0v-.23c1.452-.518 2.5-1.892 2.5-3.52A3.754 3.754 0 0 0 30 20a1.25 1.25 0 0 1 0-2.5z" fill="#1B2C49"/></svg>