<svg width="60" height="60" fill="none" xmlns="http://www.w3.org/2000/svg"><g clip-path="url(#a)" fill="#1B2C49"><path d="M54.545 0H5.455A5.46 5.46 0 0 0 0 5.455v2.727a5.46 5.46 0 0 0 5.455 5.454v40.91A5.46 5.46 0 0 0 10.909 60h38.182a5.46 5.46 0 0 0 5.454-5.455V13.636A5.46 5.46 0 0 0 60 8.182V5.455A5.46 5.46 0 0 0 54.545 0zm-19.09 57.273H10.909a2.73 2.73 0 0 1-2.727-2.728V8.182h27.273v49.09zm8.181 0h-5.454V8.182h5.454v49.09zm8.182-2.728a2.73 2.73 0 0 1-2.727 2.728h-2.727V8.182h5.454v46.363zm5.455-46.363a2.73 2.73 0 0 1-2.728 2.727V6.82c0-.755-.61-1.365-1.363-1.365H6.818c-.754 0-1.364.61-1.364 1.364v4.091a2.73 2.73 0 0 1-2.727-2.727V5.455a2.73 2.73 0 0 1 2.727-2.728h49.091a2.73 2.73 0 0 1 2.728 2.728v2.727z"/><path d="M21.818 51.818c4.512 0 8.182-3.67 8.182-8.182a8 8 0 0 0-1.121-4.09A8 8 0 0 0 30 35.453c0-4.512-3.67-8.181-8.182-8.181-4.512 0-8.182 3.67-8.182 8.181 0 1.445.384 2.842 1.122 4.091a8.002 8.002 0 0 0-1.122 4.091c0 4.512 3.67 8.182 8.182 8.182zm-4.336-13.096a5.38 5.38 0 0 1-1.118-3.268A5.46 5.46 0 0 1 21.818 30a5.46 5.46 0 0 1 5.455 5.454 5.38 5.38 0 0 1-1.119 3.268c-.37.486-.37 1.16 0 1.646a5.38 5.38 0 0 1 1.119 3.268 5.46 5.46 0 0 1-5.455 5.455 5.46 5.46 0 0 1-5.454-5.455 5.38 5.38 0 0 1 1.118-3.268c.37-.486.37-1.16 0-1.646z"/></g><defs><clipPath id="a"><path fill="#fff" d="M0 0h60v60H0z"/></clipPath></defs></svg>