<svg width="60" height="60" fill="none" xmlns="http://www.w3.org/2000/svg"><g clip-path="url(#a)" fill="#1B2C49"><path d="M48.83 26.622C47.417 15.94 39.919 0 30 0c-9.919 0-17.417 15.94-18.83 26.622C4.727 28.502 0 33.396 0 36.818v5.455C0 52.213 13.177 60 30 60s30-7.786 30-17.727v-5.455c0-3.422-4.727-8.316-11.17-10.196zM30 2.727c8.79 0 16.364 18.292 16.364 27.273a16.41 16.41 0 0 1-1.587 6.978c-4.391.779-9.455 1.204-14.777 1.204-5.322 0-10.386-.425-14.777-1.204A16.157 16.157 0 0 1 13.636 30c0-8.98 7.575-27.273 16.364-27.273zm27.273 39.546c0 8.27-12.234 15-27.273 15s-27.273-6.73-27.273-15v-5.455c0-1.472 2.803-5.37 8.203-7.273-.003.148-.02.311-.02.455 0 2.158.388 4.3 1.098 6.325a43.878 43.878 0 0 1-2.08-.55 1.364 1.364 0 0 0-.764 2.618c5.56 1.623 12.96 2.516 20.836 2.516 7.877 0 15.277-.893 20.837-2.515a1.364 1.364 0 0 0-.765-2.618c-.665.194-1.36.377-2.08.549A19.173 19.173 0 0 0 49.091 30c0-.144-.018-.307-.02-.455 5.4 1.903 8.202 5.801 8.202 7.273v5.455z"/><path d="M30 27.273h-2.727a1.363 1.363 0 1 0 0 2.727h1.363a1.363 1.363 0 1 0 2.728 0v-.251c1.584-.565 2.727-2.064 2.727-3.84a4.095 4.095 0 0 0-4.09-4.09 1.365 1.365 0 0 1 0-2.728h2.726a1.363 1.363 0 1 0 0-2.727h-1.363a1.363 1.363 0 1 0-2.728 0v.25c-1.583.566-2.727 2.065-2.727 3.84A4.095 4.095 0 0 0 30 24.546a1.365 1.365 0 0 1 0 2.728z"/></g><defs><clipPath id="a"><path fill="#fff" d="M0 0h60v60H0z"/></clipPath></defs></svg>