<svg width="60" height="60" fill="none" xmlns="http://www.w3.org/2000/svg"><g clip-path="url(#a)" fill="#1B2C49"><path d="M60 23.182c0-.422-.194-.82-.528-1.077 0 0-3.31-2.333-7.653-5.741v-5.455c0-3.008-2.49-5.454-5.497-5.454h-7.9c-1.943-1.587-3.63-2.99-4.755-3.989C32.57.498 31.263-.01 29.957 0c-1.277.01-2.551.519-3.621 1.466-1.126.999-2.812 2.402-4.757 3.989h-7.985c-3.008 0-5.411 2.446-5.411 5.454v5.455C3.884 19.738.53 22.104.529 22.104a1.361 1.361 0 0 0-.528 1.078v31.363A5.46 5.46 0 0 0 5.456 60h49.09a5.46 5.46 0 0 0 5.455-5.455V23.182zm-8.181-3.62c1.927 1.508 3.562 2.782 4.637 3.619-1.074.833-2.711 2.106-4.637 3.612v-7.232zM28.187 3.507c.725-.64 2.397-1.165 3.714.001.614.543 1.388 1.203 2.277 1.946H25.91c.89-.744 1.663-1.404 2.277-1.947zM10.91 10.909a2.73 2.73 0 0 1 2.727-2.727h32.727a2.73 2.73 0 0 1 2.728 2.727v18.022c-6.095 4.787-13.721 10.853-17.19 13.924-.33.291-1.016.781-1.901.781-.648 0-1.272-.262-1.858-.781-3.502-3.1-11.147-9.192-17.233-13.98V10.91zm-2.727 8.72v7.105c-1.888-1.479-3.495-2.73-4.552-3.552 1.059-.824 2.664-2.074 4.552-3.553zm49.133 34.916a2.73 2.73 0 0 1-2.727 2.728H5.499c-1.504 0-2.77-1.224-2.77-2.728V25.966c5.687 4.427 18.888 14.752 23.606 18.931 1.084.96 2.351 1.467 3.666 1.467 1.323 0 2.64-.521 3.708-1.466C38.62 40.55 52.033 30.07 57.316 25.965v28.58z"/><path d="M31.364 19.091h10.909a1.363 1.363 0 1 0 0-2.727h-10.91a1.363 1.363 0 1 0 0 2.727zM31.364 27.273h10.909a1.363 1.363 0 1 0 0-2.727h-10.91a1.363 1.363 0 1 0 0 2.727zM38.182 34.091c0-.754-.61-1.364-1.364-1.364H23.182a1.363 1.363 0 1 0 0 2.728h13.636c.754 0 1.364-.61 1.364-1.364zM21.818 27.022c1.584-.565 2.727-2.064 2.727-3.84a4.095 4.095 0 0 0-4.09-4.09 1.365 1.365 0 0 1 0-2.728h2.727a1.363 1.363 0 1 0 0-2.727h-1.364a1.363 1.363 0 1 0-2.727 0v.25c-1.584.566-2.728 2.065-2.728 3.84a4.095 4.095 0 0 0 4.091 4.091 1.365 1.365 0 0 1 0 2.728h-2.727a1.363 1.363 0 1 0 0 2.727h1.364a1.363 1.363 0 1 0 2.727 0v-.251z"/></g><defs><clipPath id="a"><path fill="#fff" d="M0 0h60v60H0z"/></clipPath></defs></svg>