<svg width="60" height="60" fill="none" xmlns="http://www.w3.org/2000/svg"><path d="m52.134 12.866-12.5-12.5A1.25 1.25 0 0 0 38.75 0H12.5c-2.756 0-5 2.242-5 5v50c0 2.758 2.244 5 5 5h35c2.756 0 5-2.242 5-5V13.75c0-.332-.132-.65-.366-.884zM40 4.268l8.232 8.232H42.5c-1.38 0-2.5-1.122-2.5-2.5V4.268zM50 55c0 1.378-1.12 2.5-2.5 2.5h-35c-1.38 0-2.5-1.122-2.5-2.5V5c0-1.378 1.12-2.5 2.5-2.5h25V10c0 2.758 2.244 5 5 5H50v40z" fill="#1B2C49"/><path d="M43.75 35h-27.5a1.25 1.25 0 1 0 0 2.5h27.5a1.25 1.25 0 1 0 0-2.5zM43.75 27.5h-27.5a1.25 1.25 0 1 0 0 2.5h27.5a1.25 1.25 0 1 0 0-2.5zM43.75 42.5h-27.5a1.25 1.25 0 1 0 0 2.5h27.5a1.25 1.25 0 1 0 0-2.5zM31.25 50h-15a1.25 1.25 0 1 0 0 2.5h15a1.25 1.25 0 1 0 0-2.5zM27.5 21.25c0 .691.56 1.25 1.25 1.25h15a1.25 1.25 0 1 0 0-2.5h-15c-.69 0-1.25.56-1.25 1.25zM18.75 20h-2.5a1.25 1.25 0 1 0 0 2.5h1.25a1.25 1.25 0 1 0 2.5 0v-.23c1.452-.518 2.5-1.892 2.5-3.52A3.754 3.754 0 0 0 18.75 15c-.689 0-1.25-.56-1.25-1.25s.561-1.25 1.25-1.25h2.5a1.25 1.25 0 1 0 0-2.5H20a1.25 1.25 0 1 0-2.5 0v.23c-1.452.518-2.5 1.893-2.5 3.52a3.754 3.754 0 0 0 3.75 3.75c.689 0 1.25.56 1.25 1.25S19.439 20 18.75 20z" fill="#1B2C49"/></svg>