<svg width="60" height="60" fill="none" xmlns="http://www.w3.org/2000/svg"><g clip-path="url(#a)" fill="#1B2C49"><path d="M15 16.364c-.754 0-1.364.61-1.364 1.363v8.182c0 .753-.612 1.364-1.363 1.364a1.365 1.365 0 0 1-1.364-1.364 1.363 1.363 0 1 0-2.727 0A4.095 4.095 0 0 0 12.272 30a4.095 4.095 0 0 0 4.092-4.09v-8.183c0-.753-.61-1.363-1.364-1.363zM23.182 16.364a4.095 4.095 0 0 0-4.091 4.09v5.455A4.095 4.095 0 0 0 23.18 30a4.095 4.095 0 0 0 4.092-4.09v-5.455a4.095 4.095 0 0 0-4.091-4.091zm1.363 9.545c0 .753-.612 1.364-1.363 1.364a1.365 1.365 0 0 1-1.364-1.364v-5.454c0-.753.613-1.364 1.364-1.364.75 0 1.363.611 1.363 1.364v5.454zM38.182 20.455a4.095 4.095 0 0 0-4.091-4.091h-2.727c-.754 0-1.364.61-1.364 1.363v10.91c0 .753.61 1.363 1.364 1.363h2.727a4.095 4.095 0 0 0 4.09-4.09 4.07 4.07 0 0 0-1.043-2.728 4.07 4.07 0 0 0 1.044-2.727zm-4.091 6.818h-1.364v-2.727h1.364c.751 0 1.364.61 1.364 1.363s-.613 1.364-1.364 1.364zm0-5.455h-1.364v-2.727h1.364c.751 0 1.364.611 1.364 1.364 0 .752-.613 1.363-1.364 1.363z"/><path d="M59.6 57.672 40.486 38.555c3.644-4.096 5.879-9.472 5.879-15.373C46.364 10.399 35.964 0 23.182 0 10.4 0 0 10.4 0 23.182c0 12.783 10.4 23.182 23.182 23.182 5.901 0 11.278-2.236 15.375-5.88L57.672 59.6a1.36 1.36 0 0 0 1.929 0 1.363 1.363 0 0 0 0-1.928zM23.182 43.636c-11.28 0-20.455-9.175-20.455-20.454 0-11.28 9.175-20.455 20.455-20.455 11.28 0 20.454 9.175 20.454 20.455 0 11.28-9.175 20.454-20.454 20.454z"/></g><defs><clipPath id="a"><path fill="#fff" d="M0 0h60v60H0z"/></clipPath></defs></svg>