<svg width="60" height="60" fill="none" xmlns="http://www.w3.org/2000/svg"><path d="M52.5 36.25c-2.44 0-7.5 1.359-10.065 2.096-.34-3.587-4.936-4.857-9.686-5.822-2.168-.44-3.782-1.217-5.342-1.97-1.924-.928-3.74-1.804-6.157-1.804-2.768 0-5.29.566-6.713.957a3.74 3.74 0 0 0-2.862-2.647l-10.18-2.036a1.256 1.256 0 0 0-1.038.259A1.255 1.255 0 0 0 0 26.25v20c0 .69.56 1.25 1.25 1.25h7.832c1.544 0 2.86-.982 3.425-2.36 2.8 1.335 15.745 7.36 21.243 7.36 4.849 0 14.832-4.907 21.436-8.155 1.72-.846 3.144-1.546 4.067-1.95.454-.2.747-.65.747-1.145 0-2.945-3.083-5-7.5-5zm-40.322-5.336L10.32 43.927A1.257 1.257 0 0 1 9.082 45H2.5V27.774l8.687 1.737c.649.131 1.086.746.99 1.403zm41.904 11.188C48.074 45.056 38.018 50 33.75 50c-4.546 0-16.487-5.324-20.703-7.374-.005-.003-.01-.002-.015-.004l1.471-10.301c.91-.285 3.694-1.071 6.747-1.071 1.846 0 3.269.687 5.073 1.556 1.619.781 3.455 1.666 5.928 2.17 5.432 1.1 7.749 2.23 7.749 3.774 0 .305-.093.493-.33.67-.793.594-3.899 1.593-15.564-1.87a1.25 1.25 0 0 0-.713 2.397c5.76 1.708 10.162 2.559 13.282 2.559 2.033 0 3.525-.362 4.49-1.083.082-.062.143-.138.219-.205.078-.008.156 0 .235-.023 2.21-.68 8.471-2.445 10.881-2.445 2.039 0 4.184.619 4.814 1.782-.871.41-1.972.952-3.232 1.57z" fill="#1B2C49"/><path d="M39.121 29.637c.242.242.562.363.879.363.317 0 .637-.12.879-.363l9.424-9.334A7.454 7.454 0 0 0 52.5 15c0-4.136-3.364-7.5-7.5-7.5-1.875 0-3.635.69-5 1.931A7.393 7.393 0 0 0 35 7.5c-4.136 0-7.5 3.364-7.5 7.5 0 2.003.781 3.886 2.202 5.306l9.419 9.331zM35 10c1.58 0 3.035.74 3.997 2.031.473.633 1.533.633 2.006 0C41.965 10.74 43.42 10 45 10c2.756 0 5 2.242 5 5 0 1.335-.52 2.59-1.46 3.531L40 26.991l-8.535-8.456A4.966 4.966 0 0 1 30 15c0-2.758 2.244-5 5-5z" fill="#FF7D2F"/></svg>