<svg width="60" height="60" fill="none" xmlns="http://www.w3.org/2000/svg"><mask id="a" mask-type="alpha" maskUnits="userSpaceOnUse" x="0" y="0" width="60" height="60"><circle cx="30" cy="30" r="30" fill="#CD7979"/></mask><g mask="url(#a)"><circle cx="30" cy="30" r="30" fill="#ECEEF2"/><g clip-path="url(#b)"><path d="M14.247 13.59a.923.923 0 0 1 .01-.886l1.645-2.96.104-.198-.52-.938a.4.4 0 0 0-.136-.156c-.114-.083-.25-.083-.374 0a.664.664 0 0 0-.136.156l-2.35 4.294c-.178.281 0 .698.27.698l1.487-.01c.01.01.01 0 0 0z" fill="#FF7D2F"/><path d="m19.99 12.902-2.382-4.283a.4.4 0 0 0-.135-.157c-.114-.083-.25-.083-.375 0a.664.664 0 0 0-.135.157l-.52.938.104.198 1.644 2.96c.156.26.166.604.01.885v.01H19.7c.292-.01.458-.427.292-.708z" fill="#418CCF"/><path d="m16.953 13.298-.708-1.282-.718 1.282c-.073.114 0 .302.115.302h1.186c.125 0 .197-.177.125-.302z" fill="#FF7D2F"/><path d="M30.062 9.973c.365 0 .687.115.958.323.083.063.145.053.187-.041l.01-.042c.052-.125.146-.26.27-.26h.24c.146 0 .24.166.24.312v3.095c0 .146-.084.24-.24.24h-.198c-.124 0-.218-.052-.27-.177l-.031-.063c-.042-.083-.104-.177-.177-.104-.25.208-.572.334-.957.334-1.155 0-1.904-.75-1.904-1.824 0-1.021.77-1.793 1.872-1.793zm.073 2.72a.885.885 0 0 0 .718-.375.294.294 0 0 0 .042-.156v-.73a.245.245 0 0 0-.052-.166.871.871 0 0 0-.708-.365c-.478 0-.843.386-.843.886 0 .49.344.906.843.906zM33.88 10.203v3.168c0 .146-.082.24-.238.24h-.604c-.145 0-.24-.084-.24-.24v-3.168c0-.146.084-.24.24-.24h.604c.156.01.239.094.239.24zM34.734 13.371v-3.095c0-.146.083-.24.24-.24h.28c.136 0 .219.063.27.178l.011.041c.042.104.125.136.23.073.384-.24.759-.365 1.268-.365.78 0 1.239.532 1.239 1.46v1.938c0 .146-.084.24-.24.24h-.603c-.146 0-.24-.084-.24-.24v-1.876c0-.334-.176-.573-.52-.573-.25 0-.52.125-.76.27a.226.226 0 0 0-.103.199v1.98c0 .146-.083.24-.24.24h-.593c-.156.01-.239-.074-.239-.23zM38.792 10.724v-.438c0-.146.083-.312.24-.312h.218c.052 0 .083-.032.083-.084v-.104c0-.844.468-1.396 1.27-1.396.218 0 .447.041.624.093.135.032.187.146.176.271l-.052.428c-.02.166-.114.218-.27.177a.856.856 0 0 0-.27-.042c-.25 0-.406.198-.406.448v.104c0 .053.03.084.083.084h.593c.146 0 .24.167.24.312v.438c0 .146-.084.24-.24.24h-.593c-.052 0-.083.031-.083.083v2.345c0 .146-.084.24-.24.24h-.603c-.146 0-.24-.084-.24-.24v-2.334c0-.053-.03-.084-.083-.084h-.218c-.136 0-.23-.083-.23-.229zm4.411-.521v3.095c0 .146-.083.302-.239.302h-.603c-.146 0-.24-.156-.24-.302v-3.095c0-.146.084-.24.24-.24h.603c.156.01.24.094.24.24zM44.046 13.371v-3.168c0-.146.084-.24.24-.24h.28c.136 0 .219.063.271.178l.01.041c.042.104.125.209.23.146.384-.24.759-.365 1.269-.365.78 0 1.238.532 1.238 1.46v1.938c0 .146-.083.24-.24.24h-.603c-.146 0-.24-.084-.24-.24v-1.876c0-.334-.176-.573-.52-.573-.25 0-.52.125-.759.27a.226.226 0 0 0-.104.199v1.98c0 .146-.083.24-.24.24h-.592c-.146.01-.24-.074-.24-.23zM21.27 13.37v-3.094c0-.156.094-.24.24-.24h.25c.135 0 .228.052.28.177l.032.063c.052.104.135.135.229.073.395-.24.78-.375 1.31-.375.396 0 .708.135.927.385.072.084.145.094.239.042.426-.271.832-.427 1.384-.427.8 0 1.269.541 1.269 1.49v1.917c0 .157-.094.24-.24.24h-.613c-.156 0-.24-.094-.24-.24v-1.855c0-.344-.176-.604-.54-.604-.271 0-.562.146-.802.302-.083.052-.114.094-.114.156V13.371c0 .156-.094.24-.24.24h-.613c-.156 0-.24-.094-.24-.24v-1.845c0-.354-.197-.594-.54-.594-.25 0-.542.136-.781.292-.073.052-.114.115-.114.209v1.948c0 .157-.094.24-.24.24H21.5c-.145-.01-.229-.104-.229-.25z" fill="#1B2C49"/></g><path d="m39.053 44.139-.808 7.514s-1.575-2.38-2.64-1.32c-1.015 1.013-2.809 8.392-2.809 8.392s-.023 2.407 1.256 3.043c4.103 2.044 8.675-1.797 8.675-1.797l-.653-21.509a8.623 8.623 0 0 0-3.02 5.676z" fill="#418CCF"/><path d="m52.895 38.915-7.099-.566c-.043-.835.016-4.036.016-4.036s-2.955-.46-2.99-3.412c-.035-2.953.474-9.736.474-9.736a10.26 10.26 0 0 1 10.314 1.298l.438.334-1.153 16.118z" fill="#FED3BD"/><path d="M45.806 34.271a6.87 6.87 0 0 0 3.851-1.094s-.91 2.124-3.857 1.859l.007-.765z" fill="#FFBE9D"/><path d="M53.685 25.858c.05-.022 2.029-.6 1.964 1.42-.065 2.018-2.078 1.537-2.08 1.479 0-.059.116-2.9.116-2.9z" fill="#FED3BD"/><path d="M54.21 28.012c.01 0 .035.025.093.055a.347.347 0 0 0 .262.014c.217-.072.408-.404.43-.768a1.179 1.179 0 0 0-.084-.501.404.404 0 0 0-.256-.28.176.176 0 0 0-.21.09c-.029.056-.019.096-.029.1-.01.003-.041-.036-.023-.12a.237.237 0 0 1 .084-.123.272.272 0 0 1 .195-.045.502.502 0 0 1 .359.334c.08.178.115.372.104.566-.027.406-.248.78-.541.855a.374.374 0 0 1-.321-.063c-.06-.065-.07-.11-.064-.114z" fill="#FFBE9D"/><path d="M43.948 25.738a.422.422 0 0 0 .407.426.403.403 0 0 0 .434-.381.423.423 0 0 0-.405-.426.405.405 0 0 0-.436.38zM43.856 25.32c.052.055.372-.182.825-.18.453.002.787.229.835.167.023-.025-.03-.125-.167-.23a1.16 1.16 0 0 0-1.326.006c-.145.114-.192.212-.167.237zM48.393 25.905a.422.422 0 0 0 .406.426.405.405 0 0 0 .436-.381.424.424 0 0 0-.408-.426.404.404 0 0 0-.434.38zM48.316 25.404c.054.055.373-.182.827-.18.454.001.786.228.835.166.025-.023-.029-.123-.167-.228a1.168 1.168 0 0 0-.668-.207c-.236 0-.466.074-.658.212-.145.115-.194.213-.169.237zM46.67 28.77c0-.025-.28-.073-.737-.132-.117-.011-.225-.035-.245-.115a.598.598 0 0 1 .077-.342c.111-.28.225-.575.342-.884.478-1.255.822-2.29.77-2.308-.052-.018-.478.986-.954 2.241-.113.31-.223.605-.334.889a.657.657 0 0 0-.06.454.285.285 0 0 0 .19.167c.065.018.131.028.198.029.466.026.751.028.753.001zM48.2 23.627c.044.123.5.065 1.03.128.53.064.963.21 1.034.099.031-.053-.044-.167-.218-.289a1.812 1.812 0 0 0-1.571-.167c-.195.073-.294.169-.276.229zM44.023 24.008c.08.102.392 0 .768-.01s.695.07.768-.039c.032-.052-.018-.155-.157-.252a1.11 1.11 0 0 0-1.237.037c-.134.107-.177.212-.142.264z" fill="#1B2C49"/><path d="M41.859 19.302a1.091 1.091 0 0 1 .402-.976.777.777 0 0 1 1.002.076.901.901 0 0 1 .775-1.094c.483-.03.893.334 1.358.46.464.128.941.017 1.379-.158.438-.175.845-.419 1.288-.581a3.777 3.777 0 0 1 4.83 2.218c.647-.202 1.38.127 1.779.668.4.54.501 1.265.42 1.937a6.21 6.21 0 0 1-.333 1.326v.113c-.032 1.623-.215 3.53-.909 3.542-1.207.019-.918-2.258-.918-2.258-1.483-.57-.93-2.792-1.3-3.129-.372-.337-1.146-1.119-4.25.466-1.205.616-2.806.598-3.681.399l-.077-.017h-.019a.273.273 0 0 1-.025-.01 2.784 2.784 0 0 1-.796-.334 1.575 1.575 0 0 1-.655-.73.857.857 0 0 1 .167-.923 1.895 1.895 0 0 1-.437-.995z" fill="#1B2C49"/><path d="m58.703 57.448.222 4.193.501 6.012H40.451l.825-8.894-1.617-14.053c.14-4.966 2.048-7.03 5.949-7.504l-.308.038c.538-.063 0 0 .308-.038 2.463.778 5.106.778 7.57 0 1.168.05 2.139.409 3.134.6 3.134.6 5.714 3.022 6.346 5.13.516 1.736 4.248 16.785 4.248 16.785h-7.43l-.773-2.27z" fill="#418CCF"/><path d="M46.284 30.166c.063.184.152.358.264.517a.686.686 0 0 0 .487.283.622.622 0 0 0 .52-.284.978.978 0 0 0 .145-.59c0-.188-.094-.41-.279-.431a.467.467 0 0 0-.225.048l-.974.396" fill="#FFBE9D"/><path d="M46.673 30.968c.176.012.353-.01.521-.064a.746.746 0 0 0 .392-.357.779.779 0 0 0-.071-.783c-.04-.04-.032-.039-.074-.032a1.429 1.429 0 0 0-.157.062l-.167.065a32.71 32.71 0 0 1-.556.217c-.319.119-.52.182-.53.167-.01-.015.175-.125.482-.274.153-.073.334-.167.543-.252l.157-.07c.058-.028.117-.052.178-.074a.225.225 0 0 1 .144 0c.043.018.08.048.107.085a.795.795 0 0 1 .11.184.912.912 0 0 1-.03.78.824.824 0 0 1-.501.4.773.773 0 0 1-.423.016c-.083-.027-.128-.06-.125-.07z" fill="#1B2C49"/><path d="m39.628 56.61-4.469-13.72-.404-2.303s-1.216-5.137-1.271-5.645c-.062-.587-.36-.698-.574-.667-.334.06-.53.5-.491 1.002.013.166.334 2.922.334 2.922a6.534 6.534 0 0 0-.613-.685c-.463-.47-1.45-.668-2.427-.526-.977.142-1.239.262-1.202.645a.485.485 0 0 0 .232.349.957.957 0 0 0 .668.153c1.568-.198 2.08.596 2.08.596l.054.301s-1.028-.578-1.757-.209a.94.94 0 0 0-.283.22 1.235 1.235 0 0 0-.867 1.948c.12.167.334.317.526.255a.666.666 0 0 0 .26-.198.962.962 0 0 1 .129-.119l.266.823s.698 1.819.911 2.644l2.171 13.815a3.47 3.47 0 0 0 6.395 1.252 3.468 3.468 0 0 0 .332-2.853z" fill="#FED3BD"/><path d="M34.686 42.75c-.279.11-.597-.071-.781-.308-.184-.237-.28-.533-.444-.783-.501-.752-1.527-1.024-1.984-1.797-.065-.109-.11-.26-.019-.346.092-.085.222-.038.334 0l2.746 1.154" fill="#FED3BD"/><path d="M34.533 40.677a1.286 1.286 0 0 0-.284-.155c-.187-.09-.461-.214-.8-.366l-1.192-.521-.348-.149a.586.586 0 0 0-.439-.075.248.248 0 0 0-.147.24.53.53 0 0 0 .069.234c.074.127.163.244.263.351.41.428.904.668 1.275.974.179.136.337.299.467.482.119.167.2.36.294.523a1.051 1.051 0 0 0 .668.581c.22.042.334-.043.324-.047a.832.832 0 0 1-.307-.016 1.013 1.013 0 0 1-.581-.575c-.086-.167-.167-.352-.284-.544a2.31 2.31 0 0 0-.486-.525c-.381-.322-.872-.572-1.248-.97a1.773 1.773 0 0 1-.24-.315c-.062-.107-.067-.223 0-.24.067-.02.194.02.31.07l.348.145 1.207.489c.346.135.626.244.82.315.099.046.203.077.31.094zM31.582 39.056a1.203 1.203 0 0 0-.237-.511.943.943 0 0 0-.516-.296 2.435 2.435 0 0 0-.755-.027c-.26.032-.522.037-.783.015-.22-.02-.43-.098-.61-.225a.5.5 0 0 1-.198-.39.27.27 0 0 1 .036-.156c.01 0 0 .057 0 .154a.463.463 0 0 0 .204.333c.172.11.37.174.573.188.255.015.51.006.763-.026.263-.03.53-.017.788.04.217.05.412.171.551.344a.89.89 0 0 1 .177.4c.016.05.018.105.007.157zM32.407 35.09c.038.18.06.362.067.545.035.376.078.824.127 1.318.048.494.105.94.147 1.316.032.18.048.364.048.548a2.43 2.43 0 0 1-.125-.536c-.059-.334-.126-.8-.179-1.316a20.222 20.222 0 0 1-.097-1.325 2.477 2.477 0 0 1 .012-.55zM31.028 39.742a.747.747 0 0 1-.167-.046.5.5 0 0 0-.426.025.272.272 0 0 0-.117.244c.006.12.027.238.063.353a.613.613 0 0 1-.018.437.524.524 0 0 1-.396.264.6.6 0 0 1-.45-.14.758.758 0 0 1-.244-.361 2.426 2.426 0 0 1-.066-.705 1.36 1.36 0 0 1 .092-.467.334.334 0 0 1 .097-.147s-.027.056-.057.167c-.039.148-.057.302-.053.456-.002.225.026.45.083.668a.593.593 0 0 0 .585.422.424.424 0 0 0 .314-.205.523.523 0 0 0 .015-.364 1.472 1.472 0 0 1-.055-.38.35.35 0 0 1 .167-.305.526.526 0 0 1 .479 0c.105.043.164.077.154.084z" fill="#FFBE9D"/><path d="M29.555 40.79s.026.056 0 .157a.484.484 0 0 1-.29.318.64.64 0 0 1-.622-.122 1.043 1.043 0 0 1-.346-.695 1.27 1.27 0 0 1 .156-.76 1.19 1.19 0 0 1 .449-.446c.123-.071.258-.12.399-.142a.334.334 0 0 1 .155 0c-.18.046-.353.116-.514.21a1.169 1.169 0 0 0-.536 1.128c.019.24.127.465.302.63a.566.566 0 0 0 .531.125.459.459 0 0 0 .276-.257c.035-.089.03-.146.04-.146zM31.647 42.425a.434.434 0 0 1 .262-.025c.23.024.444.124.61.285l-.089.037c-.001-.125.006-.25.022-.374.082-.725.422-1.227.443-1.209.02.018-.256.524-.335 1.222-.014.12-.022.24-.025.361v.125l-.086-.088a1.088 1.088 0 0 0-.546-.294c-.159-.028-.256-.028-.256-.04zM31.091 37.75c.027.01-.058.218-.289.347-.23.128-.45.098-.446.07.005-.029.194-.05.393-.167.198-.117.314-.267.342-.25z" fill="#FFBE9D"/><path d="M43.168 37.748s-.062.066-.167.195a1.976 1.976 0 0 0-.387.621.82.82 0 0 0-.044.242c0 .088.022.175.064.252a.885.885 0 0 0 .48.358c.495.155 1.01.228 1.529.215.287 0 .597.017.915.035l.486.057c.167.018.334.063.5.094a5.088 5.088 0 0 1 2.005.891c.324.242.606.536.834.87a3.1 3.1 0 0 1 .16.27c.047.1.08.195.121.291.074.198.13.402.167.61.168.875.03 1.782-.393 2.567A3.742 3.742 0 0 1 47.465 47c-.394.147-.81.23-1.23.243-.4.003-.8-.046-1.188-.143a7.42 7.42 0 0 0-1.092-.196 1.88 1.88 0 0 0-.992.176 2.546 2.546 0 0 0-.744.603c-.208.233-.385.479-.56.711-.346.466-.714.877-1.141 1.092a1.41 1.41 0 0 1-.636.167 1.428 1.428 0 0 1-.543-.1 1.2 1.2 0 0 1-.373-.236.89.89 0 0 1-.187-.263.578.578 0 0 1-.058-.258c.012 0 .015.092.09.243a.92.92 0 0 0 .19.24c.107.091.23.163.361.21a1.326 1.326 0 0 0 1.11-.088c.401-.212.75-.611 1.088-1.079.167-.234.347-.484.56-.728a2.66 2.66 0 0 1 .774-.65c.331-.162.7-.231 1.067-.2.377.037.75.1 1.117.192.376.093.762.139 1.15.135a3.76 3.76 0 0 0 1.168-.237 3.59 3.59 0 0 0 1.882-1.61 3.72 3.72 0 0 0 .378-2.451 3.462 3.462 0 0 0-.167-.583c-.04-.093-.074-.19-.116-.274a2.381 2.381 0 0 0-.146-.254 3.545 3.545 0 0 0-.789-.834 4.979 4.979 0 0 0-1.94-.879c-.167-.032-.334-.077-.49-.095l-.477-.062a25.885 25.885 0 0 0-.907-.045 4.755 4.755 0 0 1-1.56-.249.97.97 0 0 1-.504-.402.601.601 0 0 1-.065-.292.857.857 0 0 1 .055-.263c.098-.234.243-.446.426-.622a.92.92 0 0 1 .192-.172zM55.871 48.883a1.258 1.258 0 0 1-.08-.376 3.082 3.082 0 0 1 .068-1.047c.123-.51.343-.992.65-1.418.373-.522.85-.962 1.401-1.292a5.875 5.875 0 0 1 1.784-.668 7.678 7.678 0 0 1 1.544-.159c.348-.004.696.014 1.042.052.128.005.254.028.376.067 0 .03-.543-.03-1.416 0a8.46 8.46 0 0 0-1.513.194 6.014 6.014 0 0 0-1.728.668 4.658 4.658 0 0 0-1.361 1.237 4.087 4.087 0 0 0-.658 1.353c-.09.33-.132.67-.122 1.012.014.125.018.251.013.377zM64.996 51.788c-.051.107-.118.206-.197.294a4.756 4.756 0 0 1-.669.69c-.365.31-.77.57-1.203.775a5.378 5.378 0 0 1-3.44.415 5.447 5.447 0 0 1-1.355-.467 4.772 4.772 0 0 1-.816-.51 1.151 1.151 0 0 1-.26-.238c.02-.027.4.305 1.13.638a5.609 5.609 0 0 0 5.866-.708c.626-.5.917-.914.944-.889zM56.608 51.251a.751.751 0 0 1-.152.063 1.154 1.154 0 0 0-.383.254 1.85 1.85 0 0 0-.384.617c-.116.305-.207.62-.27.94-.07.394-.16.784-.271 1.169-.07.218-.167.428-.289.623a2.46 2.46 0 0 1-.488.544 3.8 3.8 0 0 1-1.379.696c-.514.154-1.059.237-1.606.344a6.737 6.737 0 0 0-2.854 1.19 4.655 4.655 0 0 0-.952.958 4.206 4.206 0 0 0-.543 1.045 3.603 3.603 0 0 0-.177 1.69c.06.403.152.613.134.62a.664.664 0 0 1-.07-.15 1.552 1.552 0 0 1-.066-.191 2.333 2.333 0 0 1-.065-.267 3.517 3.517 0 0 1 .127-1.74c.127-.388.31-.755.541-1.09.273-.38.601-.718.972-1.003a6.775 6.775 0 0 1 2.92-1.232c.552-.109 1.091-.19 1.59-.334.483-.127.934-.35 1.327-.656.177-.144.333-.312.46-.501.117-.183.212-.38.281-.585.116-.38.212-.767.287-1.157.071-.327.171-.646.3-.955.097-.237.243-.45.428-.627.119-.11.26-.192.416-.238a.502.502 0 0 1 .166-.027zM52.134 50.554a.702.702 0 0 1 .087.343c.016.328-.078.654-.268.923-.128.19-.3.346-.5.456a1.28 1.28 0 0 1-.77.148 1.588 1.588 0 0 1-.802-.324 1.418 1.418 0 0 1-.518-.774 1.32 1.32 0 0 1-.008-.615c.05-.192.14-.371.267-.524.108-.145.23-.279.366-.4.065-.06.136-.112.212-.158a.559.559 0 0 1 .262-.092l.022.149-.082.02-.042-.144c.304-.086.628-.068.92.05.224.086.423.224.581.403.102.112.183.242.238.384.035.098.043.154.036.155a2.31 2.31 0 0 0-.334-.48 1.485 1.485 0 0 0-.559-.346 1.318 1.318 0 0 0-.835-.022l-.042-.144.082-.023.023.15a.755.755 0 0 0-.374.217 2.7 2.7 0 0 0-.334.383 1.101 1.101 0 0 0-.223 1.002c.072.27.23.51.452.683.207.161.454.265.715.299.12.013.242.01.362-.009.113-.02.222-.057.324-.108.186-.096.347-.233.47-.401.185-.245.29-.543.298-.85-.004-.226-.043-.346-.026-.35z" fill="#FAFAFA"/><path d="M41.358 45.109a.118.118 0 0 1 0 .045v.13c0 .122-.015.29-.025.501-.027.438-.052 1.07-.087 1.852-.065 1.565-.13 3.726-.18 6.115-.05 2.39-.082 4.553-.106 6.117l-.028 1.856c0 .212-.009.38-.01.5v.133a.154.154 0 0 1 0 .045.136.136 0 0 1 0-.045V59.87c0-1.566.028-3.729.08-6.12.052-2.392.124-4.55.205-6.115.044-.782.079-1.415.116-1.85.016-.215.03-.383.04-.502 0-.053.01-.097.013-.132a.18.18 0 0 1-.018-.043z" fill="#1B2C49"/><path opacity=".2" d="M38.166 60.627c.932.446 2.15-.41 2.626-1.325 0 0 .248-2.021.215-3.053-.065-1.91.075-3.803.01-5.713a5.994 5.994 0 0 1-1.363 3.103c-.205.242-.435.482-.512.79-.137.55.284 1.541.554 2.04.835 1.527-.985 4.175-1.47 4.12M55.605 48.161c.304 3.808.61 7.616.916 11.424.008.361.076.718.2 1.057a1.143 1.143 0 0 0 .768.701c.541.11 1.067-.355 1.22-.886.151-.531.03-1.097-.103-1.633a85.304 85.304 0 0 0-.74-2.724c-.744-2.627-1.49-5.254-2.236-7.88" fill="#1B2C49"/><path d="M45.139 67.665c.115-.189.2-.393.255-.607.093-.412.035-1.05-.286-1.74-.157-.345-.379-.704-.602-1.099a4.808 4.808 0 0 1-.565-1.349c-.1-.54-.06-1.096.117-1.616.167-.538.41-1.06.605-1.608a4.797 4.797 0 0 0 .083-3.195 4.675 4.675 0 0 0-.633-1.266 4.926 4.926 0 0 0-.843-.907 5.009 5.009 0 0 0-1.568-.875c-.406-.135-.643-.167-.64-.187a.569.569 0 0 1 .167.015c.165.024.327.06.486.109.59.17 1.142.454 1.625.835.333.266.63.574.883.917.288.397.513.835.668 1.3a4.908 4.908 0 0 1-.073 3.304c-.2.557-.444 1.077-.605 1.6a3.059 3.059 0 0 0-.123 1.532c.11.463.29.905.534 1.313.215.396.434.76.59 1.119.314.716.357 1.382.237 1.807a1.635 1.635 0 0 1-.206.457c-.061.1-.101.144-.106.14zM60.816 40.192a.924.924 0 0 1-.167.334c-.19.283-.437.523-.725.705a3.11 3.11 0 0 1-1.425.471 4.74 4.74 0 0 1-1.818-.232 3.817 3.817 0 0 1-1.588-.922 2.353 2.353 0 0 1-.463-.668 2.195 2.195 0 0 1-.18-.684 1.728 1.728 0 0 1 .187-.994 1.063 1.063 0 0 1 .157-.227c.042-.045.067-.069.072-.064.005.005-.075.11-.167.32-.127.3-.17.63-.124.951.028.221.092.437.187.638.114.229.265.437.448.616.432.407.954.704 1.524.869.565.189 1.16.27 1.755.238.484-.028.954-.17 1.372-.415.281-.166.53-.383.734-.638.069-.103.142-.202.22-.298z" fill="#FAFAFA"/><path d="M58.53 58.156s-.009-.015-.019-.047l-.043-.14c-.037-.129-.09-.31-.159-.54l-.568-1.992c-.474-1.688-1.125-4.008-1.837-6.58-.357-1.285-.696-2.504-1.002-3.625a12.305 12.305 0 0 1-.355-1.606 4.919 4.919 0 0 1 0-1.435c.1-.695.433-1.336.945-1.817.142-.124.3-.23.47-.315l.134-.057a.15.15 0 0 1 .047-.017 2.64 2.64 0 0 0-.63.415 3.084 3.084 0 0 0-.904 1.801c-.064.47-.06.947.015 1.415.084.539.205 1.072.36 1.595l1.012 3.623 1.819 6.586c.229.835.412 1.522.543 2.004l.142.547.035.141c0 .015-.002.03-.005.044z" fill="#1B2C49"/><path d="M51.728 21.175a1.547 1.547 0 0 0 0-.357 1.395 1.395 0 0 0-.46-.835 1.877 1.877 0 0 0-1.337-.44c-.546 0-1.127.184-1.728.386-.3.099-.6.194-.894.26a4.527 4.527 0 0 1-.863.104 4.504 4.504 0 0 1-2.595-.718.385.385 0 0 1-.075-.056s.113.063.32.167a4.74 4.74 0 0 0 3.195.416c.289-.066.583-.168.885-.26.6-.201 1.192-.384 1.753-.384.502-.027.995.143 1.373.475.252.225.413.534.454.87.02.124.01.252-.028.372zM54.026 26.167s-.017-.02-.04-.062a2.984 2.984 0 0 1-.092-.189 4.008 4.008 0 0 1-.31-1.875c.055-.463.143-.922.263-1.373a2.68 2.68 0 0 0 0-1.356 1.367 1.367 0 0 0-.282-.516 1.039 1.039 0 0 0-.424-.277.965.965 0 0 0-.73.019c-.08.044-.156.098-.226.158a.555.555 0 0 1 .211-.189.984.984 0 0 1 .765-.046c.174.056.331.155.457.287.14.156.244.34.306.54.121.458.121.94 0 1.399-.12.447-.209.902-.269 1.36a4.185 4.185 0 0 0 .262 1.856c.072.169.115.26.109.264z" fill="#455A64"/><path d="M52.012 20.936a.635.635 0 0 1 0-.118c0-.085 0-.197.013-.334a3.98 3.98 0 0 0-.137-1.227 2.194 2.194 0 0 0-.394-.745 1.53 1.53 0 0 0-.791-.523 1.991 1.991 0 0 0-1.057.043c-.37.117-.726.278-1.057.48a8.544 8.544 0 0 1-1.05.537c-.344.135-.71.209-1.08.218a3.42 3.42 0 0 1-.988-.12 3.884 3.884 0 0 1-.802-.335 3.263 3.263 0 0 1-.95-.811 2.117 2.117 0 0 1-.194-.28.585.585 0 0 1-.056-.104c.027.028.05.06.071.093.062.095.13.184.204.27a3.408 3.408 0 0 0 1.745 1.093c.316.083.642.12.969.11.36-.01.715-.084 1.05-.215a8.64 8.64 0 0 0 1.037-.536c.338-.204.7-.367 1.077-.485a2.08 2.08 0 0 1 1.1-.04c.329.092.618.287.827.556.183.229.318.492.398.773.107.406.145.827.112 1.245a4.24 4.24 0 0 1-.03.334.487.487 0 0 1-.017.121z" fill="#455A64"/><path d="m47.602 62.693 12.492-1.862-.2-1.112h6.713l.195 1.71a5.163 5.163 0 0 1-5.021 6.142l-14.565-.167.386-4.711z" fill="#FED3BD"/><path d="M8.34 58.635c.297 0-2.274 6.91-2.937 8.676-.074.195-.124.367-.124.367l18.005.03-.212-16.754v-.034L21.57 38.937a.297.297 0 0 0-.215-.249c-.713-.192-3.283-.855-5.249-.928-2.303-.086-5.636.372-5.636.372s-2.994.297-4.647.898a.294.294 0 0 0-.192.32l2.71 19.285z" fill="#FF7D2F"/><path d="M16.654 51.204a1.226 1.226 0 0 1-.09.219c-.036.085-.079.167-.127.245a3.348 3.348 0 0 1-.19.313 3.91 3.91 0 0 1-.264.359 4.528 4.528 0 0 1-.334.382 5.849 5.849 0 0 1-.901.743c-.33.21-.679.389-1.043.531-.166.059-.334.119-.486.157-.142.04-.287.073-.434.097-.12.023-.24.04-.362.05a1.99 1.99 0 0 1-.277.019 1.077 1.077 0 0 1-.236 0c0-.019.334-.017.864-.124.143-.028.285-.064.426-.107.153-.04.31-.102.475-.167.357-.144.7-.321 1.024-.53.32-.212.62-.456.893-.725.122-.13.243-.248.334-.373.096-.11.186-.227.27-.347.313-.44.442-.75.458-.742zM10.908 20.52c1.44-1.465 3.71-2.337 5.591-1.502 1.266.554 2.124 1.742 3.235 2.561.808.598 1.807 1.06 2.23 1.973.375.803.195 1.74.104 2.622-.09.881-.026 1.898.657 2.464.357.296.835.414 1.234.645.813.466 1.296 1.373 1.47 2.293.173.92.08 1.868-.014 2.802l-3.876.738-.636-1.07-.219 1.678-4.946.446-4.83-15.65z" fill="#1B2C49"/><path d="M10.269 22.12v1.078l-.306 16.166c-.027 1.874 1.767 3.469 3.774 3.482 2.026.014 2.853-1.503 2.91-3.401.061-1.986.168-4.077.168-4.077s2.57-.354 3.193-3.674c.309-1.653.3-4.377.222-6.606a3.53 3.53 0 0 0-3.8-3.395l-6.161.428z" fill="#FFBE9D"/><path d="M19.335 27.23a.426.426 0 0 1-.424.42.41.41 0 0 1-.431-.397.429.429 0 0 1 .424-.421.41.41 0 0 1 .43.399zM19.587 26.482c-.055.055-.372-.195-.835-.205-.463-.01-.805.209-.853.15-.024-.025.033-.123.183-.227.203-.133.442-.2.685-.19.242.004.476.086.668.233.134.112.179.214.152.24zM14.796 27.23a.427.427 0 0 1-.424.42.41.41 0 0 1-.431-.397.43.43 0 0 1 .424-.421.41.41 0 0 1 .43.399zM15.055 26.444c-.055.054-.373-.195-.835-.207-.463-.011-.805.21-.854.152-.023-.025.034-.125.184-.227.203-.133.442-.2.685-.192.242.004.476.086.668.234.133.113.178.215.152.24zM16.633 29.913c0-.027.287-.069.751-.116.119-.008.23-.028.253-.108a.595.595 0 0 0-.069-.35c-.102-.29-.21-.59-.324-.907-.447-1.288-.768-2.338-.716-2.365.052-.027.457 1.014.905 2.303.108.317.212.62.309.91a.668.668 0 0 1 .048.462.294.294 0 0 1-.199.167.743.743 0 0 1-.2.022c-.467.008-.756.002-.758-.018z" fill="#1B2C49"/><path d="M16.802 35.368a8.49 8.49 0 0 1-4.44-1.316s1.021 2.323 4.373 2.103l.067-.787zM16.407 31.011a.835.835 0 0 0-1.029-.254.76.76 0 0 0-.238.188.482.482 0 0 0-.052.547.56.56 0 0 0 .601.167 1.77 1.77 0 0 0 .598-.334c.054-.035.1-.08.136-.133a.152.152 0 0 0 0-.167" fill="#EB996E"/><path d="M15.269 30.188c.075 0 .061.501.479.865.417.364.953.326.955.396 0 .032-.122.095-.347.093a1.236 1.236 0 0 1-.797-.302 1.08 1.08 0 0 1-.37-.723c-.016-.21.044-.332.08-.329zM15.202 25.103c-.05.124-.501.052-1.05.102-.55.05-.984.185-1.053.072-.03-.055.049-.167.23-.288a1.838 1.838 0 0 1 1.6-.131c.196.085.293.187.273.245zM19.604 25.552c-.102.102-.485-.018-.95-.036-.466-.019-.859.047-.947-.065-.039-.054.026-.157.202-.25a1.52 1.52 0 0 1 .776-.151c.267.009.526.088.752.23.16.112.212.222.167.272z" fill="#1B2C49"/><path d="M6.824 38.725S1.454 39.984.41 45.07c-.48 2.338-1.149 15.776 1.98 17.868 4.04 2.696 9.185.244 9.185.244l-.668-6.499h-3.34l-.449-7.12c.13.555-.295-10.838-.295-10.838zM25.928 61.092a4.153 4.153 0 0 0 3.725-4.31l-2.194-9.323s-1.423-8-5.92-8.72l1.533 12.19-.147 2.57s.07 1.7.242 4.886l2.76 2.707z" fill="#FF7D2F"/><path d="M26.509 55.259c-.271.01-.541.04-.808.088a3.29 3.29 0 0 0-2.582 2.635c-.044.269-.068.54-.072.812a.89.89 0 0 1-.025-.22 2.878 2.878 0 0 1 .037-.603 3.238 3.238 0 0 1 3.238-2.726.867.867 0 0 1 .212.014zM12.653 20.148c.605.812.892 1.435 1.255 2.88.178.706-.398 1.205-.969 1.637a.458.458 0 0 1-.726-.267s.197 2.213-.603 3.205c-.374.466-.391 1.062-.303 1.564.1.512.35.982.715 1.353.929.975 1.186 2.567.546 3.762-.185.294-.355.598-.509.909a1.37 1.37 0 0 0-.105.588.467.467 0 0 1-.396.5 36.603 36.603 0 0 1-8.3.25.456.456 0 0 1-.405-.344c-.217-.929.145-1.93.608-2.766.517-.943 1.168-1.848 1.354-2.909.167-1.002-.105-2.074.295-3.006.501-1.14 1.837-1.68 2.505-2.727.633-.987.581-2.28 1.148-3.306.728-1.32 2.516-1.927 3.896-1.324" fill="#1B2C49"/><path d="M12.807 21.372c1.05.542 1.536 1.826 2.557 2.42.928.541 2.087.4 3.15.239-.038-.235-.078-.473-.118-.708.096.213.23.407.394.573a.647.647 0 0 0 .647.153c.357-.143.404-.634.314-1.002a3.466 3.466 0 0 0-.929-1.573 4.71 4.71 0 0 0-6.143-.49M22.655 45.144a.672.672 0 0 1 .01.132c0 .093 0 .219.011.376 0 .334.024.8.049 1.382.048 1.17.157 2.78.289 4.558.132 1.778.23 3.391.262 4.56.017.585.025 1.057.02 1.385v.375a.726.726 0 0 1 0 .132.662.662 0 0 1-.01-.132c0-.093 0-.218-.012-.375 0-.334-.023-.799-.048-1.383-.047-1.17-.157-2.777-.287-4.557-.13-1.78-.233-3.39-.264-4.56a38.605 38.605 0 0 1-.02-1.385v-.376a1.002 1.002 0 0 1 0-.132zM7.574 56.685a.395.395 0 0 1-.012-.093c0-.072-.01-.167-.019-.27l-.053-.985a336.87 336.87 0 0 0-.209-3.253l-.225-3.251-.065-.985c0-.109-.01-.197-.014-.267a.38.38 0 0 1 0-.096c.008.03.014.062.015.094 0 .07.019.158.03.267l.094.984c.073.835.167 1.979.25 3.25.084 1.27.15 2.42.182 3.254.016.417.027.755.029.987v.269a.354.354 0 0 1-.003.095zM7.574 56.685c0 .015-.167.023-.438.112a1.948 1.948 0 0 0-1.314 1.563c-.042.274-.02.447-.035.449-.015.002-.017-.042-.027-.12a1.503 1.503 0 0 1 0-.334c.04-.375.19-.729.43-1.017.245-.286.568-.494.93-.598.108-.03.22-.05.333-.057.077-.008.12-.005.12.002z" fill="#1B2C49"/><path d="M11.568 63.184a.473.473 0 0 1-.02-.103l-.038-.298-.124-1.092-.379-3.605-.14-1.398.041.038-2.671-.016-.777-.012h-.207a.308.308 0 0 1-.072 0 .249.249 0 0 1 .072-.008h.207l.777-.012 2.671-.015h.037v.039l.144 1.396.352 3.61.097 1.094.023.299a.495.495 0 0 1 .007.083z" fill="#1B2C49"/><path d="M11.568 63.184a1.057 1.057 0 0 1-.127.045l-.366.117c-.319.1-.781.24-1.359.394a16.99 16.99 0 0 1-2.057.428 7.096 7.096 0 0 1-2.565-.122 10.955 10.955 0 0 1-1.879-.588c-.095-.04-.19-.078-.28-.127l-.137-.068-.13-.082a3.128 3.128 0 0 1-.804-.79 5.49 5.49 0 0 1-.501-.846 9.887 9.887 0 0 1-.5-1.325c-.051-.167-.088-.284-.11-.369a.978.978 0 0 1-.031-.132c.02.041.036.084.048.127l.124.364c.148.446.324.882.527 1.306.143.292.31.572.501.835.216.3.484.56.792.765l.124.078.132.067c.086.047.182.084.277.124a11.04 11.04 0 0 0 1.865.58c.831.193 1.69.237 2.537.128a18.18 18.18 0 0 0 2.052-.408c.578-.147 1.042-.279 1.364-.367l.371-.102a.665.665 0 0 1 .132-.032zM8.734 24.104a2.138 2.138 0 0 0-.49-2.337 2.4 2.4 0 0 0-2.362-.511c-.368.11-.691.335-.924.64-.409.565-.334 1.397.094 1.953a2.46 2.46 0 0 0 1.825.887 4.676 4.676 0 0 0 2.034-.421" fill="#1B2C49"/><path d="M14.287 50.59c1.169.963 3.917 3.244 3.917 3.244l1.538-.274-4.662-3.922a.62.62 0 1 0-.793.951z" fill="#455A64"/><path d="m14.171 50.089-.604-.546a.298.298 0 0 1-.028-.411.298.298 0 0 1 .425-.027l.583.535-.376.449z" fill="#455A64"/><path d="M15.965 50.382c-.102.17-.23.326-.376.46a2.13 2.13 0 0 1-.437.4c.102-.17.229-.326.375-.46.126-.154.273-.289.438-.4z" fill="#1B2C49"/><path d="M16.008 52.303a2.948 2.948 0 0 1-.466-.304c-.277-.2-.653-.49-1.048-.835a1.747 1.747 0 0 1-.491-.566.806.806 0 0 1-.015-.613.78.78 0 0 1 .247-.334c.078-.058.13-.077.132-.072.001.005-.042.034-.11.099a.797.797 0 0 0-.21.334.756.756 0 0 0 .03.56c.12.208.282.389.475.532.393.342.76.64 1.029.852.15.106.292.222.427.347z" fill="#1B2C49"/><path d="M10.96 57.204c1.109-.37 2.285-.12 3.392-.493.38-.1.736-.275 1.047-.516.352-.312.53-.771.812-1.149.834-1.129 2.402-1.362 3.802-1.503.324-.052.655-.047.978.014a.956.956 0 0 1 .712.614c.09.316-.114.71-.441.743.307.014.521.324.578.627.056.302 0 .613.047.916.056.428.29.827.277 1.258-.019.59-.501 1.075-1.052 1.302-.551.227-1.148.258-1.73.334-2.873.404-5.044 2.033-7.814 3.263" fill="#FFBE9D"/><path d="M21.866 55.933a.393.393 0 0 0 .565.116.602.602 0 0 0 .217-.583 1.365 1.365 0 0 0-.277-.588 7.743 7.743 0 0 0-.802-.887l-.885.745 1.182 1.197z" fill="#FFBE9D"/><path d="M21.54 54.962c0 .028-.545-.017-1.202.085-.656.102-1.169.299-1.169.274.1-.066.21-.117.324-.15a4.403 4.403 0 0 1 1.695-.255c.119-.003.237.013.351.045zM21.93 56.701c0 .027-.456-.066-1.019-.05-.563.017-1.01.127-1.015.1a3.275 3.275 0 0 1 2.034-.05z" fill="#EB996E"/><path d="M21.836 56.187c-.015 0 0-.13-.025-.334a1.752 1.752 0 0 0-.382-.897l-.025-.032.027-.026a.809.809 0 0 0 .232-.588c0-.167-.05-.26-.039-.266.06.075.093.167.094.263a.81.81 0 0 1-.227.652v-.058a1.61 1.61 0 0 1 .379.952.778.778 0 0 1-.034.334z" fill="#EB996E"/><path d="m21.868 55.838 1.456 1.366.186.812-1.346-.304c-.194-.685-.336-1.338-.296-1.874z" fill="#455A64"/><path d="M19.896 57.578c-.03.054-7.862 3.914-7.862 3.914v.835l7.992-4.158 9.914-.369v-.588l-10.044.366z" fill="#F5F5F5"/><path d="M12.034 62.442c.055-.036 8.647-.811 8.647-.811l9.26-3.841-9.915.374-7.992 4.158v.12z" fill="#1B2C49"/><path d="M20.26 60.387c-.069-.45.362-.835.802-.957.439-.122.908-.072 1.352-.167.282-.077.558-.175.825-.294 1.37-.524 2.872-.553 4.342-.572a.932.932 0 0 1-.334 1.138c.121.36.105.751-.045 1.1a3.442 3.442 0 0 1-.613.94c-.192.254-.44.46-.723.605a2.388 2.388 0 0 1-.928.144c-.986.02-2.041.022-2.854-.53-.633-.432-1.07-1.17-1.804-1.387h.167" fill="#FFBE9D"/><path d="M26.823 59.841a.759.759 0 0 1-.187.018l-.515.017c-.434.01-1.033.017-1.695.02h-.935c-.14.002-.28-.019-.412-.062a.643.643 0 0 1-.3-.218.392.392 0 0 1-.076-.296.381.381 0 0 1 .104-.205.21.21 0 0 1 .167-.074.379.379 0 0 0-.15.097.334.334 0 0 0 0 .44c.07.088.164.153.271.188.127.037.26.054.391.05h2.629l.514.01a.737.737 0 0 1 .194.015z" fill="#EB996E"/><path opacity=".2" d="M23.28 57.064c.065-.612.23-1.21.488-1.769a2.727 2.727 0 0 1 1.258-1.285 1.812 1.812 0 0 1 1.755.107.92.92 0 0 1 .35.419.5.5 0 0 1-.084.517c-.184.197-.501.167-.765.154A3.223 3.223 0 0 0 23.304 57M8.78 56.556c.667-1.197.427-2.698-.083-3.967-.509-1.27-1.269-2.438-1.658-3.751a23.142 23.142 0 0 0 1.144 7.849" fill="#000"/><path d="M9.955 38.242s.81 1.909 3.732 1.787c2.923-.122 3.016-2.388 3.016-2.388l1.956 2.08-1.857 3.825-2.495 1.862-3.399-1.396-2.8-2.171 1.847-3.599z" fill="#FF7D2F"/><path opacity=".5" d="M3.111 46.401c.03.037-.35.394-.853.797-.503.402-.932.698-.962.66-.03-.039.35-.393.852-.795.5-.403.933-.7.963-.662z" fill="#FAFAFA"/><path d="M4.486 44.342c-.015.044-.476-.087-.975-.395-.5-.31-.825-.659-.794-.692.032-.033.4.249.884.544.484.296.898.496.885.543zM6.99 44.566c.04.03-.333.566-.75 1.248-.415.681-.737 1.249-.78 1.227-.044-.022.205-.63.634-1.32.43-.689.862-1.185.897-1.155zM4.847 50.37c-.034.03-.42-.365-.757-.947-.337-.583-.49-1.113-.447-1.128.043-.015.265.473.597 1.039.333.566.645 1.002.607 1.035zM2.606 53.176c-.047 0-.146-.417-.218-.948-.071-.532-.091-.967-.045-.974.047-.007.146.42.217.95.072.531.089.965.046.972z" fill="#FAFAFA"/><path opacity=".5" d="M4.716 53.941c-.042-.023.167-.47.48-1.002.312-.53.587-.937.63-.913.04.023-.168.472-.48 1.002-.312.53-.588.932-.63.913z" fill="#FAFAFA"/><path d="M2.265 56.848c-.035.032-.408-.334-.77-.861-.362-.528-.568-1.002-.528-1.028.04-.025.316.411.668.929.353.518.667.928.63.96zM5.596 56.37c.034.033-.35.475-.856.986s-.946.9-.98.867c-.036-.034.348-.476.856-.989.508-.512.945-.898.98-.865zM9.676 59.773c-.03.035-.42-.263-.773-.748-.354-.486-.52-.947-.476-.964.043-.017.274.394.616.862.342.467.668.813.633.85zM12.63 50.155c.03.039-.412.42-.987.849-.574.429-1.062.746-1.092.708-.03-.039.414-.418.989-.847.574-.43 1.062-.747 1.09-.71zM9.517 49.952c-.048 0-.04-.463.017-1.022.057-.56.142-1.002.19-1.002.049 0 .04.462-.016 1.022-.057.56-.144 1.01-.19 1.002z" fill="#FAFAFA"/><path opacity=".5" d="M12.388 46.042c-.027.039-.544-.28-1.112-.766-.568-.486-.965-.945-.932-.977.033-.032.483.366 1.045.845.563.48 1.027.858.999.898z" fill="#FAFAFA"/><path d="M10.232 41.163c.037.031-.334.522-.815 1.097-.48.574-.912 1.013-.948.983-.037-.03.334-.522.815-1.097.48-.574.911-1.014.948-.983z" fill="#FAFAFA"/><path opacity=".5" d="M7.762 40.64c-.026.043-.399-.149-.885-.31-.486-.163-.888-.241-.888-.291 0-.05.44-.047.948.125s.85.436.825.476z" fill="#FAFAFA"/><path d="M14.04 42.89c-.046-.014.033-.42.177-.907.143-.488.297-.872.333-.859.037.014-.031.42-.167.907-.135.488-.297.873-.343.858zM15.54 46.734c-.048 0-.064-.401-.036-.889.028-.487.09-.88.137-.878.047.002.065.4.037.888-.029.488-.09.882-.137.879zM18.012 49.617c-.03.039-.396-.205-.816-.544-.421-.339-.739-.643-.708-.68.03-.036.395.206.816.545.421.339.733.643.708.68zM20.636 45.592c.031.035-.294.375-.728.758-.435.382-.812.668-.835.628-.024-.04.293-.376.728-.759.434-.382.803-.664.835-.627z" fill="#FAFAFA"/><path opacity=".5" d="M19.428 43.69c-.026.04-.439-.188-.883-.557-.444-.369-.745-.733-.711-.765.033-.031.384.27.821.63.438.36.8.651.773.691z" fill="#FAFAFA"/><path d="M22.464 40.3c.039.026-.167.372-.52.706-.355.334-.714.517-.739.477-.025-.04.276-.28.618-.602.342-.323.601-.615.641-.581z" fill="#FAFAFA"/><path opacity=".5" d="M20.377 39.982c0 .047-.54.008-1.17-.153-.629-.162-1.123-.38-1.106-.425.017-.045.522.099 1.15.256.628.157 1.133.272 1.126.322zM24.254 45.38c-.045-.01.059-.669.298-1.44.239-.772.514-1.376.557-1.36.044.017-.157.64-.39 1.41-.234.77-.416 1.4-.465 1.39z" fill="#FAFAFA"/><path d="M25.114 49.063c-.035.032-.447-.347-.921-.85-.475-.502-.835-.935-.794-.968.042-.034.446.347.92.85.475.502.83.935.795.968z" fill="#FAFAFA"/><path opacity=".5" d="M26.445 51.149c-.048 0-.078-.548-.067-1.222.012-.675.06-1.22.109-1.22s.077.548.065 1.223c-.011.675-.06 1.22-.107 1.219z" fill="#FAFAFA"/><path d="M25.094 54.586c-.038.026-.395-.411-.726-1.023-.33-.61-.5-1.15-.46-1.169.043-.018.286.485.614 1.084.327.6.613 1.08.572 1.108zM28.543 55.214c.035.033-.197.314-.516.626-.32.312-.606.536-.64.5-.033-.034.199-.315.518-.627s.604-.535.638-.5z" fill="#FAFAFA"/><path opacity=".5" d="M20.146 51.297c-.043-.013.11-.56.501-1.132.391-.571.85-.91.879-.873.028.036-.358.42-.735.973-.377.553-.598 1.05-.645 1.032z" fill="#FAFAFA"/><path d="M10.409 55.878c-.047-.012.035-.501.182-1.109s.307-1.08.354-1.069c.047.012-.037.51-.184 1.11-.147.602-.307 1.08-.352 1.068zM14.505 56.287c-.026.04-.442-.185-.928-.5-.486-.316-.86-.607-.835-.647.025-.04.44.184.928.5.488.318.867.607.835.647zM14.305 53.328c-.04.027-.236-.196-.438-.501-.202-.306-.334-.566-.292-.593.042-.027.236.195.438.501s.325.566.292.593zM16.113 54.003c.027.038-.148.208-.392.38-.244.172-.464.28-.492.24-.029-.038.148-.21.392-.382.244-.172.464-.282.492-.238z" fill="#FAFAFA"/><path d="M7.59 24.128c.01-.014.2.15.55.334.205.11.419.204.64.279.271.087.55.15.834.185.284.03.57.033.853.008.233-.021.463-.064.688-.127.385-.106.605-.222.613-.207a.736.736 0 0 1-.152.089c-.06.032-.123.06-.187.085a3.608 3.608 0 0 1-.954.24c-.289.03-.581.03-.87 0a4.157 4.157 0 0 1-.85-.197 3.656 3.656 0 0 1-.873-.449 1.59 1.59 0 0 1-.167-.127c-.083-.067-.13-.108-.125-.113zM11.904 26.05a.851.851 0 0 1-.182.055c-.119.03-.29.07-.501.107a4.595 4.595 0 0 1-1.71.01 2.672 2.672 0 0 1-1.478-.835 1.85 1.85 0 0 1-.28-.441.607.607 0 0 1-.06-.18c.105.208.235.403.387.58.389.41.895.688 1.45.797a5.01 5.01 0 0 0 1.682.015c.216-.03.39-.06.501-.08a.822.822 0 0 1 .19-.028zM5.957 36.27a.166.166 0 0 1-.022-.023c-.011-.017-.033-.04-.056-.075a.954.954 0 0 1-.132-.334 1.528 1.528 0 0 1 .365-1.241c.204-.23.44-.428.7-.59.274-.18.581-.345.883-.55.32-.202.594-.47.804-.786.104-.167.173-.355.2-.55a1.703 1.703 0 0 0-.032-.609 7.6 7.6 0 0 0-.422-1.15 3.173 3.173 0 0 1-.282-1.126 2.987 2.987 0 0 1 .572-1.85c.254-.364.592-.661.984-.868l.187-.09.144-.05a.69.69 0 0 1 .12-.036.751.751 0 0 1-.114.052l-.138.059-.182.095c-.38.214-.705.513-.95.873a2.962 2.962 0 0 0-.543 1.812c.025.38.12.75.28 1.095.175.378.319.769.43 1.17.047.208.058.424.031.637-.028.208-.1.407-.212.585a2.758 2.758 0 0 1-.835.808c-.307.204-.616.367-.888.544-.257.155-.49.346-.692.568a1.519 1.519 0 0 0-.38 1.194c.03.156.091.304.18.436z" fill="#455A64"/><path d="M10.406 36.33a.475.475 0 0 1-.097-.055.787.787 0 0 1-.216-.234 1.119 1.119 0 0 1-.15-.48 1.797 1.797 0 0 1 .074-.669c.135-.49.544-.935.851-1.503.168-.289.255-.617.252-.952a2.581 2.581 0 0 0-.268-1.03c-.318-.668-.805-1.206-1.143-1.763a3.697 3.697 0 0 1-.394-.835 2.036 2.036 0 0 1-.082-.805c.026-.397.2-.77.488-1.044a1.09 1.09 0 0 1 .37-.204 1.614 1.614 0 0 0-.348.234 1.59 1.59 0 0 0-.448 1.024c-.022.263.009.527.09.778.096.289.228.564.393.82.167.272.374.544.58.835.218.294.41.608.572.937.167.332.261.696.276 1.067 0 .347-.091.69-.266.99-.32.57-.73 1.002-.865 1.476a1.807 1.807 0 0 0-.083.643c.009.164.053.323.13.468.072.12.169.222.284.302zM16.995 23.794s-.023 0-.063-.027a1.507 1.507 0 0 1-.167-.105 1.982 1.982 0 0 1-.48-.536 5.927 5.927 0 0 1-.462-.959 9.86 9.86 0 0 0-.26-.564 3.48 3.48 0 0 0-.368-.551 3.772 3.772 0 0 0-1.93-1.244 5.128 5.128 0 0 0-.96-.137c.086-.015.174-.02.262-.015.24.006.479.037.713.092.778.19 1.474.63 1.982 1.249.144.176.271.366.379.566.102.194.182.389.257.574.121.33.269.65.441.957.12.204.271.386.45.541.128.109.211.152.206.159z" fill="#455A64"/><path d="M19.325 23.78a1.282 1.282 0 0 1-.34-.075 2.17 2.17 0 0 1-.797-.516 4.823 4.823 0 0 1-.825-1.142c-.263-.46-.516-.987-.909-1.446a2.856 2.856 0 0 0-1.418-.884 5.535 5.535 0 0 0-1.377-.185c-.4-.008-.722 0-.945.017l-.258.01a.332.332 0 0 1-.09 0 .318.318 0 0 1 .089-.015l.257-.027c.222-.018.546-.045.947-.043.471-.007.942.05 1.4.167a2.892 2.892 0 0 1 1.46.905c.404.472.657 1.002.912 1.464.212.415.481.797.8 1.136.215.228.475.408.765.53.207.08.33.094.329.104zM23.267 34.618c-.008 0 .044-.118.099-.334a3.19 3.19 0 0 0 .1-.942 3.157 3.157 0 0 0-.354-1.349 3.224 3.224 0 0 0-.477-.676c-.194-.216-.416-.42-.638-.633a5.635 5.635 0 0 1-.62-.668 4.148 4.148 0 0 1-.83-3.056 2.052 2.052 0 0 1 .07-.346c.009 0-.018.125-.037.35-.03.317-.024.636.017.951.063.468.2.922.406 1.346.123.248.271.484.44.703.188.233.392.451.612.653.224.214.446.42.643.64a3.163 3.163 0 0 1 .701 3.034 1.706 1.706 0 0 1-.091.245.302.302 0 0 1-.04.082zM4.974 23.649a.62.62 0 0 1 .021-.167 1.788 1.788 0 0 1 3.088-.736.5.5 0 0 1 .093.136 3.064 3.064 0 0 0-.462-.384 1.775 1.775 0 0 0-2.505.6 3.1 3.1 0 0 0-.235.55z" fill="#455A64"/><path d="M6.592 24.352a1.451 1.451 0 0 1 .046-.38c.052-.31.189-.599.396-.834a.89.89 0 0 1 .885-.224.552.552 0 0 1 .237.167c.042.053.054.09.05.092a.78.78 0 0 0-.305-.196.858.858 0 0 0-.805.227 1.815 1.815 0 0 0-.398.79c-.024.122-.06.242-.106.358z" fill="#455A64"/><path d="M8.714 21.905a7.217 7.217 0 0 0-.44.91 7.903 7.903 0 0 0-.226.984 2.627 2.627 0 0 1 .668-1.894h-.002z" fill="#FF7D2F"/><path d="M35.953 25.995a.02.02 0 0 0 .01-.005.02.02 0 0 0 .005-.01l-.015.015zm0 0a.02.02 0 0 1-.012 0 .02.02 0 0 1-.012-.018m.024.018-.023-.019m0 0 .001-.007a.02.02 0 0 1 .037.011l-.038-.004zM33.888 25.976a.02.02 0 1 1-.04 0 .02.02 0 0 1 .04 0zM31.706 25.977c0-.004 0-.008.002-.011a.02.02 0 0 1 .005-.006.019.019 0 0 1 .014-.004c.003 0 .005.001.008.003l.246-.427-.247.427a.02.02 0 0 1 .01.02.02.02 0 0 1-.005.01l.376.329-.376-.33a.02.02 0 0 1-.01.006l.128.473-.127-.473a.02.02 0 0 1-.02-.007.019.019 0 0 1-.005-.01zM39.196 31.238l-.115-.42-.278-1.01.393 1.43zm0 0-.156-.063m-1.282.168.909.365-.044-.162-.728-.293-.138.09z" fill="#455A64" stroke="#000"/></g><defs><clipPath id="b"><path fill="#fff" transform="translate(12 8.4)" d="M0 0h36v5.211H0z"/></clipPath></defs></svg>