<svg width="60" height="60" fill="none" xmlns="http://www.w3.org/2000/svg"><path d="M30 60c16.569 0 30-13.431 30-30C60 13.431 46.569 0 30 0 13.431 0 0 13.431 0 30c0 16.569 13.431 30 30 30z" fill="#ECEEF2"/><path d="M51.829 47.542a11.134 11.134 0 0 0-4.62-2.133l-8.224-1.65c-.863-.165-1.485-.938-1.485-1.838v-1.886c.529-.742 1.027-1.729 1.549-2.76.405-.799 1.016-2.002 1.32-2.314 1.665-1.672 3.273-3.551 3.772-5.973.465-2.273.008-3.465-.529-4.425 0-2.397-.075-5.397-.64-7.58-.068-2.954-.605-4.616-1.955-6.07-.952-1.032-2.355-1.272-3.483-1.463-.443-.075-1.054-.18-1.28-.3-1.998-1.08-3.974-1.609-6.333-1.65-4.939.202-11.01 3.345-13.042 8.948-.63 1.706-.567 4.507-.514 6.757l-.049 1.354c-.484.945-.96 2.145-.491 4.425.495 2.426 2.104 4.308 3.799 6.003.277.285.903 1.5 1.316 2.303.529 1.028 1.031 2.01 1.56 2.749v1.886c0 .896-.626 1.669-1.493 1.838l-8.23 1.65c-1.715.363-3.305 1.098-4.606 2.13a1.89 1.89 0 0 0-.701 1.32 1.874 1.874 0 0 0 .48 1.41C13.552 56.453 21.589 60 30 60c8.411 0 16.451-3.544 22.05-9.727.349-.387.525-.897.48-1.414a1.874 1.874 0 0 0-.701-1.317z" fill="#7B818C"/></svg>