<svg width="60" height="60" fill="none" xmlns="http://www.w3.org/2000/svg"><mask id="a" mask-type="alpha" maskUnits="userSpaceOnUse" x="0" y="0" width="60" height="60"><circle cx="30" cy="30" r="30" fill="#CD7979"/></mask><g mask="url(#a)"><circle cx="30" cy="30" r="30" fill="#ECEEF2"/><path d="m13.711 42.483-2.803-3.188c-.758-.758-1.019-1.123-.866-1.256.201-.177.115-.119 1.69 1.063 0 0-2.232-1.706-1.458-1.716.136 0 .515.22.92.485-.552-.47-.708-.787-.6-.937.177-.262 1.545.685 2.173 1.14-.513-.382-1.493-1.124-1.665-1.358-.237-.319.243-.292.633-.16.437.15 2.855 1.384 3.57 1.703a.463.463 0 0 0 .666-.225c.264-1.109 1.063-1.83 1.367-1.923.305-.094.54.295.323.579-.205.33-.364.686-.472 1.059a2.74 2.74 0 0 0-.143.908c0 .354.025.66.048.918l2.563 3.515-4.286 2.48-1.66-3.087z" fill="#FFDAC8"/><path d="M12.709 39.597c-.028.04-.531-.302-1.112-.765-.581-.462-1.035-.87-1.001-.906.034-.038.531.306 1.112.765.581.458 1.026.866 1 .906zM13.25 39.038c-.028.04-.578-.296-1.23-.75-.652-.453-1.158-.855-1.13-.894.028-.039.579.294 1.23.748.653.453 1.159.855 1.13.896zM13.647 38.443c-.028.04-.556-.268-1.178-.69-.621-.42-1.103-.794-1.076-.837.026-.042.554.267 1.177.689.624.421 1.104.797 1.077.838z" fill="#FBB19B"/><path d="m17.333 40.05 10.215 12.954-2.34 5.446s-2.801-.62-3.651-1.8c-.85-1.179-7.846-14.168-7.846-14.168l3.622-2.431z" fill="#FFDAC8"/><path d="M43.264 21.93c.735.637.733 1.76.648 2.729-.085.969-.15 2.072.52 2.777.555.58 1.56.834 1.687 1.626a.912.912 0 0 1-1.507.827c.216.625.067 1.406-.475 1.785s-1.45.145-1.619-.494a.803.803 0 1 1-1.574.287M32.74 28.468a.969.969 0 1 1-1.79-.745c.169-.369.567-.634.606-1.038.046-.487-.452-.836-.886-1.048-.433-.213-.958-.49-1.005-.978-.048-.489.375-.838.727-1.153.353-.315.709-.804.484-1.224-.112-.216-.344-.338-.494-.531-.331-.422-.158-1.093.265-1.417.424-.324 1.008-.375 1.536-.282.528.094 1.024.314 1.537.468a6.413 6.413 0 0 0 5.108-.67" fill="#1B2C49"/><path d="M35.875 39.89a3.557 3.557 0 0 0 4.178-2.727l2.513-11.523a5.113 5.113 0 0 0-3.944-6.18l-.262-.04a5.147 5.147 0 0 0-5.765 3.941c-.56 2.432-1.145 5.125-1.322 6.448-.367 2.74 2.302 3.565 2.302 3.565l-.48 2.303a3.556 3.556 0 0 0 2.777 4.208l.003.005z" fill="#FFDAC8"/><path d="M33.088 25.174a.397.397 0 0 0 .319.45.379.379 0 0 0 .453-.292.393.393 0 0 0-.317-.45.38.38 0 0 0-.455.292z" fill="#1B2C49"/><path d="M32.987 24.785c.04.058.368-.119.79-.055.421.064.696.317.749.273.027-.02-.01-.12-.13-.236a1.084 1.084 0 0 0-1.228-.175c-.144.081-.2.166-.181.193zM37.195 25.847a.395.395 0 0 0 .319.45.379.379 0 0 0 .453-.294.393.393 0 0 0-.319-.448.375.375 0 0 0-.453.292z" fill="#1B2C49"/><path d="M37.106 25.468c.04.057.369-.118.788-.055.42.064.698.317.751.273.025-.02-.01-.119-.13-.235a1.084 1.084 0 0 0-1.23-.176c-.136.076-.2.167-.179.193zM35.125 28.362c0-.025-.25-.108-.665-.223-.106-.027-.203-.064-.21-.14a.556.556 0 0 1 .117-.306l.437-.77c.611-1.1 1.063-2.009 1.025-2.034-.037-.025-.575.847-1.186 1.948l-.425.776a.638.638 0 0 0-.117.414.273.273 0 0 0 .154.177.754.754 0 0 0 .177.052c.226.064.458.1.693.106zM37.237 23.806c.025.12.454.127.937.258.484.131.863.324.944.232.036-.044-.018-.163-.161-.296a1.686 1.686 0 0 0-1.433-.373c-.198.046-.296.13-.287.179zM33.32 23.591c.06.106.354.05.708.096s.634.159.709.069c.037-.045 0-.147-.11-.257a1.04 1.04 0 0 0-1.151-.131c-.128.08-.183.172-.156.223zM40.038 22.206l.012.015c.386.407.599.947.595 1.508v.055c0 .797-.144 1.594-.142 2.382.002.788.154 1.628.652 2.248.204.256.6.469.832.239a.673.673 0 0 0 .15-.344c.422-1.861 1.18-3.455 1.465-5.424a1.676 1.676 0 0 0-.49-1.453c-.368-.354-.827-.736-1.318-.586-.49.15-1.207.921-1.617 1.24" fill="#1B2C49"/><path d="M41.463 26.742c.05-.014 1.96-.282 1.626 1.58-.335 1.86-2.125 1.142-2.125 1.087 0-.055.5-2.667.5-2.667z" fill="#FFDAC8"/><path d="M41.658 28.806s.028.029.078.063a.33.33 0 0 0 .242.05c.21-.038.43-.32.5-.654a1.092 1.092 0 0 0 0-.48.383.383 0 0 0-.2-.293.167.167 0 0 0-.208.055c-.033.046-.028.087-.038.087-.011 0-.034-.037 0-.111a.205.205 0 0 1 .093-.103.25.25 0 0 1 .188-.016.466.466 0 0 1 .287.354c.05.173.056.355.02.531-.08.374-.335.69-.617.72a.354.354 0 0 1-.289-.103c-.061-.055-.063-.098-.056-.1z" fill="#FBB19B"/><path d="M41.816 21.146c.57-.682-.532-1.94-1.417-2.367-.886-.426-2.161-.154-3.124.016-.608.108-1.224.293-1.83.177a4.124 4.124 0 0 1-1.14-.476 3.088 3.088 0 0 0-1.159-.405 1.14 1.14 0 0 0-1.075.48c-.21.354-.063.908.333 1.023a.928.928 0 1 0-.494 1.665c-.235-.24-.692.034-.708.37-.016.337.25.622.531.8.728.458 1.652.48 2.499.328.846-.152 1.658-.467 2.5-.64.844-.175 2.259-.504 3.02-.102.56.294.868 1.063 1.224.958a1.156 1.156 0 0 0 .708-.754c.096-.346.136-.704.12-1.063" fill="#1B2C49"/><path d="M45.458 29.78a.287.287 0 0 0 .098-.043.554.554 0 0 0 .202-.23.813.813 0 0 0 .06-.482.968.968 0 0 0-.333-.546 2.426 2.426 0 0 0-.671-.391 4.367 4.367 0 0 1-.785-.38 1.567 1.567 0 0 1-.568-.738 2.589 2.589 0 0 1-.165-1.006c.018-.708.214-1.372.262-1.997.048-.625-.032-1.212-.297-1.617a1.5 1.5 0 0 0-.886-.664 1.036 1.036 0 0 0-.303-.03.39.39 0 0 0-.104.016c.134-.001.268.015.398.049.351.111.649.347.836.664.246.393.331.964.27 1.575-.063.61-.252 1.275-.273 2.003-.012.355.049.71.177 1.041.118.315.33.586.607.777.254.153.523.28.803.38.236.087.458.212.657.368a.93.93 0 0 1 .325.506.769.769 0 0 1-.042.456.61.61 0 0 1-.268.288zM32.344 19.55a.317.317 0 0 0-.081-.045.877.877 0 0 0-.253-.078 1.121 1.121 0 0 0-.94.287 1.502 1.502 0 0 0-.332 1.109 1.846 1.846 0 0 0 .683 1.263c.443.356.982.573 1.548.621a6.31 6.31 0 0 0 1.839-.111 8.308 8.308 0 0 0 2.71-1.049 8.25 8.25 0 0 1 1.119-.579 2.973 2.973 0 0 1 1.062-.218c.53-.011 1.056.11 1.527.354.17.096.335.2.494.314a2.17 2.17 0 0 0-.477-.354 3.123 3.123 0 0 0-1.546-.395 3.047 3.047 0 0 0-1.09.21c-.392.165-.77.358-1.132.58a8.362 8.362 0 0 1-2.685 1.029 6.272 6.272 0 0 1-1.812.115 2.789 2.789 0 0 1-1.503-.595 1.78 1.78 0 0 1-.666-1.206 1.44 1.44 0 0 1 .304-1.063 1.1 1.1 0 0 1 .896-.296c.115.025.227.06.335.106z" fill="#455A64"/><path d="M33.38 18c-.006.142.016.284.066.418.138.369.396.68.733.886.226.147.478.251.742.308.303.06.613.077.92.047.65-.047 1.33-.27 2.045-.455.713-.184 1.427-.281 2.043-.117.547.145 1.034.461 1.389.902.244.293.425.633.531.999.07.26.08.412.092.41a.838.838 0 0 0 0-.11 2.194 2.194 0 0 0-.051-.31 2.669 2.669 0 0 0-.516-1.032 2.708 2.708 0 0 0-1.416-.944c-.638-.177-1.371-.076-2.088.11-.718.186-1.392.41-2.028.46-.3.032-.602.02-.898-.037-.256-.052-.5-.149-.723-.286a1.772 1.772 0 0 1-.733-.84A2.523 2.523 0 0 1 33.38 18z" fill="#455A64"/><path d="M34.285 29.753c.023.182.072.361.144.53a.65.65 0 0 0 .398.355.582.582 0 0 0 .531-.161.94.94 0 0 0 .25-.52c.028-.178 0-.4-.177-.456a.453.453 0 0 0-.218 0l-.981.177" fill="#FBB19B"/><path d="M34.457 30.496c.156.06.322.091.489.092a.695.695 0 0 0 .616-.474.737.737 0 0 0 .037-.307.646.646 0 0 0-.035-.155c-.023-.048-.016-.045-.057-.05a.616.616 0 0 0-.157.009l-.165.012c-.213.016-.404.028-.565.037a1.685 1.685 0 0 1-.531-.01c.165-.06.339-.096.515-.106.16-.024.354-.047.561-.071l.163-.018c.059-.009.118-.014.177-.016a.221.221 0 0 1 .13.046c.033.03.058.066.072.108.024.064.04.13.046.198a.87.87 0 0 1-.253.696.792.792 0 0 1-.561.218.733.733 0 0 1-.386-.108c-.06-.05-.101-.094-.096-.1z" fill="#1B2C49"/><path d="M33.578 33.374s1.786.677 3.523.177c0 0-1.31 1.1-3.701.678l.178-.855z" fill="#FBB19B"/><path d="M36.302 58.765a2.04 2.04 0 0 1-.244-.188 10.703 10.703 0 0 0-.675-.494c-.15-.097-.306-.203-.489-.304a20.59 20.59 0 0 0-.582-.314 9.086 9.086 0 0 0-2.89-.864c-.233-.025-.452-.053-.66-.058-.207-.006-.4-.015-.575-.013-.175.002-.336.01-.476.016-.14.005-.26.016-.355.027a1.87 1.87 0 0 1-.306.021c.1-.026.2-.044.303-.057.117-.02.235-.034.354-.042.14-.01.3-.03.478-.03.18 0 .372-.01.581 0 .21.01.432.028.666.05a9.685 9.685 0 0 1 1.498.307c.487.15.961.339 1.417.565.207.11.407.211.583.325.175.113.342.214.487.316.145.103.273.202.384.287.112.085.204.167.276.234.081.066.157.138.225.216z" fill="#FAFAFA"/><path d="m25.894 49.67 1.452-6.293c.556-2.366 1.215-4.64 2.322-4.91v.732l-.475 17.978s-2.959 3.365-6.73 1.498c-1.179-.586-3.33-4.704-3.33-4.704s-5.007-8.933-4.798-9.338c.208-.406 3.267-4.348 3.579-4.545l7.98 9.581z" fill="#418CCF"/><path d="M40.838 36.686c2.887.553 6.136 2.237 7.633 6.553.545 1.576 4.52 13.196 4.52 13.196l-6.778-.142-1.095-2.393.532 3.888.458 5.543-17.115.289.12-8.352.165-16.613s.192-.251 3.144-1.879c1.831-1.01 8.416-.09 8.416-.09z" fill="#418CCF"/><path opacity=".2" d="M42.545 47.797c.282 3.507.604 4.59.886 8.098.007.331.066.66.177.973a1.062 1.062 0 0 0 .708.647c.5.1 1.148.462 1.288-.027l-.473-3.377a6.66 6.66 0 0 0-.468-1.426c-1.05-2.332-1.438-2.468-2.125-4.888" fill="#000"/><path d="m32.42 38.574.057-.365.547-3.5a.408.408 0 0 1 .436-.343l6.739.563a.774.774 0 0 1 .708.83l-.15 2.032-2.104 2.745-3.03.473" fill="#418CCF"/><path d="M29.036 45.153c.026 0 .046 2.742.046 6.123 0 3.38-.02 6.122-.046 6.122-.027 0-.046-2.741-.046-6.122s.02-6.123.046-6.123zM46.358 56.856s0-.012-.021-.039c-.021-.026-.034-.07-.057-.12l-.205-.466-.739-1.72-2.407-5.686-1.316-3.137a5.906 5.906 0 0 1-.435-1.417 7.805 7.805 0 0 1-.117-1.292 5.212 5.212 0 0 1 .27-1.851l.054-.147.062-.124c.03-.066.065-.129.106-.188l.075-.11a.32.32 0 0 1 .028-.035 3.642 3.642 0 0 0-.292.616 5.358 5.358 0 0 0-.237 1.839c.002.923.195 1.836.564 2.683l1.323 3.133 2.382 5.697.709 1.73.19.473.047.124a.208.208 0 0 1 .016.037z" fill="#1B2C49"/><path d="M42.938 37.304a2.229 2.229 0 0 1-.196.177c-.2.152-.416.279-.647.377a4.85 4.85 0 0 1-1.137.32c-.516.08-1.036.13-1.558.153-.581.025-1.215.015-1.895.027a8.765 8.765 0 0 0-2.143.262 3.949 3.949 0 0 0-2.015 1.188c-.268.322-.459.7-.56 1.105-.108.417-.1.855.021 1.267.068.203.168.395.296.566.129.167.292.305.478.404.18.1.386.142.592.124a.81.81 0 0 0 .52-.265 1.418 1.418 0 0 0 .262-1.121 1.84 1.84 0 0 0-.177-.553 2.703 2.703 0 0 0-.313-.476 3.336 3.336 0 0 0-1.817-1.075 3.859 3.859 0 0 0-1.858.02c-.5.13-.978.335-1.417.608-.334.209-.65.446-.942.709-.243.212-.414.396-.531.517l-.131.142a.325.325 0 0 1-.048.046c.208-.264.44-.509.69-.732.29-.268.605-.509.94-.719a5.089 5.089 0 0 1 1.434-.627 3.897 3.897 0 0 1 1.891-.032c.724.153 1.38.538 1.865 1.097.124.147.232.308.322.478.09.182.15.378.177.579.031.205.028.414-.01.618-.038.212-.132.41-.271.576a.898.898 0 0 1-.578.295 1.121 1.121 0 0 1-.644-.133 1.596 1.596 0 0 1-.508-.428 2.101 2.101 0 0 1-.312-.595 2.444 2.444 0 0 1-.021-1.316c.103-.42.301-.81.579-1.142a4.053 4.053 0 0 1 2.061-1.213 8.809 8.809 0 0 1 2.166-.252c.682-.01 1.316 0 1.893-.016.52-.018 1.039-.065 1.553-.14a5.024 5.024 0 0 0 1.134-.3c.229-.094.446-.213.648-.355.071-.048.119-.092.154-.117a.37.37 0 0 1 .053-.048zM48.795 44.675a.34.34 0 0 1-.076.013c-.05 0-.122.012-.218.015a6.996 6.996 0 0 1-.802-.019 18.925 18.925 0 0 1-1.181-.138 16.347 16.347 0 0 0-1.442-.154c-.48-.026-.962.01-1.433.108a3.612 3.612 0 0 0-1.094.416 3.148 3.148 0 0 0-.808.709.25.25 0 0 1 .04-.066c.036-.063.08-.122.127-.177.171-.21.377-.39.607-.532a3.56 3.56 0 0 1 1.109-.442 5.435 5.435 0 0 1 1.457-.117c.52.027 1.006.097 1.449.163.443.065.84.124 1.174.156.335.032.61.046.797.047.098 0 .197.006.294.018zM44.54 52.615a3.568 3.568 0 0 0-1.017-.087c-.4.027-.797.098-1.181.21-.452.123-.957.302-1.524.477a6.27 6.27 0 0 1-1.909.331 5.47 5.47 0 0 1-2.175-.451 5.41 5.41 0 0 1-1.983-1.442 4.123 4.123 0 0 1-.709-1.102 2.518 2.518 0 0 1-.203-1.33c.062-.457.284-.877.629-1.184.17-.15.375-.254.596-.305a1.397 1.397 0 0 1 1.228.331 1.063 1.063 0 0 1 .27 1.173c-.074.19-.187.363-.33.508a2.64 2.64 0 0 1-.973.618c-.172.065-.35.114-.531.147-.089.016-.177.035-.264.048l-.264.032c-.647.064-1.3.018-1.932-.137a6.023 6.023 0 0 1-1.493-.574 5.508 5.508 0 0 1-.994-.687l-.177-.154-.145-.147a2.465 2.465 0 0 1-.22-.237l-.127-.152a.368.368 0 0 1-.039-.053c.017.014.033.03.048.047l.133.146c.07.08.145.158.225.23l.147.143.177.15a6.021 6.021 0 0 0 2.476 1.224 5.69 5.69 0 0 0 1.91.125l.259-.032c.087-.015.177-.034.262-.05.177-.032.351-.08.52-.145.353-.13.674-.334.94-.6.135-.138.241-.301.311-.48.07-.183.085-.382.044-.573a1.11 1.11 0 0 0-.827-.793 1.24 1.24 0 0 0-1.17.267 1.83 1.83 0 0 0-.597 1.129c-.05.436.016.878.195 1.28.171.393.403.757.687 1.079.533.614 1.2 1.099 1.948 1.416.676.295 1.404.45 2.141.454a6.23 6.23 0 0 0 1.892-.319c.565-.177 1.062-.344 1.528-.462.389-.11.788-.175 1.192-.197.147-.009.294-.009.44 0 .127.02.235.029.32.048l.193.048c.025.007.05.018.072.032zM28.977 50.725c-.016 0-.097-.177-.269-.475a4.623 4.623 0 0 0-1.89-1.762c-.3-.152-.499-.22-.494-.236.05.005.099.016.145.034.13.038.255.086.378.142a4.14 4.14 0 0 1 2.095 2.155c.018.046.03.093.035.142zM22.106 58.305s-.013-.015-.029-.045l-.072-.133a17.373 17.373 0 0 1-.27-.518 12.14 12.14 0 0 1-.81-1.996 6.45 6.45 0 0 1-.254-1.469 4.576 4.576 0 0 1 .034-.832c.044-.292.114-.58.209-.859a3.743 3.743 0 0 1 1.04-1.573 2.544 2.544 0 0 1 1.89-.664c.356.027.69.19.93.454a1.143 1.143 0 0 1 .264.968.86.86 0 0 1-.251.438 1.025 1.025 0 0 1-.432.235 1.275 1.275 0 0 1-.926-.111 2.115 2.115 0 0 1-.675-.576 3.103 3.103 0 0 1-.427-.72 3.187 3.187 0 0 1-.232-1.467c.036-.413.156-.814.354-1.178a3.073 3.073 0 0 1 1.011-1.114c.055-.037.101-.06.132-.078l.046-.023-.167.117a3.15 3.15 0 0 0-.972 1.121c-.188.36-.301.754-.331 1.159a3.059 3.059 0 0 0 .659 2.134c.176.227.398.415.651.55.265.143.574.18.864.103a.832.832 0 0 0 .619-.609 1.063 1.063 0 0 0-.245-.886 1.31 1.31 0 0 0-.871-.421 2.455 2.455 0 0 0-1.82.64 3.69 3.69 0 0 0-1.02 1.533 4.797 4.797 0 0 0-.21.841c-.037.271-.05.545-.037.818.025.493.106.98.24 1.455.205.686.465 1.354.78 1.997l.253.532.066.138c.017.035.009.039.009.039zM19.919 42.67s.008.025.015.073c.013.072.022.144.027.216a5.053 5.053 0 0 1-3.597 5.23c-.088.028-.161.04-.209.053-.048.012-.074.014-.074.01.089-.038.18-.07.273-.097a5.6 5.6 0 0 0 .724-.31 5.183 5.183 0 0 0 2.82-4.098c.027-.26.037-.524.03-.786a2.254 2.254 0 0 1-.01-.29zM50.345 50.35a2.59 2.59 0 0 0-.684.623c-.177.228-.354.531-.554.85a6.377 6.377 0 0 1-2.571 2.366 5.325 5.325 0 0 1-.635.27c-.079.032-.16.056-.244.072a1.36 1.36 0 0 1 .23-.105c.149-.065.365-.157.618-.296a6.734 6.734 0 0 0 2.524-2.352c.176-.292.368-.575.575-.846.144-.182.316-.34.509-.47.052-.034.107-.064.164-.09.046-.017.068-.026.068-.023z" fill="#FAFAFA"/><path d="M40.774 36.898a.281.281 0 0 1-.081.022l-.236.042c-.205.034-.503.078-.87.128-.736.099-1.756.216-2.888.3-.53.047-1.062.066-1.594.056a4.519 4.519 0 0 1-1.291-.222 2.864 2.864 0 0 1-.788-.398 1.926 1.926 0 0 1-.188-.15.296.296 0 0 1-.056-.063c.001-.003.092.071.263.178.245.157.51.28.788.364.414.126.843.193 1.276.199.532.005 1.064-.016 1.593-.064a75.7 75.7 0 0 0 2.886-.271l.873-.1c.104-.014.208-.02.313-.02z" fill="#1B2C49"/><path d="M52.91 57.688a4.76 4.76 0 0 1-4.623 5.668l-13.416-.149.354-4.344 11.487-1.725" fill="#FFDAC8"/><path d="M36.047 59.052c-.062.02-.835-.328-1.53-.648a5.002 5.002 0 0 0-2.355-.457l-3.199.163s.197.531.532.708c.334.177 2.34.234 2.34.234l-.102.104c-.42.433-.992.683-1.594.698h-.306a2.973 2.973 0 0 1-.668-.13l-.788-.32c-.239-.106-.49-.09-.595.15-.104.242-.025.518.627.846.363.177 1.713.65 1.713.65.009.192.035.383.08.57.058.197.587.393.587.393.138.291.295.573.471.843.062.07.542.221 1.054.365a4.55 4.55 0 0 0 2.52-.02l1.219-.364v-3.72" fill="#FFDAC8"/><path d="M32.144 58.764c-.07.098-.153.187-.246.264a3.94 3.94 0 0 1-.698.53c-.254.149-.53.255-.816.316-.116.031-.235.044-.355.04a4.665 4.665 0 0 0 1.137-.424c.246-.148.48-.316.7-.501.086-.083.179-.159.278-.225z" fill="#FBB19B"/><path d="m36.373 58.47-.325 4.912h12.636a4.72 4.72 0 0 0 4.32-2.806 4.726 4.726 0 0 0 .318-2.828 14.542 14.542 0 0 0-.815-2.725l-6.354 1.047.204.79-9.984 1.61z" fill="#418CCF"/><path d="M49.284 56.447a1.025 1.025 0 0 1-.128.028l-.37.068-1.365.227-4.492.708-4.496.689-1.364.198-.372.05c-.043.006-.087.01-.13.01a.623.623 0 0 1 .128-.03l.369-.065 1.36-.229 4.491-.708 4.506-.694 1.363-.199.372-.05a.597.597 0 0 1 .128-.003z" fill="#1B2C49"/><path d="M42.816 63.386c-.023 0 .076-.354.089-.933a4.027 4.027 0 0 0-.02-.471 4.429 4.429 0 0 0-.078-.532 4.946 4.946 0 0 0-.41-1.165 5.323 5.323 0 0 0-.691-1.027l-.178-.207c-.06-.068-.125-.126-.185-.186-.12-.123-.245-.22-.355-.314-.451-.354-.772-.531-.761-.547.078.031.154.07.225.115.088.046.173.098.255.154.094.067.21.133.322.229.128.095.25.198.365.308.062.06.131.117.193.177l.193.209c.277.316.515.665.708 1.04.188.377.326.777.411 1.19a3.968 3.968 0 0 1 .071 1.025 3.111 3.111 0 0 1-.035.395c-.01.098-.027.196-.052.292a1.477 1.477 0 0 1-.067.248zM50.51 63.016a2.654 2.654 0 0 1-.587-.07 3.029 3.029 0 0 1-.655-.231 2.602 2.602 0 0 1-.739-.55 2.352 2.352 0 0 1-.543-.974 2.62 2.62 0 0 1-.094-.62 2.408 2.408 0 0 1 .053-.66c.047-.23.136-.45.262-.65a1.47 1.47 0 0 1 .532-.507c.224-.13.482-.192.742-.177a.99.99 0 0 1 .692.355.972.972 0 0 1 .234.745.886.886 0 0 1-.436.624 2.075 2.075 0 0 1-1.395.19 2.913 2.913 0 0 1-2.464-2.79 2.094 2.094 0 0 1 .05-.588c-.017.195-.021.39-.014.586a3.01 3.01 0 0 0 .504 1.491 2.89 2.89 0 0 0 1.934 1.227 2 2 0 0 0 1.336-.177.797.797 0 0 0 .393-.558.926.926 0 0 0-.845-1c-.24-.016-.48.038-.689.157a1.595 1.595 0 0 0-.753 1.095c-.048.21-.066.426-.055.641.005.203.034.405.087.6.094.355.271.68.517.952.203.222.443.407.709.547.204.104.419.185.64.242.373.084.585.087.584.1z" fill="#FAFAFA"/><path d="M21.23 26.097a.019.019 0 0 0 .01-.005.019.019 0 0 0 .005-.01l-.015.015zm0 0a.02.02 0 0 1-.02-.008.02.02 0 0 1-.003-.01m.023.018-.023-.019m0 0a.02.02 0 0 1 .012-.017.02.02 0 0 1 .018.002.02.02 0 0 1 .008.02l-.038-.005zM19.165 26.078a.02.02 0 1 1-.039 0 .02.02 0 0 1 .039 0zM16.983 26.079a.02.02 0 0 1 .007-.017.02.02 0 0 1 .015-.004c.002 0 .005.001.007.003l.246-.427-.246.427a.02.02 0 0 1 .005.03l.376.329-.376-.33a.02.02 0 0 1-.01.006l.127.473-.127-.473a.02.02 0 0 1-.011 0 .02.02 0 0 1-.013-.017zM24.473 31.34a746.98 746.98 0 0 1-.393-1.43l.393 1.43zm0 0-.155-.063m-1.283.168.91.365-.045-.162-.728-.293-.137.09z" fill="#455A64" stroke="#000"/><g clip-path="url(#b)"><path d="M14.247 13.59a.923.923 0 0 1 .01-.886l1.645-2.96.104-.198-.52-.938a.4.4 0 0 0-.136-.156c-.114-.083-.25-.083-.374 0a.664.664 0 0 0-.136.156l-2.35 4.294c-.178.281 0 .698.27.698l1.487-.01c.01.01.01 0 0 0z" fill="#FF7D2F"/><path d="m19.99 12.902-2.382-4.283a.4.4 0 0 0-.135-.157c-.114-.083-.25-.083-.375 0a.664.664 0 0 0-.135.157l-.52.938.104.198 1.644 2.96c.156.26.166.604.01.885v.01H19.7c.292-.01.458-.427.292-.708z" fill="#418CCF"/><path d="m16.953 13.298-.708-1.282-.718 1.282c-.073.114 0 .302.115.302h1.186c.125 0 .197-.177.125-.302z" fill="#FF7D2F"/><path d="M30.062 9.973c.365 0 .687.115.958.323.083.063.145.053.187-.041l.01-.042c.052-.125.146-.26.27-.26h.24c.146 0 .24.166.24.312v3.095c0 .146-.084.24-.24.24h-.198c-.124 0-.218-.052-.27-.177l-.031-.063c-.042-.083-.104-.177-.177-.104-.25.208-.572.334-.957.334-1.155 0-1.904-.75-1.904-1.824 0-1.021.77-1.793 1.872-1.793zm.073 2.72a.885.885 0 0 0 .718-.375.294.294 0 0 0 .042-.156v-.73a.245.245 0 0 0-.052-.166.871.871 0 0 0-.708-.365c-.478 0-.843.386-.843.886 0 .49.344.906.843.906zM33.88 10.203v3.168c0 .146-.082.24-.238.24h-.604c-.145 0-.24-.084-.24-.24v-3.168c0-.146.084-.24.24-.24h.604c.156.01.239.094.239.24zM34.734 13.371v-3.095c0-.146.083-.24.24-.24h.28c.136 0 .219.063.27.178l.011.041c.042.104.125.136.23.073.384-.24.759-.365 1.268-.365.78 0 1.239.532 1.239 1.46v1.938c0 .146-.084.24-.24.24h-.603c-.146 0-.24-.084-.24-.24v-1.876c0-.334-.176-.573-.52-.573-.25 0-.52.125-.76.27a.226.226 0 0 0-.103.199v1.98c0 .146-.083.24-.24.24h-.593c-.156.01-.239-.074-.239-.23zM38.792 10.724v-.438c0-.146.083-.312.24-.312h.218c.052 0 .083-.032.083-.084v-.104c0-.844.468-1.396 1.27-1.396.218 0 .447.041.624.093.135.032.187.146.176.271l-.052.428c-.02.166-.114.218-.27.177a.856.856 0 0 0-.27-.042c-.25 0-.406.198-.406.448v.104c0 .053.03.084.083.084h.593c.146 0 .24.167.24.312v.438c0 .146-.084.24-.24.24h-.593c-.052 0-.083.031-.083.083v2.345c0 .146-.084.24-.24.24h-.603c-.146 0-.24-.084-.24-.24v-2.334c0-.053-.03-.084-.083-.084h-.218c-.136 0-.23-.083-.23-.229zm4.411-.521v3.095c0 .146-.083.302-.239.302h-.603c-.146 0-.24-.156-.24-.302v-3.095c0-.146.084-.24.24-.24h.603c.156.01.24.094.24.24zM44.046 13.371v-3.168c0-.146.084-.24.24-.24h.28c.136 0 .219.063.271.178l.01.041c.042.104.125.209.23.146.384-.24.759-.365 1.269-.365.78 0 1.238.532 1.238 1.46v1.938c0 .146-.083.24-.24.24h-.603c-.146 0-.24-.084-.24-.24v-1.876c0-.334-.176-.573-.52-.573-.25 0-.52.125-.759.27a.226.226 0 0 0-.104.199v1.98c0 .146-.083.24-.24.24h-.592c-.146.01-.24-.074-.24-.23zM21.27 13.37v-3.094c0-.156.094-.24.24-.24h.25c.135 0 .228.052.28.177l.032.063c.052.104.135.135.229.073.395-.24.78-.375 1.31-.375.396 0 .708.135.927.385.072.084.145.094.239.042.426-.271.832-.427 1.384-.427.8 0 1.269.541 1.269 1.49v1.917c0 .157-.094.24-.24.24h-.613c-.156 0-.24-.094-.24-.24v-1.855c0-.344-.176-.604-.54-.604-.271 0-.562.146-.802.302-.083.052-.114.094-.114.156V13.371c0 .156-.094.24-.24.24h-.613c-.156 0-.24-.094-.24-.24v-1.845c0-.354-.197-.594-.54-.594-.25 0-.542.136-.781.292-.073.052-.114.115-.114.209v1.948c0 .157-.094.24-.24.24H21.5c-.145-.01-.229-.104-.229-.25z" fill="#1B2C49"/></g></g><defs><clipPath id="b"><path fill="#fff" transform="translate(12 8.4)" d="M0 0h36v5.211H0z"/></clipPath></defs></svg>