<svg width="60" height="60" fill="none" xmlns="http://www.w3.org/2000/svg"><g clip-path="url(#a)"><path d="M10.575 8.684a1 1 0 0 1 1.001-1.018l8.159.01c.886.001 1.333 1.07.711 1.702l-8.016 8.147c-.621.632-1.697.202-1.712-.684l-.143-8.157zM48.386 7.702a1 1 0 0 1 .995 1.024l-.196 8.156c-.022.886-1.1 1.309-1.717.673l-7.963-8.2c-.617-.636-.163-1.701.723-1.696l8.158.043z" fill="#FF7D2F"/><path d="M59.869 22.615c-.023-.05-.063-.088-.092-.136a1.334 1.334 0 0 0-.257-.316c-.02-.017-.027-.043-.047-.058-.003-.002-3.336-2.584-7.655-5.975v-5.22a5.46 5.46 0 0 0-5.454-5.456H38.42c-1.943-1.586-3.628-2.99-4.755-3.988C32.58.507 31.29 0 30 0c-1.29 0-2.581.508-3.667 1.467-1.125.998-2.81 2.4-4.753 3.988h-7.944a5.46 5.46 0 0 0-5.454 5.454v5.221a1604.25 1604.25 0 0 1-7.655 5.975c-.02.015-.028.041-.047.058a1.34 1.34 0 0 0-.257.316c-.03.048-.069.085-.092.136-.08.174-.131.363-.131.567v31.363A5.46 5.46 0 0 0 5.455 60h49.09A5.46 5.46 0 0 0 60 54.545V23.182c0-.204-.051-.393-.131-.567zm-8.05-3.02a1882.48 1882.48 0 0 0 4.593 3.585c-1.065.828-2.687 2.09-4.594 3.58v-7.166zM46.363 8.181a2.73 2.73 0 0 1 2.727 2.727v5.317a9.511 9.511 0 0 1-8.044-8.044h5.317zM28.14 3.509c1.172-1.039 2.549-1.037 3.715-.001.614.543 1.387 1.203 2.277 1.947h-8.266c.889-.744 1.662-1.403 2.274-1.946zm-17.232 7.4a2.73 2.73 0 0 1 2.727-2.727h5.317a9.511 9.511 0 0 1-8.044 8.044v-5.317zm0 8.044A12.21 12.21 0 0 0 21.68 8.182h16.64a12.21 12.21 0 0 0 10.77 10.771v9.944c-6.1 4.792-13.754 10.88-17.231 13.958-.573.504-2.37 1.23-3.76 0-3.499-3.097-11.114-9.165-17.19-13.946v-9.956zm-2.727.642v7.173a1694.133 1694.133 0 0 0-4.595-3.586c1.068-.83 2.687-2.093 4.595-3.587zm49.09 34.95a2.73 2.73 0 0 1-2.727 2.728H5.455a2.73 2.73 0 0 1-2.728-2.728V25.967c5.687 4.426 18.84 14.746 23.566 18.93 1.084.96 2.349 1.467 3.665 1.467 1.323 0 2.639-.521 3.707-1.466 4.912-4.348 18.324-14.826 23.608-18.932v28.58z" fill="#1B2C49"/><path d="M31.364 31.409v-1.364c0-1.128.918-2.045 2.045-2.045 1.127 0 2.046.917 2.046 2.045v4.773a1.363 1.363 0 1 0 2.727 0v-2.727h1.364a1.363 1.363 0 1 0 0-2.728h-1.433c-.334-2.307-2.306-4.09-4.704-4.09a4.779 4.779 0 0 0-4.772 4.772v1.364a2.049 2.049 0 0 1-2.046 2.045 2.049 2.049 0 0 1-2.045-2.045v-4.773a1.363 1.363 0 1 0-2.728 0v2.727h-1.363a1.363 1.363 0 1 0 0 2.728h1.432c.334 2.307 2.306 4.09 4.704 4.09a4.778 4.778 0 0 0 4.773-4.772z" fill="#FF7D2F"/></g><defs><clipPath id="a"><path fill="#fff" d="M0 0h60v60H0z"/></clipPath></defs></svg>