<svg width="60" height="60" fill="none" xmlns="http://www.w3.org/2000/svg"><path d="M55 7.5H5c-2.756 0-5 2.242-5 5v35c0 2.758 2.244 5 5 5h50c2.756 0 5-2.242 5-5v-35c0-2.758-2.244-5-5-5zm2.5 40c0 1.378-1.12 2.5-2.5 2.5H5c-1.38 0-2.5-1.122-2.5-2.5v-35C2.5 11.122 3.62 10 5 10h50c1.38 0 2.5 1.122 2.5 2.5v35z" fill="#1B2C49"/><path d="M53.75 20a6.256 6.256 0 0 1-6.25-6.25c0-.69-.559-1.25-1.25-1.25h-32.5c-.691 0-1.25.56-1.25 1.25A6.257 6.257 0 0 1 6.25 20C5.559 20 5 20.56 5 21.25v17.5c0 .69.559 1.25 1.25 1.25a6.257 6.257 0 0 1 6.25 6.25c0 .69.559 1.25 1.25 1.25h32.5c.69 0 1.25-.56 1.25-1.25A6.257 6.257 0 0 1 53.75 40c.69 0 1.25-.56 1.25-1.25v-17.5c0-.69-.559-1.25-1.25-1.25zM52.5 37.589A8.773 8.773 0 0 0 45.088 45H14.912A8.774 8.774 0 0 0 7.5 37.589V22.411A8.773 8.773 0 0 0 14.912 15h30.176a8.774 8.774 0 0 0 7.412 7.41V37.59z" fill="#1B2C49"/><path d="M30 17.5c-6.892 0-12.5 5.608-12.5 12.5S23.108 42.5 30 42.5 42.5 36.892 42.5 30 36.892 17.5 30 17.5zM30 40c-5.515 0-10-4.486-10-10s4.485-10 10-10 10 4.486 10 10-4.485 10-10 10z" fill="#1B2C49"/></svg>