<svg width="60" height="60" fill="none" xmlns="http://www.w3.org/2000/svg"><path d="M47.499 39.62c-.045-10.498-1.985-18.188-9.873-20.967.337-1.41 1.308-3.633 2.195-5.651C41.199 9.86 42.5 6.894 42.5 5c0-2.307-1.31-5-5-5-2.744 0-3.377 1.49-3.715 2.291a.848.848 0 0 0-.072.208c-.135-.005-.22-.061-.63-.528C32.387 1.187 31.338 0 28.75 0c-3.355 0-5.169 3.333-5.863 4.987-1.184.031-3.16.263-4.357 1.377A3.178 3.178 0 0 0 17.5 8.75c0 1.656 1.26 3.67 2.596 5.803.89 1.42 1.844 2.97 2.212 4.124-7.832 2.8-9.763 10.475-9.807 20.944C11.5 41.147 7.5 47.554 7.5 52.5 7.5 59.026 21.597 60 30 60s22.5-.974 22.5-7.5c0-4.945-3.999-11.352-5.001-12.88zM22.216 13.226C21.228 11.65 20 9.688 20 8.75c0-.24.067-.402.23-.554.707-.658 2.622-.757 3.431-.7.605.064 1.116-.326 1.285-.882.013-.042 1.331-4.114 3.804-4.114 1.462 0 1.902.497 2.459 1.127C31.72 4.207 32.422 5 33.75 5c1.603 0 2.099-1.17 2.337-1.733.236-.558.324-.767 1.413-.767C39.567 2.5 40 3.86 40 5c0 1.37-1.312 4.36-2.47 6.997-1.01 2.304-1.915 4.371-2.315 5.988-1.55-.311-3.271-.485-5.215-.485-1.968 0-3.706.18-5.271.499-.455-1.476-1.46-3.09-2.513-4.773zM30 57.5c-11.776 0-20-2.056-20-5 0-4.756 4.734-11.724 4.781-11.793A1.26 1.26 0 0 0 15 40c0-14.767 3.926-20 15-20s15 5.233 15 20c0 .253.077.5.219.707.048.07 4.781 7.027 4.781 11.793 0 2.944-8.224 5-20 5z" fill="#1B2C49"/><path d="M30 35h2.5a1.25 1.25 0 1 0 0-2.5h-1.25a1.25 1.25 0 1 0-2.5 0v.23c-1.452.518-2.5 1.893-2.5 3.52A3.754 3.754 0 0 0 30 40a1.25 1.25 0 0 1 0 2.5h-2.5a1.25 1.25 0 1 0 0 2.5h1.25a1.25 1.25 0 1 0 2.5 0v-.23c1.452-.518 2.5-1.892 2.5-3.52A3.754 3.754 0 0 0 30 37.5a1.25 1.25 0 0 1 0-2.5z" fill="#1B2C49"/></svg>