<svg width="60" height="60" fill="none" xmlns="http://www.w3.org/2000/svg"><g clip-path="url(#a)" fill="#1B2C49"><path d="M18.75 20h-7.5c-.69 0-1.25.56-1.25 1.25v10c0 .69.56 1.25 1.25 1.25h7.5c.691 0 1.25-.56 1.25-1.25v-10c0-.69-.559-1.25-1.25-1.25zM17.5 30h-5v-7.5h5V30zM33.75 12.5h-7.5c-.69 0-1.25.56-1.25 1.25v17.5c0 .69.56 1.25 1.25 1.25h7.5c.691 0 1.25-.56 1.25-1.25v-17.5c0-.69-.559-1.25-1.25-1.25zM32.5 30h-5V15h5v15zM48.75 7.5h-7.5c-.69 0-1.25.56-1.25 1.25v22.5c0 .691.56 1.25 1.25 1.25h7.5c.691 0 1.25-.559 1.25-1.25V8.75c0-.69-.559-1.25-1.25-1.25zM47.5 30h-5V10h5v20z"/><path d="M55 2.5H5c-2.758 0-5 2.242-5 5v35c0 2.758 2.242 5 5 5h17.503c-.053 1.998-.436 5.192-1.862 6.692-.524.552-1.125.808-1.89.808a1.25 1.25 0 1 0 0 2.5h22.5a1.25 1.25 0 1 0 0-2.5c-.766 0-1.368-.256-1.892-.808-1.425-1.5-1.808-4.694-1.862-6.692H55c2.758 0 5-2.242 5-5v-35c0-2.758-2.242-5-5-5zM23.171 55c1.51-2.314 1.802-5.647 1.84-7.5h9.978c.038 1.853.33 5.186 1.84 7.5H23.17zM57.5 42.5c0 1.378-1.122 2.5-2.5 2.5H5a2.503 2.503 0 0 1-2.5-2.5v-5h55v5zm0-7.5h-55V7.5C2.5 6.122 3.622 5 5 5h50c1.378 0 2.5 1.122 2.5 2.5V35z"/><path d="M30 43.75a2.5 2.5 0 1 0 0-5 2.5 2.5 0 0 0 0 5z"/></g><defs><clipPath id="a"><path fill="#fff" d="M0 0h60v60H0z"/></clipPath></defs></svg>