<svg width="60" height="60" fill="none" xmlns="http://www.w3.org/2000/svg"><g clip-path="url(#a)"><path d="M58.653 17.759a3.23 3.23 0 0 1-3.638 5.337l-3.107-2.071V44.87a3.788 3.788 0 0 1 1.762 1.962 3.86 3.86 0 0 1-.061 2.994 3.797 3.797 0 0 1-2.131 2.032L35.78 57.842a17.691 17.691 0 0 1-13.005-.143l-7.449-3.093v.237c0 .617-.5 1.116-1.116 1.116H6.08a1.116 1.116 0 0 1-1.11-1.016H.899v-2.232H4.965V42.75H.9v-2.232h4.069c.05-.57.53-1.016 1.112-1.016h8.129c.583 0 1.061.447 1.112 1.016h1.837V21.025l-3.107 2.07v.001a2.803 2.803 0 0 1-.056.037l-.055-.084a3.13 3.13 0 0 1-3.418-5.244l48.13-.046zm0 0a3.517 3.517 0 0 0-.055-.037l-6.69-4.46V6.069c0-.617-.5-1.116-1.116-1.116H45.71c-.617 0-1.116.5-1.116 1.116v2.318l-9.442-6.298a1.116 1.116 0 0 0-1.24 0L10.47 17.722l48.184.037zm-7.086 31.166c-.17.39-.489.695-.885.847l-15.698 5.985a15.447 15.447 0 0 1-11.36-.123l-8.298-3.447V42.75h2.476c3.354.004 6.662.785 9.663 2.282a7.314 7.314 0 0 0 3.25.767h7.882a1.424 1.424 0 0 1 .321 2.81 3.758 3.758 0 0 0-.195.024 1.505 1.505 0 0 1-.188.014H26.304v2.233H38.597c.019 0 .035-.003.044-.004h.002a.111.111 0 0 1 .016-.002h.001a6.387 6.387 0 0 0 2.383-.504l8.496-3.608c.38-.162.81-.162 1.189 0 .396.169.706.49.86.891v.002c.164.41.156.867-.021 1.27zm-2.9-4.22-6.429 2.73c.008-.069.013-.138.016-.208v-.005a3.656 3.656 0 0 0-3.656-3.656h-7.882a5.082 5.082 0 0 1-2.254-.532 23.96 23.96 0 0 0-9.071-2.46v-21.04L34.533 9.44l15.142 10.095V44.45a3.774 3.774 0 0 0-1.007.254h-.002zm8.69-23.463-.08.043a.988.988 0 0 1-1.023-.049L35.152 7.172a1.116 1.116 0 0 0-1.24 0l-21.1 14.067a.998.998 0 0 1-1.551-.831c-.001-.334.166-.646.444-.831L34.533 4.358l22.828 15.22a.997.997 0 0 1 .444.832.98.98 0 0 1-.448.831zM13.094 53.727H7.197V41.733h5.897v11.994zM46.827 7.184h2.849v4.59l-2.849-1.898V7.184z" fill="#1B2C49" stroke="#1B2C49" stroke-width=".2"/><path d="M11.262 49.763v-.1H9.029v2.232h2.233v-2.132zM34.533 18.162c-5.665.006-10.255 4.597-10.261 10.262 0 5.667 4.594 10.261 10.261 10.261 5.667 0 10.262-4.594 10.262-10.261 0-5.667-4.595-10.262-10.262-10.262zm0 18.291a8.03 8.03 0 0 1 0-16.059 8.038 8.038 0 0 1 8.03 8.03 8.03 8.03 0 0 1-8.03 8.029z" fill="#1B2C49" stroke="#1B2C49" stroke-width=".2"/><path d="M34.413 26.033h1.965c.544 0 .983-.366.983-.819 0-.453-.44-.819-.983-.819h-.983c0-.453-.439-.819-.982-.819-.543 0-.983.366-.983.82v.15c-1.141.34-1.965 1.24-1.965 2.306 0 1.355 1.322 2.457 2.948 2.457.542 0 .983.367.983.819 0 .451-.44.819-.983.819h-1.966c-.543 0-.982.366-.982.819 0 .452.44.819.982.819h.983c0 .452.44.819.983.819.543 0 .983-.367.983-.82v-.15c1.141-.34 1.965-1.24 1.965-2.306 0-1.355-1.322-2.457-2.948-2.457-.542 0-.983-.367-.983-.82 0-.45.44-.818.983-.818z" fill="#FF7D2F"/></g><defs><clipPath id="a"><path fill="#fff" d="M0 0h60v60H0z"/></clipPath></defs></svg>