<svg width="60" height="60" fill="none" xmlns="http://www.w3.org/2000/svg"><g clip-path="url(#a)" fill="#1B2C49"><path d="M30 13.636a6.826 6.826 0 0 0 6.818-6.818A6.826 6.826 0 0 0 30 0a6.826 6.826 0 0 0-6.818 6.818A6.826 6.826 0 0 0 30 13.636zm0-10.909a4.095 4.095 0 0 1 4.091 4.091A4.095 4.095 0 0 1 30 10.91a4.095 4.095 0 0 1-4.09-4.09A4.095 4.095 0 0 1 30 2.726zM20.649 27.273h18.702c1.611 0 2.922-1.415 2.922-3.154v-.873c0-2.279-1.128-4.36-2.946-5.432C37.15 16.53 33.765 15 30 15c-3.765 0-7.15 1.53-9.327 2.814-1.818 1.072-2.946 3.153-2.946 5.432v.873c0 1.74 1.31 3.154 2.922 3.154zm-.195-4.027c0-1.299.63-2.508 1.604-3.083 1.884-1.11 4.793-2.436 7.942-2.436 3.15 0 6.058 1.325 7.942 2.436.974.575 1.603 1.784 1.603 3.083v.873c0 .284-.16.426-.194.426H20.65c-.033 0-.195-.142-.195-.426v-.873zM12.273 46.364a6.826 6.826 0 0 0 6.818-6.818 6.826 6.826 0 0 0-6.818-6.819 6.826 6.826 0 0 0-6.818 6.819 6.826 6.826 0 0 0 6.818 6.818zm0-10.91a4.095 4.095 0 0 1 4.09 4.092 4.095 4.095 0 0 1-4.09 4.09 4.095 4.095 0 0 1-4.091-4.09 4.095 4.095 0 0 1 4.09-4.091zM21.6 50.541c-2.178-1.283-5.563-2.813-9.327-2.813-3.765 0-7.15 1.53-9.327 2.813C1.128 51.613 0 53.695 0 55.973v.874C0 58.586 1.31 60 2.922 60h18.702c1.611 0 2.922-1.414 2.922-3.153v-.874c0-2.278-1.128-4.36-2.946-5.432zm.218 6.306c0 .283-.16.426-.194.426H2.922c-.034 0-.195-.143-.195-.426v-.874c0-1.298.63-2.507 1.604-3.083 1.884-1.11 4.792-2.435 7.942-2.435 3.15 0 6.058 1.325 7.942 2.435.973.576 1.603 1.785 1.603 3.083v.874zM47.727 46.364a6.826 6.826 0 0 0 6.819-6.818 6.826 6.826 0 0 0-6.819-6.819 6.826 6.826 0 0 0-6.818 6.819 6.826 6.826 0 0 0 6.818 6.818zm0-10.91a4.095 4.095 0 0 1 4.091 4.092 4.095 4.095 0 0 1-4.09 4.09 4.095 4.095 0 0 1-4.092-4.09 4.095 4.095 0 0 1 4.091-4.091zM57.054 50.541c-2.177-1.283-5.562-2.813-9.327-2.813-3.764 0-7.15 1.53-9.327 2.813-1.817 1.072-2.945 3.154-2.945 5.432v.874c0 1.739 1.31 3.153 2.921 3.153H57.08C58.688 60 60 58.586 60 56.847v-.874c0-2.278-1.128-4.36-2.946-5.432zm.219 6.306c0 .283-.161.426-.195.426H38.376c-.033 0-.194-.143-.194-.426v-.874c0-1.298.63-2.507 1.603-3.083 1.885-1.11 4.793-2.435 7.942-2.435 3.15 0 6.058 1.325 7.943 2.435.973.576 1.603 1.785 1.603 3.083v.874zM36.817 46.364a1.366 1.366 0 0 0 .854-2.429l-6.307-5.046v-7.525a1.363 1.363 0 1 0-2.728 0v7.526l-6.306 5.044a1.366 1.366 0 0 0-.213 1.918 1.366 1.366 0 0 0 1.917.213L30 41.293l5.966 4.772c.252.201.553.299.85.299z"/></g><defs><clipPath id="a"><path fill="#fff" d="M0 0h60v60H0z"/></clipPath></defs></svg>