<svg width="60" height="60" fill="none" xmlns="http://www.w3.org/2000/svg"><path d="M58.75 7.5h-50c-.69 0-1.25.56-1.25 1.25V15H1.25C.56 15 0 15.56 0 16.25V47.5c0 2.758 2.244 5 5 5h50c2.756 0 5-2.242 5-5V8.75c0-.69-.56-1.25-1.25-1.25zM7.5 47.5C7.5 48.878 6.38 50 5 50s-2.5-1.122-2.5-2.5v-30h5v30zm50 0c0 1.378-1.12 2.5-2.5 2.5H9.33c.427-.736.671-1.59.671-2.5V10h47.5v37.5z" fill="#1B2C49"/><path d="M13.75 27.5c.691 0 1.25-.56 1.25-1.25V17.5h1.25c.689 0 1.25.56 1.25 1.25v7.5a1.25 1.25 0 1 0 2.5 0v-7.5A3.754 3.754 0 0 0 16.25 15h-2.5c-.69 0-1.25.56-1.25 1.25v10c0 .69.56 1.25 1.25 1.25zM23.75 27.5h5a1.25 1.25 0 1 0 0-2.5H25v-2.5h2.5a1.25 1.25 0 1 0 0-2.5H25v-2.5h3.75a1.25 1.25 0 1 0 0-2.5h-5c-.69 0-1.25.56-1.25 1.25v10c0 .691.56 1.25 1.25 1.25zM35.21 26.943a1.25 1.25 0 0 0 2.08 0l1.46-2.19 1.46 2.19a1.25 1.25 0 0 0 2.08 0l2.5-3.75c.136-.205.21-.446.21-.693v-6.25a1.25 1.25 0 1 0-2.5 0v5.872l-1.25 1.875L40 22.122V16.25a1.25 1.25 0 1 0-2.5 0v5.872l-1.25 1.875L35 22.122V16.25a1.25 1.25 0 1 0-2.5 0v6.25c0 .247.073.488.21.693l2.5 3.75zM51.25 25h-2.5a1.25 1.25 0 1 0 0 2.5h2.5A3.754 3.754 0 0 0 55 23.75 3.754 3.754 0 0 0 51.25 20c-.688 0-1.25-.56-1.25-1.25s.562-1.25 1.25-1.25h2.5a1.25 1.25 0 1 0 0-2.5h-2.5a3.754 3.754 0 0 0-3.75 3.75 3.754 3.754 0 0 0 3.75 3.75c.688 0 1.25.56 1.25 1.25S51.938 25 51.25 25zM13.75 45h17.5c.69 0 1.25-.56 1.25-1.25v-12.5c0-.69-.56-1.25-1.25-1.25h-17.5c-.691 0-1.25.56-1.25 1.25v12.5c0 .69.56 1.25 1.25 1.25zM15 32.5h15v10H15v-10zM53.75 32.5h-17.5a1.25 1.25 0 1 0 0 2.5h17.5a1.25 1.25 0 1 0 0-2.5zM53.75 37.5h-17.5a1.25 1.25 0 1 0 0 2.5h17.5a1.25 1.25 0 1 0 0-2.5zM53.75 42.5h-17.5a1.25 1.25 0 1 0 0 2.5h17.5a1.25 1.25 0 1 0 0-2.5z" fill="#1B2C49"/></svg>