<svg width="60" height="60" fill="none" xmlns="http://www.w3.org/2000/svg"><path d="M39.153 30c-5.695 6.915 4.067 16.271 9.152 21.356 10.17-10.17 11.58-14.553 9.661-19.83-2.034-5.594-11.695-10.17-18.813-1.526z" fill="#FF7D2F"/><path fill-rule="evenodd" clip-rule="evenodd" d="M43.729 48.441v8.987h14.985a1.286 1.286 0 0 1 0 2.572H1.286C.576 60 0 59.424 0 58.714V28.086c0-.71.576-1.286 1.286-1.286h10.2V8.943c0-.71.575-1.286 1.286-1.286h5.892v-6.37C18.664.575 19.24 0 19.95 0h15.314c.71 0 1.286.576 1.286 1.286v6.371h5.893c.71 0 1.286.576 1.286 1.286v15.835l.672-.228C52.017 21.967 60 27.649 60 35.743c0 1.255-.424 2.682-1.152 4.195-.726 1.507-1.738 3.066-2.878 4.576-2.28 3.018-5.036 5.795-6.923 7.498a1.286 1.286 0 0 1-1.723 0 59.723 59.723 0 0 1-2.72-2.664l-.875-.907zM8.943 34.457h2.543v-5.085H2.572v28.056h8.913v-5.085H8.944a1.286 1.286 0 0 1 0-2.572h2.543v-5.085H8.942a1.286 1.286 0 1 1 0-2.572h2.543v-5.085H8.942a1.286 1.286 0 1 1 0-2.572zM33.978 2.572H21.236v5.085h12.742V2.572zm-19.92 54.856h27.099V45.466l-.112-.14c-3.162-3.946-4.674-7.156-4.674-9.583a11.8 11.8 0 0 1 4.589-9.34l.197-.153V10.23h-27.1v47.198zm33.773-8.465.354.343.354-.343c1.91-1.852 4.114-4.265 5.845-6.638.865-1.187 1.62-2.373 2.16-3.481.536-1.099.884-2.166.884-3.101 0-5.097-4.146-9.243-9.243-9.243-5.096 0-9.242 4.146-9.242 9.243 0 1.043.423 2.233 1.045 3.431.628 1.21 1.487 2.484 2.421 3.711 1.868 2.455 4.07 4.767 5.422 6.078z" fill="#1B2C49"/><path fill-rule="evenodd" clip-rule="evenodd" d="M20.429 15.313H23.3a1.286 1.286 0 1 1 0 2.573h-2.871a1.286 1.286 0 0 1 0-2.572zM34.786 17.886h-2.872a1.286 1.286 0 0 1 0-2.572h2.872a1.286 1.286 0 1 1 0 2.572zM20.429 22.971H23.3a1.286 1.286 0 1 1 0 2.573H20.43a1.286 1.286 0 0 1 0-2.573zM34.786 22.971a1.286 1.286 0 1 1 0 2.573h-2.872a1.286 1.286 0 0 1 0-2.573h2.872zM20.429 30.628H23.3a1.286 1.286 0 0 1 0 2.573h-2.871a1.286 1.286 0 0 1 0-2.573zM31.917 30.628h2.871a1.286 1.286 0 0 1 0 2.573h-2.871a1.286 1.286 0 0 1 0-2.573zM20.429 38.285H23.3a1.286 1.286 0 1 1 0 2.572H20.43a1.286 1.286 0 1 1 0-2.572zM31.917 38.285h2.871a1.286 1.286 0 1 1 0 2.572h-2.871a1.286 1.286 0 0 1 0-2.572zM20.429 45.942H23.3a1.286 1.286 0 0 1 0 2.572H20.43a1.286 1.286 0 0 1 0-2.572zM31.917 45.942h2.871a1.286 1.286 0 0 1 0 2.572h-2.871a1.286 1.286 0 0 1 0-2.572zM51.057 34.456a1.286 1.286 0 0 1 0 2.573h-5.743a1.286 1.286 0 1 1 0-2.573h5.743z" fill="#1B2C49"/></svg>