<svg width="60" height="60" fill="none" xmlns="http://www.w3.org/2000/svg"><path d="M59.735 40.475c-.037-.047-3.627-4.667-4.794-8.36-.277-.879-.622-2.117-1.019-3.535-1.898-6.79-3.624-12.565-5.538-14.48-2.227-2.228-11.301-3.66-14.029-4.047a4.998 4.998 0 0 0-.809-1.097A4.97 4.97 0 0 0 30.02 7.5h-.025c-2.95.013-7.037.022-9.976.027h-.006a4.956 4.956 0 0 0-3.527 1.462 4.97 4.97 0 0 0-1.468 3.54v9.958a5.006 5.006 0 0 0 5 5.002h5.725c.956 1.894 1.633 3.756 1.763 5.12.033.351.048.683.064 1.01.084 1.807.17 3.674 2.67 7.11 1.34 1.847 3.091 2.91 4.945 4.033 2.548 1.546 5.184 3.145 7.483 7.115a1.25 1.25 0 0 0 1.082.623c11.895 0 16.125-10.7 16.167-10.808a1.25 1.25 0 0 0-.182-1.217zM35.018 20.603l3.943 1.578c.194.68.523 1.778.852 2.635a9.968 9.968 0 0 0-.42.884c-.228.517-.476 1.082-.822 1.522-1.244-.887-2.507-2.761-3.553-4.757v-1.862zm-15 4.397a2.503 2.503 0 0 1-2.5-2.5v-9.954c0-.668.26-1.297.734-1.77a2.474 2.474 0 0 1 1.763-.73h.002c2.957.004 7.038-.013 9.99-.026h.013c.665 0 1.29.257 1.762.727.475.473.736 1.102.736 1.773v4.996c-1.557-2.295-4.198-5.022-6.593-5.51-1.195-.246-2.254.055-3.059.86-3.01 3.01-1.286 8.127 1.105 11.593.12.175.219.363.335.541h-4.288zm24.43 24.985c-2.542-4.068-5.537-5.883-7.966-7.357-1.704-1.032-3.175-1.925-4.221-3.363-2.058-2.83-2.118-4.12-2.194-5.753-.017-.367-.035-.74-.073-1.13-.24-2.532-1.797-6.2-3.965-9.341-1.927-2.794-3.185-6.616-1.395-8.407.146-.146.342-.264.792-.178 1.96.399 5.12 4.041 5.914 6.012.957 2.369 3.548 8.032 6.93 9.437.386.156.823.117 1.173-.115 1.25-.832 1.82-2.135 2.238-3.086.12-.273.284-.65.28-.676a1.25 1.25 0 0 0 .407-1.587c-.38-.76-.967-2.796-1.16-3.516a1.251 1.251 0 0 0-.744-.836l-5.446-2.178V12.7c4.54.704 10.422 2.008 11.598 3.183 1.607 1.606 3.667 8.976 4.899 13.379.405 1.45.76 2.716 1.044 3.613 1.047 3.32 3.676 7.085 4.747 8.535-.985 1.997-4.707 8.235-12.858 8.574zM7.83 9.262a1.245 1.245 0 0 0-1.581.79 23.692 23.692 0 0 0-1.23 7.507c0 2.531.413 5.057 1.23 7.506a1.25 1.25 0 1 0 2.37-.791 21.229 21.229 0 0 1-1.1-6.715c0-2.265.37-4.524 1.1-6.717a1.25 1.25 0 0 0-.79-1.58zM12.493 11.315a1.249 1.249 0 0 0-1.581.79 17.19 17.19 0 0 0-.894 5.453c0 1.844.3 3.678.894 5.453a1.25 1.25 0 1 0 2.37-.79 14.72 14.72 0 0 1-.764-4.663c0-1.573.258-3.142.764-4.663a1.25 1.25 0 0 0-.79-1.58zM3.07 7.68a1.247 1.247 0 0 0-1.58.79A28.664 28.664 0 0 0 0 17.56c0 3.067.5 6.124 1.49 9.087a1.25 1.25 0 1 0 2.37-.791 26.199 26.199 0 0 1-1.36-8.296 26.2 26.2 0 0 1 1.36-8.297 1.25 1.25 0 0 0-.79-1.581z" fill="#1B2C49"/></svg>