<svg width="60" height="60" fill="none" xmlns="http://www.w3.org/2000/svg"><g clip-path="url(#clip0)"><path d="M53.654 2.885H6.346A6.353 6.353 0 000 9.23v30c0 3.5 2.847 6.346 6.346 6.346H21.67l-1.846 9.23h-5.977a1.154 1.154 0 100 2.308h32.308a1.154 1.154 0 100-2.307h-5.977l-1.846-9.23h15.323c3.499 0 6.346-2.848 6.346-6.347v-30c0-3.5-2.847-6.346-6.346-6.346zM22.177 54.808l1.846-9.23h11.954l1.846 9.23H22.177zM57.692 39.23a4.043 4.043 0 01-4.038 4.038H6.346a4.043 4.043 0 01-4.038-4.038v-2.885h55.384v2.885zm0-5.192H2.308V31.73H9.23a1.154 1.154 0 000-2.308H2.308V9.231a4.043 4.043 0 014.038-4.039h47.308a4.043 4.043 0 014.038 4.039v24.808z" fill="#1E2C47"/><path d="M30 37.5a2.31 2.31 0 00-2.309 2.308A2.31 2.31 0 0030 42.115a2.31 2.31 0 002.308-2.307 2.31 2.31 0 00-2.308-2.308z" fill="#1E2C47"/><path d="M39.447 24.983L37 22.535l2.04-2.04a1.154 1.154 0 00-.557-1.94l-10.607-2.447a1.155 1.155 0 00-1.384 1.383l2.448 10.607a1.154 1.154 0 001.94.556l2.04-2.04 2.448 2.448a1.15 1.15 0 001.632 0l2.447-2.447c.45-.45.45-1.181 0-1.632z" fill="#FF7D2F"/><path d="M39.447 24.983L37 22.535l2.04-2.04a1.154 1.154 0 00-.557-1.94l-10.607-2.447a1.155 1.155 0 00-1.384 1.383l2.448 10.607a1.154 1.154 0 001.94.556l2.04-2.04 2.448 2.448a1.15 1.15 0 001.632 0l2.447-2.447c.45-.45.45-1.181 0-1.632zm-3.263 1.632l-2.448-2.448a1.15 1.15 0 00-1.632 0l-1.383 1.384-1.564-6.78 6.779 1.565-1.384 1.383c-.45.45-.45 1.182 0 1.632L37 25.8l-.816.816zM25.25 13.234l-1.153-1.154a1.154 1.154 0 10-1.632 1.632l1.154 1.154a1.15 1.15 0 001.632 0c.45-.45.45-1.181 0-1.632zM23 16.357H21.37a1.154 1.154 0 100 2.308H23a1.154 1.154 0 100-2.308zM25.25 20.156a1.154 1.154 0 00-1.631 0l-1.154 1.154a1.154 1.154 0 001.632 1.632l1.153-1.154c.451-.45.451-1.181 0-1.632zM33.327 12.08a1.154 1.154 0 00-1.632 0l-1.154 1.154a1.154 1.154 0 001.632 1.632l1.154-1.154c.45-.45.45-1.181 0-1.632zM27.896 9.83c-.637 0-1.154.517-1.154 1.154v1.632a1.154 1.154 0 102.308 0v-1.632c0-.637-.517-1.154-1.154-1.154zM13.824 30.352a1.119 1.119 0 00-.172-.415 1.097 1.097 0 00-.319-.319 1.147 1.147 0 00-.415-.172 1.136 1.136 0 00-.666.066 1.126 1.126 0 00-.518.425 1.168 1.168 0 00-.195.64 1.136 1.136 0 00.089.44 1.124 1.124 0 00.25.376 1.107 1.107 0 00.374.25 1.175 1.175 0 00.44.088 1.135 1.135 0 00.641-.195 1.1 1.1 0 00.319-.319 1.141 1.141 0 00.172-.415 1.136 1.136 0 000-.45z" fill="#1E2C47"/><path fill-rule="evenodd" clip-rule="evenodd" d="M1.139.553a1 1 0 000 1.414l53.74 53.74a1 1 0 001.414-1.414L2.553.553a1 1 0 00-1.414 0z" fill="#1E2C47"/></g><defs><clipPath id="clip0"><path fill="#fff" d="M0 0h60v60H0z"/></clipPath></defs></svg>