<svg width="60" height="60" fill="none" xmlns="http://www.w3.org/2000/svg"><g clip-path="url(#a)" fill="#1B2C49"><path d="M12.5 22.5A2.503 2.503 0 0 0 10 25c0 1.378 1.122 2.5 2.5 2.5S15 26.378 15 25s-1.122-2.5-2.5-2.5zM39.14 16.312c-5.232-1.716-13.047-1.716-18.28 0a1.25 1.25 0 0 0-.798 1.577 1.246 1.246 0 0 0 1.577.799c4.737-1.555 11.985-1.555 16.722 0a1.25 1.25 0 1 0 .779-2.376z"/><path d="M58.75 17.5a8.255 8.255 0 0 1-1.629-.161c.238-1.077.379-2.272.379-3.589A3.754 3.754 0 0 0 53.75 10 3.754 3.754 0 0 0 50 13.75c0 2.054 1.644 3.993 4.003 5.151a10.83 10.83 0 0 1-1.235 2.147C48.84 14.544 40.123 10 30 10c-5.839 0-11.454 1.526-15.93 4.314A8.681 8.681 0 0 0 8.75 12.5c-.691 0-1.25.56-1.25 1.25 0 1.725.528 3.413 1.504 4.855C7.328 20.562 6.144 22.74 5.528 25H5c-2.758 0-5 2.242-5 5a7.963 7.963 0 0 0 3.77 6.794l8.73 5.439v6.517c0 .691.56 1.25 1.25 1.25h5a1.25 1.25 0 0 0 1.118-.69l1.48-2.96c5.532 1.526 11.772 1.526 17.304 0l1.48 2.96a1.25 1.25 0 0 0 1.118.69h5c.691 0 1.25-.559 1.25-1.25v-6.619c4.776-3.513 7.5-8.358 7.5-13.381 0-1.821-.365-3.577-1.014-5.244a13.202 13.202 0 0 0 2.383-3.773c.766.173 1.567.267 2.381.267a1.25 1.25 0 1 0 0-2.5zM45.538 40.46A1.252 1.252 0 0 0 45 41.488V47.5h-2.977l-1.603-3.204a1.244 1.244 0 0 0-1.493-.634c-5.652 1.775-12.202 1.775-17.854 0a1.25 1.25 0 0 0-1.493.634L17.977 47.5H15v-5.96c0-.433-.222-.833-.588-1.062l-9.318-5.805A5.475 5.475 0 0 1 2.5 30c0-1.378 1.122-2.5 2.5-2.5h1.52a1.25 1.25 0 0 0 1.227-1.01c.48-2.463 1.79-4.868 3.787-6.955a1.25 1.25 0 0 0 .037-1.688 6.254 6.254 0 0 1-1.406-2.685 6.24 6.24 0 0 1 2.928 1.608 1.244 1.244 0 0 0 1.573.137C18.856 14.065 24.3 12.5 30 12.5c12.406 0 22.5 7.29 22.5 16.25 0 4.44-2.472 8.6-6.962 11.71zm9.21-23.996c-1.39-.79-2.248-1.88-2.248-2.714a1.25 1.25 0 0 1 2.5 0 14.2 14.2 0 0 1-.253 2.714z"/></g><defs><clipPath id="a"><path fill="#fff" d="M0 0h60v60H0z"/></clipPath></defs></svg>