<svg width="60" height="60" fill="none" xmlns="http://www.w3.org/2000/svg"><g clip-path="url(#a)" fill="#1B2C49"><path d="M12.5 32.5A2.503 2.503 0 0 0 10 35c0 1.378 1.122 2.5 2.5 2.5S15 36.378 15 35s-1.122-2.5-2.5-2.5zM39.14 26.312c-5.232-1.716-13.047-1.716-18.28 0a1.25 1.25 0 1 0 .78 2.376c4.736-1.555 11.984-1.555 16.72 0a1.25 1.25 0 1 0 .779-2.376z"/><path d="M58.75 27.5a8.255 8.255 0 0 1-1.629-.161c.238-1.077.379-2.272.379-3.589A3.754 3.754 0 0 0 53.75 20 3.754 3.754 0 0 0 50 23.75c0 2.055 1.644 3.993 4.003 5.151-.361.84-.791 1.543-1.235 2.147C49.719 26 43.782 22.149 36.54 20.673a8.75 8.75 0 0 0 2.573-3.21c4.653-.195 8.387-4.013 8.387-8.713C47.5 3.926 43.574 0 38.75 0c-3.493 0-6.492 2.072-7.894 5.04-4.638.21-8.356 4.02-8.356 8.71 0 2.623 1.184 4.953 3.02 6.558-4.194.573-8.135 1.941-11.45 4.006A8.681 8.681 0 0 0 8.75 22.5c-.69 0-1.25.56-1.25 1.25a8.67 8.67 0 0 0 1.504 4.855C7.328 30.562 6.144 32.74 5.529 35H5c-2.758 0-5 2.242-5 5a7.963 7.963 0 0 0 3.77 6.794l8.73 5.439v6.517c0 .69.56 1.25 1.25 1.25h5a1.25 1.25 0 0 0 1.118-.69l1.48-2.96c5.532 1.526 11.772 1.526 17.304 0l1.48 2.96c.212.423.644.69 1.118.69h5c.691 0 1.25-.56 1.25-1.25v-6.619c4.776-3.513 7.5-8.358 7.5-13.381 0-1.821-.365-3.578-1.014-5.244a13.203 13.203 0 0 0 2.383-3.773c.766.173 1.567.267 2.381.267a1.25 1.25 0 1 0 0-2.5zm-20-25A6.257 6.257 0 0 1 45 8.75 6.257 6.257 0 0 1 38.75 15a6.257 6.257 0 0 1-6.25-6.25 6.257 6.257 0 0 1 6.25-6.25zM25 13.75c0-3.036 2.18-5.567 5.113-6.119-.048.37-.113.736-.113 1.119 0 .636.077 1.254.206 1.852-.119.192-.206.405-.206.648v5a1.25 1.25 0 1 0 2.5 0v-1.396a8.73 8.73 0 0 0 3.938 2.297C35.304 18.89 33.374 20 31.25 20A6.257 6.257 0 0 1 25 13.75zm20.538 36.71A1.252 1.252 0 0 0 45 51.488V57.5h-2.977l-1.603-3.204c-.275-.55-.91-.82-1.493-.634-5.652 1.775-12.202 1.775-17.854 0a1.255 1.255 0 0 0-1.493.634L17.977 57.5H15v-5.96c0-.433-.222-.833-.588-1.062l-9.318-5.805A5.475 5.475 0 0 1 2.5 40c0-1.378 1.122-2.5 2.5-2.5h1.52a1.25 1.25 0 0 0 1.227-1.01c.48-2.463 1.79-4.868 3.787-6.955a1.25 1.25 0 0 0 .037-1.688 6.252 6.252 0 0 1-1.406-2.685 6.24 6.24 0 0 1 2.929 1.608 1.243 1.243 0 0 0 1.572.137C18.855 24.065 24.3 22.5 30 22.5c12.406 0 22.5 7.29 22.5 16.25 0 4.441-2.472 8.6-6.962 11.71zm9.21-23.996c-1.39-.79-2.248-1.88-2.248-2.714a1.25 1.25 0 0 1 2.5 0c0 .988-.093 1.89-.253 2.714z"/><path d="M38.75 12.5c.691 0 1.25-.559 1.25-1.25v-5a1.25 1.25 0 1 0-2.5 0v5c0 .691.56 1.25 1.25 1.25z"/></g><defs><clipPath id="a"><path fill="#fff" d="M0 0h60v60H0z"/></clipPath></defs></svg>