<svg width="60" height="60" fill="none" xmlns="http://www.w3.org/2000/svg"><path d="M55 42.5v-30c0-2.758-2.244-5-5-5H5c-2.756 0-5 2.242-5 5v30c0 2.758 2.244 5 5 5h45c2.756 0 5-2.242 5-5zM50 10c1.38 0 2.5 1.122 2.5 2.5v4.874A8.718 8.718 0 0 1 45.126 10H50zM2.5 12.5C2.5 11.122 3.62 10 5 10h4.874A8.718 8.718 0 0 1 2.5 17.374V12.5zM5 45c-1.38 0-2.5-1.122-2.5-2.5v-4.874A8.719 8.719 0 0 1 9.874 45H5zm7.374 0A11.192 11.192 0 0 0 2.5 35.126V19.874A11.192 11.192 0 0 0 12.374 10h30.252a11.192 11.192 0 0 0 9.874 9.874v15.252A11.192 11.192 0 0 0 42.626 45H12.374zM52.5 37.626V42.5c0 1.378-1.12 2.5-2.5 2.5h-4.874a8.719 8.719 0 0 1 7.374-7.374z" fill="#1B2C49"/><path d="M10 30a2.5 2.5 0 1 0 0-5 2.5 2.5 0 0 0 0 5zM45 30a2.5 2.5 0 1 0 0-5 2.5 2.5 0 0 0 0 5zM27.285 22.5h1.465c.688 0 1.25.56 1.25 1.25a1.25 1.25 0 1 0 2.5 0A3.754 3.754 0 0 0 28.75 20h-1.465a4.79 4.79 0 0 0-4.785 4.785c0 1 .332 1.974.91 2.783-.521.15-.91.611-.91 1.182 0 .69.56 1.25 1.25 1.25h.477l-1.595 3.19c-.193.388-.173.848.054 1.217.23.368.632.593 1.064.593h7.5a1.25 1.25 0 1 0 0-2.5h-5.479l1.251-2.5h1.728a1.25 1.25 0 1 0 0-2.5h-1.983l-1.098-1.098A2.312 2.312 0 0 1 25 24.785a2.288 2.288 0 0 1 2.285-2.285z" fill="#1B2C49"/><path d="M58.75 15c-.691 0-1.25.56-1.25 1.25V47.5c0 1.378-1.12 2.5-2.5 2.5H8.75a1.25 1.25 0 1 0 0 2.5H55c2.756 0 5-2.242 5-5V16.25c0-.69-.56-1.25-1.25-1.25z" fill="#1B2C49"/></svg>