<svg width="60" height="60" fill="none" xmlns="http://www.w3.org/2000/svg"><path d="M55 10H5c-2.756 0-5 2.242-5 5v30c0 2.758 2.244 5 5 5h50c2.756 0 5-2.242 5-5V15c0-2.758-2.244-5-5-5zM2.5 15c0-1.378 1.12-2.5 2.5-2.5h4.874A8.719 8.719 0 0 1 2.5 19.874V15zM5 47.5c-1.38 0-2.5-1.122-2.5-2.5v-4.874A8.719 8.719 0 0 1 9.874 47.5H5zM57.5 45c0 1.378-1.12 2.5-2.5 2.5h-4.874a8.718 8.718 0 0 1 7.374-7.374V45zm0-7.374a11.192 11.192 0 0 0-9.874 9.874H12.374A11.192 11.192 0 0 0 2.5 37.626V22.374a11.192 11.192 0 0 0 9.874-9.874h35.252a11.192 11.192 0 0 0 9.874 9.874v15.252zm0-17.752a8.719 8.719 0 0 1-7.374-7.374H55c1.38 0 2.5 1.122 2.5 2.5v4.874z" fill="#1B2C49"/><path d="M15 32.5a2.5 2.5 0 1 0 0-5 2.5 2.5 0 0 0 0 5zM45 32.5a2.5 2.5 0 1 0 0-5 2.5 2.5 0 0 0 0 5zM29.785 25h1.465c.689 0 1.25.56 1.25 1.25a1.25 1.25 0 1 0 2.5 0 3.754 3.754 0 0 0-3.75-3.75h-1.465A4.79 4.79 0 0 0 25 27.285c0 1 .333 1.974.91 2.783-.52.15-.91.611-.91 1.182 0 .69.56 1.25 1.25 1.25h.478l-1.596 3.19c-.193.388-.173.848.054 1.217.23.368.632.593 1.064.593h7.5a1.25 1.25 0 1 0 0-2.5h-5.478l1.25-2.5h1.728a1.25 1.25 0 1 0 0-2.5h-1.983l-1.098-1.098a2.312 2.312 0 0 1-.669-1.617A2.288 2.288 0 0 1 29.785 25z" fill="#1B2C49"/></svg>