<svg width="60" height="60" fill="none" xmlns="http://www.w3.org/2000/svg"><g clip-path="url(#a)" fill="#1B2C49"><path d="M54.545 0H5.455A5.46 5.46 0 0 0 0 5.455v27.272a5.46 5.46 0 0 0 5.455 5.455h19.09v16.363c0 3.748 7.776 5.455 15 5.455 7.225 0 15-1.707 15-5.455V38.182A5.46 5.46 0 0 0 60 32.727V5.455A5.46 5.46 0 0 0 54.545 0zM2.727 5.455a2.73 2.73 0 0 1 2.727-2.728h5.317a9.511 9.511 0 0 1-8.044 8.044V5.455zm2.728 30a2.73 2.73 0 0 1-2.728-2.728v-5.316a9.511 9.511 0 0 1 8.044 8.044H5.455zm34.09 21.818c-7.978 0-12.067-1.991-12.272-2.728v-4.871c2.901 1.456 7.694 2.144 12.272 2.144 4.58 0 9.372-.688 12.274-2.145l.002 4.852c-.208.757-4.297 2.748-12.276 2.748zm0-8.182c-7.978 0-12.067-1.99-12.272-2.727v-4.872c2.901 1.456 7.694 2.144 12.272 2.144 4.58 0 9.372-.688 12.274-2.144l.002 4.852c-.208.756-4.297 2.747-12.276 2.747zM27.273 38.205v-.007c.217-.758 4.305-2.743 12.272-2.743 7.908 0 11.995 1.956 12.27 2.727-.275.77-4.362 2.727-12.27 2.727-7.967 0-12.055-1.985-12.272-2.704zm30-5.478a2.73 2.73 0 0 1-2.728 2.728h-1.743c-.842-.58-1.942-1.066-3.226-1.456a9.46 9.46 0 0 1 7.697-6.605v5.333zm0-8.06c-4.9.548-8.955 3.961-10.34 8.7-2.297-.428-4.872-.64-7.388-.64-5.148 0-10.561.873-13.256 2.728H13.5A12.21 12.21 0 0 0 2.727 24.683V13.5A12.21 12.21 0 0 0 13.5 2.726H46.5a12.21 12.21 0 0 0 10.772 10.771v11.17zm0-13.896a9.511 9.511 0 0 1-8.044-8.044h5.316a2.73 2.73 0 0 1 2.728 2.727v5.317z"/><path d="M13.636 21.818a2.727 2.727 0 1 0 0-5.454 2.727 2.727 0 0 0 0 5.454zM46.364 21.818a2.727 2.727 0 1 0 0-5.454 2.727 2.727 0 0 0 0 5.454zM29.766 13.636h1.598c.752 0 1.363.612 1.363 1.364a1.363 1.363 0 1 0 2.728 0 4.095 4.095 0 0 0-4.091-4.09h-1.598a5.225 5.225 0 0 0-5.22 5.22 5.17 5.17 0 0 0 .99 3.036c-.568.165-.99.667-.99 1.289 0 .753.61 1.363 1.363 1.363h.521L24.69 25.3a1.364 1.364 0 0 0 1.22 1.974h8.181a1.363 1.363 0 1 0 0-2.727h-5.975l1.363-2.728h1.885a1.363 1.363 0 1 0 0-2.727H29.2l-1.198-1.199a2.512 2.512 0 0 1-.73-1.763 2.496 2.496 0 0 1 2.493-2.493z"/></g><defs><clipPath id="a"><path fill="#fff" d="M0 0h60v60H0z"/></clipPath></defs></svg>