<svg width="60" height="60" fill="none" xmlns="http://www.w3.org/2000/svg"><path d="M26.25 37.5C36.59 37.5 45 29.09 45 18.75S36.59 0 26.25 0C15.911 0 7.5 8.41 7.5 18.75S15.911 37.5 26.25 37.5zm0-35c8.96 0 16.25 7.29 16.25 16.25S35.21 35 26.25 35 10 27.71 10 18.75 17.29 2.5 26.25 2.5z" fill="#1B2C49"/><path d="M51.25 47.5c-.69 0-1.25.56-1.25 1.25v6.987l-16.616-16.62a1.25 1.25 0 0 0-1.768 0L22.5 48.231 9.634 35.366a1.25 1.25 0 1 0-1.768 1.768l13.75 13.75a1.25 1.25 0 0 0 1.768 0l9.116-9.117L48.228 57.5H41.25a1.25 1.25 0 1 0 0 2.5h10c.691 0 1.25-.56 1.25-1.25v-10c0-.69-.559-1.25-1.25-1.25zM21.25 20c0 .691.56 1.25 1.25 1.25h.478l-1.596 3.191c-.193.387-.173.847.054 1.216.23.369.632.593 1.064.593H30a1.25 1.25 0 1 0 0-2.5h-5.478l1.25-2.5H27.5a1.25 1.25 0 1 0 0-2.5h-1.983l-1.098-1.098a2.312 2.312 0 0 1-.669-1.617 2.288 2.288 0 0 1 2.285-2.285H27.5c.689 0 1.25.56 1.25 1.25a1.25 1.25 0 1 0 2.5 0 3.754 3.754 0 0 0-3.75-3.75h-1.464a4.79 4.79 0 0 0-4.786 4.785c0 1 .333 1.974.911 2.783-.522.15-.91.611-.91 1.182z" fill="#1B2C49"/></svg>