<svg width="60" height="60" fill="none" xmlns="http://www.w3.org/2000/svg"><path d="M58.636 0H1.364C.61 0 0 .61 0 1.364v36.818a5.46 5.46 0 0 0 5.455 5.454h23.181v11.329c-.8.476-1.363 1.312-1.363 2.308A2.73 2.73 0 0 0 30 60a2.731 2.731 0 0 0 2.727-2.727c0-.996-.563-1.832-1.363-2.308V43.636h23.181A5.46 5.46 0 0 0 60 38.182V1.364C60 .61 59.39 0 58.636 0zm-1.363 38.182a2.73 2.73 0 0 1-2.728 2.727H5.455a2.73 2.73 0 0 1-2.728-2.727V2.727h54.546v35.455z" fill="#1B2C49"/><path d="M9.546 35.454h8.181c.754 0 1.364-.61 1.364-1.363V23.18c0-.753-.61-1.363-1.364-1.363H9.546c-.754 0-1.364.61-1.364 1.364V34.09c0 .753.61 1.363 1.364 1.363zm1.363-10.909h5.455v8.182h-5.455v-8.182zM25.91 35.455h8.181c.754 0 1.364-.61 1.364-1.364V15c0-.754-.61-1.364-1.364-1.364h-8.182c-.754 0-1.363.61-1.363 1.364v19.09c0 .754.61 1.364 1.363 1.364zm1.363-19.091h5.454v16.363h-5.454V16.364zM42.273 35.455h8.182c.753 0 1.363-.61 1.363-1.364V9.545c0-.753-.61-1.363-1.363-1.363h-8.182c-.754 0-1.364.61-1.364 1.363v24.546c0 .753.61 1.364 1.364 1.364zm1.363-24.546h5.455v21.818h-5.455V10.91z" fill="#1B2C49"/></svg>