<svg width="60" height="60" fill="none" xmlns="http://www.w3.org/2000/svg"><g clip-path="url(#a)"><path d="m58.792 39.175-6.299-14.698c2.687-.337 4.78-2.609 4.78-5.386v-2.727a5.46 5.46 0 0 0-5.455-5.455H37.133c-1.172-.551-3.259-1.738-4.893-3.19a4.04 4.04 0 0 0 1.851.463 4.095 4.095 0 0 0 4.09-4.091A4.095 4.095 0 0 0 34.092 0a4.095 4.095 0 0 0-4.09 4.09A4.095 4.095 0 0 0 25.908 0a4.095 4.095 0 0 0-4.09 4.09 4.095 4.095 0 0 0 4.09 4.092c.543 0 1.058-.111 1.532-.304-1.424 1.216-3.174 2.308-4.595 3.031H8.182a5.46 5.46 0 0 0-5.455 5.455v2.727c0 2.777 2.093 5.05 4.78 5.386l-6.3 14.698A14.841 14.841 0 0 0 0 45.06C0 53.298 6.702 60 14.94 60h30.12C53.298 60 60 53.298 60 45.06c0-2.036-.406-4.016-1.208-5.885zM34.091 2.727a1.365 1.365 0 0 1 0 2.728 1.365 1.365 0 0 1 0-2.728zm-8.182 2.728a1.365 1.365 0 0 1 0-2.728 1.365 1.365 0 0 1 0 2.728zm4.004 3.852c.6.59 1.251 1.121 1.904 1.602h-3.813a19.98 19.98 0 0 0 1.909-1.602zM5.455 19.091v-2.727a2.73 2.73 0 0 1 2.727-2.728h43.636a2.73 2.73 0 0 1 2.727 2.728v2.727a2.73 2.73 0 0 1-2.727 2.727v-4.09c0-.755-.61-1.365-1.363-1.365H9.545c-.753 0-1.363.61-1.363 1.364v4.091a2.73 2.73 0 0 1-2.727-2.727zM45.06 57.273H14.94c-6.734 0-12.213-5.479-12.213-12.213 0-1.665.332-3.283.987-4.811l7.085-16.53c.073-.17.11-.352.11-.537V19.09h38.182v4.09c0 .186.037.368.11.538l7.085 16.53c.655 1.528.987 3.146.987 4.811 0 6.734-5.479 12.213-12.213 12.213z" fill="#1B2C49"/></g><defs><clipPath id="a"><path fill="#fff" d="M0 0h60v60H0z"/></clipPath></defs></svg>