<svg width="60" height="60" fill="none" xmlns="http://www.w3.org/2000/svg"><path d="M60 10.148v16.743c0 3.964-3.179 7.18-7.143 7.18H33.565c-.378 0-.688-.002-.948-.007a7.91 7.91 0 0 0-.698.005c-.125.083-.43.362-.724.633-.116.108-.248.226-.39.355l-5.459 4.975c-.435.397-1.08.5-1.618.262-.54-.238-.918-.772-.918-1.36v-15.77H7.226c-2.324 0-4.25 1.904-4.25 4.227v16.743c0 2.324 1.926 4.15 4.25 4.15h21.55c.37 0 .718.171.992.422l4.447 4.099V38.668a1.487 1.487 0 1 1 2.975 0v17.508c0 .59-.337 1.115-.876 1.353a1.428 1.428 0 0 1-.59.119c-.364 0-.723-.15-1.003-.405l-6.522-5.983H7.226C3.262 51.26 0 48.098 0 44.134V27.392c0-3.965 3.262-7.204 7.226-7.204H22.81v-10.04C22.81 6.184 26.097 3 30.06 3h22.796A7.123 7.123 0 0 1 60 10.148zm-2.975 0a4.145 4.145 0 0 0-4.168-4.173H30.06c-2.324 0-4.276 1.85-4.276 4.173v25.414l2.991-2.703c.139-.126.294-.242.407-.346 1.366-1.259 1.715-1.46 3.497-1.423.243.005.532.007.885.007h19.292c2.324 0 4.168-1.883 4.168-4.206V10.148z" fill="#1B2C49"/><path fill-rule="evenodd" clip-rule="evenodd" d="M39.99 13.223a2.832 2.832 0 0 1 4.267 2.446v.002c0 .664-.517 1.357-1.494 2.008a8.564 8.564 0 0 1-1.765.89l-.023.007a1.416 1.416 0 0 0 .897 2.687l-.448-1.344c.448 1.344.45 1.343.45 1.343h.002l.006-.002.015-.006.05-.017.164-.06c.137-.053.327-.129.552-.23a11.4 11.4 0 0 0 1.671-.912c1.147-.764 2.754-2.196 2.755-4.363a5.664 5.664 0 0 0-11.008-1.887 1.416 1.416 0 0 0 2.671.94 2.832 2.832 0 0 1 1.237-1.502zm1.547 10.945a1.416 1.416 0 0 0 0 2.832h.014a1.416 1.416 0 1 0 0-2.832h-.014zM11 37.416c0-.782.634-1.416 1.416-1.416h.014a1.416 1.416 0 1 1 0 2.832h-.014A1.416 1.416 0 0 1 11 37.416zM18.263 36a1.416 1.416 0 1 0 0 2.832h.014a1.416 1.416 0 1 0 0-2.832h-.014z" fill="#FF7D2F"/></svg>