<svg width="60" height="60" fill="none" xmlns="http://www.w3.org/2000/svg"><g clip-path="url(#a)"><path d="M51.25 7.5c-1.66 0-3.09 1.01-4.293 2.684l-39.82 13.99c-.76-1.076-1.712-1.674-2.762-1.674C1.881 22.5 0 25.724 0 30s1.881 7.5 4.375 7.5c1.05 0 2.001-.598 2.762-1.675l7.402 2.601-1.368 2.83-.03.07a4.975 4.975 0 0 0-.641 2.424c0 1.642.793 3.148 2.139 4.086.097.096.218.173.368.23.51.296 1.046.496 1.38.536l8.698 3.262c.749.416 1.58.636 2.415.636a4.965 4.965 0 0 0 4.253-2.393l-.018-.012a1.81 1.81 0 0 0 .147-.224c.112-.204.211-.412.257-.544l1.882-4.056 12.936 4.545c1.202 1.673 2.632 2.684 4.293 2.684C56.934 52.5 60 40.907 60 30S56.934 7.5 51.25 7.5zM29.834 48.364c-.04.106-.09.207-.144.305l-.047.097-.021.033a2.489 2.489 0 0 1-3.406.831 1.195 1.195 0 0 0-.347-.143l-8.818-3.285a2.464 2.464 0 0 1-.791-.299l-.053-.027-.006-.005A2.48 2.48 0 0 1 15 43.75c0-.446.125-.879.371-1.287.045-.075.083-.157.11-.241l1.432-2.962 14.739 5.179-1.818 3.925zM5.414 32.571a1.242 1.242 0 0 0-1.593.765c-.23.65.113 1.364.764 1.592a.438.438 0 0 1-.21.072C3.713 35 2.5 33.102 2.5 30c0-3.102 1.213-5 1.875-5 .059 0 .13.025.21.072A1.248 1.248 0 0 0 5 27.5c.138 0 .277-.022.414-.07l39.795-13.983c-1.778 4.37-2.71 10.56-2.71 16.553 0 5.994.932 12.183 2.71 16.553L5.414 32.571zM51.25 50C48.64 50 45 42.391 45 30s3.64-20 6.25-20 6.25 7.609 6.25 20-3.64 20-6.25 20z" fill="#1B2C49"/></g><defs><clipPath id="a"><path fill="#fff" d="M0 0h60v60H0z"/></clipPath></defs></svg>