<svg width="60" height="60" fill="none" xmlns="http://www.w3.org/2000/svg"><g clip-path="url(#a)"><path d="M49.09 0c-7.24 0-12.607 4.176-17.343 7.862-3.816 2.97-7.42 5.774-11.292 5.774h-15C1.707 13.636 0 20.705 0 27.273c0 6.567 1.707 13.636 5.455 13.636h3.062l4.323 15.135A5.48 5.48 0 0 0 18.085 60h7.382c2.5 0 4.533-2.033 4.533-4.533v-.48c0-2.499-2.033-4.532-4.533-4.532-.779 0-1.469-.497-1.715-1.236l-2.754-8.262c3.667.246 7.113 2.897 10.75 5.726 4.735 3.686 10.101 7.862 17.343 7.862 7.086 0 10.91-14.052 10.91-27.272C60 14.052 56.176 0 49.09 0zM5.456 38.182c-.7 0-2.728-3.752-2.728-10.91 0-7.157 2.027-10.908 2.728-10.908h12.922c-1.366 2.657-2.013 6.874-2.013 10.909 0 4.034.647 8.25 2.013 10.909H5.455zm15.71 11.9a4.529 4.529 0 0 0 4.302 3.1c.996 0 1.806.81 1.806 1.806v.479c0 .996-.81 1.806-1.806 1.806h-7.382a2.739 2.739 0 0 1-2.622-1.978l-4.11-14.386h6.755l3.058 9.173zm12.257-5.55c-3.79-2.95-7.398-5.73-11.604-6.243v-.107c-.7 0-2.727-3.752-2.727-10.91 0-7.157 2.027-10.908 2.727-10.908v-.108c4.206-.513 7.813-3.292 11.604-6.242 3.086-2.402 6.255-4.831 9.901-6.19-3.366 5.076-5.141 14.45-5.141 23.449 0 8.999 1.775 18.373 5.141 23.448-3.646-1.358-6.815-3.788-9.9-6.19zm7.701-22.692c2.908.115 5.24 2.498 5.24 5.433 0 2.934-2.332 5.317-5.24 5.433a68.853 68.853 0 0 1 0-10.866zm7.968 29.978c-3.092 0-6.46-6.447-7.691-16.413 4.28-.26 7.69-3.789 7.69-8.132 0-4.344-3.41-7.873-7.69-8.133 1.231-9.966 4.599-16.413 7.69-16.413 3.87 0 8.183 10.081 8.183 24.546 0 14.464-4.312 24.545-8.182 24.545z" fill="#1B2C49"/></g><defs><clipPath id="a"><path fill="#fff" d="M0 0h60v60H0z"/></clipPath></defs></svg>