<svg width="60" height="60" fill="none" xmlns="http://www.w3.org/2000/svg"><path d="M55 7.5H5c-2.756 0-5 2.242-5 5v35c0 2.758 2.244 5 5 5h50c2.756 0 5-2.242 5-5v-35c0-2.758-2.244-5-5-5zm2.5 40c0 1.378-1.12 2.5-2.5 2.5H5c-1.38 0-2.5-1.122-2.5-2.5v-35C2.5 11.122 3.62 10 5 10h50c1.38 0 2.5 1.122 2.5 2.5v35z" fill="#1B2C49"/><path d="M51.25 15H8.75c-.69 0-1.25.56-1.25 1.25v1.25H6.25c-.691 0-1.25.56-1.25 1.25v7.5c0 .691.559 1.25 1.25 1.25H7.5v5H6.25c-.691 0-1.25.56-1.25 1.25v7.5c0 .691.559 1.25 1.25 1.25H7.5v1.25c0 .69.56 1.25 1.25 1.25h42.5c.691 0 1.25-.56 1.25-1.25v-27.5c0-.69-.56-1.25-1.25-1.25zM50 42.5H10v-1.25c0-.69-.56-1.25-1.25-1.25H7.5v-5h1.25c.69 0 1.25-.56 1.25-1.25v-7.5c0-.691-.56-1.25-1.25-1.25H7.5v-5h1.25c.69 0 1.25-.56 1.25-1.25V17.5h40v25z" fill="#1B2C49"/><path d="M37.5 37.5c4.136 0 7.5-3.364 7.5-7.5s-3.364-7.5-7.5-7.5S30 25.864 30 30s3.364 7.5 7.5 7.5zm0-12.5c.924 0 1.78.27 2.524.709l-.757.756a1.25 1.25 0 1 0 1.768 1.767l.757-.756c.439.744.708 1.6.708 2.524 0 2.758-2.244 5-5 5s-5-2.242-5-5 2.244-5 5-5z" fill="#1B2C49"/></svg>