<svg width="60" height="60" fill="none" xmlns="http://www.w3.org/2000/svg"><g clip-path="url(#a)" fill="#1B2C49"><path d="M54.545 0H5.455A5.46 5.46 0 0 0 0 5.455v49.09A5.46 5.46 0 0 0 5.455 60h49.09A5.46 5.46 0 0 0 60 54.545V5.455A5.46 5.46 0 0 0 54.545 0zm2.728 54.545a2.73 2.73 0 0 1-2.728 2.728H5.455a2.73 2.73 0 0 1-2.728-2.728V5.455a2.73 2.73 0 0 1 2.728-2.728h49.09a2.73 2.73 0 0 1 2.728 2.728v49.09z"/><path d="M30 40.909c6.017 0 10.91-4.894 10.91-10.91 0-6.014-4.893-10.908-10.91-10.908-6.016 0-10.909 4.894-10.909 10.909 0 6.015 4.892 10.909 10.91 10.909zm0-19.09c1.764 0 3.389.573 4.726 1.526l-1.973 1.973A5.394 5.394 0 0 0 30 24.545 5.46 5.46 0 0 0 24.546 30 5.46 5.46 0 0 0 30 35.455 5.46 5.46 0 0 0 35.455 30a5.393 5.393 0 0 0-.773-2.754l1.972-1.973A8.115 8.115 0 0 1 38.182 30c0 4.512-3.67 8.182-8.182 8.182-4.512 0-8.182-3.67-8.182-8.182 0-4.512 3.67-8.182 8.182-8.182zm2.727 8.18A2.73 2.73 0 0 1 30 32.728 2.73 2.73 0 0 1 27.273 30 2.73 2.73 0 0 1 30 27.273 2.73 2.73 0 0 1 32.727 30z"/><path d="M50.455 8.182H9.545c-.753 0-1.363.61-1.363 1.363v4.091H6.818c-.754 0-1.364.61-1.364 1.364v8.182c0 .754.61 1.363 1.364 1.363h1.364v10.91H6.818c-.754 0-1.364.61-1.364 1.363V45c0 .754.61 1.364 1.364 1.364h1.364v4.09c0 .754.61 1.364 1.364 1.364h40.909c.753 0 1.363-.61 1.363-1.363V9.545c0-.753-.61-1.363-1.363-1.363zM49.09 49.09H10.909V45c0-.754-.61-1.364-1.364-1.364H8.182v-5.454h1.364c.753 0 1.363-.61 1.363-1.364V23.182c0-.754-.61-1.364-1.363-1.364H8.182v-5.455h1.364c.753 0 1.363-.61 1.363-1.363v-4.091h38.182V49.09z"/></g><defs><clipPath id="a"><path fill="#fff" d="M0 0h60v60H0z"/></clipPath></defs></svg>