<svg width="60" height="60" fill="none" xmlns="http://www.w3.org/2000/svg"><g clip-path="url(#a)" fill="#1B2C49"><path d="M23.118 19.09h2.727a1.363 1.363 0 1 0 0-2.726h-1.363a1.363 1.363 0 1 0-2.728 0v.25c-1.584.566-2.727 2.065-2.727 3.84a4.095 4.095 0 0 0 4.09 4.091c.752 0 1.365.612 1.365 1.364 0 .753-.613 1.364-1.364 1.364H20.39a1.363 1.363 0 1 0 0 2.727h1.363a1.363 1.363 0 1 0 2.728 0v-.251c1.584-.565 2.727-2.064 2.727-3.84a4.095 4.095 0 0 0-4.091-4.09 1.365 1.365 0 0 1-1.364-1.364c0-.753.613-1.364 1.364-1.364z"/><path d="M59.6 57.672 40.486 38.555c3.644-4.096 5.879-9.472 5.879-15.373C46.364 10.399 35.964 0 23.182 0 10.4 0 0 10.4 0 23.182c0 12.783 10.4 23.182 23.182 23.182 5.901 0 11.278-2.236 15.375-5.88L57.672 59.6a1.36 1.36 0 0 0 1.929 0 1.363 1.363 0 0 0 0-1.928zM23.182 43.636c-11.28 0-20.455-9.175-20.455-20.454 0-11.28 9.175-20.455 20.455-20.455 11.28 0 20.454 9.175 20.454 20.455 0 11.28-9.175 20.454-20.454 20.454z"/></g><defs><clipPath id="a"><path fill="#fff" d="M0 0h60v60H0z"/></clipPath></defs></svg>