<svg width="60" height="60" fill="none" xmlns="http://www.w3.org/2000/svg"><g clip-path="url(#a)" fill="#1B2C49"><path d="M59.6 57.672 40.486 38.555c3.644-4.096 5.879-9.472 5.879-15.373C46.364 10.399 35.964 0 23.182 0 10.4 0 0 10.4 0 23.182c0 12.783 10.4 23.182 23.182 23.182 5.901 0 11.278-2.236 15.375-5.88L57.672 59.6a1.36 1.36 0 0 0 1.929 0 1.363 1.363 0 0 0 0-1.928zM23.182 43.636c-11.28 0-20.455-9.175-20.455-20.454 0-11.28 9.175-20.455 20.455-20.455 11.28 0 20.454 9.175 20.454 20.455 0 11.28-9.175 20.454-20.454 20.454z"/><path d="M23.182 21.818A6.825 6.825 0 0 0 30 15a6.825 6.825 0 0 0-6.818-6.818A6.825 6.825 0 0 0 16.364 15a6.826 6.826 0 0 0 6.818 6.818zm0-10.91A4.095 4.095 0 0 1 27.272 15a4.095 4.095 0 0 1-4.09 4.09A4.095 4.095 0 0 1 19.09 15a4.095 4.095 0 0 1 4.09-4.091zM32.509 25.996c-2.179-1.284-5.567-2.814-9.327-2.814s-7.149 1.53-9.327 2.814c-1.816 1.072-2.946 3.153-2.946 5.432v.873c0 1.74 1.31 3.154 2.922 3.154h18.702c1.611 0 2.922-1.414 2.922-3.154v-.873c0-2.279-1.13-4.36-2.946-5.432zm.218 6.305c0 .284-.162.426-.194.426H13.83c-.032 0-.195-.142-.195-.426v-.873c0-1.299.629-2.508 1.604-3.083 1.885-1.11 4.794-2.436 7.942-2.436 3.148 0 6.056 1.325 7.942 2.436.975.575 1.603 1.784 1.603 3.083v.873z"/></g><defs><clipPath id="a"><path fill="#fff" d="M0 0h60v60H0z"/></clipPath></defs></svg>