<svg width="112" height="112" fill="none" xmlns="http://www.w3.org/2000/svg"><g clip-path="url(#clip0)"><path d="M102.667 4.667H9.333C4.186 4.667 0 8.851 0 14v65.333c0 5.148 4.186 9.334 9.333 9.334h32.673c-.1 3.73-.815 9.692-3.476 12.491-.978 1.03-2.101 1.509-3.53 1.509A2.332 2.332 0 0032.667 105 2.332 2.332 0 0035 107.334h42A2.332 2.332 0 0079.334 105 2.332 2.332 0 0077 102.667c-1.428 0-2.552-.479-3.53-1.509-2.66-2.8-3.376-8.761-3.476-12.491h32.673c5.147 0 9.333-4.186 9.333-9.334V14c0-5.148-4.186-9.334-9.333-9.334zm-59.414 98c2.818-4.32 3.363-10.542 3.434-14h18.626c.07 3.459.616 9.68 3.434 14H43.253zm64.08-23.334A4.673 4.673 0 01102.667 84H9.333a4.673 4.673 0 01-4.666-4.667V70h102.666v9.333zm0-14H4.667V14a4.673 4.673 0 014.666-4.667h93.334A4.673 4.673 0 01107.333 14v51.333z" fill="#1B2C49"/><path d="M56 81.666a4.667 4.667 0 100-9.333 4.667 4.667 0 000 9.334zM82.6 20.533h-28a2.332 2.332 0 00-2.333 2.334A2.332 2.332 0 0054.6 25.2h28a2.332 2.332 0 002.333-2.333 2.332 2.332 0 00-2.333-2.334zM82.6 36.4h-28a2.332 2.332 0 00-2.333 2.333 2.332 2.332 0 002.333 2.334h28a2.332 2.332 0 002.333-2.334A2.332 2.332 0 0082.6 36.4zM82.6 52.267h-28a2.332 2.332 0 00-2.333 2.333 2.332 2.332 0 002.333 2.334h28a2.332 2.332 0 002.333-2.334 2.332 2.332 0 00-2.333-2.333z" fill="#1B2C49"/><path fill-rule="evenodd" clip-rule="evenodd" d="M44.369 17.474c.659.792.55 1.97-.242 2.628l-8.984 7.467a1.866 1.866 0 01-2.386 0l-4.083-3.394a1.867 1.867 0 012.386-2.871l2.89 2.402 7.79-6.475a1.867 1.867 0 012.629.242zM44.369 34.273c.659.793.55 1.97-.242 2.63l-8.984 7.466a1.867 1.867 0 01-2.386 0l-4.083-3.394a1.867 1.867 0 012.386-2.871l2.89 2.402 7.79-6.475a1.867 1.867 0 012.629.242zM44.369 49.207c.659.793.55 1.97-.242 2.629l-8.984 7.466a1.866 1.866 0 01-2.386 0l-4.083-3.394a1.867 1.867 0 012.386-2.87l2.89 2.401 7.79-6.475a1.867 1.867 0 012.629.243z" fill="#418CCF"/></g><defs><clipPath id="clip0"><path fill="#fff" d="M0 0h112v112H0z"/></clipPath></defs></svg>