<svg width="60" height="60" fill="none" xmlns="http://www.w3.org/2000/svg"><g clip-path="url(#a)" fill="#1B2C49"><path d="M23.75 21.25A6.256 6.256 0 0 0 30 27.5a6.256 6.256 0 0 0 6.25-6.25A6.257 6.257 0 0 0 30 15a6.256 6.256 0 0 0-6.25 6.25zM30 17.5a3.754 3.754 0 0 1 3.75 3.75A3.754 3.754 0 0 1 30 25a3.754 3.754 0 0 1-3.75-3.75A3.754 3.754 0 0 1 30 17.5zM21.45 31.33c-1.665.982-2.7 2.89-2.7 4.979v.8c0 1.595 1.201 2.891 2.678 2.891h17.144c1.477 0 2.678-1.296 2.678-2.89v-.801c0-2.089-1.035-3.997-2.7-4.98-1.997-1.177-5.103-2.579-8.55-2.579-3.447 0-6.553 1.403-8.55 2.58zm17.3 4.979v.8c0 .26-.149.39-.178.39H21.428c-.03 0-.178-.13-.178-.39v-.8c0-1.19.576-2.299 1.47-2.826 1.728-1.018 4.394-2.233 7.28-2.233s5.552 1.215 7.28 2.233c.894.527 1.47 1.635 1.47 2.826z"/><path d="M51.66 7.57 30.414.07a1.257 1.257 0 0 0-.835 0L8.332 7.57A1.25 1.25 0 0 0 7.5 8.755V23.75c0 19.41 2.873 26.505 21.93 36.114a1.255 1.255 0 0 0 1.133 0c19.057-9.609 21.93-16.703 21.93-36.114L52.5 8.755c0-.534-.337-1.008-.84-1.185zM50.007 23.75c0 18.584-2.382 24.758-20.003 33.742C12.382 48.509 10 42.334 10 23.75V9.643L29.996 2.59l20.011 7.054v14.108z"/></g><defs><clipPath id="a"><path fill="#fff" d="M0 0h60v60H0z"/></clipPath></defs></svg>