<svg width="60" height="60" fill="none" xmlns="http://www.w3.org/2000/svg"><g clip-path="url(#a)" fill="#1B2C49"><path d="m51.666 7.571-21.25-7.5a1.248 1.248 0 0 0-.832 0l-21.25 7.5c-.5.177-.834.65-.834 1.18v15c0 19.41 2.879 26.506 21.937 36.115a1.252 1.252 0 0 0 1.126 0C49.62 50.256 52.5 43.162 52.5 23.75v-15c0-.53-.335-1.002-.834-1.179zM50 23.751c0 18.592-2.37 24.61-20 33.598C12.37 48.36 10 42.343 10 23.75V9.636l20-7.06 20 7.06V23.75z"/><path d="M28.75 16.25v1.377c-2.85.58-5 3.105-5 6.123A6.257 6.257 0 0 0 30 30a3.754 3.754 0 0 1 3.75 3.75A3.754 3.754 0 0 1 30 37.5h-5a1.25 1.25 0 1 0 0 2.5h3.75v1.25a1.25 1.25 0 1 0 2.5 0v-1.376c2.85-.58 5-3.106 5-6.124A6.257 6.257 0 0 0 30 27.5a3.754 3.754 0 0 1-3.75-3.75A3.754 3.754 0 0 1 30 20h5a1.25 1.25 0 1 0 0-2.5h-3.75v-1.25a1.25 1.25 0 1 0-2.5 0z"/></g><defs><clipPath id="a"><path fill="#fff" d="M0 0h60v60H0z"/></clipPath></defs></svg>