<svg width="60" height="60" fill="none" xmlns="http://www.w3.org/2000/svg"><path d="m24 39.5-.5-10 11 4.5L24 39.5z" fill="#FF7D2F"/><rect x="25" y="18" width="27" height="18" rx="3" fill="#FF7D2F"/><path d="M20.547 50.107h6.903a1.359 1.359 0 0 1 0 2.717h-6.903a1.358 1.358 0 0 1 0-2.717z" fill="#1B2C49"/><path fill-rule="evenodd" clip-rule="evenodd" d="M42.424 6.764v9.151h4.25c4.256 0 7.72 3.465 7.72 7.721v6.557c0 4.258-3.464 7.721-7.72 7.721h-4.25v15.322c0 3.564-2.9 6.464-6.464 6.464H12.037a6.472 6.472 0 0 1-6.464-6.464V6.764C5.573 3.2 8.473.3 12.037.3H35.96c3.564 0 6.464 2.9 6.464 6.464zM29.531 5.556v-2.34H18.466v2.34H29.53zM15.55 5.399V3.217h-3.513A3.55 3.55 0 0 0 8.49 6.764v46.472a3.55 3.55 0 0 0 3.547 3.547H35.96a3.55 3.55 0 0 0 3.547-3.547V37.914h-8.438l-5.729 2.892-.008.005a1.847 1.847 0 0 1-1.793.045c-.616-.32-.999-.95-.999-1.645V23.636c0-4.257 3.464-7.72 7.721-7.72h9.246V6.764a3.55 3.55 0 0 0-3.547-3.547h-3.513v2.182a3.077 3.077 0 0 1-3.073 3.074h-10.75a3.077 3.077 0 0 1-3.074-3.074zm9.907 32.081 4.404-2.223.008-.005c.285-.167.605-.255.938-.255h15.867a4.809 4.809 0 0 0 4.804-4.804v-6.557a4.81 4.81 0 0 0-4.804-4.803H30.26a4.81 4.81 0 0 0-4.804 4.803V37.48z" fill="#1B2C49"/><path d="M30.774 22.3H46.16a1.358 1.358 0 0 1 0 2.717H30.774a1.359 1.359 0 0 1 0-2.717zM38.467 28.305h7.694a1.359 1.359 0 0 1 0 2.717h-7.694a1.358 1.358 0 1 1 0-2.717z" fill="#1B2C49"/></svg>