<svg width="60" height="60" fill="none" xmlns="http://www.w3.org/2000/svg"><g clip-path="url(#a)" fill="#1B2C49"><path d="M30 12.5a6.257 6.257 0 0 0 6.25-6.25A6.257 6.257 0 0 0 30 0a6.257 6.257 0 0 0-6.25 6.25A6.257 6.257 0 0 0 30 12.5zm0-10a3.754 3.754 0 0 1 3.75 3.75A3.754 3.754 0 0 1 30 10a3.754 3.754 0 0 1-3.75-3.75A3.754 3.754 0 0 1 30 2.5zM38.572 25c1.477 0 2.678-1.297 2.678-2.89v-.801c0-2.089-1.034-3.997-2.7-4.98-1.996-1.177-5.1-2.579-8.55-2.579-3.45 0-6.554 1.403-8.55 2.58-1.666.982-2.7 2.89-2.7 4.979v.8c0 1.594 1.201 2.891 2.678 2.891h17.144zM21.25 22.11v-.801c0-1.19.577-2.299 1.47-2.826 1.727-1.018 4.393-2.233 7.28-2.233 2.887 0 5.553 1.215 7.28 2.233.893.527 1.47 1.635 1.47 2.826v.8c0 .26-.148.391-.178.391H21.428c-.03 0-.178-.13-.178-.39zM33.749 40a1.25 1.25 0 0 0 .694-2.29l-3.193-2.129V28.75a1.25 1.25 0 1 0-2.5 0v6.925l-8.313 7.127a1.247 1.247 0 0 0-.135 1.761c.246.29.597.437.948.437.288 0 .578-.099.813-.301l8.031-6.884 2.963 1.975c.213.142.454.21.692.21zM11.875 45h4.375a1.25 1.25 0 1 0 0-2.5h-2.5v-1.25a1.25 1.25 0 1 0-2.5 0v1.313c-2.115.307-3.75 2.114-3.75 4.312a4.38 4.38 0 0 0 4.375 4.375h1.25c1.034 0 1.875.841 1.875 1.875A1.877 1.877 0 0 1 13.125 55H8.75a1.25 1.25 0 1 0 0 2.5h2.5v1.25a1.25 1.25 0 1 0 2.5 0v-1.313c2.115-.306 3.75-2.114 3.75-4.312a4.38 4.38 0 0 0-4.375-4.375h-1.25A1.877 1.877 0 0 1 10 46.875c0-1.034.841-1.875 1.875-1.875zM42.5 40c-5.514 0-10 4.486-10 10s4.486 10 10 10 10-4.486 10-10-4.486-10-10-10zm0 17.5c-4.136 0-7.5-3.364-7.5-7.5s3.364-7.5 7.5-7.5S50 45.864 50 50s-3.364 7.5-7.5 7.5z"/><path d="M43.75 49.482V46.25a1.25 1.25 0 1 0-2.5 0V50c0 .332.132.65.366.884l2.5 2.5a1.246 1.246 0 0 0 1.768 0 1.25 1.25 0 0 0 0-1.768l-2.134-2.134z"/></g><defs><clipPath id="a"><path fill="#fff" d="M0 0h60v60H0z"/></clipPath></defs></svg>