<svg width="60" height="60" fill="none" xmlns="http://www.w3.org/2000/svg"><path d="m52.134 12.866-12.5-12.5A1.25 1.25 0 0 0 38.75 0H12.5c-2.758 0-5 2.242-5 5v50c0 2.758 2.242 5 5 5h35c2.758 0 5-2.242 5-5V13.75c0-.332-.132-.65-.366-.884zM40 4.268l8.232 8.232H42.5A2.503 2.503 0 0 1 40 10V4.268zM50 55c0 1.378-1.122 2.5-2.5 2.5h-35A2.503 2.503 0 0 1 10 55V5c0-1.378 1.122-2.5 2.5-2.5h25V10c0 2.758 2.242 5 5 5H50v40z" fill="#1B2C49"/><path d="M30 22.5h-2.5a1.25 1.25 0 1 0 0 2.5h1.25a1.25 1.25 0 1 0 2.5 0v-.23c1.452-.518 2.5-1.892 2.5-3.52A3.754 3.754 0 0 0 30 17.5a1.25 1.25 0 0 1 0-2.5h2.5a1.25 1.25 0 1 0 0-2.5h-1.25a1.25 1.25 0 1 0-2.5 0v.23c-1.452.518-2.5 1.893-2.5 3.52A3.754 3.754 0 0 0 30 20a1.25 1.25 0 0 1 0 2.5zM36.25 37.5a1.25 1.25 0 0 0 .884-2.134l-6.25-6.25a1.25 1.25 0 0 0-1.768 0l-6.25 6.25a1.25 1.25 0 1 0 1.768 1.768L30 31.767l5.366 5.367c.244.244.564.366.884.366zM21.25 40A6.257 6.257 0 0 0 15 46.25a6.257 6.257 0 0 0 6.25 6.25 6.257 6.257 0 0 0 6.25-6.25A6.257 6.257 0 0 0 21.25 40zm0 10a3.754 3.754 0 0 1-3.75-3.75 3.754 3.754 0 0 1 3.75-3.75A3.754 3.754 0 0 1 25 46.25 3.754 3.754 0 0 1 21.25 50zM32.5 41.25v10c0 .69.559 1.25 1.25 1.25h10c.69 0 1.25-.56 1.25-1.25v-10c0-.69-.56-1.25-1.25-1.25h-10c-.691 0-1.25.56-1.25 1.25zM35 42.5h7.5V50H35v-7.5z" fill="#1B2C49"/></svg>