<svg width="60" height="60" fill="none" xmlns="http://www.w3.org/2000/svg"><g clip-path="url(#a)" fill="#1B2C49"><path d="M41.484 34.498C38.796 33.016 34.624 31.25 30 31.25s-8.796 1.766-11.484 3.248C16.348 35.695 15 38.038 15 40.612v1.029c0 1.852 1.443 3.36 3.215 3.36h23.57C43.557 45 45 43.492 45 41.64v-1.03c0-2.574-1.348-4.916-3.516-6.113zm1.016 7.143c0 .473-.32.859-.715.859h-23.57c-.395 0-.715-.386-.715-.86v-1.028c0-1.664.852-3.168 2.222-3.924 2.431-1.34 6.186-2.938 10.278-2.938 4.092 0 7.847 1.598 10.278 2.938 1.37.756 2.222 2.26 2.222 3.924v1.029zM30 30c4.136 0 7.5-3.364 7.5-7.5S34.136 15 30 15s-7.5 3.364-7.5 7.5S25.864 30 30 30zm0-12.5c2.756 0 5 2.242 5 5s-2.244 5-5 5-5-2.242-5-5 2.244-5 5-5z"/><path d="M58.75 28.75h-1.313C56.795 14.586 45.414 3.205 31.25 2.563V1.25a1.25 1.25 0 1 0-2.5 0v1.313C14.586 3.205 3.205 14.586 2.563 28.75H1.25a1.25 1.25 0 1 0 0 2.5h1.313c.642 14.164 12.023 25.545 26.187 26.187v1.313a1.25 1.25 0 1 0 2.5 0v-1.313c14.164-.642 25.545-12.023 26.187-26.187h1.313a1.25 1.25 0 1 0 0-2.5zm-7.5 2.5h3.687C54.3 44.036 44.035 54.3 31.25 54.937V51.25a1.25 1.25 0 1 0-2.5 0v3.687C15.965 54.3 5.7 44.037 5.063 31.25H8.75a1.25 1.25 0 1 0 0-2.5H5.063C5.7 15.963 15.965 5.7 28.75 5.063V8.75a1.25 1.25 0 1 0 2.5 0V5.063c12.785.637 23.05 10.9 23.687 23.687H51.25a1.25 1.25 0 1 0 0 2.5z"/></g><defs><clipPath id="a"><path fill="#fff" d="M0 0h60v60H0z"/></clipPath></defs></svg>