<svg width="60" height="60" fill="none" xmlns="http://www.w3.org/2000/svg"><g clip-path="url(#a)" fill="#1B2C49"><path d="M58.75 28.75h-1.313C56.795 14.586 45.414 3.205 31.25 2.563V1.25a1.25 1.25 0 1 0-2.5 0v1.313C14.585 3.205 3.203 14.587 2.562 28.75H1.25a1.25 1.25 0 1 0 0 2.5h1.313c.642 14.164 12.023 25.545 26.187 26.187v1.313a1.25 1.25 0 1 0 2.5 0v-1.312c14.163-.641 25.545-12.024 26.187-26.188h1.313a1.25 1.25 0 1 0 0-2.5zm-7.5 2.5h3.687C54.3 44.036 44.033 54.301 31.25 54.939V51.25a1.25 1.25 0 1 0-2.5 0v3.687C15.965 54.3 5.7 44.037 5.063 31.25H8.75a1.25 1.25 0 1 0 0-2.5H5.061C5.7 15.966 15.965 5.7 28.75 5.063V8.75a1.25 1.25 0 1 0 2.5 0V5.063c12.785.637 23.05 10.9 23.687 23.687H51.25a1.25 1.25 0 1 0 0 2.5z"/><path d="M30 15c-8.271 0-15 6.729-15 15s6.729 15 15 15 15-6.729 15-15-6.729-15-15-15zm0 27.5c-6.892 0-12.5-5.608-12.5-12.5S23.108 17.5 30 17.5 42.5 23.108 42.5 30 36.892 42.5 30 42.5z"/><path d="M29.375 25h4.375a1.25 1.25 0 1 0 0-2.5h-2.5v-1.25a1.25 1.25 0 1 0-2.5 0v1.313c-2.115.307-3.75 2.114-3.75 4.312a4.38 4.38 0 0 0 4.375 4.375h1.25c1.033 0 1.875.841 1.875 1.875A1.878 1.878 0 0 1 30.625 35H26.25a1.25 1.25 0 1 0 0 2.5h2.5v1.25a1.25 1.25 0 1 0 2.5 0v-1.313c2.115-.306 3.75-2.114 3.75-4.312a4.38 4.38 0 0 0-4.375-4.375h-1.25a1.878 1.878 0 0 1-1.875-1.875c0-1.034.842-1.875 1.875-1.875z"/></g><defs><clipPath id="a"><path fill="#fff" d="M0 0h60v60H0z"/></clipPath></defs></svg>