<svg width="60" height="60" fill="none" xmlns="http://www.w3.org/2000/svg"><g clip-path="url(#a)"><path d="M59.885 10.726a1.252 1.252 0 0 0-.932-.71c-2.32-.38-5.967-1.298-6.82-2.15-.851-.852-1.77-4.501-2.15-6.818a1.249 1.249 0 0 0-1.88-.868c-.23.138-5.603 3.445-5.603 8.57v4.411c-.776.644-1.567 1.31-2.356 1.984C35.802 11.832 30.475 9.999 25 9.999 11.216 10 0 21.214 0 35c0 13.786 11.216 25 25 25s25-11.214 25-25c0-5.476-1.833-10.802-5.146-15.143.675-.79 1.34-1.58 1.984-2.356h4.412c5.127 0 8.433-5.375 8.57-5.605a1.25 1.25 0 0 0 .065-1.17zM47.5 34.999c0 12.407-10.093 22.5-22.5 22.5S2.5 47.406 2.5 35c0-12.406 10.093-22.5 22.5-22.5 4.756 0 9.389 1.532 13.219 4.318a99.542 99.542 0 0 0-3.798 3.515C31.593 18.507 28.372 17.5 25 17.5 15.35 17.5 7.5 25.35 7.5 35S15.352 52.5 25 52.5c9.649 0 17.5-7.85 17.5-17.5 0-3.373-1.008-6.592-2.833-9.42a99.634 99.634 0 0 0 3.515-3.798A22.504 22.504 0 0 1 47.5 34.998zm-23.384.884a1.247 1.247 0 0 0 1.768 0l5.216-5.216a7.438 7.438 0 0 1 1.4 4.332c0 4.136-3.364 7.5-7.5 7.5s-7.5-3.364-7.5-7.5c0-4.135 3.364-7.5 7.5-7.5 1.617 0 3.107.527 4.333 1.4l-5.217 5.217a1.25 1.25 0 0 0 0 1.767zM30 26.25v.141c-1.477-.86-3.17-1.39-5-1.39-5.515 0-10 4.486-10 10 0 5.513 4.485 10 10 10s10-4.486 10-10c0-1.83-.53-3.523-1.39-5h.14c.878 0 2.344-1.04 4.089-2.642C39.229 29.678 40 32.28 40 34.998c0 8.272-6.729 15-15 15s-15-6.728-15-15c0-8.27 6.729-15 15-15 2.718 0 5.32.77 7.642 2.161C31.04 23.905 30 25.372 30 26.25zM51.25 15h-5c-.374 0-.727.168-.964.455-4.539 5.5-10.281 11.673-11.536 12.046h-1.255l-.007-1.138c.383-1.367 6.557-7.11 12.058-11.648a1.25 1.25 0 0 0 .454-.965v-5c0-2.266 1.628-4.157 2.905-5.289.454 2.057 1.275 4.988 2.461 6.173 1.187 1.187 4.124 2.01 6.18 2.464-1.126 1.274-3.013 2.902-5.296 2.902z" fill="#1B2C49"/></g><defs><clipPath id="a"><path fill="#fff" d="M0 0h60v60H0z"/></clipPath></defs></svg>