<svg width="60" height="60" fill="none" xmlns="http://www.w3.org/2000/svg"><path d="m41 16 6-3h11.5v34H47l-6-2V16z" fill="#FF7D2F"/><path d="m45.965 44.874.002-.017v.005l-.002.015v-.003z" fill="#1B2C49"/><path fill-rule="evenodd" clip-rule="evenodd" d="M1.765 11.805c8.187 0 14.395-.007 19.119-.012 5.683-.007 9.217-.011 11.461.003 2.063.013 3.012.04 3.535.093.377.037.497.08.717.159.061.022.13.046.215.074l4.497 1.498 4.497-1.498c.343-.114.55-.18.852-.227.313-.048.74-.076 1.506-.09.915-.017 2.278-.014 4.448-.008 1.468.003 3.305.008 5.623.008.698 0 1.263.566 1.263 1.263V46.95c0 .698-.565 1.263-1.263 1.263h-10.16c-1.394 0-2.119-.245-4.725-1.128-.54-.183-1.16-.393-1.883-.633l-.158-.053-.159.053c-.729.242-1.352.453-1.893.636-2.679.906-3.326 1.125-4.715 1.125H1.765A1.263 1.263 0 0 1 .502 46.95V13.068c0-.697.565-1.263 1.263-1.263zm34.249 2.713a.744.744 0 0 1-.065-.025l-.005-.002a1.272 1.272 0 0 0-.132-.05 2.039 2.039 0 0 0-.474-.071c-.418-.028-1.258-.04-3.116-.046-1.945-.006-5.025-.004-9.946 0-4.517.003-10.584.007-18.747.007h-.502v31.357h31.515c.602 0 1.022-.065 1.732-.277.427-.127.976-.313 1.753-.576.465-.157 1.011-.342 1.661-.558l.343-.115v-2.859a1.263 1.263 0 0 1 2.526 0v2.85l.343.114 3.048 1.016.038.013.292.097h.002l.056.018c.26.086.484.154.802.2.318.046.718.067 1.343.078.74.013 1.829.01 3.526.005h.001c1.17-.003 2.63-.006 4.463-.006h.502V14.33h-.502c-2.007 0-3.57-.003-4.794-.005a322.08 322.08 0 0 0-3.355.003c-.58.006-.915.02-1.151.049-.237.03-.378.077-.524.126l-.043.014-4.047 1.348v2.849a1.263 1.263 0 0 1-2.526 0v-2.86l-4.017-1.337z" fill="#1B2C49"/><path d="M8.031 38.48c0-.698.566-1.263 1.263-1.263h24.47a1.263 1.263 0 0 1 0 2.526H9.295a1.263 1.263 0 0 1-1.263-1.263zM40.031 26.244a1.263 1.263 0 0 1 2.526 0v7.53a1.263 1.263 0 0 1-2.526 0v-7.53zM11.107 21.355a1.263 1.263 0 0 1 2.02-1.515l2.446 3.26H30.94a1.263 1.263 0 0 1 0 2.525H24.96l-3.386 4.232a1.263 1.263 0 1 1-1.972-1.578l2.124-2.654H14.94c-.397 0-.771-.187-1.01-.505l-2.823-3.765zM49.443 22.48a1.263 1.263 0 0 1 2.526 0v15.058a1.263 1.263 0 0 1-2.526 0V22.48z" fill="#1B2C49"/></svg>