<svg width="60" height="60" fill="none" xmlns="http://www.w3.org/2000/svg"><g clip-path="url(#a)" fill="#1B2C49"><path d="M51.55 29.323c.162-1.187.268-2.326.268-3.414C51.818 11.623 40.195 0 25.91 0S0 11.623 0 25.91c0 14.285 11.623 25.908 25.91 25.908 1.093 0 2.232-.105 3.413-.268 2.794 5.033 8.16 8.45 14.313 8.45C52.66 60 60 52.66 60 43.636c0-6.153-3.417-11.519-8.45-14.313zM28.177 48.954c-.778.083-1.536.137-2.268.137-12.781 0-23.182-10.4-23.182-23.182 0-12.782 10.4-23.182 23.182-23.182 12.782 0 23.182 10.4 23.182 23.182 0 .728-.055 1.487-.138 2.268a16.261 16.261 0 0 0-5.317-.904c-9.023 0-16.363 7.34-16.363 16.363 0 1.864.328 3.648.904 5.318zm15.46 8.319C36.116 57.273 30 51.155 30 43.636 30 36.118 36.118 30 43.636 30c7.52 0 13.637 6.118 13.637 13.636 0 7.519-6.118 13.637-13.637 13.637z"/><path d="M42.955 38.182h4.772a1.363 1.363 0 1 0 0-2.728H45v-1.363a1.363 1.363 0 1 0-2.727 0v1.432c-2.307.335-4.091 2.306-4.091 4.704A4.779 4.779 0 0 0 42.955 45h1.363c1.127 0 2.046.917 2.046 2.045a2.049 2.049 0 0 1-2.046 2.046h-4.772a1.363 1.363 0 1 0 0 2.727h2.727v1.364a1.363 1.363 0 1 0 2.727 0v-1.433c2.307-.334 4.091-2.306 4.091-4.704a4.779 4.779 0 0 0-4.773-4.772h-1.363a2.049 2.049 0 0 1-2.046-2.046c0-1.128.919-2.045 2.046-2.045zM25.91 8.182c-.755 0-1.364.61-1.364 1.363v15.8l-7.783 7.782a1.363 1.363 0 1 0 1.928 1.928l8.182-8.182c.256-.256.4-.602.4-.964V9.545c0-.753-.61-1.363-1.364-1.363z"/></g><defs><clipPath id="a"><path fill="#fff" d="M0 0h60v60H0z"/></clipPath></defs></svg>