<svg width="20" height="20" viewBox="0 0 20 20" fill="none" xmlns="http://www.w3.org/2000/svg">
<path d="M10 0C4.49438 0 0 4.49438 0 10C0 15.5056 4.49438 20 10 20C15.5056 20 20 15.5056 20 10C20 4.49438 15.5056 0 10 0ZM6.74157 11.0674H13.2584C14.8315 11.0674 16.1798 12.0225 16.7978 13.427C15.5056 16.0112 12.8652 17.6404 10 17.6404C7.07865 17.6404 4.49438 16.0112 3.14607 13.427C3.76405 12.0225 5.16854 11.0674 6.74157 11.0674ZM10 3.48315C11.7978 3.48315 13.2584 4.94382 13.2584 6.74157C13.2584 8.53933 11.7978 10 10 10C8.20225 10 6.74157 8.53933 6.74157 6.74157C6.74157 4.94382 8.20225 3.48315 10 3.48315Z" fill="#B4C6D2"/>
</svg>
