<svg width="60" height="60" fill="none" xmlns="http://www.w3.org/2000/svg"><path d="M57.5 22.73V12.5c0-2.758-2.242-5-5-5H5c-2.758 0-5 2.242-5 5v35c0 2.758 2.242 5 5 5h47.5c2.758 0 5-2.242 5-5V37.27c1.452-.518 2.5-1.893 2.5-3.52v-7.5c0-1.628-1.048-3.002-2.5-3.52zM55 47.5c0 1.378-1.122 2.5-2.5 2.5H5a2.503 2.503 0 0 1-2.5-2.5v-35C2.5 11.122 3.622 10 5 10h47.5c1.378 0 2.5 1.122 2.5 2.5v10h-7.5c-4.136 0-7.5 3.364-7.5 7.5s3.364 7.5 7.5 7.5H55v10zm2.5-13.75c0 .69-.56 1.25-1.25 1.25H47.5c-2.758 0-5-2.242-5-5s2.242-5 5-5h8.75c.69 0 1.25.56 1.25 1.25v7.5z" fill="#1B2C49"/><path d="M47.5 27.5A2.503 2.503 0 0 0 45 30c0 1.378 1.122 2.5 2.5 2.5S50 31.378 50 30s-1.122-2.5-2.5-2.5z" fill="#1B2C49"/></svg>