<svg width="60" height="60" fill="none" xmlns="http://www.w3.org/2000/svg"><path d="M30 60c16.569 0 30-13.431 30-30C60 13.431 46.569 0 30 0 13.431 0 0 13.431 0 30c0 16.569 13.431 30 30 30z" fill="#ECEEF2"/><path d="M51.829 47.546a11.135 11.135 0 0 0-4.62-2.133l-8.224-1.65c-.862-.17-1.485-.942-1.485-1.838v-2.137c8.194-.784 9.375-2.457 9.375-4.163 0-5.044-3.352-16.755-3.904-18.66-.071-2.944-.607-4.598-1.953-6.049-.953-1.031-2.355-1.271-3.484-1.462-.443-.079-1.054-.18-1.279-.304-1.999-1.08-3.975-1.605-6.334-1.65-4.938.202-11.01 3.345-13.087 9.09-.15.536-3.709 13.219-3.709 19.035 0 2.426 2.741 3.705 9.375 4.29v2.01c0 .896-.626 1.669-1.492 1.838l-8.232 1.65c-1.713.363-3.304 1.098-4.605 2.13a1.89 1.89 0 0 0-.701 1.32 1.874 1.874 0 0 0 .48 1.41C13.553 56.456 21.589 60 30 60c8.411 0 16.451-3.544 22.05-9.727a1.873 1.873 0 0 0-.221-2.726z" fill="#7B818C"/></svg>