<svg width="60" height="60" fill="none" xmlns="http://www.w3.org/2000/svg"><mask id="a" mask-type="alpha" maskUnits="userSpaceOnUse" x="0" y="0" width="60" height="60"><circle cx="30" cy="30" r="30" fill="#CD7979"/></mask><g mask="url(#a)"><circle cx="30" cy="30" r="30" fill="#ECEEF2"/><path d="M31.145 21.509c.212.551-.153 1.151-.565 1.577-.412.425-.905.828-1.035 1.403-.107.484.072.986.029 1.48-.044.492-.317.957-.47 1.439-.281.873-.168 1.827.082 2.71a4.98 4.98 0 0 0 1.009 1.996 2.661 2.661 0 0 0 1.971.94.78.78 0 0 0 .584-.21.94.94 0 0 0 .167-.518 50.45 50.45 0 0 0 0-11.402M31.542 33.718c-1.637-.071-3.15 1.496-3.02 3.13-1.658.404-2.822 2.227-2.505 3.902.108.553.354 1.08.388 1.64.038.614-.188 1.21-.3 1.813a5.709 5.709 0 0 0 .328 3.266c.258.623.74 1.266 1.413 1.285a1.394 1.394 0 0 0 1.13-.664c.234-.394.389-.831.455-1.285.291-1.472.376-2.983.782-4.426.407-1.443 1.197-2.865 2.501-3.597.72-.407 1.586-.599 2.16-1.195a2.346 2.346 0 0 0 .423-2.427 3.093 3.093 0 0 0-1.843-1.722" fill="#1B2C49"/><path d="M42.873 22.858c.019-.7-.627-1.24-1.278-1.505-.65-.266-1.375-.354-1.955-.753-.515-.346-.86-.886-1.294-1.317a4.307 4.307 0 0 0-7.245 1.976c-.25.995-.079 2.173.706 2.835.91.768 2.258.597 3.43.358 1.172-.24 2.49-.475 3.464.212.587.412.926 1.086 1.285 1.709.36.622.81 1.257 1.489 1.492.679.235 1.603-.171 1.63-.888" fill="#1B2C49"/><path d="M40.114 23.001a1.17 1.17 0 0 1 1.044 1.19l-.697 15.805c-.03 1.866-2.759 2.914-4.757 2.867-2.02-.047-2.083-1.037-2.11-2.813-.04-2.965-.037-4.08-.039-4.062-.002.017-2.55-.43-3.07-3.763-.258-1.654-.17-4.367-.025-6.586.13-1.996 1.458-4.442 3.447-4.228l6.207 1.59z" fill="#FFDAC8"/><path d="M31.034 27.735a.427.427 0 0 0 .41.431.407.407 0 0 0 .44-.376.425.425 0 0 0-.41-.431.407.407 0 0 0-.44.376zM31.045 27.058c.053.056.376-.189.835-.189.46 0 .796.234.847.177.025-.024-.03-.126-.177-.233a1.165 1.165 0 0 0-.675-.209 1.129 1.129 0 0 0-.666.213c-.141.11-.19.216-.164.24zM35.446 27.735a.427.427 0 0 0 .41.431.406.406 0 0 0 .44-.376.425.425 0 0 0-.41-.431.406.406 0 0 0-.44.376zM35.55 27.154c.052.056.376-.189.835-.189.46 0 .796.234.845.177.024-.024-.028-.126-.175-.233a1.17 1.17 0 0 0-1.342.004c-.131.114-.18.216-.163.24zM33.884 30.555c0-.026-.282-.075-.752-.135-.117-.013-.228-.038-.249-.117a.614.614 0 0 1 .08-.348l.35-.892c.483-1.27.835-2.314.782-2.333-.053-.019-.485.996-.969 2.258l-.335.898a.69.69 0 0 0-.062.459.297.297 0 0 0 .188.173.735.735 0 0 0 .188.026c.49.034.778.038.78.011z" fill="#1B2C49"/><path d="M33.555 35.99a8.467 8.467 0 0 0 4.46-1.18s-1.086 2.284-4.417 1.964l-.043-.785zM34.076 31.662a.826.826 0 0 1 .753-.305.753.753 0 0 1 .521.28.478.478 0 0 1 .034.548.551.551 0 0 1-.602.15 1.72 1.72 0 0 1-.585-.352.5.5 0 0 1-.132-.135.152.152 0 0 1 0-.171" fill="#EB996E"/><path d="M35.235 30.88c-.075 0-.077.494-.504.846s-.958.297-.962.376c0 .032.119.098.343.104a1.24 1.24 0 0 0 .803-.277c.218-.177.357-.432.39-.71.02-.221-.036-.34-.07-.34zM35.361 26.348c.046.126.505.068 1.043.134.538.066.974.214 1.046.102.032-.053-.043-.172-.218-.292a1.828 1.828 0 0 0-1.592-.188c-.205.088-.305.186-.279.244zM31.222 25.73c.08.103.397 0 .779 0s.702.07.775-.038c.034-.053-.017-.157-.158-.256a1.13 1.13 0 0 0-1.251.035c-.145.1-.185.207-.145.258z" fill="#1B2C49"/><path d="M42.438 33.948a2.952 2.952 0 0 1-3.515-3.257c.104-.818.544-1.648.26-2.423-.376-1.022-1.808-1.336-2.188-2.358-.22-.593-.023-1.287-.273-1.868-.235-.546-.811-.86-1.372-1.064-.56-.203-1.159-.342-1.63-.707-.47-.365-.761-1.054-.459-1.567 2.486.298 4.926.89 7.271 1.766.544.204 1.114.448 1.436.93.338.512.321 1.17.293 1.784-.14 2.988.316 5.786.177 8.774" fill="#1B2C49"/><path d="M43.23 33.011a.69.69 0 0 0 .207-.092c.184-.119.328-.289.414-.49.142-.316.18-.67.11-1.01a3.214 3.214 0 0 0-.605-1.21c-.291-.406-.662-.818-.914-1.343a2.07 2.07 0 0 1-.22-.858c.01-.317.074-.63.188-.926.127-.32.194-.66.197-1.005a2.258 2.258 0 0 0-1.081-1.817 2.59 2.59 0 0 0-1.098-.313 4.62 4.62 0 0 1-1.096-.188 1.431 1.431 0 0 1-.772-.694 5.324 5.324 0 0 1-.365-.982 5.316 5.316 0 0 0-.376-.941 3.558 3.558 0 0 0-1.248-1.402 2.698 2.698 0 0 0-1.578-.41c-.46.024-.9.204-1.244.51-.257.23-.449.526-.555.854-.07.206-.096.424-.077.64.004.075.016.15.037.222 0 0-.013-.077-.019-.224a1.665 1.665 0 0 1 .095-.627 1.953 1.953 0 0 1 1.766-1.305c.54-.024 1.076.119 1.532.41.52.341.938.815 1.212 1.373.152.301.274.616.365.941.092.345.218.68.376 1 .087.165.201.315.337.443.14.13.305.23.485.296.367.113.746.18 1.13.2.37.019.731.12 1.057.298a2.16 2.16 0 0 1 1.036 1.735 2.762 2.762 0 0 1-.188.975c-.12.305-.186.628-.197.956.012.31.092.614.233.892.264.538.638.94.931 1.349.284.345.49.748.606 1.18.075.328.044.672-.088.982a1.13 1.13 0 0 1-.392.49c-.126.065-.203.084-.2.091z" fill="#455A64"/><path d="M33.56 18.502a.306.306 0 0 0-.129.04 1.329 1.329 0 0 0-.314.188 1.613 1.613 0 0 0-.085 2.476c.068.056.11.08.113.075a4.69 4.69 0 0 1-.3-.376 1.623 1.623 0 0 1 .315-2.113c.128-.105.262-.201.4-.29zM26.189 41.339a2.808 2.808 0 0 1-.096-.354 1.63 1.63 0 0 1 .163-.958 2.222 2.222 0 0 1 1.05-.978c.263-.124.537-.222.819-.292.293-.075.604-.137.914-.239.313-.085.6-.242.841-.459.216-.215.355-.495.397-.797.051-.28.068-.546.13-.783.056-.22.16-.424.303-.599.21-.256.49-.446.805-.547.224-.068.358-.068.358-.08a.496.496 0 0 0-.096 0c-.092.007-.183.022-.273.044-.33.091-.625.28-.847.54a1.59 1.59 0 0 0-.329.623c-.068.246-.088.515-.141.786-.039.286-.171.55-.376.753-.231.205-.506.354-.804.435-.303.098-.613.162-.909.239-.285.07-.563.17-.828.297A2.258 2.258 0 0 0 26.198 40c-.15.308-.2.656-.14.995.019.09.047.178.085.261.013.03.028.057.046.083z" fill="#455A64"/><path d="M40.662 35.446c1.693-.452 3.142-2.102 3.733-3.745.59-1.642.59-3.436.438-5.174-.109-1.259-.33-2.591-1.166-3.54-1.26-1.43-2.635-2.16-4.531-2.1" fill="#1B2C49"/><path d="m30.821 39.115 1.571-.396a.894.894 0 0 1-.312-1.095 1.44 1.44 0 0 1 1.2-.89l7.162-.809a.565.565 0 0 1 .6.354c.317.808.328 1.473.032 1.995h.034l1.38.274 2.342 20.649-15.332-.717 1.323-19.365z" fill="#F5F5F5"/><path d="M33.075 38.799c.094.028.19.046.288.056.188.03.457.063.792.096 1.753.163 3.52.075 5.248-.261.331-.066.596-.126.779-.175a1.53 1.53 0 0 0 .28-.083 1.65 1.65 0 0 0-.288.047c-.188.036-.453.087-.784.143a21.724 21.724 0 0 1-5.23.26 24.629 24.629 0 0 1-.793-.066 1.858 1.858 0 0 0-.292-.017z" fill="#1B2C49"/><path d="M40.005 42.08a5.624 5.624 0 0 0-.536-.892 5.562 5.562 0 0 0-.619-.837c.151.313.331.612.538.892.179.298.386.578.617.837zM35.064 42.43c.478-.49.909-1.026 1.285-1.599-.25.235-.478.492-.68.77-.229.256-.43.534-.605.83zM37.36 45.055c.108-.335.185-.679.231-1.027.078-.343.123-.693.134-1.045a5.744 5.744 0 0 0-.232 1.028c-.076.343-.12.693-.133 1.044zM33.587 45.217c.266.33.556.64.87.925.29.31.605.596.94.857a8.254 8.254 0 0 0-.87-.926 8.553 8.553 0 0 0-.94-.856zM38.647 48.736a4.363 4.363 0 0 0 1.631-1.73c-.026-.017-.314.435-.768.911-.453.476-.882.794-.863.819zM37.02 51.453c0 .028.43.165.927.43.496.266.86.544.878.52a2.738 2.738 0 0 0-.833-.608 2.682 2.682 0 0 0-.971-.342zM34.377 51.627c.112-.095.213-.203.3-.322a14.568 14.568 0 0 0 1.23-1.723c.084-.12.154-.25.207-.388-.1.108-.189.225-.265.35l-.608.866-.62.854a2.074 2.074 0 0 0-.244.363zM34.112 53.946c.366.128.744.216 1.129.263.38.08.769.118 1.157.115a9.088 9.088 0 0 0-1.142-.21 9.721 9.721 0 0 0-1.144-.168zM38.393 38.507c.013 0-.078-.113-.155-.312a1.659 1.659 0 0 1-.082-.817c.046-.277.128-.547.242-.803.056-.105.099-.216.128-.331-.078.09-.142.192-.188.303-.137.255-.23.53-.276.816a1.53 1.53 0 0 0 .114.86.607.607 0 0 0 .217.284zM35.529 36.96a1.714 1.714 0 0 0-.303 1.295c.028 0 .032-.3.117-.655.084-.355.206-.625.186-.64z" fill="#E0E0E0"/><path d="M22.612 51.673 15.48 39.147l-.86-2.173s-2.224-4.78-2.379-5.269c-.178-.564-.493-.61-.696-.53-.316.126-.418.596-.278 1.083.049.168.912 2.794.912 2.794a6.295 6.295 0 0 0-.737-.547c-.548-.376-1.55-.358-2.48-.026-.93.33-1.16.506-1.048.87a.486.486 0 0 0 .299.296.941.941 0 0 0 .687.015c1.494-.508 2.156.166 2.156.166l.11.284s-1.128-.36-1.76.149a.941.941 0 0 0-.234.27 1.236 1.236 0 0 0-.457 2.082.513.513 0 0 0 .565.143.63.63 0 0 0 .212-.247c.03-.05.066-.097.104-.141l.425.753s1.048 1.637 1.424 2.402l4.911 13.083a3.463 3.463 0 0 0 6.694-1.527 3.464 3.464 0 0 0-.44-1.404z" fill="#FFDAC8"/><path d="M14.99 39.104c-.253.165-.6.052-.827-.143-.225-.196-.376-.465-.594-.678-.634-.634-1.694-.694-2.301-1.358-.085-.092-.16-.234-.087-.335.073-.102.209-.083.322-.06l2.918.577" fill="#FFDAC8"/><path d="M14.421 37.107a1.249 1.249 0 0 0-.308-.094c-.202-.05-.495-.117-.856-.188l-1.272-.27-.377-.076a.595.595 0 0 0-.446.015.252.252 0 0 0-.094.265c.02.08.058.153.113.215.098.108.209.206.33.29.485.336 1.017.473 1.443.697.202.096.389.223.553.377.15.145.269.31.393.451a1.05 1.05 0 0 0 .773.435c.224 0 .316-.111.309-.113a.875.875 0 0 1-.305.047 1.02 1.02 0 0 1-.685-.446 6.07 6.07 0 0 0-.386-.474 2.275 2.275 0 0 0-.581-.418c-.438-.237-.969-.376-1.417-.696a1.906 1.906 0 0 1-.297-.262c-.083-.092-.111-.203-.053-.235.059-.032.188-.017.318.01l.377.07 1.279.234c.365.064.66.113.866.143.106.025.215.032.323.023zM11.207 36.114a1.213 1.213 0 0 0-.335-.452.941.941 0 0 0-.564-.188c-.256.001-.51.043-.753.124a3.824 3.824 0 0 1-.764.173 1.23 1.23 0 0 1-.64-.098.488.488 0 0 1-.272-.342.305.305 0 0 1 0-.16c.011 0 .011.056.04.15a.457.457 0 0 0 .263.283c.191.07.397.094.6.067.252-.04.5-.102.741-.188.252-.082.515-.123.78-.12a.993.993 0 0 1 .607.226.862.862 0 0 1 .254.355c.047.111.05.168.043.17zM11.217 32.07c.074.169.133.343.177.522.11.36.242.79.39 1.264.146.474.29.9.407 1.259.069.17.12.346.157.527a2.67 2.67 0 0 1-.23-.5 20.295 20.295 0 0 1-.44-1.252c-.158-.499-.28-.941-.36-1.278a2.62 2.62 0 0 1-.101-.542zM10.805 36.9a.605.605 0 0 1-.173 0 .51.51 0 0 0-.41.11.277.277 0 0 0-.066.263c.03.115.075.227.133.331.075.131.1.285.07.433a.528.528 0 0 1-.335.337.594.594 0 0 1-.469-.047.732.732 0 0 1-.31-.303 2.421 2.421 0 0 1-.207-.678 1.387 1.387 0 0 1 0-.476.309.309 0 0 1 .066-.161c.01 0-.015.06-.025.167-.008.154.006.307.04.457.044.223.118.438.218.642a.589.589 0 0 0 .655.295.418.418 0 0 0 .267-.263.519.519 0 0 0-.058-.36 1.554 1.554 0 0 1-.132-.359.358.358 0 0 1 .103-.333.536.536 0 0 1 .47-.098.52.52 0 0 1 .163.043z" fill="#EB996E"/><path d="M9.574 38.217s.036.05.032.155a.476.476 0 0 1-.218.367.637.637 0 0 1-.634 0 1.037 1.037 0 0 1-.478-.61 1.253 1.253 0 0 1 0-.775 1.196 1.196 0 0 1 .711-.745.345.345 0 0 1 .153-.034 2.038 2.038 0 0 0-.463.308 1.18 1.18 0 0 0-.298 1.212.97.97 0 0 0 .424.555.565.565 0 0 0 .544.015.457.457 0 0 0 .218-.306c.019-.083 0-.142.01-.142zM11.949 39.4a.45.45 0 0 1 .252-.078c.23-.022.46.033.655.156l-.081.055a3.04 3.04 0 0 1-.053-.377c-.066-.726.166-1.286.188-1.271-.072.416-.1.84-.08 1.262.008.12.024.24.046.36l.023.122-.103-.07a1.088 1.088 0 0 0-.593-.177c-.156.004-.25.03-.254.017zM10.464 34.936c.03 0-.011.226-.21.399-.2.173-.424.188-.424.156s.179-.086.35-.239c.171-.152.254-.327.284-.316z" fill="#EB996E"/><path d="m32.727 62.066-7.46.074 1.25-5.413-.419 1.021a5.139 5.139 0 0 1-4.755 3.19c-2.359 0-3.99-1.756-4.988-3.893-2.333-4.998-4.581-13.046-4.581-13.046l4.548-3.996a449.388 449.388 0 0 0 6.386 11.636s.893-2.715 1.584-5.139c.69-2.423.685-3.695 1.744-4.903 1.632-1.86 3.952-2.32 6.112-2.877l.08 10.055.5 13.291z" fill="#FF7D2F"/><path d="m41.264 54.587-13.585 2.634-.66 5.22h20.829a4.101 4.101 0 0 0 4.14-4.426c-.3-3.804-.626-8.49-.874-10.47-.188-1.546-.809-3.143-1.537-4.517-1.052-1.979-4.557-4.515-7.63-4.647l-.581 12.94" fill="#FF7D2F"/><path d="M43.851 54.2a.527.527 0 0 0 0-.125v-1.672c0-1.105.02-2.634.105-4.315.044-.843.098-1.644.157-2.37a9.729 9.729 0 0 1 .272-1.912c.108-.418.313-.805.599-1.13.11-.112.227-.219.35-.32a1.457 1.457 0 0 0-.386.289 2.653 2.653 0 0 0-.638 1.142 9.439 9.439 0 0 0-.293 1.93 66.182 66.182 0 0 0-.241 6.7c.011.554.026 1.002.04 1.318l.02.355c0 .037.006.074.015.11z" fill="#1B2C49"/><path d="M27.942 57.598c.144-.158.31-.294.495-.4.22-.12.453-.213.694-.278.28-.08.61-.142.973-.216 1.453-.297 3.457-.71 5.677-1.129 2.22-.42 4.241-.753 5.703-.986l1.733-.276.47-.08c.056-.006.11-.018.164-.033a.969.969 0 0 0-.165.015l-.474.06a158.598 158.598 0 0 0-7.447 1.204c-2.223.416-4.227.837-5.674 1.15-.363.079-.692.147-.975.233-.244.07-.479.17-.698.297a1.504 1.504 0 0 0-.455.398.169.169 0 0 0-.02.04z" fill="#1B2C49"/><path d="M43.81 54.2c0 .017.25.075.638.233.226.093.446.202.658.324.257.153.502.325.732.515.224.195.433.406.625.632.157.187.302.385.433.591.222.356.323.597.34.59a.706.706 0 0 0-.058-.176 3.823 3.823 0 0 0-.222-.45 4.847 4.847 0 0 0-2.491-2.092 3.475 3.475 0 0 0-.482-.141.626.626 0 0 0-.173-.026zM26.268 57.451a.799.799 0 0 0 .028-.13c.015-.094.036-.218.06-.376.053-.326.122-.796.201-1.38a103.031 103.031 0 0 0 .822-9.152c.027-.587.042-1.063.05-1.392v-.376a.707.707 0 0 0 0-.132.561.561 0 0 0-.015.132l-.025.376-.08 1.389c-.07 1.174-.18 2.794-.34 4.58-.16 1.785-.342 3.4-.483 4.566l-.17 1.383c-.016.156-.031.28-.043.377a.54.54 0 0 0-.005.135zM21.763 55.428s.043-.041.11-.124c.09-.12.174-.246.25-.376a4.958 4.958 0 0 0 .668-2.853c-.01-.15-.03-.299-.06-.446a.628.628 0 0 0-.042-.16c-.017 0 .019.234.032.61a5.611 5.611 0 0 1-.659 2.822c-.177.326-.314.516-.299.527z" fill="#1B2C49"/><path d="M43.906 47.208s.024.009.07.015c.067.01.136.017.204.02.253.01.505-.01.753-.06a5.364 5.364 0 0 0 1.07-.335c.39-.162.804-.376 1.237-.585a9.28 9.28 0 0 1 1.255-.52 4.26 4.26 0 0 1 1.08-.212c.34-.011.68.028 1.01.115a.23.23 0 0 0-.066-.03 1.307 1.307 0 0 0-.188-.066 2.579 2.579 0 0 0-.752-.087 4.105 4.105 0 0 0-1.107.188c-.436.14-.86.316-1.268.523-.434.215-.845.426-1.229.59-.337.15-.69.267-1.05.35-.335.068-.677.1-1.02.094zM41.57 46.75c.362.11.732.19 1.107.238.371.08.75.128 1.129.14a6.718 6.718 0 0 0-1.106-.236 6.31 6.31 0 0 0-1.13-.142zM43.99 50.788c.087.049.178.089.273.119.179.07.44.163.766.269a19.752 19.752 0 0 0 4.062.844c.4.052.806.063 1.208.032a2.07 2.07 0 0 0 .783-.223c.066-.035.13-.075.188-.12a.295.295 0 0 0 .059-.053s-.09.058-.262.139c-.244.11-.506.174-.773.188-.398.02-.797.003-1.191-.053-.45-.05-.941-.118-1.455-.209a23.924 23.924 0 0 1-2.596-.611c-.328-.098-.591-.188-.774-.24a2.014 2.014 0 0 0-.288-.082zM41.633 51.78c.339.054.682.076 1.025.066.342.022.686.01 1.026-.032a5.509 5.509 0 0 0-1.026-.066 5.465 5.465 0 0 0-1.025.032zM51.315 60.352a.371.371 0 0 0-.02-.101l-.076-.282-.056-.204c-.024-.073-.056-.15-.086-.235a5.747 5.747 0 0 0-.234-.564l-.152-.322c-.055-.113-.124-.222-.188-.339a8.308 8.308 0 0 0-.463-.717 8.575 8.575 0 0 0-2.93-2.55 8.221 8.221 0 0 0-.775-.358c-.126-.048-.243-.102-.361-.14l-.341-.107a5.315 5.315 0 0 0-.595-.152c-.088-.02-.169-.04-.244-.053l-.21-.028-.29-.036a.346.346 0 0 0-.102 0c.032.012.065.02.1.024l.285.055.207.036.243.06c.173.047.377.086.585.166l.335.112c.117.04.234.095.356.143.26.108.515.23.764.364a9.587 9.587 0 0 1 1.59 1.102c.485.428.926.904 1.317 1.42.17.245.337.475.465.706.066.115.135.222.188.333l.158.316c.107.2.173.392.244.565.032.083.066.16.093.231l.066.2.092.276a.402.402 0 0 0 .035.08zM41.88 54.572c.314.274.575.603.77.971.206.403.352.833.433 1.278.098.547.16 1.099.189 1.654.023.558.086 1.115.188 1.665.092.45.251.885.472 1.289.148.27.338.515.564.724a1.598 1.598 0 0 0 .273.202 3.303 3.303 0 0 1-.786-.96 4.688 4.688 0 0 1-.444-1.272 12.25 12.25 0 0 1-.188-1.654 12.22 12.22 0 0 0-.189-1.667 4.592 4.592 0 0 0-.459-1.29 2.915 2.915 0 0 0-.564-.735 1.867 1.867 0 0 0-.26-.205zM38.667 62.473c.027 0 0-1.622-.07-3.62-.069-1.999-.14-3.619-.167-3.619-.026 0 0 1.622.07 3.622.07 2 .141 3.619.167 3.617zM33.56 62.194c.036-.075.064-.154.084-.235a2.87 2.87 0 0 0 .077-.282c.024-.111.058-.237.079-.376.058-.332.092-.668.1-1.005a7.057 7.057 0 0 0-.377-2.437 6.772 6.772 0 0 0-.397-.93c-.062-.13-.132-.238-.188-.336a2.485 2.485 0 0 0-.158-.247 1.113 1.113 0 0 0-.149-.199c-.017.01.188.301.435.815a7.389 7.389 0 0 1 .675 4.328c-.094.56-.2.899-.18.904zM42.233 41.4c0 .014.297-.115.787-.273a8.93 8.93 0 0 1 3.95-.35c.509.07.82.148.823.131a.848.848 0 0 0-.212-.07 5.46 5.46 0 0 0-.599-.13 8 8 0 0 0-3.985.353c-.192.067-.38.145-.565.231a.921.921 0 0 0-.199.107zM27.368 49.319c.233.012.466.008.698-.012a102.446 102.446 0 0 1 3.365-.083c.233.008.466 0 .698-.024a.846.846 0 0 0-.188-.023c-.12 0-.296-.017-.512-.022a31.088 31.088 0 0 0-1.684 0 31.75 31.75 0 0 0-1.694.086c-.214.017-.387.032-.508.047a.825.825 0 0 0-.175.03zM23.654 48.605c0 .017.235.098.602.279a5.89 5.89 0 0 1 2.352 2.096c.222.344.33.574.345.565a.54.54 0 0 0-.06-.17 3.817 3.817 0 0 0-.227-.434 5.32 5.32 0 0 0-2.38-2.122 3.987 3.987 0 0 0-.457-.174.687.687 0 0 0-.175-.04zM25.487 42.575c.324-.01.647.034.956.134.333.116.655.26.965.429.382.212.78.391 1.193.536a4.86 4.86 0 0 0 2.358.153c.236-.043.468-.106.694-.189.084-.026.166-.061.242-.105 0-.019-.353.13-.94.226a5.053 5.053 0 0 1-2.316-.179 8.499 8.499 0 0 1-1.184-.523 5.956 5.956 0 0 0-.984-.414 2.217 2.217 0 0 0-.715-.104 1.335 1.335 0 0 0-.27.036zM26.426 55.185a.979.979 0 0 0 .218.104c.072.03.16.066.265.1.106.033.224.079.358.112.315.088.635.155.96.2.396.051.796.072 1.196.062.4-.015.798-.06 1.191-.133.32-.065.634-.151.94-.258.135-.042.25-.093.35-.134a5.03 5.03 0 0 0 .26-.115 1.13 1.13 0 0 0 .213-.116c0-.017-.318.133-.845.299a7.862 7.862 0 0 1-3.3.305 7.907 7.907 0 0 1-.952-.177c-.53-.136-.849-.265-.854-.249zM22.102 60.755a.39.39 0 0 0 .073-.06c.043-.043.115-.102.188-.188.227-.243.427-.51.595-.798a6.5 6.5 0 0 0 .84-3.152 12.682 12.682 0 0 0-.428-3.249 19.422 19.422 0 0 0-.258-.958l-.079-.258c-.02-.07-.03-.09-.034-.088 0 .031.006.062.015.092.015.072.036.158.06.264l.228.965c.26 1.057.392 2.14.393 3.229a6.663 6.663 0 0 1-.792 3.114c-.16.287-.35.557-.564.807-.149.18-.243.273-.237.28zM15.255 54.365c.3-.238.636-.429.995-.564.393-.136.795-.241 1.204-.315.508-.085 1.01-.2 1.506-.344a6.18 6.18 0 0 0 2.384-1.434 5.69 5.69 0 0 0 .564-.634c.062-.079.104-.145.134-.188.03-.043.043-.068.04-.07-.074.074-.142.152-.204.234-.18.215-.375.418-.581.608a6.385 6.385 0 0 1-2.366 1.39c-.49.143-.986.26-1.488.35a7.71 7.71 0 0 0-1.212.337c-.266.1-.516.24-.741.414a1.5 1.5 0 0 0-.173.152c-.047.041-.066.062-.062.064zM13.102 48.087c.073-.052.14-.11.201-.176.063-.058.138-.13.232-.208.094-.08.188-.173.316-.264a8.762 8.762 0 0 1 4.326-1.852c.15-.024.288-.033.408-.044.12-.012.226-.021.31-.025.09 0 .178-.008.266-.024a1.28 1.28 0 0 0-.265-.014 3.166 3.166 0 0 0-.315 0c-.12 0-.261.01-.414.03a8.15 8.15 0 0 0-1.063.189c-.428.11-.848.25-1.257.421a8.929 8.929 0 0 0-1.17.617 8.095 8.095 0 0 0-.871.642 3.61 3.61 0 0 0-.309.279c-.077.07-.15.144-.22.221a1.267 1.267 0 0 0-.175.208zM29.566 39.45c.11.073.23.131.358.171.296.116.602.21.912.282.31.073.624.123.941.15.13.02.264.02.395 0 0-.03-.596-.078-1.317-.25-.72-.17-1.278-.381-1.289-.353z" fill="#FAFAFA"/><path d="M22.892 65.95a.524.524 0 1 0 1.005.288l.16-.59h-.025a.548.548 0 0 0 .612.645c.246 0 .459-.36.53-.55a1.024 1.024 0 0 0 .956-.459l1.105-1.723 2.045-1.496-1.238-4.42-4.401 2.849c-.173.135-.2.188-.474.446l-2.841 2.613c.321.188.594.179 1.042 0 .448-.178 2.408-1.505 2.408-1.505l-.884 3.885" fill="#FFDAC8"/><path d="M21.098 26.097a.02.02 0 0 0 .015-.015l-.015.015zm0 0a.02.02 0 0 1-.02-.008.02.02 0 0 1-.003-.01m.023.018-.023-.019m0 0c0-.002 0-.005.002-.007a.019.019 0 0 1 .01-.01.02.02 0 0 1 .018.001.02.02 0 0 1 .008.02l-.038-.004zM19.033 26.078a.02.02 0 1 1-.039 0 .02.02 0 0 1 .04 0zM16.851 26.079a.019.019 0 0 1 .008-.017.019.019 0 0 1 .006-.003h.008c.002 0 .005 0 .007.002l.247-.427-.247.427a.02.02 0 0 1 .008.008.02.02 0 0 1 .002.011.019.019 0 0 1-.005.01l.376.33-.376-.33a.019.019 0 0 1-.01.006l.127.473-.127-.473a.02.02 0 0 1-.01 0 .02.02 0 0 1-.01-.007.018.018 0 0 1-.004-.01zM24.341 31.34l-.115-.42-.277-1.01.392 1.43zm0 0-.155-.063m-1.283.168.91.365-.045-.162-.728-.293-.137.09z" fill="#455A64" stroke="#000"/><g clip-path="url(#b)"><path d="M14.247 13.59a.923.923 0 0 1 .01-.886l1.645-2.96.104-.198-.52-.938a.4.4 0 0 0-.136-.156c-.114-.083-.25-.083-.374 0a.664.664 0 0 0-.136.156l-2.35 4.294c-.178.281 0 .698.27.698l1.487-.01c.01.01.01 0 0 0z" fill="#FF7D2F"/><path d="m19.99 12.902-2.382-4.283a.4.4 0 0 0-.135-.157c-.114-.083-.25-.083-.375 0a.664.664 0 0 0-.135.157l-.52.938.104.198 1.644 2.96c.156.26.166.604.01.885v.01H19.7c.292-.01.458-.427.292-.708z" fill="#418CCF"/><path d="m16.953 13.298-.708-1.282-.718 1.282c-.073.114 0 .302.115.302h1.186c.125 0 .197-.177.125-.302z" fill="#FF7D2F"/><path d="M30.062 9.973c.365 0 .687.115.958.323.083.063.145.053.187-.041l.01-.042c.052-.125.146-.26.27-.26h.24c.146 0 .24.166.24.312v3.095c0 .146-.084.24-.24.24h-.198c-.124 0-.218-.052-.27-.177l-.031-.063c-.042-.083-.104-.177-.177-.104-.25.208-.572.334-.957.334-1.155 0-1.904-.75-1.904-1.824 0-1.021.77-1.793 1.872-1.793zm.073 2.72a.885.885 0 0 0 .718-.375.294.294 0 0 0 .042-.156v-.73a.245.245 0 0 0-.052-.166.871.871 0 0 0-.708-.365c-.478 0-.843.386-.843.886 0 .49.344.906.843.906zM33.88 10.203v3.168c0 .146-.082.24-.238.24h-.604c-.145 0-.24-.084-.24-.24v-3.168c0-.146.084-.24.24-.24h.604c.156.01.239.094.239.24zM34.734 13.371v-3.095c0-.146.083-.24.24-.24h.28c.136 0 .219.063.27.178l.011.041c.042.104.125.136.23.073.384-.24.759-.365 1.268-.365.78 0 1.239.532 1.239 1.46v1.938c0 .146-.084.24-.24.24h-.603c-.146 0-.24-.084-.24-.24v-1.876c0-.334-.176-.573-.52-.573-.25 0-.52.125-.76.27a.226.226 0 0 0-.103.199v1.98c0 .146-.083.24-.24.24h-.593c-.156.01-.239-.074-.239-.23zM38.792 10.724v-.438c0-.146.083-.312.24-.312h.218c.052 0 .083-.032.083-.084v-.104c0-.844.468-1.396 1.27-1.396.218 0 .447.041.624.093.135.032.187.146.176.271l-.052.428c-.02.166-.114.218-.27.177a.856.856 0 0 0-.27-.042c-.25 0-.406.198-.406.448v.104c0 .053.03.084.083.084h.593c.146 0 .24.167.24.312v.438c0 .146-.084.24-.24.24h-.593c-.052 0-.083.031-.083.083v2.345c0 .146-.084.24-.24.24h-.603c-.146 0-.24-.084-.24-.24v-2.334c0-.053-.03-.084-.083-.084h-.218c-.136 0-.23-.083-.23-.229zm4.411-.521v3.095c0 .146-.083.302-.239.302h-.603c-.146 0-.24-.156-.24-.302v-3.095c0-.146.084-.24.24-.24h.603c.156.01.24.094.24.24zM44.046 13.371v-3.168c0-.146.084-.24.24-.24h.28c.136 0 .219.063.271.178l.01.041c.042.104.125.209.23.146.384-.24.759-.365 1.269-.365.78 0 1.238.532 1.238 1.46v1.938c0 .146-.083.24-.24.24h-.603c-.146 0-.24-.084-.24-.24v-1.876c0-.334-.176-.573-.52-.573-.25 0-.52.125-.759.27a.226.226 0 0 0-.104.199v1.98c0 .146-.083.24-.24.24h-.592c-.146.01-.24-.074-.24-.23zM21.27 13.37v-3.094c0-.156.094-.24.24-.24h.25c.135 0 .228.052.28.177l.032.063c.052.104.135.135.229.073.395-.24.78-.375 1.31-.375.396 0 .708.135.927.385.072.084.145.094.239.042.426-.271.832-.427 1.384-.427.8 0 1.269.541 1.269 1.49v1.917c0 .157-.094.24-.24.24h-.613c-.156 0-.24-.094-.24-.24v-1.855c0-.344-.176-.604-.54-.604-.271 0-.562.146-.802.302-.083.052-.114.094-.114.156V13.371c0 .156-.094.24-.24.24h-.613c-.156 0-.24-.094-.24-.24v-1.845c0-.354-.197-.594-.54-.594-.25 0-.542.136-.781.292-.073.052-.114.115-.114.209v1.948c0 .157-.094.24-.24.24H21.5c-.145-.01-.229-.104-.229-.25z" fill="#1B2C49"/></g></g><defs><clipPath id="b"><path fill="#fff" transform="translate(12 8.4)" d="M0 0h36v5.211H0z"/></clipPath></defs></svg>