<svg width="60" height="60" fill="none" xmlns="http://www.w3.org/2000/svg"><path d="M26.25 37.5C36.59 37.5 45 29.09 45 18.75S36.59 0 26.25 0C15.911 0 7.5 8.41 7.5 18.75S15.911 37.5 26.25 37.5zm0-35c8.96 0 16.25 7.29 16.25 16.25S35.21 35 26.25 35 10 27.71 10 18.75 17.29 2.5 26.25 2.5z" fill="#1B2C49"/><path d="M51.25 47.5c-.69 0-1.25.56-1.25 1.25v6.987l-16.616-16.62a1.25 1.25 0 0 0-1.768 0L22.5 48.231 9.634 35.366a1.25 1.25 0 1 0-1.768 1.768l13.75 13.75a1.25 1.25 0 0 0 1.768 0l9.116-9.117L48.228 57.5H41.25a1.25 1.25 0 1 0 0 2.5h10c.691 0 1.25-.56 1.25-1.25v-10c0-.69-.559-1.25-1.25-1.25zM21.25 20c0 .691.56 1.25 1.25 1.25H25V25a1.25 1.25 0 1 0 2.5 0v-3.75H30a1.25 1.25 0 1 0 0-2.5h-1.727l2.846-5.69a1.251 1.251 0 0 0-2.237-1.12l-2.632 5.265-2.631-5.264a1.25 1.25 0 0 0-2.237 1.118l2.846 5.691H22.5c-.69 0-1.25.56-1.25 1.25z" fill="#1B2C49"/></svg>