<svg width="60" height="60" fill="none" xmlns="http://www.w3.org/2000/svg"><g clip-path="url(#a)" fill="#1B2C49"><path d="M54.545 0H5.455A5.46 5.46 0 0 0 0 5.455v27.272a5.46 5.46 0 0 0 5.455 5.455h19.09v16.363c0 3.748 7.775 5.455 15 5.455 7.226 0 15-1.707 15-5.455V38.182A5.46 5.46 0 0 0 60 32.727V5.455A5.46 5.46 0 0 0 54.545 0zM2.727 5.455a2.73 2.73 0 0 1 2.727-2.728h5.317a9.511 9.511 0 0 1-8.044 8.044V5.455zm2.728 30a2.73 2.73 0 0 1-2.728-2.728v-5.316a9.511 9.511 0 0 1 8.044 8.044H5.455zm34.09 21.818c-7.979 0-12.067-1.991-12.272-2.728v-4.87c2.901 1.455 7.694 2.143 12.272 2.143 4.58 0 9.373-.688 12.274-2.144l.002 4.852c-.208.756-4.296 2.747-12.276 2.747zm0-8.182c-7.979 0-12.067-1.99-12.272-2.727v-4.872c2.901 1.456 7.694 2.145 12.272 2.145 4.58 0 9.373-.689 12.274-2.145l.002 4.852c-.208.756-4.296 2.747-12.276 2.747zM27.273 38.205v-.007c.02-.071.106-.162.196-.253.104-.067.202-.135.284-.226 1.266-.899 5.167-2.264 11.792-2.264 6.62 0 10.523 1.364 11.792 2.263.079.088.173.153.271.218.088.087.18.176.205.246-.274.77-4.36 2.727-12.268 2.727-7.969 0-12.055-1.985-12.272-2.704zm30-5.478a2.73 2.73 0 0 1-2.728 2.728h-1.743c-.842-.58-1.941-1.066-3.225-1.456a9.457 9.457 0 0 1 7.696-6.605v5.333zm0-8.06c-4.9.547-8.955 3.96-10.34 8.7-2.298-.428-4.872-.64-7.387-.64-5.15 0-10.563.873-13.257 2.728H13.5A12.21 12.21 0 0 0 2.727 24.683V13.5A12.21 12.21 0 0 0 13.5 2.726H46.5a12.21 12.21 0 0 0 10.772 10.771v11.17zm0-13.896a9.511 9.511 0 0 1-8.044-8.044h5.316a2.73 2.73 0 0 1 2.728 2.727v5.317z"/><path d="M34.09 19.09h-1.883l3.104-6.207a1.365 1.365 0 0 0-.61-1.83 1.37 1.37 0 0 0-1.83.61L30 17.405l-2.871-5.742a1.365 1.365 0 0 0-2.44 1.22l3.104 6.208H25.91a1.363 1.363 0 1 0 0 2.727h2.727v4.091a1.363 1.363 0 1 0 2.728 0v-4.09h2.727a1.363 1.363 0 1 0 0-2.728zM13.636 21.818a2.727 2.727 0 1 0 0-5.454 2.727 2.727 0 0 0 0 5.454zM46.364 21.818a2.727 2.727 0 1 0 0-5.454 2.727 2.727 0 0 0 0 5.454z"/></g><defs><clipPath id="a"><path fill="#fff" d="M0 0h60v60H0z"/></clipPath></defs></svg>