<svg width="139" height="20" fill="none" xmlns="http://www.w3.org/2000/svg"><g clip-path="url(#clip0)"><path d="M8.64 19.92c-.56-1.08-.56-2.4.04-3.4L15 5.16l.4-.76-2-3.6c-.12-.24-.32-.48-.52-.6-.44-.32-.96-.32-1.44 0-.2.16-.36.36-.52.6L1.88 17.28c-.68 1.08 0 2.68 1.04 2.68l5.72-.04c.04.04.04 0 0 0z" fill="#FF7D2F"/><path d="M30.72 17.28L21.56.84c-.12-.24-.32-.48-.52-.6-.44-.32-.96-.32-1.44 0-.2.16-.36.36-.52.6l-2 3.6.4.76 6.32 11.36c.6 1 .64 2.32.04 3.4V20h5.76c1.12-.04 1.76-1.64 1.12-2.72z" fill="#418CCF"/><path d="M19.04 18.8l-2.72-4.92-2.76 4.92c-.28.44 0 1.16.44 1.16h4.56c.48 0 .76-.68.48-1.16z" fill="#FF7D2F"/><path d="M69.44 6.04c1.4 0 2.64.44 3.68 1.24.32.24.56.2.72-.16l.04-.16c.2-.48.56-1 1.04-1h.92c.56 0 .92.64.92 1.2v11.88c0 .56-.32.92-.92.92h-.76c-.48 0-.84-.2-1.04-.68l-.12-.24c-.16-.32-.4-.68-.68-.4-.96.8-2.2 1.28-3.68 1.28-4.44 0-7.32-2.88-7.32-7 0-3.92 2.96-6.88 7.2-6.88zm.28 10.44c1.12 0 2.2-.6 2.76-1.44.12-.2.16-.4.16-.6v-2.8c0-.24-.04-.44-.2-.64-.56-.84-1.64-1.4-2.72-1.4-1.84 0-3.24 1.48-3.24 3.4 0 1.88 1.32 3.48 3.24 3.48zM84.12 6.92v12.16c0 .56-.32.92-.92.92h-2.32c-.56 0-.92-.32-.92-.92V6.92c0-.56.32-.92.92-.92h2.32c.6.04.92.36.92.92zM87.4 19.08V7.2c0-.56.32-.92.92-.92h1.08c.52 0 .84.24 1.04.68l.04.16c.16.4.48.52.88.28 1.48-.92 2.92-1.4 4.88-1.4 3 0 4.76 2.04 4.76 5.6v7.44c0 .56-.32.92-.92.92h-2.32c-.56 0-.92-.32-.92-.92v-7.2c0-1.28-.68-2.2-2-2.2-.96 0-2 .48-2.92 1.04-.28.2-.4.44-.4.76v7.6c0 .56-.32.92-.92.92h-2.28c-.6.04-.92-.28-.92-.88zM103 8.92V7.24c0-.56.32-1.2.92-1.2h.84c.2 0 .32-.12.32-.32v-.4c0-3.24 1.8-5.36 4.88-5.36.84 0 1.72.16 2.4.36.52.12.72.56.68 1.04l-.2 1.64c-.08.64-.44.84-1.04.68-.36-.12-.72-.16-1.04-.16-.96 0-1.56.76-1.56 1.72v.4c0 .2.12.32.32.32h2.28c.56 0 .92.64.92 1.2v1.68c0 .56-.32.92-.92.92h-2.28c-.2 0-.32.12-.32.32v9c0 .56-.32.92-.92.92h-2.32c-.56 0-.92-.32-.92-.92v-8.96c0-.2-.12-.32-.32-.32h-.84c-.52 0-.88-.32-.88-.88zm16.96-2V18.8c0 .56-.32 1.16-.92 1.16h-2.32c-.56 0-.92-.6-.92-1.16V6.92c0-.56.32-.92.92-.92h2.32c.6.04.92.36.92.92zM123.2 19.08V6.92c0-.56.32-.92.92-.92h1.08c.52 0 .84.24 1.04.68l.04.16c.16.4.48.8.88.56 1.48-.92 2.92-1.4 4.88-1.4 3 0 4.76 2.04 4.76 5.6v7.44c0 .56-.32.92-.92.92h-2.32c-.56 0-.92-.32-.92-.92v-7.2c0-1.28-.68-2.2-2-2.2-.96 0-2 .48-2.92 1.04-.28.2-.4.44-.4.76v7.6c0 .56-.32.92-.92.92h-2.28c-.56.04-.92-.28-.92-.88zM35.64 19.08V7.2c0-.6.36-.92.92-.92h.96c.52 0 .88.2 1.08.68l.12.24c.2.4.52.52.88.28 1.52-.92 3-1.44 5.04-1.44 1.52 0 2.72.52 3.56 1.48.28.32.56.36.92.16 1.64-1.04 3.2-1.64 5.32-1.64 3.08 0 4.88 2.08 4.88 5.72v7.36c0 .6-.36.92-.92.92h-2.36c-.6 0-.92-.36-.92-.92V12c0-1.32-.68-2.32-2.08-2.32-1.04 0-2.16.56-3.08 1.16-.32.2-.44.36-.44.6V19.08c0 .6-.36.92-.92.92h-2.36c-.6 0-.92-.36-.92-.92V12c0-1.36-.76-2.28-2.08-2.28-.96 0-2.08.52-3 1.12-.28.2-.44.44-.44.8v7.48c0 .6-.36.92-.92.92h-2.36c-.56-.04-.88-.4-.88-.96z" fill="#263042"/></g><defs><clipPath id="clip0"><path fill="#fff" d="M0 0h138.4v20H0z"/></clipPath></defs></svg>